<svg xmlns="http://www.w3.org/2000/svg" width="235" height="445" viewBox="0 0 235 445">
    <defs>
        <filter id="prefix__a" width="170.9%" height="132.6%" x="-35.5%" y="-16.3%" filterUnits="objectBoundingBox">
            <feOffset dy="2" in="SourceAlpha" result="shadowOffsetOuter1"/>
            <feGaussianBlur in="shadowOffsetOuter1" result="shadowBlurOuter1" stdDeviation="15.5"/>
            <feColorMatrix in="shadowBlurOuter1" result="shadowMatrixOuter1" values="0 0 0 0 0 0 0 0 0 0.309803922 0 0 0 0 0.321568627 0 0 0 0.2 0"/>
            <feMerge>
                <feMergeNode in="shadowMatrixOuter1"/>
                <feMergeNode in="SourceGraphic"/>
            </feMerge>
        </filter>
    </defs>
    <g fill="none" fill-rule="evenodd" filter="url(#prefix__a)" transform="translate(28 26)">
        <path fill="#B0D8D9" d="M73.858 273.086L156.82 320.981 151.128 324.27 156.82 327.557 68.161 378.739 62.472 382.026 73.272 388.261 178.415 327.557 178.415 320.981 63.06 266.853z"/>
        <path fill="#FFF" d="M156.82 320.982L151.126 324.272 73.858 279.661 63.061 273.423 63.061 266.854 73.858 273.087zM62.472 382.026L73.27 388.261 73.27 381.688 62.472 375.455z"/>
        <path fill="#E6F3F4" d="M63.061 266.854L73.859 273.087 156.821 320.982 151.129 324.271 62.473 375.453 68.159 378.74 73.27 381.686 178.416 320.982 73.859 260.618z"/>
        <g>
            <path fill="#EAF3FC" d="M77.123 375.715l-1.402-2.426 79.601-45.958c3.036-1.752 4.776-4.266 4.776-6.898 0-2.492-1.576-4.831-4.322-6.418l-78.563-45.358 1.401-2.426 78.564 45.358c3.635 2.099 5.721 5.325 5.721 8.844 0 3.66-2.25 7.057-6.175 9.325l-79.601 45.957z" transform="translate(0 .18)"/>
            <path fill="#B3DADB" d="M75.722 120.268L75.722 373.288 77.123 375.714 159.016 327.413 162.9 320.433 162.9 67.412 157.849 73.733z" transform="translate(0 .18)"/>
            <path fill="#9ACED0" d="M77.213 15.638L77.213 268.659 159.301 314.624 162.9 320.434 162.9 67.411 157.939 61.244z" transform="translate(0 .18)"/>
            <path fill="#E6F3F4" d="M77.123 122.694l-1.402-2.426 79.601-45.958c3.036-1.753 4.776-4.266 4.776-6.898 0-2.492-1.576-4.831-4.322-6.415L77.213 15.639l1.401-2.429 78.564 45.358c3.635 2.102 5.721 5.325 5.721 8.844 0 3.66-2.25 7.06-6.175 9.325l-79.601 45.957z" transform="translate(0 .18)"/>
            <path fill="#118B90" d="M77.747 3.506c-.824 0-1.645.216-2.395.65a4.732 4.732 0 00-2.389 4.141v105.088a27.52 27.52 0 0110.423-10.713l73.854-42.641c2.054-1.183 3.279-3.308 3.281-5.682a6.495 6.495 0 00-3.281-5.68L80.139 4.154a4.765 4.765 0 00-2.392-.65zm-5.338 374.278h-2.801V126.538c0-1.856.187-3.689.551-5.476V8.297c0-2.743 1.418-5.195 3.794-6.568C76.329.356 79.164.36 81.54 1.726L158.64 46.24c2.933 1.695 4.683 4.726 4.683 8.113 0 3.385-1.753 6.415-4.683 8.107L84.788 105.1c-6.112 3.526-10.37 9.493-11.825 16.251v142.681h-.554v113.753z" transform="translate(0 .18)"/>
            <path fill="#4DA9AD" d="M5.414 242.053c-1.056.61-1.914 2.102-1.914 3.33 0 1.23.858 1.731 1.914 1.119 1.056-.61 1.914-2.102 1.914-3.33 0-1.23-.858-1.729-1.914-1.119" transform="translate(0 .18)"/>
            <path fill="#4DA9AD" d="M7.427 248.576L4.056 246.63 6.772 241.926 10.144 243.871z" transform="translate(0 .18)"/>
            <path fill="#D9B064" d="M8.786 244c-1.056.61-1.914 2.101-1.914 3.329 0 1.23.858 1.731 1.914 1.119 1.056-.61 1.914-2.101 1.914-3.329 0-1.23-.858-1.73-1.914-1.12" transform="translate(0 .18)"/>
            <path fill="#4DA9AD" d="M11.588 238.727c-1.058.61-1.916 2.102-1.916 3.33 0 1.23.858 1.731 1.916 1.119 1.056-.61 1.914-2.102 1.914-3.33 0-1.23-.858-1.729-1.914-1.119" transform="translate(0 .18)"/>
            <path fill="#4DA9AD" d="M13.602 245.25L10.231 243.305 12.944 238.6 16.318 240.546z" transform="translate(0 .18)"/>
            <path fill="#D9B064" d="M14.959 240.674c-1.056.61-1.914 2.101-1.914 3.329 0 1.23.858 1.732 1.914 1.12 1.059-.61 1.917-2.102 1.917-3.33 0-1.23-.858-1.729-1.917-1.119" transform="translate(0 .18)"/>
            <path fill="#118B90" d="M59.51 47.02H58.4c-.758-1.09-1.9-2.111-3.43-2.993-6.027-3.482-15.768-3.498-21.758-.04-1.545.89-2.685 1.927-3.43 3.034h-1.04v3.204c0 .022-.002.04 0 .059v.002c.024 2.265 1.537 4.53 4.538 6.262 6.027 3.48 15.769 3.498 21.76.04 3.006-1.737 4.495-4.018 4.472-6.302v-3.265z" transform="translate(0 .18)"/>
            <path fill="#9ACED0" d="M55.037 53.322c-5.99 3.458-15.729 3.44-21.758-.04-6.028-3.48-6.057-9.103-.07-12.561 5.991-3.458 15.733-3.443 21.76.037 6.027 3.482 6.059 9.105.068 12.564" transform="translate(0 .18)"/>
            <path fill="#80C2C4" d="M54.673 52.814c-5.79 3.342-15.204 3.323-21.03-.04-5.827-3.363-5.856-8.799-.067-12.141 5.79-3.342 15.207-3.327 21.03.037 5.827 3.366 5.856 8.801.067 12.144M16.574 246.13c-.836.483-2.196.48-3.038-.005-.84-.486-.845-1.272-.008-1.756.837-.483 2.196-.48 3.039.006.839.488.844 1.272.007 1.755" transform="translate(0 .18)"/>
            <path fill="#80C2C4" d="M12.904 245.251L17.2 245.251 17.2 183.446 12.904 183.446z" transform="translate(0 .18)"/>
            <path fill="#E6CC9B" d="M16.574 184.325c-.836.483-2.196.48-3.038-.005-.84-.486-.845-1.27-.008-1.756.837-.48 2.196-.478 3.039.008.839.486.844 1.27.007 1.753" transform="translate(0 .18)"/>
            <path fill="#80C2C4" d="M10.517 249.628c-.834.483-2.197.48-3.036-.005-.842-.486-.847-1.273-.01-1.756.836-.483 2.196-.48 3.038.005.84.489.845 1.273.008 1.756" transform="translate(0 .18)"/>
            <path fill="#80C2C4" d="M6.846 248.746L11.141 248.746 11.141 186.941 6.846 186.941z" transform="translate(0 .18)"/>
            <path fill="#E6CC9B" d="M10.517 187.822c-.834.483-2.197.48-3.036-.005-.842-.486-.847-1.27-.01-1.756.836-.48 2.196-.477 3.038.008.84.486.845 1.27.008 1.753" transform="translate(0 .18)"/>
            <path fill="#118B90" d="M15.449 182.62a5.732 5.732 0 00-3.915.67l-.816.473-6.5 1.565v10.214l.011-.002c.04.538.325 1.058.858 1.37l.533.306a5.744 5.744 0 005.74 0l6.444-3.72c.567-.33.858-.9.866-1.475h.002v-10.178l-3.223.777z" transform="translate(0 .18)"/>
            <path fill="#4DA9AD" d="M11.359 187.07l6.444-3.723c1.16-.668 1.16-2.341 0-3.01l-.533-.308a5.739 5.739 0 00-5.737 0L5.09 183.75c-1.16.668-1.16 2.34 0 3.01l.533.309a5.739 5.739 0 005.737 0" transform="translate(0 .18)"/>
            <path fill="#80C2C4" d="M12.848 183.446h-2.804V33.668a12.11 12.11 0 014.918-9.797 12.122 12.122 0 0110.787-1.906l6.165 1.84c8.012 2.395 13.611 9.903 13.611 18.269v5.098h-2.803v-5.098c0-7.136-4.773-13.543-11.61-15.584l-6.165-1.84a9.343 9.343 0 00-8.311 1.47 9.333 9.333 0 00-3.788 7.548v149.778z" transform="translate(0 .18)"/>
            <path fill="#9ACED0" d="M5.515 188.677c1.276.737 2.31 2.537 2.31 4.018 0 1.484-1.034 2.088-2.31 1.354-1.275-.739-2.31-2.537-2.31-4.02 0-1.484 1.035-2.088 2.31-1.352" transform="translate(0 .18)"/>
            <path fill="#9ACED0" d="M3.95 196.052L7.155 194.201 3.877 188.522 0.672 190.373z" transform="translate(0 .18)"/>
            <path fill="#4DA9AD" d="M2.31 190.527c1.279.736 2.31 2.537 2.31 4.018 0 1.483-1.031 2.088-2.31 1.354-1.274-.74-2.31-2.537-2.31-4.02 0-1.484 1.036-2.089 2.31-1.352M4.734 190.234c-.448.262-1.182.259-1.636-.002-.455-.262-.457-.687-.006-.946.452-.261 1.183-.258 1.64.003.451.261.454.684.002.945" transform="translate(0 .18)"/>
            <path fill="#4DA9AD" d="M2.756 189.761L5.071 189.761 5.071 177.099 2.756 177.099z" transform="translate(0 .18)"/>
            <path fill="#4DA9AD" d="M4.734 177.572c-.448.261-1.182.258-1.636-.003-.455-.261-.457-.686-.006-.945.452-.261 1.183-.261 1.64.003.451.26.454.683.002.945" transform="translate(0 .18)"/>
        </g>
    </g>
</svg>
