<svg id="bathroom-category-toilet" xmlns="http://www.w3.org/2000/svg" width="65.511" height="91.308" viewBox="0 0 65.511 91.308">
  <path id="패스_4931" data-name="패스 4931" d="M70,160.106c-.364-8.138,5.785-10.98,5.736-18.83C75.7,136.39,31.37,133.553,32.446,135c5.357,7.21,4.921,14.3,6.843,20.866,0,0,31.028,11.372,30.709,4.237" transform="translate(-18.206 -75.583)" fill="#efa5a7" fill-rule="evenodd"/>
  <path id="패스_4932" data-name="패스 4932" d="M60.363,175.742h0l-.107-.075a1.293,1.293,0,0,1-.112-.08c-2.391-2.038-1.849-2.311-2.953-3.149-2.32-1.759-4.621-2.826-8.555-5.058-.889-.5-.76-1.447.177-1.988L55.778,154.3a4.058,4.058,0,0,1,3.444-.1l15.95,9.507c.046.022.091,3.249.137,3.27l.131.061h0c.19.093.377.19.556.294,3.933,2.27,3.735,6.064-.44,8.475s-10.748,2.525-14.68.253c-.18-.1-.347-.211-.509-.319" transform="translate(-26.967 -86.385)" fill="#efa5a7" fill-rule="evenodd"/>
  <path id="패스_4933" data-name="패스 4933" d="M55.953,154.786c-.372,3.069,2.838,8.983,4.99,10.666s1.809-5.521,2.214-6.985-.374-2.619-1.933-3.68-4.927-2.837-5.271,0" transform="translate(-31.397 -86.043)" fill="#f7afb1" fill-rule="evenodd"/>
  <g id="그룹_4244" data-name="그룹 4244" transform="translate(10.499 42.572)">
    <path id="패스_4934" data-name="패스 4934" d="M16.541,27.287l-.005,0-.223-.157q-.119-.081-.235-.167L1.674,17.5A3.763,3.763,0,0,1,.459,14.786C.474,14-.229,10.935.672,9.168L22.721,1.4a8.495,8.495,0,0,1,7.219-.215L47.582,9.5c.1.045.192.089.286.136l.276.129-.007,0c.4.195.789.4,1.164.615,3.956,2.283,5.917-.139,5.922,2.943v4.767c-.016,3.324-2.313,6.717-6.845,9.334-8.753,5.052-22.53,5.293-30.772.532q-.545-.316-1.066-.671" transform="translate(-0.212 -0.481)" fill="#fbb9bb" fill-rule="evenodd"/>
  </g>
  <g id="그룹_4245" data-name="그룹 4245" transform="translate(10.746 37.065)">
    <path id="패스_4935" data-name="패스 4935" d="M16.857,28.314l-.005,0-.223-.157q-.119-.081-.235-.167L1.99,17.807C.237,16.575.4,14.773,2.36,13.639L23.037,1.7a8.489,8.489,0,0,1,7.219-.215L47.9,9.8c.1.045.192.089.286.136l.276.129-.007,0c.4.195.789.4,1.164.615,8.243,4.758,7.83,12.714-.923,17.767s-22.53,5.293-30.772.532q-.545-.316-1.066-.671" transform="translate(-0.775 -0.786)" fill="#fbc9cb" fill-rule="evenodd"/>
  </g>
  <path id="패스_4936" data-name="패스 4936" d="M88.571,115.663a11.089,11.089,0,0,1-3.943,3.566c-6.168,3.561-15.818,3.785-21.512.5q-.369-.216-.723-.456l-.159-.106-4.224-3.389-1.377-1.1c-1.822-1.354-1.6-3.287.511-4.507l11.778-6.8a9.352,9.352,0,0,1,7.809-.3l7.739,3.216.226.112c.323.156.572.289.792.417,4.013,2.316,5,5.769,3.082,8.852" transform="translate(-31.104 -57.465)" fill="#ff9b9f" fill-rule="evenodd"/>
  <path id="패스_4937" data-name="패스 4937" d="M91.913,123.485a11.09,11.09,0,0,1-3.943,3.566c-6.167,3.561-15.818,3.785-21.512.5q-.369-.216-.723-.456l-.159-.106L61.353,123.6l10.912-6.3A9.351,9.351,0,0,1,80.074,117l7.739,3.216.226.109c.323.161.572.293.792.418a9.028,9.028,0,0,1,3.082,2.743" transform="translate(-34.446 -65.287)" fill="#ff595f" fill-rule="evenodd"/>
  <path id="패스_4938" data-name="패스 4938" d="M57.146,111.145l11.78-6.8a9.351,9.351,0,0,1,7.809-.3l7.738,3.216.228.111c.319.159.57.291.79.418,2.484,1.432,3.809,3.3,4,5.246.214-2.29-1.106-4.555-4-6.23q-.389-.22-.79-.417l-.228-.111-7.738-3.216a9.359,9.359,0,0,0-7.809.294l-11.78,6.8c-1.369.79-1.943,1.88-1.681,2.916a3.294,3.294,0,0,1,1.681-1.934" transform="translate(-31.105 -57.466)" fill="#ff7a7f" fill-rule="evenodd"/>
  <path id="패스_4939" data-name="패스 4939" d="M15.227,89.663,37.776,76.645c1.549-.895,1.354-2.472-.437-3.505L33.284,70.8a6.778,6.778,0,0,0-6.073-.253L4.663,83.564c-1.551.9-1.354,2.474.436,3.507l4.056,2.341a6.771,6.771,0,0,0,6.072.251" transform="translate(-2.031 -39.268)" fill="#fbc9cb" fill-rule="evenodd"/>
  <path id="패스_4940" data-name="패스 4940" d="M0,23.831,1.637,53.295,36.781,43.1l1.572-30.438Z" transform="translate(0 -7.107)" fill="#fbc9cb" fill-rule="evenodd"/>
  <path id="패스_4941" data-name="패스 4941" d="M12.657,21.5,37.237,7.308c1.69-.975,1.475-2.7-.476-3.823L32.34.933A7.385,7.385,0,0,0,25.72.658L1.14,14.85c-1.69.974-1.475,2.695.476,3.821l4.421,2.552a7.382,7.382,0,0,0,6.62.275" transform="translate(0 0)" fill="#fbc9cb" fill-rule="evenodd"/>
  <path id="패스_4942" data-name="패스 4942" d="M10.74,20.734A6.942,6.942,0,0,1,7.367,19.9L2.946,17.348C2.167,16.9,1.7,16.332,1.7,15.832A1.3,1.3,0,0,1,2.47,14.82L27.05.629A5.119,5.119,0,0,1,29.55.07,6.94,6.94,0,0,1,32.923.9l4.423,2.553c.777.448,1.241,1.015,1.241,1.516a1.3,1.3,0,0,1-.767,1.012L13.24,20.175A5.117,5.117,0,0,1,10.74,20.734Z" transform="translate(-0.957 -0.039)" fill="#fcddde" fill-rule="evenodd"/>
  <path id="패스_4943" data-name="패스 4943" d="M51.2,111.046q-.368-.217-.722-.456l-.159-.107-5.6-4.492c-1.824-1.354-1.606-3.287.509-4.508l11.78-6.8a9.354,9.354,0,0,1,7.807-.294L72.555,97.6l.226.113c.321.157.572.289.792.417,5.693,3.287,5.307,8.857-.861,12.418s-15.818,3.785-21.51.5m-4.12,3c8.244,4.76,22.021,4.52,30.774-.532s9.164-13.007.921-17.767q-.571-.326-1.163-.615l0,0L77.344,95l-.286-.136-11.375-5.5A13.064,13.064,0,0,0,54.6,89.71L36.616,100.091c-3.012,1.739-3.267,4.505-.59,6.4l9.527,6.565c.076.057.157.113.236.167l.221.159,0,0q.521.354,1.067.671" transform="translate(-19.187 -49.575)" fill="#ff9b9f" fill-rule="evenodd"/>
  <path id="패스_4944" data-name="패스 4944" d="M51.2,107.746q-.369-.215-.722-.456l-.159-.107-5.6-4.492c-1.824-1.354-1.606-3.287.509-4.507l11.78-6.8a9.354,9.354,0,0,1,7.807-.294L72.555,94.3l.226.111q.4.2.792.417c5.693,3.287,5.307,8.859-.861,12.42s-15.818,3.783-21.51.5m-4.12,3c8.244,4.76,22.021,4.522,30.774-.532s9.164-13.007.921-17.765q-.571-.328-1.163-.617l0,0-.275-.129c-.1-.045-.19-.091-.286-.134l-11.375-5.5a13.071,13.071,0,0,0-11.086.34L36.616,96.791c-3.012,1.739-3.267,4.507-.59,6.4l9.527,6.567c.076.055.157.111.236.167l.221.157,0,0c.341.23.691.456,1.067.671" transform="translate(-19.187 -47.722)" fill="#fae9ea" fill-rule="evenodd"/>
  <path id="패스_4945" data-name="패스 4945" d="M37.853,21.269a4.021,4.021,0,0,0,3.639-.007,1.109,1.109,0,0,0,.011-2.1,4.02,4.02,0,0,0-3.639.007,1.109,1.109,0,0,0-.012,2.1" transform="translate(-20.832 -10.515)" fill="#fbc9cb" fill-rule="evenodd"/>
  <path id="패스_4946" data-name="패스 4946" d="M37.853,20.339a4.021,4.021,0,0,0,3.639-.007,1.109,1.109,0,0,0,.011-2.1,4.014,4.014,0,0,0-3.639.007,1.109,1.109,0,0,0-.012,2.1" transform="translate(-20.832 -9.993)" fill="#fae9ea" fill-rule="evenodd"/>
  <path id="패스_4947" data-name="패스 4947" d="M40.28,18.482a2.884,2.884,0,0,0-1.417.338.954.954,0,0,0-.567.78.942.942,0,0,0,.559.767,3.124,3.124,0,0,0,2.817,0,.965.965,0,0,0,.569-.779.948.948,0,0,0-.559-.771,2.867,2.867,0,0,0-1.4-.332m-.025,2.356a3.011,3.011,0,0,1-1.47-.351.948.948,0,0,1,.008-1.789,3.276,3.276,0,0,1,2.958,0,.946.946,0,0,1-.01,1.785,3.021,3.021,0,0,1-1.486.357" transform="translate(-21.422 -10.299)" fill="#ff9b9f" fill-rule="evenodd"/>
  <path id="패스_4948" data-name="패스 4948" d="M28.86,30.854l.541,28.9L51.947,46.733l1.493-30.07Z" transform="translate(-16.203 -9.355)" fill="#fae9ea" fill-rule="evenodd"/>
</svg>
