<svg xmlns="http://www.w3.org/2000/svg" width="219" height="271" viewBox="0 0 219 271">
    <defs>
        <filter id="prefix__a" width="180.4%" height="158.8%" x="-40.2%" y="-29.4%" filterUnits="objectBoundingBox">
            <feOffset dy="2" in="SourceAlpha" result="shadowOffsetOuter1"/>
            <feGaussianBlur in="shadowOffsetOuter1" result="shadowBlurOuter1" stdDeviation="15.5"/>
            <feColorMatrix in="shadowBlurOuter1" result="shadowMatrixOuter1" values="0 0 0 0 0 0 0 0 0 0.309803922 0 0 0 0 0.321568627 0 0 0 0.2 0"/>
            <feMerge>
                <feMergeNode in="shadowMatrixOuter1"/>
                <feMergeNode in="SourceGraphic"/>
            </feMerge>
        </filter>
    </defs>
    <g fill="none" fill-rule="evenodd" filter="url(#prefix__a)" transform="matrix(-1 0 0 1 188 26)">
        <path fill="#DCEEEE" d="M70.216 110.534L70.159 110.501 69.864 215.335 156.805 164.811 157.103 60.044z"/>
        <path fill="#E6F3F4" d="M0.353 50.525L70.216 90.86 153.686 38.133 87.295 0z"/>
        <path fill="#D4E7E7" d="M66.743 88.658L70.159 110.501 70.216 110.534 157.103 60.044 157.103 59.977 153.687 38.134z"/>
        <path fill="#B3DADB" d="M0 175L69.864 215.336 70.161 110.501 66.743 88.658 0.353 50.525z"/>
        <g>
            <path fill="#B3DADB" d="M36.685 47.994C21.287 56.884 8.848 78.43 8.898 96.122c.051 17.691 12.57 24.828 27.969 15.938 9.153-5.285 17.261-15.045 22.32-25.805 3.451-7.341 5.484-15.148 5.464-22.322-.02-7.175-2.09-12.612-5.571-15.949-5.104-4.895-13.243-5.275-22.395.01" transform="translate(76.736 50.6)"/>
            <path fill="#E6F3F4" d="M40.597 49.006C25.2 57.896 12.76 79.442 12.811 97.134c.05 17.691 12.57 24.828 27.968 15.938 9.153-5.285 17.262-15.044 22.32-25.804 3.451-7.341 5.484-15.148 5.464-22.323-.02-7.174-2.091-12.612-5.572-15.949-5.103-4.895-13.242-5.274-22.394.01" transform="translate(76.736 50.6)"/>
            <path fill="#025C60" d="M60.81 70.188c.034 11.929-8.353 26.456-18.736 32.451-6.872 3.966-12.894 3.2-16.188-1.232-1.687-2.262-2.66-5.481-2.67-9.515-.034-11.929 8.354-26.456 18.736-32.45 5.637-3.254 10.704-3.325 14.163-.794 2.91 2.127 4.678 6.09 4.695 11.54" transform="translate(76.736 50.6)"/>
            <path fill="#02858A" d="M58.785 68.163c.034 11.928-8.353 26.456-18.736 32.45-5.637 3.254-10.703 3.325-14.163.794-1.687-2.262-2.66-5.481-2.67-9.515-.033-11.929 8.354-26.456 18.737-32.45 5.637-3.254 10.703-3.325 14.163-.794 1.687 2.261 2.659 5.482 2.67 9.515" transform="translate(76.736 50.6)"/>
            <path fill="#B3DADB" d="M64.447 50.906l.217-.985-2.24-1.437c-2.89 3.267-5.36 7.14-7.165 11.19-2.068 4.628-3.271 9.498-3.259 13.993.013 4.496 1.24 7.963 3.327 10.194 1.823 1.956 4.307 2.966 7.206 2.894 3.45-7.341 5.483-15.148 5.463-22.323-.016-5.645-1.306-10.209-3.549-13.526" transform="translate(76.736 50.6)"/>
            <path fill="#E6F3F4" d="M64.664 49.92c3.481 3.338 5.551 8.775 5.572 15.949.02 7.175-2.012 14.982-5.463 22.322-2.899.073-5.383-.937-7.206-2.894-2.087-2.23-3.314-5.697-3.327-10.193-.013-4.495 1.191-9.365 3.258-13.993 1.807-4.05 4.277-7.923 7.166-11.19" transform="translate(76.736 50.6)"/>
            <path fill="#B3DADB" d="M64.577 7.06c.663 3.45-.484 6.57-2.565 6.97-2.08.4-4.304-2.071-4.967-5.52-.664-3.45.483-6.57 2.564-6.97 2.08-.4 4.304 2.072 4.968 5.52" transform="translate(76.736 50.6)"/>
            <path fill="#B3DADB" d="M59.03 1.732L62.75.656l2.404 12.49-3.142.885S57.2 5.917 59.03 1.732" transform="translate(76.736 50.6)"/>
            <path fill="#E6F3F4" d="M67.719 6.176c.664 3.45-.485 6.57-2.565 6.97-2.08.4-4.303-2.071-4.967-5.52-.664-3.45.484-6.57 2.564-6.97 2.08-.401 4.304 2.07 4.968 5.52" transform="translate(76.736 50.6)"/>
            <path fill="#B3DADB" d="M2.265 46.412c.066.415.322.755.7.935.38.18.805.161 1.167-.05l16.551-9.647c.45-.262.687-.762.607-1.275l-1.232-7.882a1.235 1.235 0 00-.698-.937 1.23 1.23 0 00-1.168.047L1.62 37.233a1.26 1.26 0 00-.608 1.278l1.254 7.901zM3.502 47.8a1.583 1.583 0 01-1.564-1.336l-1.254-7.9a1.593 1.593 0 01.769-1.618l16.572-9.629a1.582 1.582 0 012.36 1.125l1.232 7.881c.102.65-.199 1.282-.767 1.613L4.3 47.584a1.58 1.58 0 01-.798.216z" transform="translate(76.736 50.6)"/>
            <path fill="#02858A" d="M53.919 18.672L53.919 18.705 29.814 32.712 29.784 32.696 28.083 21.809 52.217 7.785z" transform="translate(76.736 50.6)"/>
        </g>
    </g>
</svg>
