<svg xmlns="http://www.w3.org/2000/svg" width="47.381" height="78.768" viewBox="0 0 47.381 78.768">
  <g id="bathroom-category-trashcan" transform="translate(0 -0.93)">
    <g id="그룹_4247" data-name="그룹 4247" transform="translate(0 0.93)">
      <path id="패스_4949" data-name="패스 4949" d="M45.537,17.56c-.02.228-.036.455-.078.68-.034.186-.09.37-.139.556-.057.216-.11.433-.186.647-.063.176-.147.353-.224.528q-.144.343-.316.673c-.088.163-.194.323-.291.482a11.293,11.293,0,0,1-1.084,1.47c-.049.055-.093.113-.144.167-.28.305-.588.6-.913.9-.209.187-.439.367-.666.547-.2.161-.4.325-.611.482-.245.177-.515.347-.78.519s-.532.36-.825.529a22.2,22.2,0,0,1-2.053,1.036c-.2.092-.413.176-.62.264q-.834.35-1.711.648c-.209.07-.412.147-.622.213-.368.116-.745.216-1.12.318-.285.078-.564.16-.854.23-.395.095-.8.175-1.2.256-.275.055-.545.118-.824.167-.812.142-1.636.256-2.468.342-.258.028-.518.045-.778.066-.486.04-.972.076-1.461.1-.314.013-.63.019-.945.026-.4.008-.791.01-1.187.006q-.5-.007-1-.028-1.054-.039-2.1-.142-1.032-.1-2.056-.258c-.386-.059-.768-.127-1.149-.2-.3-.057-.6-.117-.9-.182-.455-.1-.9-.212-1.347-.329-.249-.066-.5-.128-.747-.2-.8-.233-1.577-.493-2.33-.787q-.555-.219-1.1-.465c-.186-.083-.378-.157-.56-.243q-.813-.383-1.594-.831C4.271,23.275,2.13,20.036,2.138,16.8L1.994,67.635c-.009,3.235,2.132,6.475,6.417,8.943.512.295,1.045.571,1.594.83.18.085.372.159.556.241.326.145.648.3.985.428.038.015.08.026.119.04.754.293,1.533.553,2.33.786.066.019.123.045.189.063.182.052.373.088.557.137.446.118.893.231,1.348.329.121.028.237.064.36.088.178.037.362.06.543.095.38.071.762.139,1.148.2.155.023.306.057.462.08s.341.035.509.057q.541.068,1.086.121c.171.016.341.043.514.057s.325.014.489.026c.366.026.73.046,1.1.059.185.008.368.025.553.029.148,0,.3,0,.446,0,.4.006.791,0,1.188,0,.2,0,.395,0,.591,0,.118,0,.234-.019.351-.024q.732-.034,1.463-.1c.2-.017.4-.021.594-.04.063-.007.123-.019.183-.026q1.241-.129,2.47-.343c.04-.007.08-.009.119-.017.236-.041.464-.1.7-.148.4-.082.809-.161,1.207-.257.287-.07.568-.152.851-.23.377-.1.754-.2,1.122-.32.078-.025.16-.042.237-.067.133-.044.252-.1.384-.145q.878-.3,1.713-.647c.209-.087.415-.173.619-.264A22.424,22.424,0,0,0,39.4,76.417c.2-.12.37-.25.56-.373.266-.173.536-.341.782-.52.214-.157.408-.32.608-.479.228-.183.459-.362.668-.55.041-.038.093-.073.135-.111.278-.257.535-.519.78-.785.05-.054.093-.11.142-.166.144-.164.293-.326.424-.493.057-.073.095-.149.149-.222.187-.249.354-.5.51-.755.067-.107.154-.211.216-.319.029-.053.046-.109.076-.163.12-.223.218-.448.316-.673.057-.132.136-.262.186-.395.016-.045.022-.091.039-.135.076-.215.128-.431.186-.647.038-.146.1-.29.125-.438.009-.038.007-.078.013-.117.043-.228.057-.453.079-.681.013-.148.047-.3.051-.445l0-.19.146-50.836c0,.212-.036.424-.055.636" transform="translate(-0.103 -1.476)" fill="#ff7a7f" fill-rule="evenodd"/>
      <path id="패스_4950" data-name="패스 4950" d="M39.187,7.31c8.51,4.9,8.556,12.847.1,17.749s-22.214,4.908-30.724.006S0,12.213,8.462,7.3s22.214-4.9,30.724,0" transform="translate(-0.11 -0.798)" fill="#828386" fill-rule="evenodd"/>
      <path id="패스_4951" data-name="패스 4951" d="M8.169,73.261a4.86,4.86,0,0,1-2.537-3.838V17.956c0-1.4,1.136-1.946,2.537-1.225a4.858,4.858,0,0,1,2.537,3.837V72.037c0,1.4-1.136,1.945-2.537,1.224" transform="translate(-0.29 -1.456)" fill="#e1484d" fill-rule="evenodd"/>
      <path id="패스_4952" data-name="패스 4952" d="M8.767,17.1c-1.244-.477-2.206.078-2.206,1.362V69.934a4.8,4.8,0,0,0,1.986,3.491c1.244.477,2.207-.077,2.207-1.361V20.595A4.8,4.8,0,0,0,8.767,17.1" transform="translate(-0.337 -1.483)" fill="#ff595f" fill-rule="evenodd"/>
      <path id="패스_4953" data-name="패스 4953" d="M41.506,72.836A1.732,1.732,0,0,1,38.969,71.2V19.732a3.952,3.952,0,0,1,2.537-3.426,1.732,1.732,0,0,1,2.535,1.636v51.47a3.953,3.953,0,0,1-2.535,3.426" transform="translate(-2.005 -1.442)" fill="#e1484d" fill-rule="evenodd"/>
      <path id="패스_4954" data-name="패스 4954" d="M40.943,72.837a3.949,3.949,0,0,0,2.535-3.426V17.944a1.639,1.639,0,0,0-1.446-1.765,2.741,2.741,0,0,0-.526.129,3.951,3.951,0,0,0-2.537,3.426V71.2a1.64,1.64,0,0,0,1.445,1.764,2.742,2.742,0,0,0,.528-.128" transform="translate(-2.005 -1.444)" fill="#ff595f" fill-rule="evenodd"/>
      <path id="패스_4955" data-name="패스 4955" d="M19.282,75.348a2.534,2.534,0,0,1-2.537-2.531V21.349a2.537,2.537,0,0,1,5.074,0V72.817a2.534,2.534,0,0,1-2.536,2.531" transform="translate(-0.861 -1.58)" fill="#e1484d" fill-rule="evenodd"/>
      <path id="패스_4956" data-name="패스 4956" d="M19.556,18.843a2.526,2.526,0,0,0-2.291,2.506V72.817a2.525,2.525,0,0,0,2.29,2.506,2.525,2.525,0,0,0,2.291-2.507V21.349a2.525,2.525,0,0,0-2.291-2.506M29.849,75.348a2.535,2.535,0,0,1-2.537-2.531V21.349a2.537,2.537,0,0,1,5.075,0V72.817a2.535,2.535,0,0,1-2.537,2.531" transform="translate(-0.888 -1.58)" fill="#ff595f" fill-rule="evenodd"/>
      <g id="그룹_4246" data-name="그룹 4246" transform="translate(0 13.622)">
        <path id="패스_4957" data-name="패스 4957" d="M47.278,1.471c-.009.055-.017.112-.026.168-.04.223-.109.443-.168.664-.061.236-.12.472-.2.707a9.462,9.462,0,0,1-.44,1.04l-.091.175a10.374,10.374,0,0,1-.664,1.1c-.036.054-.078.106-.116.159a12.076,12.076,0,0,1-.777.969c-.054.061-.1.122-.157.183-.3.332-.641.657-1,.977-.228.2-.479.4-.727.6-.218.175-.429.354-.664.524-.266.194-.562.378-.85.566s-.581.392-.9.577q-.991.569-2.033,1.042c-.5.229-1,.446-1.52.648-.066.027-.131.055-.2.08-.554.212-1.125.4-1.7.582-.4.126-.809.235-1.217.346-.31.085-.617.175-.932.251-.431.1-.87.19-1.309.279-.319.065-.635.138-.957.194-.133.024-.267.043-.4.065q-.812.132-1.639.231c-.16.019-.32.04-.482.057-.313.035-.632.054-.949.081-.534.044-1.068.083-1.6.106-.341.014-.682.022-1.023.028-.434.008-.868.012-1.3.006q-.541-.008-1.082-.03a38.893,38.893,0,0,1-6.778-.852q-.739-.164-1.47-.36c-.314-.083-.633-.16-.94-.252-.169-.049-.334-.1-.5-.154q-.725-.228-1.439-.491c-.137-.05-.275-.1-.41-.149-.433-.167-.849-.351-1.265-.536-.2-.09-.408-.171-.605-.264q-.887-.418-1.739-.9C2.332,7.185,0,3.654.009.128L0,3.4c-.009,3.525,2.321,7.056,6.991,9.745.56.323,1.14.621,1.738.9.2.093.407.175.607.265.355.157.7.32,1.072.465.061.024.127.046.191.069.135.052.273.1.411.15q.715.263,1.442.491c.165.051.33.1.5.154.112.033.222.071.335.1.2.057.408.1.608.149.486.129.973.252,1.47.36.133.028.258.068.393.095.194.041.394.066.59.1.417.079.835.152,1.256.218.168.026.333.063.5.086s.371.039.557.062c.392.05.786.095,1.181.133.19.017.376.047.566.063.175.015.355.016.531.028.4.027.8.047,1.2.064.2.009.4.028.6.033.161,0,.323,0,.484,0,.433.006.865,0,1.3-.006.216,0,.432,0,.646,0,.129,0,.254-.021.382-.026q.8-.038,1.6-.107c.215-.017.433-.021.647-.042.1-.01.2-.027.308-.036.159-.019.319-.038.479-.059q.825-.1,1.64-.23c.133-.023.267-.041.4-.064.064-.011.13-.019.194-.031.259-.047.509-.112.765-.163.437-.088.876-.175,1.306-.279.316-.076.622-.166.933-.25.409-.111.819-.221,1.218-.347.086-.027.176-.046.263-.076q.725-.234,1.437-.506c.068-.026.133-.056.2-.082q.993-.386,1.952-.851c.547-.265,1.084-.54,1.6-.837.1-.057.194-.114.289-.171.218-.13.4-.271.61-.405.289-.188.584-.374.854-.569.233-.17.443-.346.662-.521.247-.2.5-.4.727-.6.046-.041.1-.08.145-.12.305-.281.585-.567.852-.857.056-.062.1-.123.159-.185.156-.177.316-.354.458-.535.114-.142.213-.288.318-.434.038-.052.079-.1.115-.157.188-.27.365-.544.522-.82.051-.092.095-.185.142-.278.032-.058.062-.117.091-.175a9.353,9.353,0,0,0,.4-.892c.019-.047.025-.1.042-.147.084-.234.142-.47.2-.707.041-.158.1-.317.138-.477.011-.062.018-.124.028-.187s.017-.112.027-.168a8.167,8.167,0,0,0,.1-1l0-.207L47.38.262a7.873,7.873,0,0,1-.1,1.209" transform="translate(0 -0.128)" fill="#e1484d" fill-rule="evenodd"/>
      </g>
      <path id="패스_4958" data-name="패스 4958" d="M40.39,4.653c9.279,5.345,9.328,14.016.11,19.36s-24.22,5.345-33.5,0S-2.326,10,6.892,4.655s24.22-5.346,33.5,0" transform="translate(0 -0.645)" fill="#ff8a8f" fill-rule="evenodd"/>
      <path id="패스_4959" data-name="패스 4959" d="M19.813,9.281a3.241,3.241,0,0,1,.241-.744,2.375,2.375,0,0,1,.313-.483c.038-.047.074-.1.116-.142a2.052,2.052,0,0,1,.454-.375L18.468,8.97a2.067,2.067,0,0,0-.456.374c-.042.046-.077.095-.116.143-.049.064-.106.118-.152.187a2.728,2.728,0,0,0-.256.52,3.731,3.731,0,0,0-.127.431l-.019.089,0,.025-.017.088q-.018.1-.029.2t-.022.2q-.016.2-.016.4v.011l2.47-1.432a4.692,4.692,0,0,1,.085-.894l0-.024" transform="translate(-0.888 -0.999)" fill="#ff595f" fill-rule="evenodd"/>
    </g>
    <g id="그룹_4258" data-name="그룹 4258" transform="translate(17.383 6.831)">
      <path id="패스_4960" data-name="패스 4960" d="M.618,2.1,3.089.665A2.182,2.182,0,0,1,3.449.5L.979,1.931a2.181,2.181,0,0,0-.36.166" transform="translate(-0.618 -0.365)" fill="#8a8b8e" fill-rule="evenodd"/>
      <path id="패스_4961" data-name="패스 4961" d="M1,1.927,3.469.494A2.209,2.209,0,0,1,3.78.409L1.31,1.841A2.338,2.338,0,0,0,1,1.927" transform="translate(-0.638 -0.361)" fill="#8b8c8f" fill-rule="evenodd"/>
      <path id="패스_4962" data-name="패스 4962" d="M1.327,1.839,3.8.407A2.484,2.484,0,0,1,4.052.369L1.583,1.8a2.424,2.424,0,0,0-.256.038" transform="translate(-0.654 -0.359)" fill="#8b8d8f" fill-rule="evenodd"/>
      <path id="패스_4963" data-name="패스 4963" d="M1.6,1.8,4.066.369q.115-.01.23-.011L1.827,1.79A2.287,2.287,0,0,0,1.6,1.8" transform="translate(-0.668 -0.358)" fill="#8b8d8f" fill-rule="evenodd"/>
      <path id="패스_4964" data-name="패스 4964" d="M1.84,1.791,4.31.358c.069,0,.138,0,.209.007L2.049,1.8q-.1-.008-.209-.007" transform="translate(-0.681 -0.358)" fill="#8c8d90" fill-rule="evenodd"/>
      <g id="그룹_4248" data-name="그룹 4248" transform="translate(1.368 0.007)">
        <path id="패스_4965" data-name="패스 4965" d="M2.06,1.8,4.53.365c.065.006.131.011.2.02L2.257,1.817q-.1-.013-.2-.019" transform="translate(-2.06 -0.365)" fill="#8d8e91" fill-rule="evenodd"/>
      </g>
      <g id="그룹_4249" data-name="그룹 4249" transform="translate(1.565 0.028)">
        <path id="패스_4966" data-name="패스 4966" d="M2.268,1.819,4.739.387c.064.009.128.019.194.031L2.462,1.851q-.1-.019-.194-.031" transform="translate(-2.268 -0.387)" fill="#8d8e91" fill-rule="evenodd"/>
      </g>
      <g id="그룹_4250" data-name="그룹 4250" transform="translate(1.759 0.059)">
        <path id="패스_4967" data-name="패스 4967" d="M2.472,1.852,4.943.42c.06.012.121.026.181.041L2.654,1.893q-.09-.023-.182-.04" transform="translate(-2.472 -0.42)" fill="#8e8f91" fill-rule="evenodd"/>
      </g>
      <g id="그룹_4251" data-name="그룹 4251" transform="translate(1.941 0.1)">
        <path id="패스_4968" data-name="패스 4968" d="M2.664,1.9,5.134.463c.062.015.122.032.184.05L2.847,1.946q-.091-.027-.183-.05" transform="translate(-2.664 -0.463)" fill="#8e9092" fill-rule="evenodd"/>
      </g>
      <g id="그룹_4252" data-name="그룹 4252" transform="translate(2.124 0.15)">
        <path id="패스_4969" data-name="패스 4969" d="M2.857,1.948,5.328.516c.057.017.118.037.177.057L3.034,2.005l-.177-.057" transform="translate(-2.857 -0.516)" fill="#8f9093" fill-rule="evenodd"/>
      </g>
      <g id="그룹_4253" data-name="그룹 4253" transform="translate(2.301 0.208)">
        <path id="패스_4970" data-name="패스 4970" d="M3.044,2.009,5.515.577c.058.02.119.043.178.066L3.222,2.076q-.088-.036-.178-.066" transform="translate(-3.044 -0.577)" fill="#8f9093" fill-rule="evenodd"/>
      </g>
      <g id="그룹_4254" data-name="그룹 4254" transform="translate(2.48 0.275)">
        <path id="패스_4971" data-name="패스 4971" d="M3.232,2.08,5.7.648c.059.023.118.047.177.075L3.409,2.155q-.088-.04-.177-.076" transform="translate(-3.232 -0.648)" fill="#909194" fill-rule="evenodd"/>
      </g>
      <g id="그룹_4255" data-name="그룹 4255" transform="translate(2.657 0.35)">
        <path id="패스_4972" data-name="패스 4972" d="M3.419,2.159,5.89.727c.058.026.12.054.178.084L3.6,2.244q-.088-.045-.178-.085" transform="translate(-3.419 -0.727)" fill="#919294" fill-rule="evenodd"/>
      </g>
      <g id="그룹_4256" data-name="그룹 4256" transform="translate(2.835 0.433)">
        <path id="패스_4973" data-name="패스 4973" d="M3.607,2.247,6.078.815c.061.029.12.061.181.093L3.788,2.34q-.089-.049-.18-.093" transform="translate(-3.607 -0.815)" fill="#919294" fill-rule="evenodd"/>
      </g>
      <g id="그룹_4257" data-name="그룹 4257" transform="translate(0 0)">
        <path id="패스_4974" data-name="패스 4974" d="M3.09.658.618,2.09A3.136,3.136,0,0,1,3.776,2.4L6.245.963A4.034,4.034,0,0,0,4.259.358a2.306,2.306,0,0,0-1.169.3" transform="translate(-0.618 -0.358)" fill="#ff595f"/>
        <path id="패스_4975" data-name="패스 4975" d="M3.8,2.346,6.269.914l.14.078L3.939,2.424,3.8,2.346" transform="translate(-0.782 -0.387)" fill="#ff8a8f" fill-rule="evenodd"/>
      </g>
    </g>
    <g id="그룹_4259" data-name="그룹 4259" transform="translate(16.088 7.436)">
      <path id="패스_4976" data-name="패스 4976" d="M10.454,5.109l.015.016a9.95,9.95,0,0,1,.745.894l0,.006a11.4,11.4,0,0,1,.64.978l.027.048a10.825,10.825,0,0,1,.523,1.03l.007.013a9.83,9.83,0,0,1,.406,1.1,8.578,8.578,0,0,1,.255,1.1,6.854,6.854,0,0,1,.086,1.075l2.47-1.432c0-.066,0-.133,0-.2s0-.142-.009-.212a5.978,5.978,0,0,0-.073-.653V8.856q-.053-.339-.137-.672-.03-.117-.063-.233c-.017-.064-.036-.125-.055-.187a.08.08,0,0,0,0-.016l-.009-.032q-.035-.115-.074-.229c-.025-.076-.052-.152-.079-.228s-.054-.145-.083-.216l-.086-.215-.071-.166-.006-.013q-.054-.124-.112-.247c-.038-.079-.075-.157-.114-.234s-.091-.178-.138-.267-.105-.19-.159-.283l-.027-.047-.033-.06q-.281-.475-.608-.92l0,0,0,0q-.1-.13-.2-.258-.168-.209-.343-.412-.085-.1-.173-.19l-.031-.032a.073.073,0,0,0-.014-.015l-.136-.142A7.405,7.405,0,0,0,12.209,3c-.032-.028-.065-.053-.1-.08L12.091,2.9c-.027-.019-.052-.043-.079-.062q-.277-.217-.574-.408-.092-.059-.187-.114c-.014-.009-.028-.019-.043-.027L7.348.066,4.878,1.5,8.739,3.722a6.828,6.828,0,0,1,.881.611l.022.019a8.3,8.3,0,0,1,.812.757" transform="translate(-0.425 -0.066)" fill="#ff595f" fill-rule="evenodd"/>
      <path id="패스_4977" data-name="패스 4977" d="M8.5,3.767a9.743,9.743,0,0,1,4.425,7.645l-.28-.161A9.122,9.122,0,0,0,8.5,4.086L4.636,1.863C2.34.542.47,1.6.462,4.236l-.278-.16C.192,1.272,2.189.135,4.637,1.543Z" transform="translate(-0.184 -0.111)" fill="#e1484d" fill-rule="evenodd"/>
    </g>
  </g>
</svg>
