<svg xmlns="http://www.w3.org/2000/svg" xmlns:xlink="http://www.w3.org/1999/xlink" width="288" height="386" viewBox="0 0 288 386">
    <defs>
        <filter id="prefix__a" width="153.4%" height="132.2%" x="-26.7%" y="-16.1%" filterUnits="objectBoundingBox">
            <feOffset dy="2" in="SourceAlpha" result="shadowOffsetOuter1"/>
            <feGaussianBlur in="shadowOffsetOuter1" result="shadowBlurOuter1" stdDeviation="15.5"/>
            <feColorMatrix in="shadowBlurOuter1" result="shadowMatrixOuter1" values="0 0 0 0 0 0 0 0 0 0.309803922 0 0 0 0 0.321568627 0 0 0 0.2 0"/>
            <feMerge>
                <feMergeNode in="shadowMatrixOuter1"/>
                <feMergeNode in="SourceGraphic"/>
            </feMerge>
        </filter>
        <filter id="prefix__e" width="224.5%" height="271.6%" x="-62.3%" y="-85.8%" filterUnits="objectBoundingBox">
            <feOffset dy="2" in="SourceAlpha" result="shadowOffsetOuter1"/>
            <feGaussianBlur in="shadowOffsetOuter1" result="shadowBlurOuter1" stdDeviation="15.5"/>
            <feColorMatrix in="shadowBlurOuter1" result="shadowMatrixOuter1" values="0 0 0 0 0 0 0 0 0 0.309803922 0 0 0 0 0.321568627 0 0 0 0.2 0"/>
            <feMerge>
                <feMergeNode in="shadowMatrixOuter1"/>
                <feMergeNode in="SourceGraphic"/>
            </feMerge>
        </filter>
        <filter id="prefix__f" width="473.5%" height="267.1%" x="-186.8%" y="-83.6%" filterUnits="objectBoundingBox">
            <feOffset dy="2" in="SourceAlpha" result="shadowOffsetOuter1"/>
            <feGaussianBlur in="shadowOffsetOuter1" result="shadowBlurOuter1" stdDeviation="15.5"/>
            <feColorMatrix in="shadowBlurOuter1" result="shadowMatrixOuter1" values="0 0 0 0 0 0 0 0 0 0.309803922 0 0 0 0 0.321568627 0 0 0 0.2 0"/>
            <feMerge>
                <feMergeNode in="shadowMatrixOuter1"/>
                <feMergeNode in="SourceGraphic"/>
            </feMerge>
        </filter>
        <path id="prefix__b" d="M0.406 0.078L226.62 0.078 226.62 130.68 0.406 130.68z"/>
        <path id="prefix__c" d="M0 0.397L166.744 0.397 166.744 105.314 0 105.314z"/>
    </defs>
    <g fill="none" fill-rule="evenodd" filter="url(#prefix__a)" transform="rotate(-2 936.56 -676.994)">
        <path fill="#FFBDBF" d="M207.601 97.912c0 33.32-23.541 46.744-52.579 29.975-29.038-16.765-52.576-57.366-52.576-90.69 0-33.321 23.538-46.74 52.576-29.976 29.038 16.766 52.58 57.367 52.58 90.69"/>
        <path fill="#FF8A8F" d="M203.82 100.48c0 33.32-23.54 46.744-52.579 29.975-29.04-16.765-52.579-57.366-52.579-90.69 0-33.321 23.538-46.74 52.58-29.976 29.037 16.765 52.579 57.37 52.579 90.69"/>
        <path fill="#FFEEEF" d="M202.998 100.424c0 32.979-23.298 46.262-52.038 29.668s-52.038-56.78-52.038-89.755c0-32.98 23.298-46.263 52.038-29.672 28.74 16.594 52.038 56.78 52.038 89.759"/>
        <path fill="#FEFCFC" d="M200.16 98.786c0 31.18-22.027 43.74-49.198 28.05-27.172-15.685-49.203-53.682-49.203-84.862 0-31.18 22.03-43.74 49.203-28.053 27.171 15.688 49.199 53.685 49.199 84.865"/>
        <path fill="#FBCACB" d="M154.054 125.343c-27.171-15.688-49.202-53.682-49.202-84.865 0-15.517 5.456-26.421 14.288-31.528-10.632 4.217-17.38 15.767-17.38 33.023 0 31.18 22.027 69.177 49.2 84.865 13.65 7.879 26 8.63 34.914 3.475-8.58 3.406-19.686 2.034-31.82-4.97"/>
        <g transform="translate(10.296 262.63)"/>
        <path fill="#F5D5D6" d="M9.711 163.9L176.452 260.169 176.452 329.884 9.711 233.615z"/>
        <path fill="#F5C6C8" d="M13.747 231.283L13.747 166.228 172.419 257.837 172.419 322.892z"/>
        <path fill="#EFCDB3" d="M56.682 136.78L223.426 233.049 176.454 260.168 9.71 163.902z"/>
        <path fill="#FAB8BA" d="M223.426 233.05L176.454 260.168 176.454 329.883 223.426 302.765z"/>
        <g transform="translate(0 160.462)">
            <mask id="prefix__d" fill="#fff">
                <use xlink:href="#prefix__c"/>
            </mask>
            <path fill="#F5D5D6" d="M0 0.397L166.744 96.666 166.744 105.314 0 9.042z" mask="url(#prefix__d)"/>
        </g>
        <path fill="#FCDDDE" d="M56.682 128.133L223.426 224.402 166.745 257.128 0 160.859z"/>
        <path fill="#FAB8BA" d="M223.426 224.403L166.744 257.128 166.744 265.777 223.426 233.049z"/>
        <g filter="url(#prefix__e)" transform="translate(61.28 145.943)">
            <path fill="#FBB9BB" d="M87.645 70.281c-11.478 6.628-37.224 2.51-57.503-9.2-20.284-11.708-27.416-26.573-15.938-33.2 11.478-6.628 37.224-2.51 57.506 9.203C91.988 48.79 99.122 63.654 87.645 70.28"/>
            <path fill="#FBB9BB" d="M86.135 71.053c8.927-3.88 15.488-16.486 15.488-22.84C101.623 45.594 0 7.772 0 13.217c0 10.867 6.14 26.789 15.273 36.448 4.147 4.388 28.708 10.91 28.708 10.91l42.154 10.477z"/>
            <path fill="#FDEDEE" d="M95.945 55.394c-13.131 7.581-43.93 2.091-68.796-12.266C2.283 28.774-7.227 10.988 5.904 3.408 19.036-4.175 49.834 1.32 74.7 15.673c24.866 14.357 34.38 32.14 21.245 39.72"/>
            <path fill="#FBB9BB" d="M91.747 52.967c-1.49.862-3.228 1.537-5.173 2.031-13.63 3.478-37.481-1.758-57.205-13.15-5.588-3.225-10.318-6.644-14.098-10.065C3.81 21.41 1.145 11.007 10.101 5.833 22.01-1.04 49.936 3.94 72.485 16.954 95.03 29.972 103.652 46.1 91.747 52.968"/>
            <path fill="#FCDDDE" d="M86.574 54.997c-13.629 3.478-37.48-1.755-57.208-13.15-5.585-3.226-10.315-6.644-14.094-10.065.475-.4 1.01-.77 1.606-1.112 9.929-5.734 33.223-1.581 52.025 9.276 8.329 4.805 14.38 10.118 17.671 15.05"/>
        </g>
        <g filter="url(#prefix__f)" transform="translate(138.117 149.018)">
            <path fill="#E1484D" d="M31.784 74.326c-2.284 1.318-6 1.311-8.297-.016-2.3-1.328-2.31-3.472-.025-4.79 2.284-1.318 6-1.312 8.297.016 2.296 1.327 2.309 3.472.025 4.79"/>
            <path fill="#E1484D" d="M21.756 71.922L33.487 71.922 33.487 56.37 21.756 56.37z"/>
            <path fill="#FAB8BA" d="M31.784 58.775c-2.284 1.318-6 1.312-8.297-.016-2.3-1.324-2.31-3.472-.025-4.79 2.284-1.318 6-1.311 8.297.016 2.296 1.327 2.309 3.472.025 4.79M23.756 62.025c1.53.884 2.772 3.044 2.772 4.825 0 1.777-1.242 2.503-2.772 1.622-1.53-.887-2.776-3.045-2.776-4.825 0-1.78 1.245-2.506 2.776-1.622"/>
            <path fill="#FAB8BA" d="M21.878 70.875L25.724 68.654 21.789 61.839 17.943 64.06z"/>
            <path fill="#E1484D" d="M19.91 64.245c1.53.884 2.772 3.044 2.772 4.825 0 1.777-1.242 2.506-2.772 1.622-1.53-.887-2.775-3.045-2.775-4.825 0-1.78 1.245-2.506 2.775-1.622M30.033 56.373a3.788 3.788 0 01-4.819 0V23.898c0-11.37-8.167-17.567-13.315-18.806-2.132-.513-3.805-.31-4.961.599-1.369 1.08-2.123 3.301-2.123 6.257v9.298a3.042 3.042 0 01-4.679.155L0 21.246v-9.298C0 6.226 2.151 3.33 3.957 1.908 5.588.622 8.484-.683 13.027.407c8.449 2.03 17.006 10.752 17.006 23.49v32.476zM22.818 63.895c-.542.314-1.42.31-1.964-.003-.545-.317-.548-.824-.006-1.134.538-.314 1.419-.314 1.964.003.545.314.548.82.006 1.134"/>
            <path fill="#E1484D" d="M20.442 63.327L23.223 63.327 23.223 48.133 20.442 48.133z"/>
            <path fill="#FAB8BA" d="M22.818 48.7c-.542.31-1.42.31-1.964-.003-.545-.317-.548-.824-.006-1.134.538-.314 1.419-.314 1.964.003.545.314.548.82.006 1.134"/>
        </g>
    </g>
</svg>
