<svg xmlns="http://www.w3.org/2000/svg" width="66.505" height="91.156" viewBox="0 0 66.505 91.156">
  <g id="bathroom-category-washingmachine" transform="translate(66.505 -124.18) rotate(180)">
    <path id="패스_4978" data-name="패스 4978" d="M70.013-170.97l-.024.014-.125-44.379,36.8,21.388.126,44.35Z" transform="translate(-40.289 -0.001)" fill="#fbdcdd" fill-rule="evenodd"/>
    <path id="패스_4979" data-name="패스 4979" d="M.353-73.785,29.928-90.86,65.262-68.539,37.157-52.4Z" transform="translate(-0.204 -71.783)" fill="#fcddde" fill-rule="evenodd"/>
    <path id="패스_4980" data-name="패스 4980" d="M66.743-101.273l1.446-9.247.024-.014L104.994-89.16v.028l-1.446,9.247Z" transform="translate(-38.489 -60.437)" fill="#f5c6c8" fill-rule="evenodd"/>
    <path id="패스_4981" data-name="패스 4981" d="M0-198.261l29.575-17.075.126,44.379-1.447,9.247L.149-145.568Z" fill="#fbb9bb" fill-rule="evenodd"/>
    <g id="그룹_4260" data-name="그룹 4260" transform="translate(32.766 -195.084)">
      <path id="패스_4982" data-name="패스 4982" d="M20.661-87.145C14.142-90.908,8.877-100.029,8.9-107.518s5.321-10.51,11.84-6.747a25.1,25.1,0,0,1,9.449,10.924A22.609,22.609,0,0,1,32.5-93.892c-.008,3.037-.885,5.339-2.358,6.752-2.161,2.072-5.606,2.233-9.48,0" transform="translate(-5.413 116.313)" fill="#fbb9bb" fill-rule="evenodd"/>
      <path id="패스_4983" data-name="패스 4983" d="M24.573-88.157c-6.518-3.763-11.784-12.884-11.762-20.374s5.321-10.51,11.839-6.747A25.1,25.1,0,0,1,34.1-104.354a22.609,22.609,0,0,1,2.313,9.45c-.008,3.037-.885,5.339-2.359,6.752-2.16,2.072-5.606,2.233-9.48,0" transform="translate(-7.669 116.896)" fill="#fae9ea" fill-rule="evenodd"/>
      <path id="패스_4984" data-name="패스 4984" d="M39.13-90.388c.014-5.05-3.536-11.2-7.931-13.737-2.909-1.679-5.458-1.355-6.853.522a6.693,6.693,0,0,0-1.13,4.028c-.014,5.05,3.536,11.2,7.931,13.737,2.386,1.377,4.531,1.408,6,.336,1.232-.9,1.98-2.578,1.987-4.885" transform="translate(-13.67 110.161)" fill="#e1484d" fill-rule="evenodd"/>
      <path id="패스_4985" data-name="패스 4985" d="M38.273-88.363c.014-5.049-3.536-11.2-7.931-13.737-2.386-1.377-4.531-1.408-6-.336a6.693,6.693,0,0,0-1.13,4.028c-.014,5.05,3.536,11.2,7.932,13.737,2.386,1.377,4.531,1.408,6,.336a6.7,6.7,0,0,0,1.13-4.028" transform="translate(-13.67 108.993)" fill="#ff595f" fill-rule="evenodd"/>
      <path id="패스_4986" data-name="패스 4986" d="M57.269-71.581l.092.417-.948.608a18.754,18.754,0,0,1-3.033-4.737A14.74,14.74,0,0,1,52-81.217a6.216,6.216,0,0,1,1.408-4.315,3.907,3.907,0,0,1,3.05-1.225,22.615,22.615,0,0,1,2.313,9.45,10.192,10.192,0,0,1-1.5,5.726" transform="translate(-30.269 99.517)" fill="#fbb9bb" fill-rule="evenodd"/>
      <path id="패스_4987" data-name="패스 4987" d="M58.653-71.992c1.474-1.413,2.35-3.715,2.359-6.752A22.605,22.605,0,0,0,58.7-88.193a3.9,3.9,0,0,0-3.05,1.225,6.214,6.214,0,0,0-1.408,4.315,14.74,14.74,0,0,0,1.379,5.924,18.79,18.79,0,0,0,3.034,4.737" transform="translate(-31.561 100.345)" fill="#fae9ea" fill-rule="evenodd"/>
      <path id="패스_4988" data-name="패스 4988" d="M60.125-11.1c.281-1.46-.2-2.781-1.086-2.951s-1.822.877-2.1,2.337.2,2.781,1.085,2.951,1.822-.877,2.1-2.337" transform="translate(-33.07 57.6)" fill="#fbb9bb" fill-rule="evenodd"/>
      <path id="패스_4989" data-name="패스 4989" d="M58.791-8.825l1.575.455,1.018-5.287-1.33-.375S58.016-10.6,58.791-8.825" transform="translate(-34.083 57.576)" fill="#fbb9bb" fill-rule="evenodd"/>
      <path id="패스_4990" data-name="패스 4990" d="M63.267-10.22c.281-1.46-.205-2.781-1.086-2.951s-1.822.877-2.1,2.337.2,2.781,1.085,2.951,1.822-.876,2.1-2.337" transform="translate(-34.882 57.09)" fill="#fae9ea" fill-rule="evenodd"/>
      <path id="패스_4991" data-name="패스 4991" d="M1.342-47.212a.524.524,0,0,1,.3-.4.523.523,0,0,1,.494.021L9.139-43.5a.526.526,0,0,1,.257.54l-.522,3.337a.523.523,0,0,1-.3.4.521.521,0,0,1-.494-.02L1.069-43.327a.533.533,0,0,1-.257-.541l.531-3.345Zm.524-.588a.67.67,0,0,0-.662.566L.673-43.89A.674.674,0,0,0,1-43.205l7.015,4.076a.67.67,0,0,0,.625.026.67.67,0,0,0,.374-.5l.522-3.336a.666.666,0,0,0-.325-.683L2.2-47.709a.669.669,0,0,0-.338-.091ZM23.209-35.469v-.014L13-41.413l-.013.007-.72,4.609,10.216,5.937Z" transform="translate(-0.665 77.05)" fill="#ff595f" fill-rule="evenodd"/>
    </g>
  </g>
</svg>
