<svg xmlns="http://www.w3.org/2000/svg" xmlns:xlink="http://www.w3.org/1999/xlink" width="1060" height="945" viewBox="0 0 1060 945">
    <defs>
        <filter id="prefix__a" width="112.4%" height="113.9%" x="-6.2%" y="-7%" filterUnits="objectBoundingBox">
            <feOffset dy="2" in="SourceAlpha" result="shadowOffsetOuter1"/>
            <feGaussianBlur in="shadowOffsetOuter1" result="shadowBlurOuter1" stdDeviation="15"/>
            <feColorMatrix in="shadowBlurOuter1" result="shadowMatrixOuter1" values="0 0 0 0 0 0 0 0 0 0.309803922 0 0 0 0 0.321568627 0 0 0 0.2 0"/>
            <feMerge>
                <feMergeNode in="shadowMatrixOuter1"/>
                <feMergeNode in="SourceGraphic"/>
            </feMerge>
        </filter>
        <filter id="prefix__b" width="187%" height="179.4%" x="-43.5%" y="-39.7%" filterUnits="objectBoundingBox">
            <feOffset dy="2" in="SourceAlpha" result="shadowOffsetOuter1"/>
            <feGaussianBlur in="shadowOffsetOuter1" result="shadowBlurOuter1" stdDeviation="15.5"/>
            <feColorMatrix in="shadowBlurOuter1" result="shadowMatrixOuter1" values="0 0 0 0 0 0 0 0 0 0.309803922 0 0 0 0 0.321568627 0 0 0 0.2 0"/>
            <feMerge>
                <feMergeNode in="shadowMatrixOuter1"/>
                <feMergeNode in="SourceGraphic"/>
            </feMerge>
        </filter>
        <filter id="prefix__c" width="232.8%" height="217.7%" x="-50.8%" y="-62.5%" filterUnits="objectBoundingBox">
            <feOffset dy="2" in="SourceAlpha" result="shadowOffsetOuter1"/>
            <feGaussianBlur in="shadowOffsetOuter1" result="shadowBlurOuter1" stdDeviation="15.5"/>
            <feColorMatrix in="shadowBlurOuter1" result="shadowMatrixOuter1" values="0 0 0 0 0 0 0 0 0 0.309803922 0 0 0 0 0.321568627 0 0 0 0.2 0"/>
            <feMerge>
                <feMergeNode in="shadowMatrixOuter1"/>
                <feMergeNode in="SourceGraphic"/>
            </feMerge>
        </filter>
        <filter id="prefix__d" width="330.9%" height="359.2%" x="-115.5%" y="-129.6%" filterUnits="objectBoundingBox">
            <feOffset dy="2" in="SourceAlpha" result="shadowOffsetOuter1"/>
            <feGaussianBlur in="shadowOffsetOuter1" result="shadowBlurOuter1" stdDeviation="15.5"/>
            <feColorMatrix in="shadowBlurOuter1" result="shadowMatrixOuter1" values="0 0 0 0 0 0 0 0 0 0.309803922 0 0 0 0 0.321568627 0 0 0 0.2 0"/>
            <feMerge>
                <feMergeNode in="shadowMatrixOuter1"/>
                <feMergeNode in="SourceGraphic"/>
            </feMerge>
        </filter>
        <path id="prefix__e" d="M0.129 0.01L30.651 0.01 30.651 24.32 0.129 24.32z"/>
    </defs>
    <g fill="none" fill-rule="evenodd" filter="url(#prefix__a)" transform="translate(30 26)">
        <path fill="#E6F3F4" d="M0 254.591L499.878 0 999.756 254.325 999.756 635.067 499.878 889.501 0 635.067z" transform="matrix(1 0 0 -1 0 889.5)"/>
        <g fill="#DCEEEE">
            <path d="M0 242.957L474.46 0 474.46 8.453 0 251.41zM60 276.957L534.46 34 534.46 42.453 60 285.41zM120 310.957L594.46 68 594.46 76.453 120 319.41zM180 344.957L654.46 102 654.46 110.453 180 353.41zM240 378.957L714.46 136 714.46 144.453 240 387.41zM300 412.957L774.46 170 774.46 178.453 300 421.41zM360 446.957L834.46 204 834.46 212.453 360 455.41z" transform="translate(83 387)"/>
            <g>
                <path d="M0 242.957L474.46 0 474.46 8.453 0 251.41zM60 276.957L534.46 34 534.46 42.453 60 285.41zM120 310.957L594.46 68 594.46 76.453 120 319.41zM180 344.957L654.46 102 654.46 110.453 180 353.41zM240 378.957L714.46 136 714.46 144.453 240 387.41zM300 412.957L774.46 170 774.46 178.453 300 421.41zM360 446.957L834.46 204 834.46 212.453 360 455.41z" transform="translate(83 387) matrix(-1 0 0 1 835 0)"/>
            </g>
        </g>
        <path fill="#E6F3F4" d="M0 256.125L33.89 264.578 33.89 619.602 0 611.15z"/>
        <g>
            <path fill="#E6F3F4" d="M0 264.578L25.418 264.578 25.418 617.826 0 611.146z"/>
            <path fill="#9ACED0" d="M25.418 262.44L33.89 264.578 33.89 627.518 25.418 623.209z"/>
            <path fill="#B3DADB" d="M33.89 272.186L499.878 33.812 499.878 381.229 33.89 627.518z"/>
            <path fill="#E6F3F4" d="M0 255.859L499.878 0 499.878 33.812 0 289.671z"/>
            <path fill="#9ACED0" d="M25.418 268.316L499.878 25.359 499.878 33.812 25.418 276.769z"/>
        </g>
        <g>
            <path fill="#E6F3F4" d="M0 256.125L33.89 264.578 33.89 619.602 0 611.15z" transform="matrix(-1 0 0 1 999.756 0)"/>
            <g>
                <path fill="#E6F3F4" d="M0 264.578L25.418 264.578 25.418 617.826 0 611.146z" transform="matrix(-1 0 0 1 999.756 0)"/>
                <path fill="#B3DADB" d="M25.418 262.44L33.89 264.578 33.89 627.518 25.418 623.209z" transform="matrix(-1 0 0 1 999.756 0)"/>
                <path fill="#CCE7E8" d="M33.89 272.186L499.878 33.812 499.878 381.229 33.89 627.518z" transform="matrix(-1 0 0 1 999.756 0)"/>
                <g filter="url(#prefix__b)" transform="matrix(-1 0 0 1 999.756 0) rotate(-2 3753.63 -15436.366)">
                    <path fill="#CCE7E8" d="M137.434 85.407L137.029 143.254 12.644 71.442 13.05 13.594z"/>
                    <path fill="#E6F3F4" d="M7.891 74.205L12.643 71.442 137.027 143.255 132.275 146.018z"/>
                    <path fill="#02858A" d="M140.573 83.673L145.318 80.897 144.862 156.825 140.117 159.601z"/>
                    <path fill="#E6F3F4" d="M5.201 0L0.457 2.775 140.573 83.673 145.317 80.897z"/>
                    <path fill="#67B6B9" d="M0 78.704L140.116 159.6l.457-75.928L.458 2.776 0 78.704zm7.891-4.5l.407-57.848 124.384 71.813-.408 57.85L7.891 74.204z"/>
                    <path fill="#02858A" d="M8.298 16.356L13.048 13.593 12.644 71.441 7.891 74.205z"/>
                </g>
                <g filter="url(#prefix__c)" transform="matrix(-1 0 0 1 999.756 0) translate(340.756 129)">
                    <path fill="#DCEEEE" d="M0 104.67L29.878 121.044 124.154 66.155 94.674 50z"/>
                    <g filter="url(#prefix__d)" transform="translate(62 33)">
                        <path fill="#FAAB16" d="M.56 33.92l.726.428a1.428 1.428 0 01-.726-.429"/>
                        <path fill="#1B9195" d="M29.248 10.367c-.784-.447-1.862-.38-3.056.31L1.29 25.054c-.714.412-1.293 1.414-1.29 2.236 0 .358.112.618.291.768l.176.103.02.01.819.48 22.476 13.167v-.937l22.544-13.044 6.41-3.709-23.488-13.76z"/>
                        <path fill="#FAAB16" d="M.467 28.16a.582.582 0 01-.176-.103l.176.103z"/>
                        <path fill="#02858A" d="M52.736 31.612L24.394 47.958 1.286 34.348.56 33.92a1.775 1.775 0 01-.163-.205c-.243-.359-.381-.855-.384-1.466-.004-1.18.509-2.518 1.292-3.6l22.478 13.168v-.937l22.544-13.044 6.409 3.776z"/>
                        <g transform="translate(23.36 23.834)">
                            <mask id="prefix__f" fill="#fff">
                                <use xlink:href="#prefix__e"/>
                            </mask>
                            <path fill="#02858A" d="M26.32.603L1.42 14.979C.704 15.39.125 16.393.128 17.215c0 .357.11.618.292.769.24.2.601.206 1.007-.028l1.727-.998-1.727.998c-.406.234-.768.228-1.007.028l25.51-14.728c1.065-.615 1.933-.15 1.937 1.037.003 1.184-.86 2.649-1.925 3.264L2.87 20.877c-.264.153-.48.032-.481-.274-.001-.303.214-.676.478-.829L25.94 6.454c.535-.31.97-1.03.967-1.607-.001-.577-.438-.797-.973-.488L1.524 18.452C.69 19.553.14 20.95.144 22.176c.002.959.343 1.633.89 1.947.55.313 1.308.263 2.142-.219l23.172-13.378c2.386-1.377 4.312-4.714 4.304-7.455-.004-1.371-.49-2.33-1.274-2.779-.785-.445-1.864-.378-3.058.31" mask="url(#prefix__f)"/>
                        </g>
                        <path fill="#025C60" d="M49.29 27.09L23.782 41.818c.24.2.601.206 1.007-.028l1.727-.998c-.603.348-1.162.872-1.63 1.494l24.409-14.093c.535-.309.972-.09.973.488.002.577-.432 1.297-.967 1.606L26.227 43.608c-.264.153-.48.526-.478.83 0 .305.217.426.481.273l23.073-13.32c1.066-.616 1.928-2.08 1.925-3.265-.004-1.186-.872-1.651-1.937-1.036"/>
                        <path fill="#FAAB16" d="M.56 23.836l.726.429a1.588 1.588 0 01-.38-.15 1.437 1.437 0 01-.346-.28"/>
                        <path fill="#E6F3F4" d="M29.248.284c-.784-.448-1.862-.38-3.056.31L1.29 14.97c-.714.413-1.293 1.414-1.29 2.236 0 .359.112.618.291.768l.176.103.02.01.819.48 22.476 13.167v-.937l22.544-13.043 6.41-3.71L29.248.284z"/>
                        <path fill="#FAAB16" d="M.467 18.076a.576.576 0 01-.176-.102l.176.102z"/>
                        <path fill="#E5F2F3" d="M52.736 21.529L24.394 37.874 1.286 24.264l-.726-.428a1.8 1.8 0 01-.163-.205c-.243-.358-.381-.855-.384-1.466-.004-1.18.509-2.518 1.292-3.6l22.478 13.169v-.938l22.544-13.043 6.409 3.776z"/>
                        <path fill="#B3DADB" d="M49.68 14.353l-24.9 14.376c-.715.413-1.294 1.415-1.291 2.236 0 .357.11.618.292.77.24.199.601.205 1.007-.03l1.727-.997-1.727.998c-.406.234-.768.228-1.007.028l25.51-14.728c1.065-.615 1.933-.15 1.937 1.037.003 1.185-.86 2.649-1.925 3.264L26.23 34.627c-.264.154-.48.032-.481-.274-.001-.303.214-.676.478-.829L49.3 20.204c.535-.31.97-1.03.967-1.607-.001-.577-.438-.797-.973-.487l-24.41 14.092c-.835 1.102-1.385 2.498-1.381 3.725.002.958.343 1.632.89 1.946.55.313 1.308.263 2.142-.218l23.172-13.379c2.386-1.377 4.312-4.714 4.304-7.454-.004-1.372-.49-2.331-1.274-2.78-.785-.445-1.864-.378-3.058.31"/>
                        <path fill="#02858A" d="M49.29 17.006L23.782 31.734c.24.2.601.206 1.007-.028l1.727-.998c-.603.348-1.162.872-1.63 1.494L49.293 18.11c.535-.31.972-.09.973.487.002.578-.432 1.297-.967 1.606L26.227 33.524c-.264.153-.48.526-.478.83 0 .305.217.427.481.274l23.073-13.321c1.066-.615 1.928-2.08 1.925-3.264-.004-1.187-.872-1.652-1.937-1.037"/>
                    </g>
                    <path fill="#B3DADB" d="M0 107.456L29.878 123.829 29.878 121.045 0 104.67z"/>
                    <path fill="#DCEEEE" d="M29.878 121.045L29.878 123.829 124.154 68.941 124.154 66.156z"/>
                    <path fill="#E6F3F4" d="M94.674 0L0 54.671 29.878 71.044 124.154 16.156z"/>
                    <path fill="#B3DADB" d="M0 57.456L29.878 73.829 29.878 71.045 0 54.671z"/>
                    <path fill="#DCEEEE" d="M29.878 71.045L29.878 73.829 124.154 18.94 124.154 16.155z"/>
                </g>
                <path fill="#E6F3F4" d="M0 255.859L499.878 0 499.878 33.812 0 289.671z" transform="matrix(-1 0 0 1 999.756 0)"/>
                <path fill="#B3DADB" d="M25.418 268.316L499.878 25.359 499.878 33.812 25.418 276.769z" transform="matrix(-1 0 0 1 999.756 0)"/>
            </g>
        </g>
    </g>
</svg>
