<svg xmlns="http://www.w3.org/2000/svg" xmlns:xlink="http://www.w3.org/1999/xlink" width="210" height="268" viewBox="0 0 210 268">
    <defs>
        <path id="prefix__b" d="M0.351 0.277L110.137 0.277 110.137 64.089 0.351 64.089z"/>
        <path id="prefix__c" d="M0.212 0.481L125.647 0.481 125.647 70.929 0.212 70.929z"/>
        <path id="prefix__e" d="M0.775 0.786L125.647 0.786 125.647 72.883 0.775 72.883z"/>
        <filter id="prefix__a" width="184.7%" height="158%" x="-42.3%" y="-29%" filterUnits="objectBoundingBox">
            <feOffset dy="2" in="SourceAlpha" result="shadowOffsetOuter1"/>
            <feGaussianBlur in="shadowOffsetOuter1" result="shadowBlurOuter1" stdDeviation="15.5"/>
            <feColorMatrix in="shadowBlurOuter1" result="shadowMatrixOuter1" values="0 0 0 0 0 0 0 0 0 0.309803922 0 0 0 0 0.321568627 0 0 0 0.2 0"/>
            <feMerge>
                <feMergeNode in="shadowMatrixOuter1"/>
                <feMergeNode in="SourceGraphic"/>
            </feMerge>
        </filter>
    </defs>
    <g fill="none" fill-rule="evenodd" filter="url(#prefix__a)" transform="translate(30 28)">
        <g transform="translate(19.958 153.14)"/>
        <path fill="#EFA5A7" d="M118.097 192.728c-.83-18.555 13.191-25.036 13.079-42.936-.069-11.14-101.16-17.609-98.705-14.303 12.215 16.441 11.22 32.603 15.604 47.577 0 0 70.75 25.93 70.022 9.662"/>
        <path fill="#EFA5A7" d="M76.148 203.75h-.004l-.245-.17c-.087-.06-.177-.114-.256-.182-5.452-4.648-4.215-5.27-6.733-7.181-5.29-4.011-10.537-6.443-19.506-11.532-2.028-1.15-1.734-3.3.403-4.532l15.887-25.296c2.134-1.229 5.534-1.33 7.853-.23l36.368 21.677c.106.05.207 7.408.313 7.457l.298.14-.008.003c.434.211.86.434 1.267.671 8.969 5.176 8.516 13.828-1.003 19.325-9.523 5.496-24.508 5.757-33.473.577-.41-.234-.792-.48-1.161-.728"/>
        <path fill="#F7AFB1" d="M55.991 156.746c-.848 6.997 6.47 20.482 11.378 24.32 4.905 3.842 4.124-12.588 5.048-15.928.927-3.344-.852-5.971-4.407-8.392-3.555-2.416-11.235-6.469-12.019 0"/>
        <g transform="translate(23.728 96.591)">
            <mask id="prefix__d" fill="#fff">
                <use xlink:href="#prefix__c"/>
            </mask>
            <path fill="#FBB9BB" d="M37.445 61.602l-.012.004-.509-.358a19.33 19.33 0 01-.535-.38L3.546 39.291C1.664 37.965.748 34.708.775 33.098c.034-1.798-1.569-8.78.486-12.81L51.537 2.569c4.475-2.586 11.6-2.793 16.46-.49l40.228 18.963c.219.102.437.203.652.309l.63.294-.015.008c.908.444 1.798.908 2.654 1.402 9.021 5.206 13.492-.317 13.503 6.71v10.87c-.037 7.58-5.274 15.316-15.607 21.284-19.958 11.52-51.373 12.068-70.166 1.214a39.482 39.482 0 01-2.431-1.53" mask="url(#prefix__d)"/>
        </g>
        <g transform="translate(23.728 83.729)">
            <mask id="prefix__f" fill="#fff">
                <use xlink:href="#prefix__e"/>
            </mask>
            <path fill="#FBC9CB" d="M37.445 63.556l-.012.004-.509-.359a19.33 19.33 0 01-.535-.38L3.546 39.598c-3.997-2.809-3.63-6.918.844-9.504L51.537 2.875c4.475-2.586 11.6-2.797 16.46-.49l40.228 18.963c.219.102.437.203.652.309l.63.294-.015.008c.908.444 1.798.908 2.654 1.402 18.796 10.85 17.854 28.99-2.104 40.511-19.958 11.521-51.373 12.068-70.166 1.214a39.482 39.482 0 01-2.431-1.53" mask="url(#prefix__f)"/>
        </g>
        <path fill="#FF9B9F" d="M131.036 132.7c-1.84 2.941-4.84 5.734-8.99 8.132-14.063 8.12-36.068 8.63-49.051 1.131a28.44 28.44 0 01-1.648-1.04l-.362-.242-9.632-7.728-3.14-2.518c-4.155-3.088-3.657-7.495 1.165-10.277l26.857-15.506c4.821-2.786 12.455-3.072 17.805-.675l17.647 7.333.516.256c.736.355 1.305.66 1.806.95 9.15 5.282 11.412 13.154 7.027 20.184"/>
        <path fill="#FF595F" d="M131.036 132.7c-1.84 2.941-4.84 5.734-8.99 8.132-14.063 8.12-36.068 8.63-49.051 1.131a28.44 28.44 0 01-1.648-1.04l-.362-.242-9.632-7.728 24.882-14.37c4.821-2.783 12.455-3.073 17.805-.672l17.647 7.333.516.248c.736.366 1.305.668 1.806.954 3.163 1.821 5.5 3.955 7.027 6.254"/>
        <path fill="#FF7A7F" d="M59.377 122.398l26.86-15.506c4.818-2.786 12.452-3.073 17.806-.675l17.643 7.333.52.252c.728.362 1.3.664 1.802.954 5.663 3.265 8.686 7.529 9.13 11.962.487-5.221-2.521-10.386-9.13-14.205a35.4 35.4 0 00-1.802-.95l-.52-.253-17.643-7.332c-5.354-2.398-12.988-2.111-17.806.67l-26.86 15.51c-3.122 1.802-4.43 4.287-3.834 6.65.407-1.617 1.692-3.174 3.834-4.41"/>
        <path fill="#FBC9CB" d="M30.091 114.909l51.415-29.684c3.532-2.04 3.087-5.636-.996-7.993l-9.247-5.338c-4.083-2.356-10.315-2.616-13.847-.577L6.002 101.002c-3.536 2.043-3.088 5.64.995 7.996l9.248 5.338c4.079 2.356 10.314 2.616 13.846.573"/>
        <path fill="#FBC9CB" d="M0 38.132L3.733 105.316 83.866 82.063 87.451 12.659z"/>
        <path fill="#FBC9CB" d="M28.86 49.02l56.047-32.357c3.853-2.224 3.363-6.149-1.085-8.716L73.74 2.127C69.292-.442 62.499-.724 58.646 1.5L2.599 33.861c-3.853 2.22-3.363 6.145 1.085 8.713l10.081 5.82c4.449 2.572 11.242 2.85 15.095.626"/>
        <path fill="#FCDDDE" d="M22.307 47.187c-2.797 0-5.602-.694-7.69-1.9l-10.081-5.82c-1.776-1.022-2.832-2.316-2.832-3.458 0-1.074.95-1.847 1.746-2.307L59.497 1.345C60.92.523 62.943.07 65.197.07c2.801 0 5.602.694 7.691 1.9l10.085 5.821c1.771 1.022 2.83 2.315 2.83 3.457 0 1.071-.95 1.848-1.748 2.307L28.007 45.913c-1.421.822-3.446 1.274-5.7 1.274z"/>
        <path fill="#FF9B9F" d="M72.998 140.164a31.558 31.558 0 01-1.647-1.04l-.362-.245-12.772-10.243c-4.159-3.087-3.661-7.495 1.16-10.28l26.861-15.506c4.818-2.782 12.452-3.069 17.802-.671l17.647 7.328.516.257c.732.358 1.305.66 1.806.95 12.98 7.494 12.102 20.195-1.964 28.316-14.062 8.12-36.067 8.63-49.047 1.134m-9.394 6.85c18.797 10.854 50.211 10.307 70.17-1.213 19.954-11.521 20.896-29.658 2.1-40.512a47.65 47.65 0 00-2.651-1.402l.011-.008-.626-.294c-.218-.102-.433-.207-.652-.31L106.02 90.738c-7.483-3.525-18.408-3.193-25.277.777L39.74 115.185c-6.869 3.966-7.45 10.273-1.346 14.593l21.723 14.97c.173.129.358.257.539.381l.505.362.011-.007a40.654 40.654 0 002.432 1.53"/>
        <path fill="#FAE9EA" d="M72.998 136.864a27.21 27.21 0 01-1.647-1.04l-.362-.245-12.772-10.243c-4.159-3.088-3.661-7.495 1.16-10.277l26.861-15.51c4.818-2.782 12.452-3.068 17.802-.67l17.647 7.332.516.253a31.54 31.54 0 011.806.95c12.98 7.494 12.102 20.199-1.964 28.32-14.062 8.12-36.067 8.625-49.047 1.13m-9.394 6.85c18.797 10.854 50.211 10.311 70.17-1.214 19.954-11.52 20.896-29.658 2.1-40.507a45.292 45.292 0 00-2.651-1.407l.011-.007-.626-.294c-.218-.102-.433-.208-.652-.306L106.02 87.437c-7.483-3.525-18.408-3.19-25.277.776L39.74 111.885c-6.869 3.966-7.45 10.277-1.346 14.593l21.723 14.974c.173.125.358.253.539.381l.505.358.011-.007c.777.524 1.576 1.04 2.432 1.53"/>
        <path fill="#FBC9CB" d="M38.811 24.521c2.285 1.32 5.998 1.312 8.298-.015s2.31-3.472.026-4.792c-2.284-1.32-5.998-1.312-8.297.015-2.3 1.328-2.311 3.473-.027 4.792"/>
        <path fill="#FAE9EA" d="M38.811 23.592c2.285 1.32 5.998 1.312 8.298-.015s2.31-3.472.026-4.792c-2.284-1.32-5.998-1.316-8.297.015-2.3 1.327-2.311 3.472-.027 4.792"/>
        <path fill="#FF9B9F" d="M43 18.658c-1.168 0-2.34.253-3.23.77-.837.486-1.297 1.115-1.293 1.779 0 .656.452 1.274 1.274 1.75 1.764 1.02 4.645 1.013 6.424-.008.833-.487 1.297-1.116 1.297-1.776 0-.656-.452-1.278-1.274-1.757-.882-.509-2.04-.758-3.197-.758m-.057 5.373c-1.214 0-2.428-.268-3.351-.8-.924-.531-1.433-1.255-1.437-2.024 0-.784.517-1.512 1.456-2.055 1.866-1.07 4.89-1.082 6.744-.007.924.535 1.433 1.251 1.433 2.028 0 .78-.517 1.504-1.456 2.043-.934.543-2.16.815-3.389.815"/>
        <path fill="#FAE9EA" d="M28.86 49.02L30.093 114.911 81.503 85.227 84.907 16.663z"/>
    </g>
</svg>
