<svg xmlns="http://www.w3.org/2000/svg" width="44.39" height="96.38" viewBox="0 0 44.39 96.38">
  <g id="bathroom-category-shower" transform="translate(0 -0.88)">
    <path id="패스_4900" data-name="패스 4900" d="M65.3,268.4,85.946,280.32l-1.416.818,1.416.818L63.887,294.69l-1.415.818,2.687,1.551,26.16-15.1V280.32l-28.7-13.467Z" transform="translate(-46.929 -199.799)" fill="#fbb9bb" fill-rule="evenodd"/>
    <path id="패스_4901" data-name="패스 4901" d="M86.388,280.321l-1.417.819-19.224-11.1-2.686-1.552v-1.634l2.686,1.551Z" transform="translate(-47.371 -199.799)" fill="#fff" fill-rule="evenodd"/>
    <path id="패스_4902" data-name="패스 4902" d="M62.472,377.09l2.687,1.551v-1.635l-2.687-1.551Z" transform="translate(-46.929 -281.38)" fill="#fefcfc" fill-rule="evenodd"/>
    <path id="패스_4903" data-name="패스 4903" d="M62.619,262.17l2.687,1.551,20.641,11.916-1.416.818L62.473,289.189l1.415.818,1.272.733,26.16-15.1L65.306,260.618Z" transform="translate(-46.93 -195.115)" fill="#fae9ea" fill-rule="evenodd"/>
    <g id="그룹_4243" data-name="그룹 4243" transform="translate(0 0.88)">
      <path id="패스_4904" data-name="패스 4904" d="M76.07,293.471l-.349-.6,19.8-11.434a2.074,2.074,0,0,0,1.188-1.716,1.9,1.9,0,0,0-1.075-1.6L76.092,266.835l.349-.6,19.547,11.285a2.579,2.579,0,0,1,1.423,2.2,2.745,2.745,0,0,1-1.536,2.32Z" transform="translate(-56.882 -200.167)" fill="#eaf3fc" fill-rule="evenodd"/>
      <path id="패스_4905" data-name="패스 4905" d="M75.722,80.563v62.951l.349.6L96.446,132.1l.966-1.737V67.412l-1.257,1.573Z" transform="translate(-56.882 -50.814)" fill="#fbc9cb" fill-rule="evenodd"/>
      <path id="패스_4906" data-name="패스 4906" d="M77.213,15.638V78.59L97.637,90.026l.9,1.446V28.519L97.3,26.985Z" transform="translate(-58.002 -11.922)" fill="#fbb9bb" fill-rule="evenodd"/>
      <path id="패스_4907" data-name="패스 4907" d="M76.07,40.45l-.349-.6,19.8-11.434A2.074,2.074,0,0,0,96.714,26.7a1.9,1.9,0,0,0-1.075-1.6L76.092,13.814l.349-.6L95.988,24.5a2.579,2.579,0,0,1,1.423,2.2,2.745,2.745,0,0,1-1.536,2.32Z" transform="translate(-56.882 -10.098)" fill="#fae9ea" fill-rule="evenodd"/>
      <path id="패스_4908" data-name="패스 4908" d="M71.633,1.4a1.195,1.195,0,0,0-1.19,1.192V28.736a6.847,6.847,0,0,1,2.593-2.665L91.411,15.462a1.632,1.632,0,0,0,0-2.827L72.228,1.56a1.186,1.186,0,0,0-.6-.162ZM70.3,94.519h-.7V32.009a6.823,6.823,0,0,1,.137-1.362V2.59A1.888,1.888,0,0,1,72.577.956L91.759,12.031a2.33,2.33,0,0,1,0,4.036L73.385,26.675a6.175,6.175,0,0,0-2.942,4.043v35.5H70.3v28.3Z" transform="translate(-52.29 -0.7)" fill="#ff595f" fill-rule="evenodd"/>
      <path id="패스_4909" data-name="패스 4909" d="M3.976,241.858a1.057,1.057,0,0,0-.476.829c0,.306.213.431.476.278a1.057,1.057,0,0,0,.476-.829c0-.306-.213-.43-.476-.278" transform="translate(-2.629 -181.809)" fill="#ff7a7f" fill-rule="evenodd"/>
      <path id="패스_4910" data-name="패스 4910" d="M4.895,243.581l-.839-.484.676-1.17.839.484Z" transform="translate(-3.047 -181.909)" fill="#ff7a7f" fill-rule="evenodd"/>
      <path id="패스_4911" data-name="패스 4911" d="M7.348,243.8a1.057,1.057,0,0,0-.476.828c0,.306.213.431.476.278a1.057,1.057,0,0,0,.476-.828c0-.306-.213-.43-.476-.279" transform="translate(-5.162 -183.271)" fill="#d9b064" fill-rule="evenodd"/>
      <path id="패스_4912" data-name="패스 4912" d="M10.149,238.532a1.056,1.056,0,0,0-.477.829c0,.306.213.431.477.278a1.057,1.057,0,0,0,.476-.829c0-.306-.213-.43-.476-.278" transform="translate(-7.266 -179.311)" fill="#ff7a7f" fill-rule="evenodd"/>
      <path id="패스_4913" data-name="패스 4913" d="M11.07,240.255l-.839-.484.675-1.171.839.484Z" transform="translate(-7.686 -179.41)" fill="#ff7a7f" fill-rule="evenodd"/>
      <path id="패스_4914" data-name="패스 4914" d="M13.521,240.479a1.057,1.057,0,0,0-.476.828c0,.306.213.431.476.279a1.056,1.056,0,0,0,.477-.829c0-.306-.213-.43-.477-.278" transform="translate(-9.799 -180.773)" fill="#d9b064" fill-rule="evenodd"/>
      <path id="패스_4915" data-name="패스 4915" d="M36.4,42.8H36.12a2.6,2.6,0,0,0-.853-.745,5.981,5.981,0,0,0-5.413-.01A2.53,2.53,0,0,0,29,42.8h-.259v.8a.144.144,0,0,0,0,.015h0a1.923,1.923,0,0,0,1.129,1.558,5.984,5.984,0,0,0,5.414.01A1.882,1.882,0,0,0,36.4,43.614V42.8Z" transform="translate(-21.59 -31.277)" fill="#ff595f" fill-rule="evenodd"/>
      <path id="패스_4916" data-name="패스 4916" d="M35.281,41.916a5.983,5.983,0,0,1-5.413-.01c-1.5-.866-1.507-2.265-.017-3.125a5.984,5.984,0,0,1,5.414.009c1.5.866,1.507,2.265.017,3.126" transform="translate(-21.588 -28.823)" fill="#9aced0" fill-rule="evenodd"/>
      <path id="패스_4917" data-name="패스 4917" d="M23.3,41.788a5.783,5.783,0,0,1-5.232-.01c-1.45-.837-1.457-2.189-.017-3.021a5.782,5.782,0,0,1,5.232.009c1.45.837,1.457,2.19.017,3.021m-9.479,48.1a.836.836,0,0,1-.756,0,.231.231,0,0,1,0-.437.836.836,0,0,1,.756,0,.231.231,0,0,1,0,.437" transform="translate(-9.693 -28.823)" fill="#ff9b9f" fill-rule="evenodd"/>
      <path id="패스_4918" data-name="패스 4918" d="M12.9,198.823h1.069V183.446H12.9Z" transform="translate(-9.693 -137.979)" fill="#ff9b9f" fill-rule="evenodd"/>
      <path id="패스_4919" data-name="패스 4919" d="M13.816,182.733a.836.836,0,0,1-.756,0,.231.231,0,0,1,0-.437.838.838,0,0,1,.756,0,.23.23,0,0,1,0,.436" transform="translate(-9.693 -137.047)" fill="#e6cc9b" fill-rule="evenodd"/>
      <path id="패스_4920" data-name="패스 4920" d="M7.76,248.034a.835.835,0,0,1-.755,0,.231.231,0,0,1,0-.437.836.836,0,0,1,.756,0c.209.122.21.317,0,.437" transform="translate(-5.143 -186.101)" fill="#ff9b9f" fill-rule="evenodd"/>
      <path id="패스_4921" data-name="패스 4921" d="M6.846,202.318H7.915V186.941H6.846Z" transform="translate(-5.143 -140.604)" fill="#ff9b9f" fill-rule="evenodd"/>
      <path id="패스_4922" data-name="패스 4922" d="M7.76,186.23a.835.835,0,0,1-.755,0,.231.231,0,0,1,0-.437.838.838,0,0,1,.756,0,.23.23,0,0,1,0,.436" transform="translate(-5.143 -139.674)" fill="#e6cc9b" fill-rule="evenodd"/>
      <path id="패스_4923" data-name="패스 4923" d="M7.012,182.036a1.426,1.426,0,0,0-.974.167l-.2.118-1.617.389v2.541h0a.428.428,0,0,0,.213.341l.133.076a1.429,1.429,0,0,0,1.428,0l1.6-.926a.428.428,0,0,0,.215-.367h0v-2.532Z" transform="translate(-3.169 -136.775)" fill="#ff595f" fill-rule="evenodd"/>
      <path id="패스_4924" data-name="패스 4924" d="M6,181.2l1.6-.926a.432.432,0,0,0,0-.749l-.133-.077a1.428,1.428,0,0,0-1.427,0l-1.6.926a.432.432,0,0,0,0,.749l.133.077A1.428,1.428,0,0,0,6,181.2" transform="translate(-3.17 -134.835)" fill="#ff7a7f" fill-rule="evenodd"/>
      <path id="패스_4925" data-name="패스 4925" d="M10.742,61.751h-.7V24.486a3.038,3.038,0,0,1,3.907-2.912l1.534.458a4.774,4.774,0,0,1,3.386,4.545v1.268h-.7V26.578A4.071,4.071,0,0,0,15.286,22.7l-1.534-.458a2.341,2.341,0,0,0-3.01,2.244V61.751Z" transform="translate(-7.545 -16.284)" fill="#ff9b9f" fill-rule="evenodd"/>
      <path id="패스_4926" data-name="패스 4926" d="M3.78,188.442a1.275,1.275,0,0,1,.575,1c0,.369-.257.52-.575.337a1.277,1.277,0,0,1-.575-1c0-.369.258-.519.575-.336" transform="translate(-2.408 -141.673)" fill="#9aced0" fill-rule="evenodd"/>
      <path id="패스_4927" data-name="패스 4927" d="M1.488,190.4l.8-.461-.816-1.413-.8.461Z" transform="translate(-0.505 -141.792)" fill="#9aced0" fill-rule="evenodd"/>
      <path id="패스_4928" data-name="패스 4928" d="M.575,189.449a1.273,1.273,0,0,1,.575,1c0,.369-.257.52-.575.337a1.278,1.278,0,0,1-.575-1c0-.369.258-.52.575-.336m.6-.073a.449.449,0,0,1-.407,0c-.113-.065-.114-.171,0-.235a.452.452,0,0,1,.408,0,.124.124,0,0,1,0,.235" transform="translate(0 -142.22)" fill="#ff7a7f" fill-rule="evenodd"/>
      <path id="패스_4929" data-name="패스 4929" d="M2.756,180.249h.576V177.1H2.756Z" transform="translate(-2.07 -133.211)" fill="#ff7a7f" fill-rule="evenodd"/>
      <path id="패스_4930" data-name="패스 4930" d="M3.248,176.713a.45.45,0,0,1-.407,0,.124.124,0,0,1,0-.235.449.449,0,0,1,.408,0,.124.124,0,0,1,0,.235" transform="translate(-2.07 -132.707)" fill="#ff7a7f" fill-rule="evenodd"/>
    </g>
  </g>
</svg>
