<svg xmlns="http://www.w3.org/2000/svg" width="70.683" height="103.291" viewBox="0 0 70.683 103.291">
  <g id="bathroom-category-basin" transform="translate(-1.372 2.223) rotate(-2)">
    <path id="패스_4876" data-name="패스 4876" d="M134.715,30.047c0,10.225-7.224,14.345-16.135,9.2s-16.134-17.6-16.134-27.83,7.223-14.343,16.134-9.2,16.135,17.6,16.135,27.83" transform="translate(-71.008 0)" fill="#ffbdbf" fill-rule="evenodd"/>
    <path id="패스_4877" data-name="패스 4877" d="M130.932,32.615c0,10.225-7.224,14.345-16.135,9.2s-16.135-17.6-16.135-27.83S105.885-.36,114.8,4.784s16.135,17.605,16.135,27.83" transform="translate(-68.385 -1.78)" fill="#ff8a8f" fill-rule="evenodd"/>
    <path id="패스_4878" data-name="패스 4878" d="M130.86,33.257c0,10.12-7.15,14.2-15.969,9.1S98.922,24.937,98.922,14.818s7.15-14.2,15.969-9.106S130.86,23.137,130.86,33.257" transform="translate(-68.565 -2.439)" fill="#ffeeef" fill-rule="evenodd"/>
    <path id="패스_4879" data-name="패스 4879" d="M131.956,35.281c0,9.568-6.76,13.423-15.1,8.608s-15.1-16.474-15.1-26.042,6.76-13.423,15.1-8.609,15.1,16.475,15.1,26.043" transform="translate(-70.532 -4.966)" fill="#fefcfc" fill-rule="evenodd"/>
    <path id="패스_4880" data-name="패스 4880" d="M117.808,44.668c-8.338-4.814-15.1-16.474-15.1-26.043,0-4.762,1.674-8.108,4.385-9.675-3.263,1.294-5.333,4.838-5.333,10.134,0,9.568,6.76,21.229,15.1,26.043,4.189,2.418,7.979,2.648,10.714,1.066-2.633,1.045-6.041.624-9.765-1.525" transform="translate(-70.532 -6.203)" fill="#fbcacb" fill-rule="evenodd"/>
    <path id="패스_4881" data-name="패스 4881" d="M9.711,163.9,60.88,193.442v21.394L9.711,185.294Z" transform="translate(-6.731 -113.603)" fill="#f5d5d6" fill-rule="evenodd"/>
    <path id="패스_4882" data-name="패스 4882" d="M13.747,186.192V166.228L62.439,194.34V214.3Z" transform="translate(-9.528 -115.217)" fill="#f5c6c8" fill-rule="evenodd"/>
    <path id="패스_4883" data-name="패스 4883" d="M24.124,136.78l51.169,29.542-14.414,8.322L9.71,145.1Z" transform="translate(-6.73 -94.806)" fill="#efcdb3" fill-rule="evenodd"/>
    <path id="패스_4884" data-name="패스 4884" d="M190.868,233.05l-14.415,8.322v21.394l14.415-8.322Z" transform="translate(-122.305 -161.533)" fill="#fab8ba" fill-rule="evenodd"/>
    <g id="그룹_4240" data-name="그룹 4240" transform="translate(0 49.364)">
      <path id="패스_4885" data-name="패스 4885" d="M0,.4,51.169,29.939v2.654L0,3.05Z" transform="translate(0 -0.397)" fill="#f5d5d6" fill-rule="evenodd"/>
    </g>
    <path id="패스_4886" data-name="패스 4886" d="M17.394,128.133l51.169,29.542L51.17,167.718,0,138.176Z" transform="translate(0 -88.812)" fill="#fcddde" fill-rule="evenodd"/>
    <path id="패스_4887" data-name="패스 4887" d="M184.138,224.4l-17.394,10.042V237.1l17.394-10.043Z" transform="translate(-115.575 -155.539)" fill="#fab8ba" fill-rule="evenodd"/>
    <g id="그룹_4241" data-name="그룹 4241" transform="translate(18.805 44.786)">
      <path id="패스_4888" data-name="패스 4888" d="M32.942,38.7c-3.522,2.034-11.423.77-17.646-2.823S6.882,27.721,10.4,25.687s11.423-.77,17.647,2.824,8.412,8.154,4.89,10.187" transform="translate(-6.046 -17.131)" fill="#fbb9bb" fill-rule="evenodd"/>
      <path id="패스_4889" data-name="패스 4889" d="M26.433,30.594c2.739-1.191,4.753-5.059,4.753-7.009C31.185,22.782,0,11.175,0,12.846A18.445,18.445,0,0,0,4.687,24.031c1.273,1.347,8.81,3.348,8.81,3.348l12.936,3.215Z" transform="translate(0 -8.79)" fill="#fbb9bb" fill-rule="evenodd"/>
      <path id="패스_4890" data-name="패스 4890" d="M29.444,17c-4.03,2.326-13.481.642-21.112-3.764S-2.217,3.372,1.812,1.046,15.293.4,22.924,4.809,33.475,14.672,29.444,17" transform="translate(-0.001 0)" fill="#fdedee" fill-rule="evenodd"/>
      <path id="패스_4891" data-name="패스 4891" d="M31.447,18.156a6.229,6.229,0,0,1-1.587.623c-4.183,1.067-11.5-.539-17.555-4.035a25.348,25.348,0,0,1-4.326-3.089C4.462,8.472,3.644,5.28,6.392,3.692,10.047,1.583,18.617,3.111,25.536,7.1s9.564,8.944,5.911,11.052" transform="translate(-3.292 -1.902)" fill="#fbb9bb" fill-rule="evenodd"/>
      <path id="패스_4892" data-name="패스 4892" d="M37.153,36.349c-4.182,1.067-11.5-.539-17.556-4.035a25.376,25.376,0,0,1-4.325-3.089,3.352,3.352,0,0,1,.493-.341c3.047-1.76,10.2-.485,15.965,2.847a16.344,16.344,0,0,1,5.423,4.618" transform="translate(-10.585 -19.471)" fill="#fcddde" fill-rule="evenodd"/>
    </g>
    <g id="그룹_4242" data-name="그룹 4242" transform="translate(42.385 45.73)">
      <path id="패스_4893" data-name="패스 4893" d="M24.833,70.313a2.815,2.815,0,0,1-2.546,0,.776.776,0,0,1-.008-1.47,2.814,2.814,0,0,1,2.546,0,.776.776,0,0,1,.008,1.47" transform="translate(-15.079 -47.504)" fill="#e1484d" fill-rule="evenodd"/>
      <path id="패스_4894" data-name="패스 4894" d="M21.756,61.143h3.6V56.37h-3.6Z" transform="translate(-15.08 -39.072)" fill="#e1484d" fill-rule="evenodd"/>
      <path id="패스_4895" data-name="패스 4895" d="M24.3,54.762a2.814,2.814,0,0,1-2.546,0,.776.776,0,0,1-.008-1.47,2.815,2.815,0,0,1,2.546,0,.776.776,0,0,1,.008,1.47m-2.464,1a1.888,1.888,0,0,1,.851,1.481c0,.545-.381.768-.851.5a1.891,1.891,0,0,1-.852-1.481c0-.546.382-.769.852-.5" transform="translate(-14.542 -36.725)" fill="#fab8ba" fill-rule="evenodd"/>
      <path id="패스_4896" data-name="패스 4896" d="M19.151,64.612l1.18-.682-1.208-2.091-1.18.682Z" transform="translate(-12.437 -42.862)" fill="#fab8ba" fill-rule="evenodd"/>
      <path id="패스_4897" data-name="패스 4897" d="M6.11,19.715A1.888,1.888,0,0,1,6.961,21.2c0,.545-.381.769-.851.5a1.891,1.891,0,0,1-.852-1.481c0-.546.382-.769.852-.5M9.216,17.3a1.162,1.162,0,0,1-1.479,0V7.334A5.851,5.851,0,0,0,3.651,1.563a1.737,1.737,0,0,0-1.522.184,2.411,2.411,0,0,0-.651,1.92V6.52a.934.934,0,0,1-1.436.048L0,6.52V3.667A3.668,3.668,0,0,1,1.214.586,3.116,3.116,0,0,1,4,.125,7.262,7.262,0,0,1,9.216,7.333ZM7,19.608a.665.665,0,0,1-.6,0c-.167-.1-.168-.253,0-.348a.662.662,0,0,1,.6,0,.184.184,0,0,1,0,.348" transform="translate(0 0)" fill="#e1484d" fill-rule="evenodd"/>
      <path id="패스_4898" data-name="패스 4898" d="M20.442,52.8H21.3V48.133h-.853Z" transform="translate(-14.169 -33.362)" fill="#e1484d" fill-rule="evenodd"/>
      <path id="패스_4899" data-name="패스 4899" d="M21.172,47.749a.669.669,0,0,1-.6,0c-.167-.1-.168-.253,0-.348a.662.662,0,0,1,.6,0,.184.184,0,0,1,0,.348" transform="translate(-14.17 -32.804)" fill="#fab8ba" fill-rule="evenodd"/>
    </g>
  </g>
</svg>
