<svg xmlns="http://www.w3.org/2000/svg" xmlns:xlink="http://www.w3.org/1999/xlink" width="1060" height="945" viewBox="0 0 1060 945">
    <defs>
        <filter id="a" width="112.4%" height="113.9%" x="-6.2%" y="-7%" filterUnits="objectBoundingBox">
            <feOffset dy="2" in="SourceAlpha" result="shadowOffsetOuter1"/>
            <feGaussianBlur in="shadowOffsetOuter1" result="shadowBlurOuter1" stdDeviation="15"/>
            <feColorMatrix in="shadowBlurOuter1" result="shadowMatrixOuter1" values="0 0 0 0 0 0 0 0 0 0.309803922 0 0 0 0 0.321568627 0 0 0 0.2 0"/>
            <feMerge>
                <feMergeNode in="shadowMatrixOuter1"/>
                <feMergeNode in="SourceGraphic"/>
            </feMerge>
        </filter>
        <filter id="b" width="243.8%" height="143.3%" x="-71.6%" y="-21.6%" filterUnits="objectBoundingBox">
            <feOffset dy="2" in="SourceAlpha" result="shadowOffsetOuter1"/>
            <feGaussianBlur in="shadowOffsetOuter1" result="shadowBlurOuter1" stdDeviation="15"/>
            <feColorMatrix in="shadowBlurOuter1" result="shadowMatrixOuter1" values="0 0 0 0 0 0 0 0 0 0.309803922 0 0 0 0 0.321568627 0 0 0 0.2 0"/>
            <feMerge>
                <feMergeNode in="shadowMatrixOuter1"/>
                <feMergeNode in="SourceGraphic"/>
            </feMerge>
        </filter>
        <path id="c" d="M.21.253h43.844V15.9H.21z"/>
        <path id="e" d="M0 .199h86.205v79.396H0z"/>
        <path id="g" d="M.247.022h34.751v11.67H.247z"/>
        <filter id="i" width="174.4%" height="147.6%" x="-36.9%" y="-23.7%" filterUnits="objectBoundingBox">
            <feOffset dy="2" in="SourceAlpha" result="shadowOffsetOuter1"/>
            <feGaussianBlur in="shadowOffsetOuter1" result="shadowBlurOuter1" stdDeviation="15"/>
            <feColorMatrix in="shadowBlurOuter1" result="shadowMatrixOuter1" values="0 0 0 0 0 0 0 0 0 0.309803922 0 0 0 0 0.321568627 0 0 0 0.2 0"/>
            <feMerge>
                <feMergeNode in="shadowMatrixOuter1"/>
                <feMergeNode in="SourceGraphic"/>
            </feMerge>
        </filter>
        <path id="j" d="M0 0l34.897 17.78v121.684l-12.438 2.926-1.344-5.702-7.395-.838-1.681-6.707-4.538 1.509-1.849-5.869L0 127.831z"/>
        <path id="l" d="M.259.127h34.896V176.33H.26z"/>
        <path id="n" d="M0 0l34.897 60.044V181.73l-12.438 2.926-1.344-5.701-7.395-.839-1.681-6.708-4.538 1.51-1.849-5.87L0 170.097V68.142z"/>
        <path id="p" d="M0 .077h167.166v96.29H0z"/>
        <path id="r" d="M.234.436h14.512v15.93H.234z"/>
        <filter id="t" width="168.4%" height="170.7%" x="-34%" y="-35.3%" filterUnits="objectBoundingBox">
            <feOffset dy="2" in="SourceAlpha" result="shadowOffsetOuter1"/>
            <feGaussianBlur in="shadowOffsetOuter1" result="shadowBlurOuter1" stdDeviation="15"/>
            <feColorMatrix in="shadowBlurOuter1" result="shadowMatrixOuter1" values="0 0 0 0 0 0 0 0 0 0.309803922 0 0 0 0 0.321568627 0 0 0 0.2 0"/>
            <feMerge>
                <feMergeNode in="shadowMatrixOuter1"/>
                <feMergeNode in="SourceGraphic"/>
            </feMerge>
        </filter>
        <filter id="u" width="146.4%" height="181.9%" x="-23.1%" y="-41%" filterUnits="objectBoundingBox">
            <feOffset dy="2" in="SourceAlpha" result="shadowOffsetOuter1"/>
            <feGaussianBlur in="shadowOffsetOuter1" result="shadowBlurOuter1" stdDeviation="15"/>
            <feColorMatrix in="shadowBlurOuter1" result="shadowMatrixOuter1" values="0 0 0 0 0 0 0 0 0 0.309803922 0 0 0 0 0.321568627 0 0 0 0.2 0"/>
            <feMerge>
                <feMergeNode in="shadowMatrixOuter1"/>
                <feMergeNode in="SourceGraphic"/>
            </feMerge>
        </filter>
        <filter id="v" width="174.2%" height="186.3%" x="-34.8%" y="-54.8%" filterUnits="objectBoundingBox">
            <feOffset dy="2" in="SourceAlpha" result="shadowOffsetOuter1"/>
            <feGaussianBlur in="shadowOffsetOuter1" result="shadowBlurOuter1" stdDeviation="15"/>
            <feColorMatrix in="shadowBlurOuter1" result="shadowMatrixOuter1" values="0 0 0 0 0 0 0 0 0 0.309803922 0 0 0 0 0.321568627 0 0 0 0.2 0"/>
            <feMerge>
                <feMergeNode in="shadowMatrixOuter1"/>
                <feMergeNode in="SourceGraphic"/>
            </feMerge>
        </filter>
        <filter id="w" width="494.2%" height="344.5%" x="-196.4%" y="-122%" filterUnits="objectBoundingBox">
            <feOffset dy="2" in="SourceAlpha" result="shadowOffsetOuter1"/>
            <feGaussianBlur in="shadowOffsetOuter1" result="shadowBlurOuter1" stdDeviation="15"/>
            <feColorMatrix in="shadowBlurOuter1" result="shadowMatrixOuter1" values="0 0 0 0 0 0 0 0 0 0.309803922 0 0 0 0 0.321568627 0 0 0 0.2 0"/>
            <feMerge>
                <feMergeNode in="shadowMatrixOuter1"/>
                <feMergeNode in="SourceGraphic"/>
            </feMerge>
        </filter>
        <path id="x" d="M0 .017h31.157v26.191H0z"/>
        <filter id="z" width="458.1%" height="344.1%" x="-179.1%" y="-122%" filterUnits="objectBoundingBox">
            <feOffset dy="2" in="SourceAlpha" result="shadowOffsetOuter1"/>
            <feGaussianBlur in="shadowOffsetOuter1" result="shadowBlurOuter1" stdDeviation="15"/>
            <feColorMatrix in="shadowBlurOuter1" result="shadowMatrixOuter1" values="0 0 0 0 0 0 0 0 0 0.309803922 0 0 0 0 0.321568627 0 0 0 0.2 0"/>
            <feMerge>
                <feMergeNode in="shadowMatrixOuter1"/>
                <feMergeNode in="SourceGraphic"/>
            </feMerge>
        </filter>
        <filter id="A" width="1214.1%" height="322.1%" x="-553.5%" y="-111%" filterUnits="objectBoundingBox">
            <feOffset dy="2" in="SourceAlpha" result="shadowOffsetOuter1"/>
            <feGaussianBlur in="shadowOffsetOuter1" result="shadowBlurOuter1" stdDeviation="15"/>
            <feColorMatrix in="shadowBlurOuter1" result="shadowMatrixOuter1" values="0 0 0 0 0 0 0 0 0 0.309803922 0 0 0 0 0.321568627 0 0 0 0.2 0"/>
            <feMerge>
                <feMergeNode in="shadowMatrixOuter1"/>
                <feMergeNode in="SourceGraphic"/>
            </feMerge>
        </filter>
        <path id="B" d="M.048.338h4.357v9.872H.048z"/>
    </defs>
    <g fill="none" fill-rule="evenodd" filter="url(#a)" transform="translate(30 26)">
        <path fill="#E6F3F4" d="M0 634.91L499.878 889.5l499.878-254.324V254.434L499.878 0 0 254.434z"/>
        <path fill="#E6F3F4" d="M0 256.125l33.89 8.453v355.024L0 611.15z"/>
        <path fill="#E6F3F4" d="M0 264.578h25.418v353.248L0 611.146z"/>
        <path fill="#9ACED0" d="M25.418 262.44l8.472 2.138v362.94l-8.472-4.309z"/>
        <path fill="#B3DADB" d="M33.89 272.186L499.878 33.812v347.417L33.89 627.519z"/>
        <path fill="#E6F3F4" d="M0 255.86L499.878 0v33.812L0 289.67z"/>
        <path fill="#9ACED0" d="M25.418 268.316l474.46-242.957v8.453L25.418 276.769z"/>
        <path fill="#E6F3F4" d="M999.756 256.125l-33.89 8.453v355.024l33.89-8.452z"/>
        <path fill="#E6F3F4" d="M999.756 264.578h-25.418v353.248l25.418-6.68z"/>
        <path fill="#B3DADB" d="M974.338 262.44l-8.473 2.138v362.94l8.473-4.309z"/>
        <path fill="#CCE7E8" d="M965.865 272.186L499.878 33.812v347.417l465.987 246.29z"/>
        <path fill="#E6F3F4" d="M999.756 255.86L499.878 0v33.812L999.756 289.67z"/>
        <path fill="#B3DADB" d="M974.338 268.316L499.878 25.359v8.453l474.46 242.957z"/>
        <g filter="url(#b)" transform="translate(399.902 162.297)">
            <g transform="translate(20.69 271.115)">
                <mask id="d" fill="#fff">
                    <use xlink:href="#c"/>
                </mask>
                <path fill="#02858A" d="M.36 10.321c2.363 3.245 11.044 5.624 21.37 5.578 9.729-.043 18.654-2.531 21.762-5.635l.562-7.521S34.149-.325 20.304.35C9.227.89.21 2.937.21 2.937l.15 7.384z" mask="url(#d)"/>
            </g>
            <path fill="#67B6B9" d="M64.744 273.858c.047 4.1-9.73 7.467-21.836 7.52-12.107.054-21.96-3.226-22.008-7.326-.048-4.1 9.729-7.467 21.836-7.52 12.107-.055 21.96 3.226 22.008 7.326"/>
            <path fill="#02858A" d="M42.728 276.113c1.525 0 2.893.273 2.893-2.286V56.947h-5.526v216.88c0 2.56 2.633 2.286 2.633 2.286"/>
            <path stroke="#02858A" stroke-width="1.2" d="M30.184 77.054v21.228"/>
            <path fill="#02858A" d="M27.847 98.282a2.335 2.335 0 0 0 2.337 2.332 2.335 2.335 0 0 0 2.338-2.332 2.335 2.335 0 0 0-2.338-2.332 2.335 2.335 0 0 0-2.337 2.332"/>
            <g transform="translate(0 4.44)">
                <mask id="f" fill="#fff">
                    <use xlink:href="#e"/>
                </mask>
                <path fill="#67B6B9" d="M2.44 62.091C-.121 59.02-.703 54.76.87 51.086l22.086-47.22a6.826 6.826 0 0 1 2.882-3.25l.352-.204 2.632 1.95A23.163 23.163 0 0 0 56.4 2.353L59.305.199l1.256.724a3.77 3.77 0 0 1 1.578 1.77L85.343 52.63a10.7 10.7 0 0 1-2.297 11.798c-6.254 6.221-18.952 15.166-40.261 15.166-22.192 0-34.642-10.664-40.345-17.504" mask="url(#f)"/>
            </g>
            <g transform="translate(25.163 .257)">
                <mask id="h" fill="#fff">
                    <use xlink:href="#g"/>
                </mask>
                <path fill="#4DA9AD" d="M33.884 7.308l.333-.191a1.554 1.554 0 0 0 .002-2.695A32.928 32.928 0 0 0 1.36 4.405l-.333.191a1.554 1.554 0 0 0-.001 2.695 32.927 32.927 0 0 0 32.858.017" mask="url(#h)"/>
            </g>
            <path fill="#02858A" d="M55.59 6.953l.261-.11c.819-.347.82-1.213.001-1.56-8.002-3.392-17.863-3.396-25.87-.01l-.262.11c-.819.347-.82 1.213-.001 1.56 8.002 3.392 17.863 3.396 25.87.01"/>
        </g>
        <g filter="url(#i)" transform="scale(-1 1) rotate(-2 4729.527 10117.073)">
            <path fill="#E5F2F3" d="M16.689 130.687V26.546L145.83 100.06v104.602z"/>
            <path fill="#FAFDFD" d="M127.332 97.75l2.697 1.581 8.399 4.927v83.564L24.09 122.655V39.426l14.86 8.717.748.437 13.946 7.795c-3.54 6.705-7.146 13.536 0 0l7.561 4.227c-2.718 10.716-5.478 21.597 0 0l8.745 4.888 9.924 5.547 23.134 12.931 17.574 9.823.5.294 6.25 3.664zm8.562 19.762zm-.618-.777zm-1.217-1.567z"/>
            <path fill="#9ACED0" d="M24.091 122.655l2.088-1.75 112.249 63.941v2.976z"/>
            <path fill="#E5F2F3" d="M85.304 74.072l-40.452 57.47-9.336-5.319 40.402-57.398 3.958 2.213zM135.464 102.52l-40.516 57.559L53 136.184l40.497-57.532 9.512 5.317 17.574 9.822.5.294 6.25 3.664 2.696 1.583z"/>
            <g transform="translate(9.155 19.336)">
                <mask id="k" fill="#fff">
                    <use xlink:href="#j"/>
                </mask>
                <use fill="#67B6B9" xlink:href="#j"/>
                <path fill="#4DA9AD" d="M0 0l5.652 2.88v155.715L0 161.643zM12.039 162.955V6.134l9.076 4.624V170.5l-7.396-.838z" mask="url(#k)"/>
            </g>
            <g transform="translate(120.987 84.537)">
                <mask id="m" fill="#fff">
                    <use xlink:href="#l"/>
                </mask>
                <g mask="url(#m)">
                    <g transform="translate(.259 -42.138)">
                        <mask id="o" fill="#fff">
                            <use xlink:href="#n"/>
                        </mask>
                        <use fill="#67B6B9" xlink:href="#n"/>
                        <path fill="#4DA9AD" d="M0 42.265l5.652 2.88V200.86L0 203.908zM12.039 205.22V48.4l9.076 4.623v159.742l-7.395-.838z" mask="url(#o)"/>
                    </g>
                </g>
            </g>
            <g transform="translate(0 .515)">
                <mask id="q" fill="#fff">
                    <use xlink:href="#p"/>
                </mask>
                <path fill="#67B6B9" d="M0 8.436L14.51.077 167.166 88.01l-14.51 8.359z" mask="url(#q)"/>
            </g>
            <g transform="translate(152.42 88.088)">
                <mask id="s" fill="#fff">
                    <use xlink:href="#r"/>
                </mask>
                <path fill="#4DA9AD" d="M14.746.436L.234 8.795v7.57l14.512-8.358z" mask="url(#s)"/>
            </g>
        </g>
        <g filter="url(#t)" transform="scale(-1 1) rotate(2 -5115.873 -22083.088)">
            <path fill="#B3DADB" d="M178.705 0l-49.77 28.67.141 71.058 3.29 1.778 49.77-28.668v-.384l-.14-70.677z"/>
            <path fill="#E5F2F3" d="M133.955 30.986l45.635-26.29.108 67.09-45.637 26.287z"/>
            <path fill="#B3DADB" d="M64.467 65.644l.142 71.058 3.29 1.778 49.77-28.668-.141-71.06-3.29-1.778z"/>
            <path fill="#E5F2F3" d="M69.488 67.96l45.635-26.289.108 67.089-45.637 26.286z"/>
            <path fill="#B3DADB" d="M0 102.618l.141 71.058 3.291 1.777 49.77-28.668-.141-71.06-3.29-1.778z"/>
            <path fill="#E5F2F3" d="M5.02 104.934l45.636-26.29.107 67.089L5.127 172.02z"/>
        </g>
        <g filter="url(#u)" transform="translate(116.92 568.04)">
            <path fill="#CCE7E8" d="M239.287 134.478c42.133-23.679 36.849-65.037-11.8-92.379l-34.664-19.482C144.17-4.723 70.575-7.693 28.445 15.985h-.003c-42.13 23.679-36.846 65.037 11.803 92.379l34.664 19.482c48.652 27.34 122.247 30.31 164.378 6.632"/>
            <path fill="#B3DADB" d="M234.505 132.57c40.431-22.748 35.361-62.484-11.326-88.752l-34.753-19.553C141.74-2.004 71.116-4.853 30.685 17.893-9.747 40.642-4.677 80.376 42.01 106.644l34.75 19.553c46.69 26.268 117.313 29.12 157.745 6.374"/>
            <path fill="#9ACED0" d="M212.216 118.53c13.34-7.475 20.719-17.398 20.778-27.936.06-10.54-7.209-20.435-20.464-27.863l-58.288-32.664c-13.26-7.429-30.915-11.501-49.724-11.47-18.806.035-36.51 4.17-49.848 11.645-13.343 7.475-20.72 17.396-20.78 27.936-.058 10.54 7.211 20.435 20.466 27.861l58.288 32.666c13.255 7.43 30.915 11.501 49.722 11.47 18.808-.035 36.512-4.17 49.85-11.645"/>
            <path fill="#B3DADB" d="M191.819 108.828c7.941-4.481 12.334-10.426 12.368-16.743.036-6.315-4.29-12.246-12.182-16.698l-58.512-33.01c-7.892-4.455-18.402-6.894-29.6-6.875-11.196.018-21.733 2.5-29.675 6.978-7.942 4.481-12.334 10.426-12.369 16.743-.036 6.317 4.291 12.246 12.183 16.698l58.51 33.011c7.892 4.454 18.404 6.893 29.6 6.874 11.195-.018 21.735-2.497 29.677-6.978"/>
        </g>
        <g filter="url(#v)" transform="matrix(-1 0 0 1 667.633 305.997)">
            <path fill="#1B9195" d="M19.666 90.16l-9.832 5.696v72.136l9.832-5.696z"/>
            <path fill="#B3DADB" d="M118.851 21.386L0 90.16l58.543 33.878 118.852-68.774z"/>
            <g filter="url(#w)" transform="translate(107.177)">
                <path fill="#67B6B9" d="M3.49 43.712c0 3.608 5.395 6.533 12.05 6.533 6.654 0 12.05-2.925 12.05-6.533 0-3.608-5.396-6.534-12.05-6.534-6.655 0-12.05 2.926-12.05 6.534"/>
                <path fill="#E5F2F3" d="M3.49 42.081c0 3.609 5.395 6.533 12.05 6.533 6.654 0 12.05-2.924 12.05-6.533 0-3.608-5.396-6.533-12.05-6.533-6.655 0-12.05 2.925-12.05 6.533"/>
                <path fill="#9ACED0" d="M17.188 14.425v26.17l.012.065c0 .521-.78.945-1.743.945-.952 0-1.723-.414-1.74-.928h-.004V14.425h3.475z"/>
                <g transform="translate(0 7.389)">
                    <mask id="y" fill="#fff">
                        <use xlink:href="#x"/>
                    </mask>
                    <path fill="#E5F2F3" d="M29.199.017l1.958 18.786c0 4.09-8.074 7.405-15.617 7.405C7.995 26.208 0 22.893 0 18.803L1.88.017h27.319z" mask="url(#y)"/>
                </g>
                <path fill="#E5F2F3" d="M1.88 7.405c0 4.09 6.115 7.406 13.66 7.406 7.543 0 13.659-3.315 13.659-7.406 0-4.09-6.116-7.405-13.66-7.405C7.996 0 1.88 3.315 1.88 7.405"/>
                <path fill="#B3DADB" d="M3.903 7.405c0 3.485 5.21 6.31 11.637 6.31 6.426 0 11.636-2.825 11.636-6.31 0-3.484-5.21-6.308-11.636-6.308-6.428 0-11.637 2.824-11.637 6.308"/>
            </g>
            <path fill="#4DA9AD" d="M0 126.23v36.066l9.833 5.696V131.92l38.877 22.496v36.06l9.833 5.698v-72.137l-9.833-5.696v.007L0 90.16z"/>
            <path fill="#1B9195" d="M167.346 61.078l.195.112v72.136l-9.834-5.697V66.655z"/>
            <path fill="#4DA9AD" d="M167.54 61.19v72.136l9.833-5.697V55.494z"/>
            <path fill="#4DA9AD" d="M68.376 118.347v-.005l-9.833 5.695v72.135l9.833-5.697v-36.06L177.395 91.33V55.262z"/>
            <path fill="#9ACED0" d="M67.859 127.334l48.213-27.925v20.213l-48.213 28.019z"/>
            <path fill="#1B9195" d="M94.376 122.44c0 1.328-1.08 2.891-2.41 3.49-1.332.6-2.411.01-2.411-1.319s1.079-2.892 2.411-3.491c1.332-.6 2.41-.008 2.41 1.32"/>
            <path fill="#9ACED0" d="M119.245 97.708l48.213-27.925v20.214l-48.213 28.019z"/>
            <path fill="#1B9195" d="M145.762 92.815c0 1.328-1.08 2.89-2.41 3.49-1.333.6-2.412.008-2.412-1.32 0-1.329 1.079-2.89 2.412-3.49 1.33-.6 2.41-.009 2.41 1.32"/>
        </g>
        <g filter="url(#z)" transform="matrix(-1 0 0 1 595.617 329.666)">
            <path fill="#1A7275" d="M10.744 24.877L0 43.939l.923.754 15.295-21.421z"/>
            <path fill="#02858A" d="M12.537 26.879L.925 44.69l8.165-4.7 7.324-15.344z"/>
            <path fill="#4DA9AD" d="M10.426 49.618l2.055.33-4.68-36.77-2.058-.33z"/>
            <path fill="#67B6B9" d="M7.802 13.176l4.68 36.77L33.82 37.654 29.137.884z"/>
            <path fill="#E5F2F3" d="M30.465 35.107L14.763 44.15 11.09 15.07l15.702-9.047z"/>
            <path fill="#4DA9AD" d="M26.794 6.024l-1.376.793 3.532 27.974-14.33 8.255.14 1.102 15.706-9.04zM27.08.557L5.746 12.849l2.059.325L29.139.886z"/>
        </g>
        <g filter="url(#A)" transform="translate(599.853 330.511)">
            <path fill="#CCE7E8" d="M11.03 52.17v.012c.007.818-.527 1.636-1.603 2.255-2.147 1.234-5.639 1.228-7.802-.015a1.18 1.18 0 0 1-.117-.073C.51 53.74.008 52.961.001 52.182v-.004c0-.123.01-.24.033-.36.13-.689.652-1.358 1.57-1.888.045-.027.094-.054.143-.08 2.157-1.156 5.54-1.124 7.652.092.947.547 1.48 1.238 1.601 1.943l.004.012.026.273z"/>
            <path fill="#CCE7E8" d="M11.03 52.17v.012H0v-.004l.033-.36 2.2-23.312h6.56L11 51.886l.004.01z"/>
            <path fill="#E5F2F3" d="M8.984 54.182c-1.905 1.097-5.003 1.091-6.919-.014-1.916-1.103-1.926-2.886-.022-3.985 1.905-1.095 5.003-1.09 6.919.014 1.916 1.103 1.926 2.888.022 3.985"/>
            <path fill="#E5F2F3" d="M2.83 29.58L1.746 49.85 1.62 52.18l-.113 2.17c-.998-.612-1.5-1.389-1.507-2.17v-.004c0-.12.01-.24.033-.357l2.2-23.314h.438l.157 1.074z"/>
            <path fill="#E5F2F3" d="M7.826 27.173c-1.286-.74-3.362-.744-4.64-.008-1.276.736-1.27 1.931.016 2.671 1.283.742 3.362.746 4.638.01 1.278-.736 1.272-1.933-.014-2.673"/>
            <path fill="#9ACED0" d="M7.407 27.415c-1.053-.607-2.752-.609-3.797-.006-1.045.602-1.04 1.582.012 2.187 1.052.606 2.751.61 3.796.006 1.045-.601 1.04-1.58-.011-2.187"/>
            <path fill="#02858A" d="M5.192 51.463l-.515-.035c.133-1.932.358-3.876.577-5.757.486-4.184.989-8.511.456-12.792-.888-7.129-.628-17.179.716-27.573l.511.067C5.6 15.723 5.338 25.727 6.221 32.815c.54 4.34.033 8.699-.456 12.915-.217 1.874-.442 3.813-.573 5.733"/>
            <g transform="translate(3.914 .685)">
                <mask id="C" fill="#fff">
                    <use xlink:href="#B"/>
                </mask>
                <path fill="#02858A" d="M1.691.482c-.67.334-2.582 5.45-1.084 7.84 3.192 5.09 4.217-1.353 3.65-4.755C3.689.164 2.392.133 1.69.482" mask="url(#C)"/>
            </g>
            <path fill="#4DA9AD" d="M6.12 1.947C4.386.91 2.96 9.006 4.617 10.746c1.658 1.737 3.316-.489 3.378-2.016.065-1.527-.281-5.83-1.875-6.783"/>
            <path fill="#32979B" d="M7.119 2.058c-.157 1.722.446 3.61-.924 8.411-.599 2.101 2.517-.421 2.582-2.593C8.92 3.075 7.234.792 7.119 2.058"/>
            <path fill="#4DA9AD" d="M5.725 18.316c-2.265-2.27 3.14-5.487 3.753-5.523.257 1.658-1.035 8.246-3.753 5.523M5.554 25.525c2.264-2.269-3.142-5.486-3.754-5.522-.257 1.658 1.035 8.246 3.754 5.522"/>
            <path fill="#E5F2F3" d="M5 30.935s-.266 21.458-.332 22.737L4.6 54.949s2.78.365 4.192-.795C8.705 51.541 7.48 30.631 7.48 30.631s-1.311.304-2.48.304"/>
        </g>
    </g>
</svg>
