<svg xmlns="http://www.w3.org/2000/svg" xmlns:xlink="http://www.w3.org/1999/xlink" width="162" height="144" viewBox="0 0 162 144">
    <defs>
        <path id="a" d="M0 .175h6.976V13.83H0z"/>
        <path id="c" d="M0 .203h6.977v4.032H0z"/>
        <path id="e" d="M.054.091h4.82v2.786H.054z"/>
        <path id="g" d="M.137.04h6.976v13.653H.137z"/>
        <path id="i" d="M0 .009h4.03V6.13H0z"/>
        <path id="k" d="M0 .076h4.03v2.329H0z"/>
        <path id="m" d="M0 .009h4.03V6.13H0z"/>
        <path id="o" d="M0 .076h4.03v2.329H0z"/>
    </defs>
    <g fill="none" fill-rule="evenodd">
        <path fill="#FF595F" d="M47.51 74l-4.755 2.754v34.883l4.755-2.754z"/>
        <path fill="#FFCDCF" d="M95.473 40.743L38 74l28.31 16.382 57.473-33.257z"/>
        <path fill="#FF8A8F" d="M57.169 49.504c0 9.029 6.393 12.666 14.28 8.122 7.885-4.543 14.278-15.544 14.278-24.573s-6.393-12.665-14.279-8.122c-7.886 4.542-14.28 15.543-14.28 24.573"/>
        <path fill="#FFBDBF" d="M57.169 47.53c0 9.029 6.393 12.666 14.28 8.122C79.333 51.11 85.726 40.11 85.726 31.08c0-9.028-6.393-12.665-14.279-8.122-7.886 4.543-14.28 15.544-14.28 24.573"/>
        <path fill="#FFF" d="M58.195 48.226c0 9.029 6.394 12.666 14.28 8.122 7.887-4.543 14.28-15.544 14.28-24.573s-6.393-12.665-14.28-8.122c-7.886 4.542-14.28 15.544-14.28 24.573"/>
        <path fill="#FFEEEF" d="M58.419 48.21c0 8.937 6.327 12.536 14.132 8.04 7.806-4.497 14.133-15.385 14.133-24.32 0-8.936-6.327-12.535-14.133-8.04-7.805 4.496-14.132 15.385-14.132 24.32"/>
        <path fill="#FFFCFC" d="M59.19 47.767c0 8.448 5.981 11.852 13.36 7.6 7.38-4.25 13.363-14.545 13.363-22.994 0-8.448-5.983-11.851-13.362-7.6-7.38 4.25-13.362 14.546-13.362 22.994"/>
        <path fill="#FFBDBF" d="M71.711 54.963c7.38-4.251 13.362-14.546 13.362-22.995 0-4.204-1.481-7.159-3.88-8.543 2.888 1.143 4.72 4.273 4.72 8.948 0 8.449-5.982 18.744-13.361 22.995-3.708 2.135-7.062 2.338-9.483.942 2.33.922 5.347.55 8.642-1.347"/>
        <g transform="matrix(-1 0 0 1 64.63 48.295)">
            <mask id="b" fill="#fff">
                <use xlink:href="#a"/>
            </mask>
            <path fill="#FFDEDF" d="M6.976.175v11.639c.003.516-.334 1.032-1.013 1.425-1.358.788-3.566.787-4.933 0-.683-.393-1.027-.91-1.03-1.425V.175h6.976z" mask="url(#b)"/>
        </g>
        <g transform="matrix(-1 0 0 1 64.63 46.252)">
            <mask id="d" fill="#fff">
                <use xlink:href="#c"/>
            </mask>
            <path fill="#FFEEEF" d="M5.947.794c1.366.787 1.374 2.063.016 2.85-1.358.788-3.567.788-4.933 0-1.367-.787-1.374-2.063-.017-2.85C2.371.006 4.58.007 5.947.794" mask="url(#d)"/>
        </g>
        <path fill="#FFACAF" d="M64.63 50.177c-.002.516-.346 1.032-1.03 1.425-.682.394-1.576.59-2.469.59v7.031c.893 0 1.787-.196 2.47-.59.683-.394 1.027-.91 1.03-1.425v-7.03z"/>
        <path fill="#FF595F" d="M58.732 45.897v1.584c-.002.356.231.713.7.985.939.544 2.465.544 3.41 0 .471-.272.709-.629.71-.985v-1.584h-4.82z"/>
        <g transform="matrix(-1 0 0 1 63.606 44.412)">
            <mask id="f" fill="#fff">
                <use xlink:href="#e"/>
            </mask>
            <path fill="#FF7A7F" d="M4.163.5c.944.543.95 1.425.01 1.97-.937.543-2.463.543-3.408 0C-.179 1.924-.185 1.042.754.5c.938-.545 2.465-.545 3.409 0" mask="url(#f)"/>
        </g>
        <path fill="#FFDEDF" d="M52.67 51.877v11.639c-.004.516.334 1.032 1.013 1.425 1.358.787 3.567.787 4.933 0 .683-.394 1.027-.91 1.03-1.425V51.877H52.67z"/>
        <path fill="#FFEEEF" d="M53.7 50.452c-1.367.787-1.375 2.063-.017 2.85 1.358.788 3.567.788 4.933 0 1.367-.786 1.374-2.063.017-2.85-1.359-.788-3.567-.787-4.934 0"/>
        <path fill="#FFACAF" d="M59.646 53.583c-.003.516-.347 1.032-1.03 1.426-.683.393-1.577.59-2.47.59v7.03c.893 0 1.787-.196 2.47-.59.683-.393 1.027-.91 1.03-1.425v-7.03z"/>
        <path fill="#FF595F" d="M53.748 49.303v1.584c-.003.357.23.713.7.985.938.544 2.464.544 3.408 0 .472-.272.71-.628.712-.985v-1.584h-4.82z"/>
        <path fill="#FF7A7F" d="M54.46 48.318c-.945.544-.95 1.426-.012 1.97s2.464.544 3.408 0c.945-.544.95-1.426.012-1.97-.939-.544-2.465-.544-3.409 0"/>
        <g transform="matrix(-1 0 0 1 54.798 55.244)">
            <mask id="h" fill="#fff">
                <use xlink:href="#g"/>
            </mask>
            <path fill="#FFDEDF" d="M7.113.04v11.638c.003.515-.335 1.032-1.014 1.425-1.357.787-3.566.787-4.932 0-.684-.394-1.027-.91-1.03-1.425V.039h6.976z" mask="url(#h)"/>
        </g>
        <path fill="#FFEEEF" d="M48.715 53.858c-1.367.787-1.375 2.064-.016 2.851 1.357.787 3.566.787 4.932 0 1.367-.787 1.375-2.064.017-2.85-1.358-.788-3.567-.788-4.933 0"/>
        <path fill="#FFACAF" d="M54.661 56.99c-.003.516-.346 1.031-1.03 1.425-.683.394-1.577.59-2.47.59v7.031c.893 0 1.787-.197 2.47-.59.684-.394 1.027-.91 1.03-1.426v-7.03z"/>
        <path fill="#FF595F" d="M48.763 52.71v1.583c-.002.357.231.713.7.985.938.545 2.464.544 3.409 0 .472-.272.71-.628.711-.985V52.71h-4.82z"/>
        <path fill="#FF7A7F" d="M49.474 51.724c-.944.544-.95 1.426-.01 1.97.937.544 2.464.544 3.408 0s.95-1.426.011-1.97c-.938-.544-2.465-.544-3.409 0"/>
        <g>
            <g transform="matrix(-1 0 0 1 57.256 62.948)">
                <mask id="j" fill="#fff">
                    <use xlink:href="#i"/>
                </mask>
                <path fill="#FFDEDF" d="M4.03.02l-.012 4.952c0 .297-.196.592-.585.818-.784.455-2.046.455-2.836 0C.2 5.562.002 5.261.003 4.961L0 .01c0 .3.197.6.594.828.79.455 2.066.455 2.85 0 .39-.225.585-.521.586-.817" mask="url(#j)"/>
            </g>
            <g transform="matrix(-1 0 0 1 57.256 61.722)">
                <mask id="l" fill="#fff">
                    <use xlink:href="#k"/>
                </mask>
                <path fill="#FFEEEF" d="M3.435.417c.79.455.793 1.192.01 1.647-.785.454-2.06.455-2.85 0S-.2.872.585.417c.785-.455 2.06-.455 2.85 0" mask="url(#l)"/>
            </g>
            <path fill="#FF595F" d="M54.363 62.285c.484.28 1.272.28 1.759 0 .245-.141.368-.326.367-.511l.002.85c-.025.163-.145.323-.362.447-.487.281-1.274.28-1.758 0-.24-.14-.361-.322-.362-.504l-.001-.722c.025.16.143.317.355.44"/>
            <path fill="#FF7A7F" d="M54.37 61.269c-.488.28-.49.735-.007 1.016.484.28 1.272.28 1.76 0 .486-.28.488-.735.005-1.016-.484-.28-1.272-.28-1.759 0"/>
            <path fill="#FF595F" d="M53.238 66.405c0 .296.196.592.585.817.785.455 2.046.456 2.836 0 .397-.228.595-.528.595-.828v-2.297c0 .3-.198.6-.595.829-.79.455-2.051.455-2.836 0-.39-.226-.584-.522-.585-.818v2.297z"/>
        </g>
        <g>
            <g transform="matrix(-1 0 0 1 60.124 64.583)">
                <mask id="n" fill="#fff">
                    <use xlink:href="#m"/>
                </mask>
                <path fill="#FFDEDF" d="M4.03.02l-.012 4.952c0 .297-.196.592-.585.818-.784.455-2.046.455-2.836 0C.2 5.562.002 5.261.003 4.961L0 .01c0 .3.197.6.594.828.79.455 2.066.455 2.85 0 .39-.225.585-.521.586-.817" mask="url(#n)"/>
            </g>
            <g transform="matrix(-1 0 0 1 60.124 63.357)">
                <mask id="p" fill="#fff">
                    <use xlink:href="#o"/>
                </mask>
                <path fill="#FFEEEF" d="M3.435.417c.79.455.793 1.192.01 1.647-.785.454-2.06.455-2.85 0S-.2.872.585.417c.785-.455 2.06-.455 2.85 0" mask="url(#p)"/>
            </g>
            <path fill="#FF595F" d="M57.231 63.92c.484.28 1.272.28 1.759 0 .245-.141.367-.326.367-.511l.002.85c-.025.163-.145.323-.362.448-.487.28-1.274.28-1.758 0-.24-.14-.361-.323-.362-.505l-.001-.722c.025.16.143.317.355.44"/>
            <path fill="#FF7A7F" d="M57.237 62.904c-.487.28-.49.736-.006 1.016s1.272.28 1.759 0c.487-.28.49-.735.006-1.016-.484-.28-1.272-.28-1.759 0"/>
            <path fill="#FF595F" d="M56.106 68.04c0 .296.196.592.585.817.785.455 2.046.456 2.836 0 .397-.228.595-.528.595-.828v-2.297c0 .3-.198.6-.595.829-.79.455-2.051.455-2.836 0-.39-.226-.584-.522-.585-.818v2.297z"/>
        </g>
        <path fill="#FFACAF" d="M38 91.442v17.44l4.755 2.755V94.193l18.8 10.879v17.437l4.755 2.755V90.382l-4.756-2.755v.003L38 74z"/>
        <path fill="#FF595F" d="M118.924 59.937l.094.054v34.883l-4.756-2.755V62.634z"/>
        <path fill="#FF8A8F" d="M119.017 59.991v34.883l4.755-2.755V57.237z"/>
        <path fill="#FF8A8F" d="M71.064 87.63v-.002l-4.754 2.754V125.264l4.754-2.755v-17.437l52.718-30.507v-17.44z"/>
        <path fill="#FFACAF" d="M70.815 91.976l23.314-13.504v9.775l-23.314 13.549z"/>
        <g>
            <path fill="#FF595F" d="M83.637 89.61c0 .642-.522 1.398-1.165 1.687-.644.29-1.166.005-1.166-.637 0-.643.522-1.399 1.166-1.689.644-.29 1.165-.003 1.165.639"/>
            <path fill="#FFACAF" d="M95.663 77.65l23.314-13.503v9.774l-23.314 13.55z"/>
            <path fill="#FF595F" d="M108.486 75.284c0 .642-.522 1.397-1.165 1.688-.645.29-1.167.003-1.167-.639s.522-1.398 1.167-1.687c.643-.29 1.165-.005 1.165.638"/>
        </g>
    </g>
</svg>
