<svg id="bedroom-category-clothes" xmlns="http://www.w3.org/2000/svg" width="64.955" height="101.637" viewBox="0 0 64.955 101.637">
  <path id="패스_5312" data-name="패스 5312" d="M64.623,3.645a5.474,5.474,0,0,0-2.484,4.3l.486-.28a4.4,4.4,0,0,1,2-3.462,1.411,1.411,0,0,1,1.414-.126,1.381,1.381,0,0,1,.6,1.274A4.333,4.333,0,0,1,65.52,8.063a4.221,4.221,0,0,0-1.118,2.6v.122a2.538,2.538,0,0,1,.244-.162,1.98,1.98,0,0,1,.241-.118v-.121a3.159,3.159,0,0,1,.848-1.944,5.409,5.409,0,0,0,1.392-3.373,1.7,1.7,0,0,0-.749-1.582,1.732,1.732,0,0,0-1.755.158" transform="translate(-38.544 -1.374)" fill="#701619" fill-rule="evenodd"/>
  <path id="패스_5313" data-name="패스 5313" d="M55.7,12.513l0,0v.115a12.375,12.375,0,0,1-.183,2.022h0c-.038.217-.08.435-.129.653l0,0a16.814,16.814,0,0,1-.981,3.01,17.4,17.4,0,0,1-6.768,8.13c-2.842,1.637-5.343,1.391-6.793-.32a6.526,6.526,0,0,1-1.321-4.179v-.115l-11.5,11.976L21.5,58.593l5.831.688,2.35-20.761.059,21.045.084,29.405L65.748,68.278l-.083-29.405-.06-21.045,2.46,17.992,5.807-7.392-6.639-17.2L55.7,12.513" transform="translate(-21.503 -4.653)" fill="#ff595f" fill-rule="evenodd"/>
  <path id="패스_5314" data-name="패스 5314" d="M59.788,13.431v.115l-.272.041.271-.156m-5.278,3.04,5.091-.9q-.055.326-.128.653L43.948,25.165a5.268,5.268,0,0,0,.986,1.877L58.5,19.231a17.4,17.4,0,0,1-6.769,8.13c-2.842,1.637-5.342,1.391-6.793-.319a6.525,6.525,0,0,1-1.321-4.179v-.115l.275-.159-.275.275a8.568,8.568,0,0,0,.246,1.967l5.553-5.423,5.1-2.937M33.772,39.435,31.423,60.2l2.409.284ZM69.7,18.744l.06,21.044,2.4-3.054Z" transform="translate(-25.592 -5.569)" fill="#e1484d" fill-rule="evenodd"/>
  <path id="패스_5315" data-name="패스 5315" d="M68.416,16.3l0,0L52.887,25.247a5.271,5.271,0,0,0,.986,1.877l13.561-7.811a16.807,16.807,0,0,0,.982-3.01m-7.782-1.4a2.319,2.319,0,0,0-.244.162,3.069,3.069,0,0,0-.337.293l-7.227,7.316-.275.273a8.629,8.629,0,0,0,.246,1.967l5.552-5.421,2.545-2.485,2.554-.452,5.092-.9h0a12.438,12.438,0,0,0,.181-2.022l-.271.04-7.239,1.018a1.448,1.448,0,0,0-.342.1,1.929,1.929,0,0,0-.24.118" transform="translate(-34.532 -5.651)" fill="#ac3539" fill-rule="evenodd"/>
  <path id="패스_5316" data-name="패스 5316" d="M53.08,16.411a5.474,5.474,0,0,0-2.484,4.3l.486-.279a4.4,4.4,0,0,1,2-3.462A1.408,1.408,0,0,1,54.5,16.84a1.383,1.383,0,0,1,.6,1.274,4.339,4.339,0,0,1-1.122,2.715,4.221,4.221,0,0,0-1.118,2.6v.122a2.537,2.537,0,0,1,.244-.163,2.023,2.023,0,0,1,.241-.118v-.121a3.161,3.161,0,0,1,.849-1.945,5.409,5.409,0,0,0,1.392-3.372,1.705,1.705,0,0,0-.749-1.582,1.736,1.736,0,0,0-1.756.158" transform="translate(-20.245 -6.667)" fill="#701619" fill-rule="evenodd"/>
  <path id="패스_5317" data-name="패스 5317" d="M44.16,25.278l0,0V25.4a12.362,12.362,0,0,1-.183,2.022h0c-.037.217-.08.435-.129.653l0,0a16.788,16.788,0,0,1-.981,3.009,17.4,17.4,0,0,1-6.768,8.131c-2.842,1.637-5.343,1.391-6.793-.319a6.523,6.523,0,0,1-1.321-4.179V34.6L16.48,46.574,9.961,71.359l5.83.687,2.35-20.761L18.2,72.33l.084,29.4L54.206,81.043l-.083-29.4-.06-21.045,2.46,17.991,5.807-7.391-6.639-17.2L44.16,25.278" transform="translate(-3.204 -9.947)" fill="#ffcdcf" fill-rule="evenodd"/>
  <path id="패스_5318" data-name="패스 5318" d="M48.246,26.2v.116l-.272.041.271-.157m-5.278,3.041,5.091-.9q-.055.325-.128.653L32.406,37.931a5.265,5.265,0,0,0,.985,1.877L46.954,32a17.4,17.4,0,0,1-6.769,8.131c-2.841,1.636-5.342,1.39-6.793-.32a6.523,6.523,0,0,1-1.321-4.179v-.115l.275-.158-.275.273a8.563,8.563,0,0,0,.246,1.967l5.553-5.422,5.1-2.937M22.23,52.2,19.881,72.962l2.409.283ZM58.153,31.509l.06,21.045,2.4-3.054Z" transform="translate(-7.294 -10.862)" fill="#ff8a8f" fill-rule="evenodd"/>
  <path id="패스_5319" data-name="패스 5319" d="M56.872,29.068l0,0L41.343,38.013a5.257,5.257,0,0,0,.986,1.877L55.89,32.078a16.785,16.785,0,0,0,.982-3.009m-7.782-1.4a2.35,2.35,0,0,0-.244.162,3.008,3.008,0,0,0-.337.293l-7.227,7.316-.275.273a8.633,8.633,0,0,0,.246,1.967l5.553-5.422,2.544-2.484,2.554-.452,5.091-.9h0a12.441,12.441,0,0,0,.183-2.022l-.272.04-7.24,1.018a1.433,1.433,0,0,0-.341.1,1.907,1.907,0,0,0-.241.118" transform="translate(-16.232 -10.944)" fill="#ac3539" fill-rule="evenodd"/>
  <path id="패스_5320" data-name="패스 5320" d="M43.12,33.236a5.476,5.476,0,0,0-2.484,4.3l.485-.28a4.4,4.4,0,0,1,2-3.461,1.406,1.406,0,0,1,1.414-.127,1.382,1.382,0,0,1,.6,1.274,4.336,4.336,0,0,1-1.123,2.714,4.221,4.221,0,0,0-1.118,2.6v.121a2.12,2.12,0,0,1,.485-.28v-.12a3.163,3.163,0,0,1,.849-1.945,5.409,5.409,0,0,0,1.392-3.372,1.7,1.7,0,0,0-.749-1.582,1.733,1.733,0,0,0-1.756.158" transform="translate(-4.455 -13.644)" fill="#701619" fill-rule="evenodd"/>
  <path id="패스_5321" data-name="패스 5321" d="M34.2,42.1l0,0v.116a12.45,12.45,0,0,1-.183,2.023h0q-.057.326-.129.653h0a16.849,16.849,0,0,1-.981,3.009,17.4,17.4,0,0,1-6.768,8.131c-2.842,1.637-5.343,1.391-6.793-.32a6.524,6.524,0,0,1-1.321-4.178v-.116L6.52,63.4,0,88.184l5.83.688L8.18,68.111l.06,21.045.083,29.4L44.245,97.869l-.083-29.4L44.1,47.419l2.461,17.99,5.807-7.391L45.73,40.813,34.2,42.1" transform="translate(12.586 -16.923)" fill="#ff8a8f" fill-rule="evenodd"/>
  <path id="패스_5322" data-name="패스 5322" d="M38.285,43.022v.115l-.272.041.272-.156m-5.279,3.04,5.091-.9c-.037.217-.08.435-.128.653L22.445,54.757a5.254,5.254,0,0,0,.986,1.876l13.561-7.811a17.4,17.4,0,0,1-6.768,8.13c-2.842,1.637-5.343,1.391-6.792-.32a6.516,6.516,0,0,1-1.322-4.179v-.115l.275-.159-.275.273a8.5,8.5,0,0,0,.247,1.967L27.908,49l5.1-2.937M12.27,69.026,9.92,89.787l2.409.284ZM48.192,48.335l.06,21.044,2.4-3.054Z" transform="translate(8.497 -17.839)" fill="#ff595f" fill-rule="evenodd"/>
  <path id="패스_5323" data-name="패스 5323" d="M46.913,45.893l0,0L31.384,54.839a5.239,5.239,0,0,0,.986,1.877L45.931,48.9a16.786,16.786,0,0,0,.981-3.01m-7.781-1.4a2.422,2.422,0,0,0-.244.163,3.078,3.078,0,0,0-.337.293l-7.227,7.316-.275.274A8.622,8.622,0,0,0,31.3,54.5l5.552-5.422L39.391,46.6l2.554-.453,5.092-.9h0a12.5,12.5,0,0,0,.182-2.022l-.272.041-7.24,1.017a1.471,1.471,0,0,0-.341.1,2.065,2.065,0,0,0-.241.118" transform="translate(-0.442 -17.921)" fill="#ac3539" fill-rule="evenodd"/>
  <path id="패스_5324" data-name="패스 5324" d="M52.961,28.193,31.4,2.47A1.507,1.507,0,0,1,33.713.539L55.274,26.262a1.507,1.507,0,0,1-2.314,1.931" transform="translate(-8.844 0)" fill="#701619" fill-rule="evenodd"/>
</svg>
