<svg xmlns="http://www.w3.org/2000/svg" width="47.544" height="79.039" viewBox="0 0 47.544 79.039">
  <g id="bedroom-category-trashcan" transform="translate(0 -0.93)">
    <path id="패스_5444" data-name="패스 5444" d="M45.688,17.847c-.02.227-.036.456-.078.682-.034.187-.09.371-.14.558-.057.216-.11.434-.187.648-.063.178-.148.354-.225.53q-.145.345-.317.677c-.089.163-.194.323-.292.483A11.332,11.332,0,0,1,43.362,22.9c-.049.056-.093.114-.145.168-.281.306-.59.605-.917.9-.209.188-.441.367-.668.549-.2.162-.4.326-.613.484-.246.178-.517.348-.782.52s-.534.362-.828.531a22.284,22.284,0,0,1-2.06,1.04c-.2.092-.414.177-.622.265q-.837.35-1.717.649c-.209.071-.413.148-.624.214-.369.116-.747.217-1.124.32-.286.078-.566.16-.857.23-.4.1-.8.175-1.2.257-.276.055-.547.118-.827.167-.815.143-1.642.257-2.477.345-.259.028-.52.044-.781.066-.487.04-.976.076-1.466.1-.315.013-.632.019-.948.026-.4.007-.794.01-1.191,0q-1.052-.014-2.1-.086-.505-.035-1.009-.085-1.035-.1-2.063-.259c-.387-.059-.771-.127-1.153-.2-.3-.057-.605-.116-.9-.182-.457-.1-.906-.213-1.352-.33-.25-.067-.5-.129-.75-.2-.8-.234-1.582-.495-2.338-.789q-.557-.22-1.1-.466c-.187-.083-.379-.158-.562-.244q-.816-.384-1.6-.834c-4.3-2.477-6.448-5.726-6.439-8.973L1.994,68.1c-.01,3.246,2.14,6.5,6.439,8.973.514.3,1.049.574,1.6.833.181.086.373.161.558.243.327.145.65.3.988.429.038.015.08.026.119.04.757.294,1.538.555,2.338.788.067.019.124.046.189.063.183.052.374.089.559.137.447.118.9.231,1.353.33.122.029.238.064.362.089.179.038.364.06.544.1.382.072.764.141,1.152.2.155.024.307.057.464.08s.342.036.511.057q.543.069,1.09.122c.171.017.343.044.516.057s.326.015.49.027c.367.026.733.045,1.1.058.186.008.369.025.555.03.148,0,.3,0,.447,0,.4,0,.794,0,1.192,0,.2,0,.4,0,.593,0,.118,0,.235-.019.352-.024q.735-.034,1.468-.1c.2-.017.4-.02.6-.04.063-.006.124-.019.184-.026q1.245-.129,2.479-.344c.04-.008.08-.01.119-.017.237-.042.465-.1.7-.148.405-.083.812-.162,1.211-.259.288-.069.57-.152.854-.23.378-.1.757-.2,1.126-.32.078-.025.161-.043.238-.069.133-.043.253-.1.385-.145q.881-.3,1.719-.65c.209-.088.417-.172.622-.265a22.5,22.5,0,0,0,2.325-1.2c.2-.12.371-.25.562-.373.267-.174.538-.344.784-.523.215-.156.409-.32.61-.481.228-.183.461-.364.67-.552.041-.037.093-.072.135-.11.279-.259.537-.522.782-.789.05-.053.093-.11.143-.166.145-.165.294-.328.425-.5.057-.072.1-.148.149-.223.188-.249.355-.5.512-.758.068-.107.154-.211.217-.319.03-.054.047-.109.076-.164.12-.224.219-.45.317-.676.057-.133.136-.264.187-.4.016-.046.022-.091.039-.135.076-.216.128-.432.187-.649.038-.147.1-.292.126-.44.009-.039.007-.079.013-.118.043-.227.057-.455.079-.683.013-.148.048-.3.051-.445l0-.191.147-51.011c0,.214-.036.426-.055.638" transform="translate(-0.096 -0.778)" fill="#ff7a7f" fill-rule="evenodd"/>
    <path id="패스_5445" data-name="패스 5445" d="M39.315,7.607c8.54,4.919,8.586,12.893.1,17.812s-22.291,4.924-30.83,0-8.594-12.9-.1-17.822,22.291-4.914,30.83.006" transform="translate(-0.103 -0.144)" fill="#828386" fill-rule="evenodd"/>
    <path id="패스_5446" data-name="패스 5446" d="M8.178,73.741a4.876,4.876,0,0,1-2.546-3.85V18.245c0-1.4,1.14-1.953,2.546-1.228a4.875,4.875,0,0,1,2.546,3.85V72.512c0,1.4-1.14,1.953-2.546,1.229" transform="translate(-0.271 -0.76)" fill="#e1484d" fill-rule="evenodd"/>
    <path id="패스_5447" data-name="패스 5447" d="M8.775,17.388c-1.248-.479-2.214.078-2.214,1.367V70.4a4.816,4.816,0,0,0,1.993,3.5c1.248.478,2.215-.077,2.215-1.366V20.892a4.812,4.812,0,0,0-1.994-3.5" transform="translate(-0.316 -0.785)" fill="#ff595f" fill-rule="evenodd"/>
    <path id="패스_5448" data-name="패스 5448" d="M41.515,73.316a1.739,1.739,0,0,1-2.546-1.642V20.028a3.967,3.967,0,0,1,2.546-3.438,1.738,1.738,0,0,1,2.544,1.643V69.878a3.965,3.965,0,0,1-2.544,3.438" transform="translate(-1.877 -0.747)" fill="#e1484d" fill-rule="evenodd"/>
    <path id="패스_5449" data-name="패스 5449" d="M40.95,73.318a3.964,3.964,0,0,0,2.544-3.438V18.233a1.643,1.643,0,0,0-1.451-1.77,2.751,2.751,0,0,0-.528.128,3.967,3.967,0,0,0-2.546,3.438V71.676a1.646,1.646,0,0,0,1.45,1.771,2.751,2.751,0,0,0,.53-.129" transform="translate(-1.877 -0.748)" fill="#ff595f" fill-rule="evenodd"/>
    <path id="패스_5450" data-name="패스 5450" d="M19.291,75.828a2.542,2.542,0,0,1-2.546-2.54V21.641a2.546,2.546,0,0,1,5.091,0V73.288a2.542,2.542,0,0,1-2.545,2.541" transform="translate(-0.807 -0.875)" fill="#e1484d" fill-rule="evenodd"/>
    <path id="패스_5451" data-name="패스 5451" d="M19.564,19.127a2.536,2.536,0,0,0-2.3,2.516V73.288a2.534,2.534,0,0,0,2.3,2.515,2.534,2.534,0,0,0,2.3-2.515V21.641a2.535,2.535,0,0,0-2.3-2.515m10.33,56.7a2.543,2.543,0,0,1-2.546-2.54V21.641a2.546,2.546,0,0,1,5.092,0V73.288a2.543,2.543,0,0,1-2.546,2.54" transform="translate(-0.832 -0.875)" fill="#ff595f" fill-rule="evenodd"/>
    <g id="그룹_4332" data-name="그룹 4332" transform="translate(0 14.598)">
      <path id="패스_5452" data-name="패스 5452" d="M47.441,1.476c-.01.055-.017.112-.026.168-.04.224-.109.445-.168.666-.061.237-.12.474-.2.709A9.494,9.494,0,0,1,46.6,4.063l-.091.176a10.411,10.411,0,0,1-.666,1.1c-.036.054-.078.107-.116.16a12.115,12.115,0,0,1-.78.973c-.054.061-.1.123-.158.184-.306.333-.643.66-1,.98-.228.2-.481.4-.729.6-.219.176-.43.355-.666.525-.267.2-.563.38-.853.568s-.583.393-.9.579q-.994.571-2.04,1.045c-.5.229-1,.447-1.525.65-.067.027-.131.055-.2.08-.556.212-1.129.4-1.708.584-.4.127-.812.236-1.221.347-.311.086-.619.176-.936.252-.432.1-.873.19-1.314.28-.32.065-.637.138-.96.194-.133.024-.268.043-.4.065q-.815.133-1.645.231c-.161.019-.321.04-.484.057-.314.035-.634.054-.952.081-.536.044-1.072.083-1.61.107-.343.014-.684.022-1.027.029-.436.008-.871.012-1.307.006q-.543-.008-1.086-.03a39.027,39.027,0,0,1-6.8-.855q-.742-.165-1.475-.362c-.315-.083-.635-.161-.943-.253-.169-.049-.335-.1-.5-.154q-.728-.229-1.444-.493c-.137-.05-.276-.1-.411-.149-.434-.168-.852-.352-1.27-.538-.2-.09-.409-.171-.607-.265q-.89-.419-1.745-.908C2.34,7.21,0,3.666.01.128L0,3.412c-.01,3.537,2.329,7.081,7.015,9.779.562.324,1.144.623,1.744.908.2.093.408.175.609.266.356.157.707.321,1.076.466.061.024.128.046.191.069.135.052.274.1.412.15q.717.264,1.447.493c.166.051.331.1.5.154.112.033.223.071.336.1.2.057.409.1.61.149.487.129.977.253,1.475.362.133.029.259.069.394.1.2.041.4.067.592.1.419.079.838.152,1.26.219.168.026.334.063.5.087s.372.039.559.062c.393.05.789.1,1.185.133.19.017.377.048.568.063.176.015.356.016.533.029.4.027.8.048,1.2.064.2.009.4.029.6.033.162,0,.324,0,.485,0,.435.006.868,0,1.3-.006.217,0,.433,0,.648,0,.129,0,.255-.021.384-.026q.8-.038,1.6-.108c.216-.017.435-.021.649-.042.1-.01.206-.027.309-.036.16-.019.32-.038.481-.059q.828-.1,1.646-.231c.133-.023.268-.041.4-.064.064-.011.13-.019.194-.031.26-.048.511-.112.767-.164.439-.089.879-.176,1.311-.28.317-.076.624-.167.937-.251.41-.111.821-.222,1.222-.348.087-.027.177-.047.264-.076q.727-.235,1.442-.507c.069-.026.133-.056.2-.082q1-.387,1.959-.854c.549-.266,1.088-.542,1.6-.84.1-.057.2-.114.29-.171.219-.13.4-.272.612-.406.29-.188.586-.375.857-.571.234-.17.445-.347.664-.523.247-.2.5-.4.729-.6.046-.041.1-.08.146-.12.306-.282.587-.569.855-.86.056-.062.1-.124.16-.186.156-.178.317-.355.46-.537.114-.143.214-.289.319-.436.038-.052.079-.1.115-.158.188-.271.366-.546.524-.822.051-.092.1-.186.143-.279.032-.058.062-.117.091-.176a9.385,9.385,0,0,0,.4-.895c.019-.048.025-.1.042-.148.085-.235.143-.472.2-.709.041-.159.1-.318.138-.479.011-.062.018-.125.029-.188s.017-.112.027-.168a8.2,8.2,0,0,0,.1-1.005l0-.207.01-3.284a7.9,7.9,0,0,1-.1,1.214" transform="translate(0 -0.128)" fill="#ff595f" fill-rule="evenodd"/>
    </g>
    <g id="그룹_4333" data-name="그룹 4333" transform="translate(0.01 0.93)">
      <path id="패스_5453" data-name="패스 5453" d="M40.529,4.666c9.311,5.364,9.36,14.064.11,19.427s-24.3,5.364-33.616,0S-2.334,10.031,6.916,4.668s24.3-5.365,33.614,0" transform="translate(-0.01 -0.645)" fill="#ff8a8f" fill-rule="evenodd"/>
    </g>
    <path id="패스_5454" data-name="패스 5454" d="M19.822,9.572a3.252,3.252,0,0,1,.242-.746,2.4,2.4,0,0,1,.314-.484c.038-.048.074-.1.116-.144a2.054,2.054,0,0,1,.456-.375L18.472,9.26a2.047,2.047,0,0,0-.458.375c-.042.045-.077.1-.116.143-.049.064-.107.118-.152.188a2.737,2.737,0,0,0-.257.521,3.745,3.745,0,0,0-.128.432l-.019.09,0,.024-.017.089q-.018.1-.03.2t-.022.2q-.016.2-.016.4v.012l2.479-1.437a4.693,4.693,0,0,1,.086-.9l0-.024" transform="translate(-0.831 -0.332)" fill="#ff595f" fill-rule="evenodd"/>
    <g id="그룹_4349" data-name="그룹 4349" transform="translate(17.443 6.851)">
      <g id="그룹_4334" data-name="그룹 4334" transform="translate(0 0.134)">
        <path id="패스_5455" data-name="패스 5455" d="M.618,2.1,3.1.666A2.189,2.189,0,0,1,3.459.5L.981,1.936A2.189,2.189,0,0,0,.619,2.1" transform="translate(-0.618 -0.499)" fill="#8a8b8e" fill-rule="evenodd"/>
      </g>
      <g id="그룹_4335" data-name="그룹 4335" transform="translate(0.363 0.049)">
        <path id="패스_5456" data-name="패스 5456" d="M1,1.932,3.478.495A2.216,2.216,0,0,1,3.79.409L1.311,1.846A2.346,2.346,0,0,0,1,1.932" transform="translate(-0.999 -0.409)" fill="#8b8c8f" fill-rule="evenodd"/>
      </g>
      <g id="그룹_4336" data-name="그룹 4336" transform="translate(0.675 0.01)">
        <path id="패스_5457" data-name="패스 5457" d="M1.327,1.844,3.8.407A2.493,2.493,0,0,1,4.062.369L1.584,1.807a2.432,2.432,0,0,0-.257.038" transform="translate(-1.327 -0.369)" fill="#8b8d8f" fill-rule="evenodd"/>
      </g>
      <g id="그룹_4337" data-name="그룹 4337" transform="translate(0.932 0)">
        <path id="패스_5458" data-name="패스 5458" d="M1.6,1.807,4.075.369q.115-.01.231-.011L1.828,1.8a2.3,2.3,0,0,0-.231.011" transform="translate(-1.597 -0.358)" fill="#8b8d8f" fill-rule="evenodd"/>
      </g>
      <g id="그룹_4338" data-name="그룹 4338" transform="translate(1.163 0)">
        <path id="패스_5459" data-name="패스 5459" d="M1.84,1.8,4.319.358c.069,0,.139,0,.209.007L2.049,1.8q-.1-.008-.209-.007" transform="translate(-1.84 -0.358)" fill="#8c8d90" fill-rule="evenodd"/>
      </g>
      <g id="그룹_4339" data-name="그룹 4339" transform="translate(1.373 0.007)">
        <path id="패스_5460" data-name="패스 5460" d="M2.06,1.8,4.539.365c.066.006.131.011.2.02L2.258,1.822q-.1-.013-.2-.019" transform="translate(-2.06 -0.365)" fill="#8d8e91" fill-rule="evenodd"/>
      </g>
      <g id="그룹_4340" data-name="그룹 4340" transform="translate(1.571 0.028)">
        <path id="패스_5461" data-name="패스 5461" d="M2.268,1.824,4.748.387c.064.01.128.019.2.031L2.463,1.856q-.1-.019-.2-.031" transform="translate(-2.268 -0.387)" fill="#8d8e91" fill-rule="evenodd"/>
      </g>
      <g id="그룹_4341" data-name="그룹 4341" transform="translate(1.765 0.059)">
        <path id="패스_5462" data-name="패스 5462" d="M2.472,1.857,4.952.42c.06.012.122.026.182.041L2.655,1.9q-.091-.023-.183-.04" transform="translate(-2.472 -0.42)" fill="#8e8f91" fill-rule="evenodd"/>
      </g>
      <g id="그룹_4342" data-name="그룹 4342" transform="translate(1.947 0.1)">
        <path id="패스_5463" data-name="패스 5463" d="M2.664,1.9,5.143.463c.062.015.123.032.185.05L2.848,1.951q-.091-.028-.184-.05" transform="translate(-2.664 -0.463)" fill="#8e9092" fill-rule="evenodd"/>
      </g>
      <g id="그룹_4343" data-name="그룹 4343" transform="translate(2.131 0.15)">
        <path id="패스_5464" data-name="패스 5464" d="M2.857,1.953,5.337.516c.057.017.118.037.178.057L3.035,2.01l-.178-.057" transform="translate(-2.857 -0.516)" fill="#8f9093" fill-rule="evenodd"/>
      </g>
      <g id="그룹_4344" data-name="그룹 4344" transform="translate(2.309 0.208)">
        <path id="패스_5465" data-name="패스 5465" d="M3.044,2.014,5.524.577c.058.02.119.043.179.067L3.223,2.081q-.089-.036-.179-.067" transform="translate(-3.044 -0.577)" fill="#8f9093" fill-rule="evenodd"/>
      </g>
      <g id="그룹_4345" data-name="그룹 4345" transform="translate(2.488 0.276)">
        <path id="패스_5466" data-name="패스 5466" d="M3.232,2.085,5.712.648c.059.023.118.048.178.075L3.41,2.16q-.088-.04-.178-.076" transform="translate(-3.232 -0.648)" fill="#909194" fill-rule="evenodd"/>
      </g>
      <g id="그룹_4346" data-name="그룹 4346" transform="translate(2.666 0.351)">
        <path id="패스_5467" data-name="패스 5467" d="M3.419,2.164,5.9.727c.058.026.12.054.179.085L3.6,2.249Q3.51,2.2,3.419,2.163" transform="translate(-3.419 -0.727)" fill="#919294" fill-rule="evenodd"/>
      </g>
      <g id="그룹_4347" data-name="그룹 4347" transform="translate(2.845 0.435)">
        <path id="패스_5468" data-name="패스 5468" d="M3.607,2.252,6.087.815c.061.03.121.061.182.093L3.789,2.346Q3.7,2.3,3.608,2.252" transform="translate(-3.607 -0.815)" fill="#919294" fill-rule="evenodd"/>
      </g>
      <g id="그룹_4348" data-name="그룹 4348" transform="translate(0 0)">
        <path id="패스_5469" data-name="패스 5469" d="M3.1.659.618,2.1A3.147,3.147,0,0,1,3.787,2.4L6.264.965A4.048,4.048,0,0,0,4.271.358,2.314,2.314,0,0,0,3.1.659" transform="translate(-0.618 -0.358)" fill="#ff595f"/>
        <path id="패스_5470" data-name="패스 5470" d="M3.8,2.351,6.278.914l.141.078L3.94,2.429,3.8,2.351" transform="translate(-0.771 -0.385)" fill="#ff8a8f" fill-rule="evenodd"/>
      </g>
    </g>
    <g id="그룹_4350" data-name="그룹 4350" transform="translate(16.142 7.459)">
      <path id="패스_5471" data-name="패스 5471" d="M27.249,12.849l.015.016a10.286,10.286,0,0,1,.747.9l0,.006a11.451,11.451,0,0,1,.643.981l.027.049a10.755,10.755,0,0,1,.524,1.035l.007.012a9.865,9.865,0,0,1,.408,1.1,8.608,8.608,0,0,1,.255,1.1,6.868,6.868,0,0,1,.088,1.077l2.479-1.437c0-.067,0-.133,0-.2s0-.142-.01-.213a6,6,0,0,0-.073-.655.016.016,0,0,0,0-.01V16.61q-.053-.34-.137-.674-.03-.118-.063-.234c-.017-.064-.037-.126-.055-.188l0-.016-.01-.031q-.035-.116-.073-.23l-.079-.228q-.04-.109-.083-.217l-.087-.216c-.025-.054-.048-.111-.072-.167l-.006-.013q-.054-.125-.112-.247-.121-.254-.252-.5c-.051-.1-.1-.189-.159-.284l-.027-.048-.034-.06q-.282-.476-.609-.923s0,0,0,0l0,0q-.1-.131-.2-.259-.169-.21-.346-.413-.085-.1-.173-.19l-.03-.032-.014-.015-.137-.143a7.431,7.431,0,0,0-.582-.539c-.032-.029-.065-.053-.1-.08l-.021-.019c-.028-.019-.052-.043-.079-.062q-.279-.218-.577-.409-.092-.06-.187-.114l-.043-.027L24.133,7.789,21.654,9.226l3.873,2.231a6.957,6.957,0,0,1,.885.613l.021.019a8.226,8.226,0,0,1,.816.76" transform="translate(-17.185 -7.789)" fill="#ff595f" fill-rule="evenodd"/>
      <path id="패스_5472" data-name="패스 5472" d="M25.3,11.5a9.773,9.773,0,0,1,4.439,7.672l-.28-.162A9.154,9.154,0,0,0,25.3,11.82L21.426,9.59c-2.3-1.327-4.179-.26-4.188,2.38l-.279-.159c.009-2.816,2.013-3.956,4.47-2.541Z" transform="translate(-16.959 -7.831)" fill="#e1484d" fill-rule="evenodd"/>
    </g>
  </g>
</svg>
