<svg xmlns="http://www.w3.org/2000/svg" width="162" height="144" viewBox="0 0 162 144">
    <g fill="none" fill-rule="evenodd">
        <path fill="#701619" d="M75.265 25.263c-1.368.788-2.479 2.708-2.474 4.281l.483-.278c-.004-1.269.89-2.814 1.993-3.45.522-.3 1.024-.344 1.409-.125.384.218.6.67.6 1.269.003.884-.426 1.921-1.117 2.704-.691.789-1.116 1.78-1.114 2.593v.12c.081-.06.163-.114.244-.16.08-.047.16-.086.24-.118v-.12c-.003-.6.32-1.34.845-1.938.856-.974 1.39-2.266 1.387-3.36-.003-.748-.266-1.307-.746-1.576-.477-.275-1.096-.219-1.75.158"/>
        <path fill="#FF595F" d="M83.356 30.83l-.004.003v.115a12.329 12.329 0 0 1-.182 2.015l-.004.001c-.037.216-.08.433-.128.65l.004-.001c-.22.996-.553 2.014-.978 2.999-1.421 3.354-3.912 6.47-6.743 8.1-2.832 1.631-5.324 1.387-6.769-.318-.804-.951-1.289-2.363-1.316-4.163v-.115L55.778 52.048l-6.495 24.694 5.809.685 2.34-20.685.06 20.968.083 29.297 35.79-20.616-.082-29.297-.06-20.968 2.45 17.925 5.787-7.364-6.615-17.142-11.489 1.285"/>
        <path fill="#E1484D" d="M83.352 30.833v.115l-.27.04.27-.155m-5.259 3.03l5.073-.9c-.037.217-.08.434-.128.652l-15.468 8.91c.225.74.563 1.371.982 1.87l13.512-7.783c-1.421 3.355-3.912 6.47-6.744 8.1-2.831 1.631-5.323 1.386-6.768-.317-.805-.952-1.289-2.364-1.316-4.164v-.115l.274-.158-.274.273c.015.712.091 1.368.246 1.96l5.531-5.403 5.08-2.926M57.432 56.742l-2.34 20.685 2.4.283zM93.223 36.126l.06 20.968 2.39-3.043z"/>
        <path fill="#AC3539" d="M83.042 33.613l-.004.001-15.468 8.91c.225.742.562 1.372.983 1.87l13.511-7.782c.425-.986.758-2.003.978-3M75.29 32.216a2.42 2.42 0 0 0-.244.162 3.053 3.053 0 0 0-.336.292l-7.2 7.288-.274.273c.016.712.092 1.368.245 1.96l5.532-5.402 2.536-2.476 2.544-.45 5.073-.9h.005c.115-.682.179-1.359.181-2.015l-.27.04-7.213 1.015a1.455 1.455 0 0 0-.34.096c-.08.032-.16.071-.24.117"/>
        <path fill="#701619" d="M81.997 32.708c-1.368.788-2.48 2.708-2.475 4.281l.484-.278c-.005-1.269.89-2.815 1.992-3.45.523-.3 1.025-.344 1.409-.126.384.22.6.67.601 1.27.003.884-.426 1.921-1.118 2.704-.69.789-1.116 1.779-1.113 2.593v.12c.08-.06.162-.114.243-.16.08-.047.161-.086.24-.118v-.12c-.002-.6.32-1.34.845-1.938.857-.974 1.39-2.266 1.387-3.36-.002-.748-.266-1.307-.746-1.576-.477-.275-1.096-.219-1.75.158"/>
        <path fill="#FFCDCF" d="M90.088 38.275l-.004.003v.115a12.33 12.33 0 0 1-.182 2.015l-.004.001c-.038.216-.08.433-.128.65l.003-.002c-.22.997-.553 2.015-.977 3-1.422 3.354-3.913 6.47-6.744 8.1-2.831 1.631-5.323 1.386-6.768-.318-.805-.951-1.29-2.363-1.316-4.163v-.115L62.508 59.493l-6.495 24.694 5.809.685 2.34-20.685.06 20.968.083 29.297 35.79-20.616-.082-29.297-.06-20.968 2.451 17.925 5.786-7.364-6.615-17.142-11.488 1.285"/>
        <path fill="#FF8A8F" d="M90.084 38.278v.115l-.27.04.27-.155m-5.26 3.03l5.073-.899c-.037.216-.08.433-.127.65l-15.468 8.91c.224.742.562 1.372.982 1.87l13.512-7.782c-1.422 3.354-3.913 6.47-6.744 8.1-2.831 1.631-5.323 1.386-6.768-.318-.806-.951-1.29-2.363-1.316-4.163v-.115l.274-.158-.274.273c.015.711.09 1.368.245 1.96l5.532-5.403 5.08-2.926M64.164 64.187l-2.341 20.685 2.4.283zM99.955 43.57l.06 20.968 2.39-3.042z"/>
        <path fill="#AC3539" d="M89.773 41.057l-.003.002-15.468 8.91c.224.742.562 1.372.982 1.87l13.512-7.783c.424-.985.758-2.002.977-2.999M82.02 39.661a2.99 2.99 0 0 0-.579.453l-7.2 7.29-.273.272c.015.711.091 1.368.245 1.96l5.532-5.403 2.535-2.475 2.545-.451 5.073-.898.004-.001c.116-.682.18-1.359.182-2.015l-.27.04-7.214 1.015a1.455 1.455 0 0 0-.34.096c-.079.032-.16.07-.24.117"/>
        <path fill="#701619" d="M87.805 42.52c-1.367.788-2.478 2.709-2.474 4.282l.484-.279c-.004-1.269.89-2.814 1.992-3.448.523-.302 1.024-.346 1.409-.127.384.219.6.67.601 1.27.003.883-.427 1.92-1.118 2.704-.69.788-1.116 1.778-1.114 2.593l.001.12a2.112 2.112 0 0 1 .483-.28v-.119c-.002-.6.32-1.34.845-1.937.857-.975 1.39-2.267 1.387-3.36-.002-.75-.266-1.308-.746-1.576-.477-.276-1.096-.22-1.75.157"/>
        <path fill="#FF8A8F" d="M95.897 48.088l-.004.002v.115a12.404 12.404 0 0 1-.182 2.016h-.004c-.038.216-.08.433-.128.65h.003c-.22.996-.553 2.013-.977 2.998-1.422 3.355-3.913 6.47-6.744 8.101-2.831 1.63-5.323 1.386-6.768-.318-.805-.951-1.29-2.364-1.316-4.163l-.001-.116-11.458 11.932L61.823 94l5.809.686L69.972 74l.06 20.967.083 29.298 35.79-20.617-.082-29.297-.06-20.968 2.451 17.925L114 63.945l-6.615-17.143-11.488 1.286"/>
        <path fill="#FF595F" d="M95.893 48.09v.115l-.27.041.27-.156m-5.26 3.03l5.073-.898c-.037.216-.08.433-.127.65l-15.468 8.91c.224.74.562 1.372.982 1.87l13.512-7.783c-1.422 3.355-3.913 6.47-6.744 8.101-2.831 1.63-5.323 1.385-6.768-.318-.806-.952-1.29-2.364-1.316-4.164v-.114l.274-.158-.274.272c.015.712.09 1.369.245 1.96l5.532-5.402 5.08-2.927M69.972 74l-2.34 20.685 2.4.282zM105.764 53.383l.06 20.968 2.39-3.043z"/>
        <path fill="#AC3539" d="M95.582 50.87l-.004.002-15.467 8.91c.224.74.562 1.372.983 1.87l13.51-7.783c.425-.985.759-2.002.978-2.999M87.83 49.473a2.527 2.527 0 0 0-.244.162 3.118 3.118 0 0 0-.335.292l-7.2 7.288-.274.274c.015.71.091 1.367.245 1.959l5.532-5.402 2.535-2.476 2.545-.45 5.073-.899h.004c.116-.682.18-1.359.182-2.016l-.27.04-7.214 1.015a1.455 1.455 0 0 0-.34.096c-.079.032-.16.072-.24.117"/>
        <path fill="#701619" d="M93.237 51.09L71.755 25.462a1.497 1.497 0 0 1 .189-2.113 1.506 1.506 0 0 1 2.117.189l21.482 25.629c.532.635.447 1.58-.189 2.112a1.505 1.505 0 0 1-2.117-.189"/>
    </g>
</svg>
