<svg xmlns="http://www.w3.org/2000/svg" xmlns:xlink="http://www.w3.org/1999/xlink" width="134" height="165" viewBox="0 0 134 165">
    <defs>
        <filter id="a" width="112.4%" height="113.9%" x="-6.2%" y="-7%" filterUnits="objectBoundingBox">
            <feOffset dy="2" in="SourceAlpha" result="shadowOffsetOuter1"/>
            <feGaussianBlur in="shadowOffsetOuter1" result="shadowBlurOuter1" stdDeviation="15"/>
            <feColorMatrix in="shadowBlurOuter1" result="shadowMatrixOuter1" values="0 0 0 0 0 0 0 0 0 0.309803922 0 0 0 0 0.321568627 0 0 0 0.2 0"/>
            <feMerge>
                <feMergeNode in="shadowMatrixOuter1"/>
                <feMergeNode in="SourceGraphic"/>
            </feMerge>
        </filter>
        <filter id="b" width="349.6%" height="248.8%" x="-124.7%" y="-74.4%" filterUnits="objectBoundingBox">
            <feOffset dy="2" in="SourceAlpha" result="shadowOffsetOuter1"/>
            <feGaussianBlur in="shadowOffsetOuter1" result="shadowBlurOuter1" stdDeviation="15.5"/>
            <feColorMatrix in="shadowBlurOuter1" result="shadowMatrixOuter1" values="0 0 0 0 0 0 0 0 0 0.309803922 0 0 0 0 0.321568627 0 0 0 0.2 0"/>
            <feMerge>
                <feMergeNode in="shadowMatrixOuter1"/>
                <feMergeNode in="SourceGraphic"/>
            </feMerge>
        </filter>
        <path id="c" d="M0 .128h49.95v17.938H0z"/>
        <path id="e" d="M.01.645h49.94v28.861H.01z"/>
        <path id="g" d="M3.224.674L.618 2.184c.853-.494 2.03-.425 3.329.323L6.55.996C5.799.563 5.088.358 4.456.358c-.459 0-.874.109-1.232.316"/>
        <path id="i" d="M3.224.674L.618 2.184c.853-.494 2.03-.425 3.329.323L6.55.996C5.799.563 5.088.358 4.456.358c-.459 0-.874.109-1.232.316"/>
        <path id="k" d="M3.224.674L.618 2.184c.853-.494 2.03-.425 3.329.323L6.55.996C5.799.563 5.088.358 4.456.358c-.459 0-.874.109-1.232.316"/>
        <path id="m" d="M3.224.674L.618 2.184c.853-.494 2.03-.425 3.329.323L6.55.996C5.799.563 5.088.358 4.456.358c-.459 0-.874.109-1.232.316"/>
        <path id="o" d="M3.224.674L.618 2.184c.853-.494 2.03-.425 3.329.323L6.55.996C5.799.563 5.088.358 4.456.358c-.459 0-.874.109-1.232.316"/>
        <path id="q" d="M3.224.674L.618 2.184c.853-.494 2.03-.425 3.329.323L6.55.996C5.799.563 5.088.358 4.456.358c-.459 0-.874.109-1.232.316"/>
        <path id="s" d="M3.224.674L.618 2.184c.853-.494 2.03-.425 3.329.323L6.55.996C5.799.563 5.088.358 4.456.358c-.459 0-.874.109-1.232.316"/>
        <path id="u" d="M3.224.674L.618 2.184c.853-.494 2.03-.425 3.329.323L6.55.996C5.799.563 5.088.358 4.456.358c-.459 0-.874.109-1.232.316"/>
        <path id="w" d="M3.224.674L.618 2.184c.853-.494 2.03-.425 3.329.323L6.55.996C5.799.563 5.088.358 4.456.358c-.459 0-.874.109-1.232.316"/>
        <path id="y" d="M3.224.674L.618 2.184c.853-.494 2.03-.425 3.329.323L6.55.996C5.799.563 5.088.358 4.456.358c-.459 0-.874.109-1.232.316"/>
        <path id="A" d="M3.224.674L.618 2.184c.853-.494 2.03-.425 3.329.323L6.55.996C5.799.563 5.088.358 4.456.358c-.459 0-.874.109-1.232.316"/>
        <path id="C" d="M3.224.674L.618 2.184c.853-.494 2.03-.425 3.329.323L6.55.996C5.799.563 5.088.358 4.456.358c-.459 0-.874.109-1.232.316"/>
        <path id="E" d="M3.224.674L.618 2.184c.853-.494 2.03-.425 3.329.323L6.55.996C5.799.563 5.088.358 4.456.358c-.459 0-.874.109-1.232.316"/>
        <path id="G" d="M3.224.674L.618 2.184c.853-.494 2.03-.425 3.329.323L6.55.996C5.799.563 5.088.358 4.456.358c-.459 0-.874.109-1.232.316"/>
        <path id="I" d="M3.224.674L.618 2.184c.853-.494 2.03-.425 3.329.323L6.55.996C5.799.563 5.088.358 4.456.358c-.459 0-.874.109-1.232.316"/>
    </defs>
    <g fill="none" fill-rule="evenodd" filter="url(#b)" transform="translate(42.167 36.322)">
        <path fill="#4DA9AD" d="M47.899 17.886c-.021.239-.038.479-.082.717-.036.196-.095.39-.147.586-.06.227-.116.456-.196.681-.066.187-.155.372-.236.557a9.603 9.603 0 0 1-.333.711c-.093.171-.204.339-.307.507a11.905 11.905 0 0 1-1.143 1.55c-.052.059-.098.12-.152.177-.295.322-.62.636-.963.945-.22.197-.463.386-.702.577-.213.17-.417.342-.644.508-.258.187-.543.366-.822.546-.288.187-.561.38-.87.558-.686.4-1.417.756-2.164 1.093-.215.097-.435.186-.654.278-.586.245-1.188.473-1.804.682-.22.075-.434.156-.656.225-.388.122-.785.228-1.181.336-.3.082-.595.168-.9.242-.416.1-.84.184-1.264.27-.29.058-.575.124-.869.175-.856.15-1.725.27-2.602.362-.272.029-.546.046-.82.069-.512.042-1.025.08-1.54.103-.331.014-.664.02-.996.027-.417.007-.834.011-1.251.005a39.909 39.909 0 0 1-2.209-.09 36.427 36.427 0 0 1-1.06-.089 38.181 38.181 0 0 1-2.167-.272c-.407-.062-.81-.133-1.211-.21-.32-.06-.636-.122-.95-.191-.48-.105-.952-.224-1.42-.347-.263-.07-.528-.136-.788-.211-.84-.246-1.662-.52-2.456-.829a26.414 26.414 0 0 1-1.159-.49c-.196-.087-.398-.166-.59-.256a23.264 23.264 0 0 1-1.68-.876c-4.517-2.602-6.774-6.016-6.765-9.427l-.152 53.592c-.01 3.41 2.248 6.826 6.765 9.427.54.312 1.102.603 1.68.875.19.09.392.169.586.255.344.152.683.311 1.038.451.04.016.084.027.125.042.795.309 1.616.583 2.456.828.07.02.13.048.199.066.192.055.393.093.587.144.47.124.941.243 1.421.347.128.03.25.067.38.093.188.04.382.063.572.1.401.076.803.148 1.21.21.163.025.323.06.487.084.178.026.359.038.537.06.38.048.761.091 1.145.128.18.018.36.046.542.06.172.015.343.016.515.028.386.027.77.047 1.157.061.195.008.388.026.583.032.156.003.313-.005.47-.003.417.005.834.002 1.252-.005.207-.003.416.004.623-.003.124-.004.247-.02.37-.025a38.4 38.4 0 0 0 1.542-.102c.209-.018.42-.021.626-.042.066-.006.13-.02.193-.027a37.875 37.875 0 0 0 2.604-.361c.042-.008.084-.01.125-.018.249-.044.489-.107.736-.156.426-.087.853-.17 1.272-.272.303-.073.599-.16.897-.242.397-.107.795-.214 1.183-.336.082-.026.169-.045.25-.072.14-.045.266-.106.405-.152.617-.21 1.218-.437 1.806-.683.22-.092.438-.181.653-.278a23.64 23.64 0 0 0 2.443-1.257c.21-.126.39-.263.59-.392.28-.183.565-.361.824-.549.226-.164.43-.336.641-.505.24-.192.484-.382.704-.58.043-.039.098-.076.142-.116.293-.272.564-.548.822-.829.053-.056.098-.116.15-.174.152-.173.309-.345.447-.521.06-.076.1-.156.157-.234.197-.262.373-.528.538-.796.071-.112.162-.222.228-.335.031-.057.049-.115.08-.172.126-.235.23-.473.333-.71.06-.14.143-.277.196-.416.017-.048.023-.096.041-.142.08-.227.135-.454.196-.682.04-.154.101-.307.132-.462.009-.041.007-.083.014-.124.045-.239.06-.478.083-.718.014-.156.05-.312.054-.468l.002-.201.154-53.593c-.001.225-.038.448-.058.67"/>
        <path fill="#828386" d="M41.196 7.794c8.972 5.168 9.02 13.545.105 18.713-8.923 5.173-23.419 5.173-32.39.005-8.973-5.168-9.029-13.55-.106-18.724 8.914-5.168 23.419-5.163 32.39.006"/>
        <path fill="#02858A" d="M8.307 76.628c-1.477-.76-2.675-2.572-2.675-4.045v-54.26c0-1.472 1.198-2.052 2.675-1.29 1.477.76 2.675 2.571 2.675 4.045v54.259c0 1.473-1.198 2.052-2.675 1.291"/>
        <path fill="#1B9195" d="M8.887 17.397c-1.311-.503-2.326.082-2.326 1.436v54.26c0 1.275.896 2.798 2.094 3.68 1.311.502 2.327-.081 2.327-1.435v-54.26c0-1.274-.896-2.8-2.095-3.68"/>
        <path fill="#02858A" d="M41.644 76.195c-1.478.522-2.675-.252-2.675-1.725V20.21c0-1.473 1.197-3.09 2.675-3.612 1.477-.52 2.673.253 2.673 1.726v54.259c0 1.474-1.196 3.09-2.673 3.612"/>
        <path fill="#1B9195" d="M41.05 76.195c1.477-.521 2.673-2.138 2.673-3.612v-54.26c0-1.06-.624-1.748-1.524-1.86a2.89 2.89 0 0 0-.555.135c-1.478.522-2.675 2.139-2.675 3.612v54.26c0 1.06.625 1.748 1.523 1.861a2.89 2.89 0 0 0 .557-.136"/>
        <path fill="#02858A" d="M19.42 78.699a2.671 2.671 0 0 1-2.675-2.669V21.77a2.672 2.672 0 0 1 2.675-2.668 2.672 2.672 0 0 1 2.674 2.668v54.26A2.671 2.671 0 0 1 19.42 78.7"/>
        <path fill="#1B9195" d="M19.68 19.128c-1.354.133-2.415 1.26-2.415 2.643V76.03a2.662 2.662 0 0 0 2.414 2.642 2.662 2.662 0 0 0 2.415-2.642V21.77c0-1.383-1.061-2.509-2.415-2.642M30.532 78.699a2.672 2.672 0 0 1-2.675-2.669V21.77a2.672 2.672 0 0 1 2.675-2.668 2.672 2.672 0 0 1 2.675 2.668v54.26a2.672 2.672 0 0 1-2.675 2.669"/>
        <g transform="translate(0 15.162)">
            <mask id="d" fill="#fff">
                <use xlink:href="#c"/>
            </mask>
            <path fill="#1B9195" d="M49.842 1.544c-.01.058-.018.118-.027.177-.042.235-.115.467-.177.7-.064.249-.126.498-.213.745a9.974 9.974 0 0 1-.464 1.096l-.096.185c-.205.39-.436.775-.7 1.155-.038.057-.082.112-.122.168a12.73 12.73 0 0 1-.819 1.022c-.057.064-.107.129-.166.193-.321.35-.676.693-1.051 1.03-.24.214-.505.422-.766.63-.23.185-.452.373-.7.552-.28.205-.592.399-.896.597-.314.204-.612.413-.95.608a25.055 25.055 0 0 1-2.143 1.098c-.522.241-1.055.47-1.602.683-.07.028-.138.058-.208.084-.584.223-1.186.423-1.794.614-.421.133-.853.248-1.283.365-.327.09-.65.185-.983.265-.454.11-.917.2-1.38.294-.336.068-.669.145-1.009.204-.14.025-.282.045-.423.068-.571.093-1.148.174-1.728.243-.169.02-.337.042-.508.06-.33.037-.666.057-1 .085-.563.046-1.126.087-1.692.112-.36.015-.719.023-1.079.03-.458.008-.915.013-1.373.006a42.422 42.422 0 0 1-1.141-.032 41.002 41.002 0 0 1-7.146-.898 36.27 36.27 0 0 1-1.55-.38c-.331-.087-.667-.169-.991-.266-.178-.052-.352-.108-.529-.162a32.659 32.659 0 0 1-1.517-.518c-.144-.053-.29-.103-.432-.157-.456-.176-.895-.37-1.334-.565-.212-.095-.43-.18-.638-.278a25.968 25.968 0 0 1-1.833-.954C2.458 7.568 0 3.845.01.128L0 3.578c-.01 3.716 2.447 7.439 7.37 10.274.59.34 1.202.655 1.832.954.208.098.429.184.64.279.374.165.743.337 1.13.49.064.025.134.048.201.073.142.055.288.104.433.158a33.91 33.91 0 0 0 1.52.518c.174.054.348.11.524.162.118.035.234.075.353.109.21.06.43.102.641.157.512.136 1.026.266 1.55.38.14.03.272.072.414.1.205.043.415.07.622.109.44.083.88.16 1.324.23.177.027.351.066.53.091.194.027.391.041.587.065.413.053.829.1 1.245.14.2.018.396.05.597.066.185.016.374.017.56.03.42.028.84.05 1.265.067.211.009.423.03.634.035.17.004.34-.005.51-.003.457.006.912.003 1.368-.006.228-.004.455.004.681-.003.136-.005.268-.022.403-.027a44.218 44.218 0 0 0 1.686-.113c.227-.018.457-.022.682-.044.108-.011.216-.028.325-.038.168-.02.336-.04.505-.062.58-.069 1.156-.15 1.729-.243.14-.024.282-.043.423-.067.067-.012.137-.02.204-.033.273-.05.537-.118.806-.172.461-.093.923-.185 1.377-.294.333-.08.656-.175.984-.264.431-.117.863-.233 1.284-.366.091-.028.186-.049.277-.08a30.946 30.946 0 0 0 1.515-.533c.072-.027.14-.059.213-.086a27.91 27.91 0 0 0 2.058-.897c.577-.279 1.143-.569 1.683-.882.104-.06.205-.12.305-.18.23-.137.425-.286.643-.427.305-.198.616-.394.9-.6.246-.179.467-.365.698-.549.26-.21.526-.417.766-.632.048-.043.107-.084.153-.126.322-.296.617-.598.898-.903.059-.065.11-.13.168-.195.164-.187.333-.373.483-.564.12-.15.225-.304.335-.458.04-.055.083-.11.121-.166.198-.285.385-.574.55-.864.054-.097.1-.195.15-.293.034-.061.065-.123.096-.185.156-.311.3-.624.419-.94.02-.05.026-.103.044-.155.089-.247.15-.496.215-.745.043-.167.11-.334.145-.503.012-.065.019-.131.03-.197.011-.059.018-.118.028-.177a8.61 8.61 0 0 0 .106-1.056l.002-.218.01-3.45c0 .426-.042.85-.108 1.275" mask="url(#d)"/>
        </g>
        <g transform="translate(0 .285)">
            <mask id="f" fill="#fff">
                <use xlink:href="#e"/>
            </mask>
            <path fill="#80C2C4" d="M42.58 4.87c9.782 5.635 9.834 14.776.116 20.41-9.719 5.635-25.534 5.635-35.317 0-9.78-5.634-9.832-14.774-.114-20.408C16.982-.764 32.799-.764 42.58 4.87" mask="url(#f)"/>
        </g>
        <path fill="#02858A" d="M19.952 9.66a3.417 3.417 0 0 1 .254-.784c.09-.193.208-.355.33-.508.04-.05.078-.105.122-.151.145-.154.302-.291.479-.394l-2.603 1.51c-.179.104-.336.24-.481.394-.044.047-.081.1-.122.15-.052.067-.112.124-.16.198a2.876 2.876 0 0 0-.27.547 3.934 3.934 0 0 0-.134.454l-.02.095-.005.025-.018.094a3.518 3.518 0 0 0-.031.21 7.195 7.195 0 0 0-.023.208 5.206 5.206 0 0 0-.017.417v.013l2.604-1.51c.001-.34.033-.653.09-.942l.005-.025"/>
        <g>
            <g transform="translate(17.708 6.793)">
                <mask id="h" fill="#fff">
                    <use xlink:href="#g"/>
                </mask>
                <path fill="#8A8B8E" d="M.618 2.184L3.223.674a2.3 2.3 0 0 1 .38-.175L.999 2.009c-.133.047-.26.106-.38.175" mask="url(#h)"/>
            </g>
            <g transform="translate(17.708 6.793)">
                <mask id="j" fill="#fff">
                    <use xlink:href="#i"/>
                </mask>
                <path fill="#8B8C8F" d="M.999 2.009L3.603.499c.105-.038.215-.067.328-.09l-2.604 1.51a2.465 2.465 0 0 0-.328.09" mask="url(#j)"/>
            </g>
            <g transform="translate(17.708 6.793)">
                <mask id="l" fill="#fff">
                    <use xlink:href="#k"/>
                </mask>
                <path fill="#8B8D8F" d="M1.327 1.919L3.93.409c.088-.018.178-.031.27-.04L1.597 1.88a2.555 2.555 0 0 0-.27.04" mask="url(#l)"/>
            </g>
            <g transform="translate(17.708 6.793)">
                <mask id="n" fill="#fff">
                    <use xlink:href="#m"/>
                </mask>
                <path fill="#8B8D8F" d="M1.597 1.88L4.2.37a3 3 0 0 1 .243-.012L1.84 1.868c-.083 0-.164.004-.243.012" mask="url(#n)"/>
            </g>
            <g transform="translate(17.708 6.793)">
                <mask id="p" fill="#fff">
                    <use xlink:href="#o"/>
                </mask>
                <path fill="#8C8D90" d="M1.84 1.869L4.444.358c.073 0 .146.003.22.007L2.06 1.876a2.52 2.52 0 0 0-.22-.007" mask="url(#p)"/>
            </g>
            <g transform="translate(17.708 6.793)">
                <mask id="r" fill="#fff">
                    <use xlink:href="#q"/>
                </mask>
                <path fill="#8D8E91" d="M2.06 1.876L4.664.365c.069.006.138.012.209.021l-2.605 1.51a3.34 3.34 0 0 0-.208-.02" mask="url(#r)"/>
            </g>
            <g transform="translate(17.708 6.793)">
                <mask id="t" fill="#fff">
                    <use xlink:href="#s"/>
                </mask>
                <path fill="#8D8E91" d="M2.268 1.897L4.873.387c.067.01.135.02.205.033L2.473 1.93a3.356 3.356 0 0 0-.205-.033" mask="url(#t)"/>
            </g>
            <g transform="translate(17.708 6.793)">
                <mask id="v" fill="#fff">
                    <use xlink:href="#u"/>
                </mask>
                <path fill="#8E8F91" d="M2.472 1.93L5.077.42c.063.013.128.027.191.043l-2.604 1.51a2.975 2.975 0 0 0-.192-.042" mask="url(#v)"/>
            </g>
            <g transform="translate(17.708 6.793)">
                <mask id="x" fill="#fff">
                    <use xlink:href="#w"/>
                </mask>
                <path fill="#8E9092" d="M2.664 1.973L5.268.463c.065.016.129.034.194.053l-2.605 1.51a3.996 3.996 0 0 0-.193-.053" mask="url(#x)"/>
            </g>
            <g transform="translate(17.708 6.793)">
                <mask id="z" fill="#fff">
                    <use xlink:href="#y"/>
                </mask>
                <path fill="#8F9093" d="M2.857 2.026L5.462.516c.06.018.124.039.187.06l-2.605 1.51-.187-.06" mask="url(#z)"/>
            </g>
            <g transform="translate(17.708 6.793)">
                <mask id="B" fill="#fff">
                    <use xlink:href="#A"/>
                </mask>
                <path fill="#8F9093" d="M3.044 2.087L5.649.577c.061.021.125.045.188.07l-2.605 1.51a3.871 3.871 0 0 0-.188-.07" mask="url(#B)"/>
            </g>
            <g transform="translate(17.708 6.793)">
                <mask id="D" fill="#fff">
                    <use xlink:href="#C"/>
                </mask>
                <path fill="#909194" d="M3.232 2.158L5.837.648c.062.024.124.05.187.079l-2.605 1.51a4.465 4.465 0 0 0-.187-.08" mask="url(#D)"/>
            </g>
            <g transform="translate(17.708 6.793)">
                <mask id="F" fill="#fff">
                    <use xlink:href="#E"/>
                </mask>
                <path fill="#919294" d="M3.419 2.237L6.024.727c.061.027.126.057.188.089l-2.605 1.51a4.306 4.306 0 0 0-.188-.09" mask="url(#F)"/>
            </g>
            <g transform="translate(17.708 6.793)">
                <mask id="H" fill="#fff">
                    <use xlink:href="#G"/>
                </mask>
                <path fill="#919294" d="M3.607 2.325L6.212.815c.064.031.127.064.191.098l-2.605 1.51a4.634 4.634 0 0 0-.19-.098" mask="url(#H)"/>
            </g>
            <g transform="translate(17.708 6.793)">
                <mask id="J" fill="#fff">
                    <use xlink:href="#I"/>
                </mask>
                <use fill="#1B9195" xlink:href="#I"/>
                <path fill="#4DA9AD" d="M3.798 2.424L6.403.914l.148.082-2.604 1.51-.149-.082" mask="url(#J)"/>
            </g>
        </g>
        <g>
            <path fill="#4DA9AD" d="M27.532 13.105l.016.017c.275.294.538.61.785.943l.004.006c.242.33.468.676.676 1.031l.028.051c.203.354.388.717.55 1.087l.007.013a10.364 10.364 0 0 1 .429 1.16 9.044 9.044 0 0 1 .268 1.159c.06.384.093.762.092 1.132l2.604-1.51c0-.07 0-.14-.003-.21a4.55 4.55 0 0 0-.01-.224 6.301 6.301 0 0 0-.077-.688c0-.004 0-.007-.002-.01v-.006a8.09 8.09 0 0 0-.144-.708 8.787 8.787 0 0 0-.066-.246c-.018-.067-.039-.132-.058-.197l-.005-.017-.01-.033a7.29 7.29 0 0 0-.077-.242l-.083-.24a7.629 7.629 0 0 0-.087-.228l-.091-.227c-.026-.057-.05-.117-.076-.175l-.006-.014a9.888 9.888 0 0 0-.118-.26 16.003 16.003 0 0 0-.265-.528c-.054-.1-.11-.199-.167-.298l-.028-.05-.036-.063a11.888 11.888 0 0 0-.64-.97c-.002 0-.004-.004-.005-.004l-.002-.004a11.552 11.552 0 0 0-.206-.272 14.469 14.469 0 0 0-.363-.434 7.365 7.365 0 0 0-.182-.2l-.032-.034-.015-.016-.144-.15a7.807 7.807 0 0 0-.611-.566c-.034-.03-.068-.056-.102-.084a.24.24 0 0 1-.022-.02c-.029-.02-.055-.045-.083-.065a7.956 7.956 0 0 0-.606-.43 4.267 4.267 0 0 0-.196-.12l-.045-.028-4.07-2.344-2.604 1.51 4.069 2.344c.318.184.628.4.93.644l.022.02c.297.24.584.508.857.798"/>
            <path fill="#1B9195" d="M25.723 11.643c2.58 1.487 4.673 5.103 4.664 8.06l-.294-.17c.008-2.772-1.952-6.16-4.371-7.553l-4.07-2.343c-2.419-1.394-4.39-.273-4.4 2.5l-.293-.167c.009-2.958 2.115-4.156 4.696-2.67l4.068 2.343z"/>
        </g>
    </g>
</svg>
