<svg xmlns="http://www.w3.org/2000/svg" width="118.032" height="91.131" viewBox="0 0 118.032 91.131">
  <g id="bedroom-category-bed" transform="translate(3.705 -0.545)">
    <path id="패스_5296" data-name="패스 5296" d="M0,50.7V23.419L44.577.545l3.008,1.512V13.643L33.993,37.977,3.349,52.435Z" transform="translate(-2.627 0)" fill="#ff696f"/>
    <path id="패스_5297" data-name="패스 5297" d="M12.43,42.351V26.988L56.55,3.845l1.587,16.813Z" transform="translate(-11.439 -2.34)" fill="#ffeeef" fill-rule="evenodd" opacity="0.334"/>
    <ellipse id="타원_2" data-name="타원 2" cx="0.678" cy="0.677" rx="0.678" ry="0.677" transform="translate(35.649 29.643)" fill="#2c1c0b" stroke="#979797" stroke-width="0.915"/>
    <g id="그룹_4313" data-name="그룹 4313" transform="translate(-3.705 10.894)">
      <path id="패스_5298" data-name="패스 5298" d="M64.949,77.082a1.609,1.609,0,0,0,1.567,0c.824-.29,42.045-23.2,43.1-24.568q1.056-1.371,0-15.938L45.866,1.535A2.7,2.7,0,0,0,44.553.813a1.346,1.346,0,0,0-.891.467L.834,23.81a.847.847,0,0,0-.679.356.778.778,0,0,0,0,.744v14.7q64.31,37.237,64.795,37.477Z" transform="translate(4.272 1.935)" fill="#ff9b9f"/>
      <path id="패스_5299" data-name="패스 5299" d="M63.615,5.555,42.269-8.631l-47.3,25.208V24.57l27.35,16.313L53.9,20.629Z" transform="translate(7.885 8.631)" fill="#ffcdcf" fill-rule="evenodd"/>
      <path id="패스_5300" data-name="패스 5300" d="M55.316,133.56V115.282l-67.292-37.3-2.85,18.9,8.148,11.426L38.708,127.1l16.608,6.455Z" transform="translate(14.827 -52.778)" fill="#ff595f" fill-rule="evenodd" opacity="0.468"/>
      <path id="패스_5301" data-name="패스 5301" d="M79.067,125.746q-1.326,6.88-.805,9.12a5.408,5.408,0,0,0,3.438,4.361c2.267,1.153,4.92,1.153,7.96,2.079s1.7-.2,3.993,1.4-.315,1.3,4.722,4,6.222,3.383,10.311,5.377,5.714,3.032,8.083,4.333a6.508,6.508,0,0,0,4.441.928q1.209,0,7.36-4.336L110.5,148.189,79.156,125.843l-.089-.1Z" transform="translate(-51.066 -86.638)" fill="#ff5c62" fill-rule="evenodd" opacity="0.171"/>
    </g>
    <g id="그룹_4314" data-name="그룹 4314" transform="translate(20.768 25.311)">
      <path id="패스_5302" data-name="패스 5302" d="M.308,34.521q-.585-.89,0-9.75,9.964-9.714,14.9-12.1,3.75-1.81,14.171-6.887l7.287-3.552,6.206-1.3,1.2-.852Q81.608,19.015,83.215,20.168a19.489,19.489,0,0,1,3.51,3.155c1.064,1.175,2.064,7.376,1.459,7.757a2.709,2.709,0,0,1-1.459.385Q44.562,56.346,42.936,56.346c-1.626,0-1.652,0-2.138-.2A11.785,11.785,0,0,1,38.153,54c-1.126-1.125-15.925-8-16.95-8.55a13.307,13.307,0,0,1-3.209-2.2c-1.029-1.009-.543-1.352-2.782-2.647s-1.749-.765-4.388-1.5S7.688,38.976,5,37.847a15.228,15.228,0,0,1-2.72-1.454A7.284,7.284,0,0,1,.308,34.521Z" transform="translate(3.22 -0.08)" fill="#ff696f"/>
      <path id="패스_5303" data-name="패스 5303" d="M-8.493,80.837q2.868,4.479,12.9,9.258c1.393.663,4.482.581,6.166,1.332,1.9.847,3.959,3.176,7.383,4.931q4.279,2.193,16.608,6.345v15.247L-11.1,92.243l2.607-11.405Z" transform="translate(11.1 -57.334)" fill="#ff595f" fill-rule="evenodd" opacity="0.798"/>
      <path id="패스_5304" data-name="패스 5304" d="M78.238,146.606v-6.081l-1.019,4.633ZM57.6,134.363V129.19l-1.009,4.256q1.009,2.673,1.009.917Zm2.5,2.205a32.476,32.476,0,0,0-1.363-6.782l.353,5.865Q60.1,138.325,60.1,136.568Z" transform="translate(-36.892 -91.615)" fill="#ff595f" fill-rule="evenodd"/>
      <path id="패스_5305" data-name="패스 5305" d="M145.822,100.543V115.79l47.89-30.545L190.14,77.79q-25.794,15.35-27.417,15.845c-1.623.495-1.97-.428-4.8.563Q155.1,95.188,145.822,100.543Z" transform="translate(-100.153 -55.174)" fill="#ff595f" fill-rule="evenodd" opacity="0.3"/>
    </g>
    <path id="패스_5306" data-name="패스 5306" d="M35.442,71.012c-.032-.576-.1-.606.264-1.142s11.866-6.542,12.682-6.542.816-.581,1.987,0a68.159,68.159,0,0,1,6.864,5.139v1.4q-16.183,9.21-17.149,9.21c-.966,0-3.45-1.882-4.022-2.719S35.474,71.588,35.442,71.012Z" transform="translate(-27.735 -44.329)"/>
    <path id="패스_5307" data-name="패스 5307" d="M35.442,71.012c-.032-.576-.1-.606.264-1.142s11.866-6.542,12.682-6.542.816-.581,1.987,0a68.159,68.159,0,0,1,6.864,5.139v1.4q-16.183,9.21-17.149,9.21c-.966,0-3.45-1.882-4.022-2.719S35.474,71.588,35.442,71.012Z" transform="translate(-27.735 -44.329)" fill="#fff6f7"/>
    <g id="그룹_4315" data-name="그룹 4315" transform="translate(24.277 11.211)">
      <path id="패스_5308" data-name="패스 5308" d="M92.442,43.542l.264-1.142,9.861-5.207h1.987l6.864,5.139v1.4L97.091,51.61,93.069,48.89Z" transform="translate(-92.442 -37.193)"/>
      <path id="패스_5309" data-name="패스 5309" d="M92.442,43.542l.264-1.142,9.861-5.207h1.987l6.864,5.139v1.4L97.091,51.61,93.069,48.89Z" transform="translate(-92.442 -37.193)" fill="#fff6f7"/>
    </g>
    <g id="그룹_4316" data-name="그룹 4316" transform="translate(12.342 13.665)">
      <path id="패스_5310" data-name="패스 5310" d="M.632,11.023C1.424,9.378,20.006.9,21.479.3s1.5-.32,3.4.924,5,3.149,4.541,6.265-14.75,10.289-17.308,11.1q-2.558.812-6.242-.842a38.2,38.2,0,0,1-3.759-2.824C.4,13.453-.16,12.669.632,11.023Z" transform="translate(1.43 0)" fill="#ffeeef"/>
      <path id="패스_5311" data-name="패스 5311" d="M-2.779,23.373l4.166,2.712q2.733,5.587,6.568,4.326T26.048,19.668l1.326,3.624-19.42,10.8-8.228-.845L-3.884,28.5l-1.708-2.578Z" transform="translate(5.592 -13.944)" fill="#ffacaf" fill-rule="evenodd" opacity="0.131"/>
    </g>
  </g>
</svg>
