<svg xmlns="http://www.w3.org/2000/svg" xmlns:xlink="http://www.w3.org/1999/xlink" width="162" height="144" viewBox="0 0 162 144">
    <defs>
        <path id="a" d="M0 .121h47.473V17.17H0z"/>
        <path id="c" d="M.01.613h47.463v27.43H.009z"/>
        <path id="e" d="M3.064.64L.587 2.076c.81-.468 1.93-.403 3.164.307L6.226.946C5.51.536 4.836.34 4.235.34c-.436 0-.831.104-1.171.3"/>
        <path id="g" d="M3.064.64L.587 2.076c.81-.468 1.93-.403 3.164.307L6.226.946C5.51.536 4.836.34 4.235.34c-.436 0-.831.104-1.171.3"/>
        <path id="i" d="M3.064.64L.587 2.076c.81-.468 1.93-.403 3.164.307L6.226.946C5.51.536 4.836.34 4.235.34c-.436 0-.831.104-1.171.3"/>
        <path id="k" d="M3.064.64L.587 2.076c.81-.468 1.93-.403 3.164.307L6.226.946C5.51.536 4.836.34 4.235.34c-.436 0-.831.104-1.171.3"/>
        <path id="m" d="M3.064.64L.587 2.076c.81-.468 1.93-.403 3.164.307L6.226.946C5.51.536 4.836.34 4.235.34c-.436 0-.831.104-1.171.3"/>
        <path id="o" d="M3.064.64L.587 2.076c.81-.468 1.93-.403 3.164.307L6.226.946C5.51.536 4.836.34 4.235.34c-.436 0-.831.104-1.171.3"/>
        <path id="q" d="M3.064.64L.587 2.076c.81-.468 1.93-.403 3.164.307L6.226.946C5.51.536 4.836.34 4.235.34c-.436 0-.831.104-1.171.3"/>
        <path id="s" d="M3.064.64L.587 2.076c.81-.468 1.93-.403 3.164.307L6.226.946C5.51.536 4.836.34 4.235.34c-.436 0-.831.104-1.171.3"/>
        <path id="u" d="M3.064.64L.587 2.076c.81-.468 1.93-.403 3.164.307L6.226.946C5.51.536 4.836.34 4.235.34c-.436 0-.831.104-1.171.3"/>
        <path id="w" d="M3.064.64L.587 2.076c.81-.468 1.93-.403 3.164.307L6.226.946C5.51.536 4.836.34 4.235.34c-.436 0-.831.104-1.171.3"/>
        <path id="y" d="M3.064.64L.587 2.076c.81-.468 1.93-.403 3.164.307L6.226.946C5.51.536 4.836.34 4.235.34c-.436 0-.831.104-1.171.3"/>
        <path id="A" d="M3.064.64L.587 2.076c.81-.468 1.93-.403 3.164.307L6.226.946C5.51.536 4.836.34 4.235.34c-.436 0-.831.104-1.171.3"/>
        <path id="C" d="M3.064.64L.587 2.076c.81-.468 1.93-.403 3.164.307L6.226.946C5.51.536 4.836.34 4.235.34c-.436 0-.831.104-1.171.3"/>
        <path id="E" d="M3.064.64L.587 2.076c.81-.468 1.93-.403 3.164.307L6.226.946C5.51.536 4.836.34 4.235.34c-.436 0-.831.104-1.171.3"/>
        <path id="G" d="M3.064.64L.587 2.076c.81-.468 1.93-.403 3.164.307L6.226.946C5.51.536 4.836.34 4.235.34c-.436 0-.831.104-1.171.3"/>
    </defs>
    <g fill="none" fill-rule="evenodd">
        <path fill="#FF7A7F" d="M102.523 49.999c-.02.227-.036.455-.078.681-.034.187-.09.371-.14.557-.057.216-.11.434-.186.648-.063.177-.147.353-.224.529a9.127 9.127 0 0 1-.317.676c-.088.163-.193.322-.291.482a11.314 11.314 0 0 1-1.086 1.473c-.05.055-.094.113-.145.168-.28.305-.59.604-.915.897-.21.188-.44.368-.667.55-.202.16-.396.324-.613.482-.245.177-.516.348-.78.52-.274.177-.534.36-.828.53a22.45 22.45 0 0 1-2.056 1.038c-.204.092-.414.177-.622.264-.557.233-1.129.45-1.714.649-.209.07-.413.147-.624.214-.369.115-.746.216-1.122.319-.285.077-.565.16-.856.23-.395.095-.798.174-1.201.257-.275.054-.546.117-.826.166a35.41 35.41 0 0 1-2.473.343c-.258.028-.519.045-.779.066-.486.04-.974.076-1.464.098-.315.013-.63.02-.946.026-.397.007-.793.01-1.19.005a37.93 37.93 0 0 1-2.1-.086 34.62 34.62 0 0 1-1.006-.085 36.288 36.288 0 0 1-2.06-.258c-.386-.059-.77-.127-1.15-.2a33.324 33.324 0 0 1-.904-.181 34.52 34.52 0 0 1-1.35-.33c-.25-.067-.5-.13-.748-.2a28.572 28.572 0 0 1-2.334-.788c-.375-.146-.74-.306-1.102-.467-.186-.082-.378-.157-.56-.243a22.11 22.11 0 0 1-1.597-.832c-4.293-2.473-6.438-5.718-6.429-8.96l-.144 50.934c-.01 3.242 2.136 6.487 6.428 8.96.513.296 1.048.573 1.597.832.181.085.372.16.558.242.326.145.648.296.985.428.038.015.08.026.12.04.755.294 1.535.554 2.334.788.065.018.124.045.189.062.182.052.373.089.558.137.446.118.894.23 1.35.33.122.027.239.064.36.088.18.037.365.06.545.095.381.072.763.14 1.15.2.155.023.307.057.463.08.169.024.34.035.51.057.362.045.723.086 1.088.121.172.017.343.044.516.057.163.014.326.015.489.027.367.025.732.045 1.1.058.185.008.368.025.554.03.148.003.297-.005.446-.003.397.006.793.002 1.19-.004.197-.004.395.003.592-.003.118-.004.235-.018.353-.024.49-.02.978-.056 1.465-.097.198-.017.398-.02.595-.04.062-.006.122-.02.183-.025.835-.088 1.66-.2 2.475-.344.04-.007.08-.01.119-.017.236-.041.464-.101.699-.148.405-.082.81-.162 1.209-.258.287-.07.57-.152.853-.23.377-.102.755-.204 1.124-.32.078-.025.16-.042.237-.068.134-.043.253-.1.385-.145a26.767 26.767 0 0 0 1.717-.649c.208-.087.416-.172.62-.264a22.467 22.467 0 0 0 2.322-1.195c.2-.12.371-.25.561-.373.266-.173.537-.342.783-.52.215-.157.408-.32.61-.48.227-.184.46-.364.668-.551.04-.038.093-.074.135-.112.279-.258.537-.52.781-.787.05-.054.094-.11.143-.166.145-.165.294-.327.425-.495.057-.073.095-.149.15-.222.186-.25.354-.502.51-.756.068-.107.155-.212.217-.32.03-.053.047-.109.077-.163.12-.223.218-.449.316-.675.057-.132.135-.262.186-.395.016-.045.022-.091.039-.135.076-.216.128-.431.186-.648.038-.147.096-.292.126-.44.008-.038.006-.078.013-.117.042-.227.058-.454.079-.682.013-.148.047-.297.051-.445l.002-.191.146-50.934c0 .213-.036.425-.055.637"/>
        <path fill="#828386" d="M96.153 40.407c8.527 4.912 8.572 12.873.1 17.785-8.48 4.917-22.258 4.917-30.785.005-8.527-4.911-8.58-12.877-.1-17.795 8.472-4.912 22.257-4.907 30.785.005"/>
        <path fill="#E1484D" d="M64.895 105.828c-1.404-.722-2.542-2.445-2.542-3.845V50.415c0-1.4 1.138-1.95 2.542-1.228 1.404.723 2.542 2.445 2.542 3.845V104.6c0 1.4-1.138 1.95-2.542 1.228"/>
        <path fill="#FF595F" d="M65.446 49.535c-1.246-.479-2.21.077-2.21 1.364v51.568c0 1.212.852 2.66 1.99 3.498 1.246.478 2.211-.077 2.211-1.364V53.032c0-1.21-.852-2.66-1.99-3.497"/>
        <path fill="#E1484D" d="M96.578 105.416c-1.405.496-2.542-.24-2.542-1.64V52.209c0-1.4 1.137-2.937 2.542-3.433 1.404-.495 2.541.24 2.541 1.64v51.568c0 1.4-1.137 2.937-2.54 3.433"/>
        <path fill="#FF595F" d="M96.013 105.416c1.404-.496 2.541-2.033 2.541-3.433V50.415c0-1.008-.593-1.662-1.448-1.77-.17.025-.346.066-.528.13-1.404.496-2.542 2.032-2.542 3.433v51.569c0 1.006.594 1.66 1.448 1.768.17-.024.348-.065.53-.129"/>
        <path fill="#E1484D" d="M75.457 107.795a2.539 2.539 0 0 1-2.542-2.536V53.69a2.54 2.54 0 0 1 2.542-2.536 2.539 2.539 0 0 1 2.54 2.536v51.569c0 1.4-1.136 2.536-2.54 2.536"/>
        <path fill="#FF595F" d="M75.703 51.18a2.531 2.531 0 0 0-2.295 2.51v51.569a2.53 2.53 0 0 0 2.295 2.511 2.53 2.53 0 0 0 2.295-2.511V53.69a2.531 2.531 0 0 0-2.295-2.512M86.017 107.795a2.54 2.54 0 0 1-2.542-2.536V53.69a2.54 2.54 0 0 1 2.542-2.536 2.54 2.54 0 0 1 2.543 2.536v51.569a2.54 2.54 0 0 1-2.543 2.536"/>
        <g transform="translate(57 47.41)">
            <mask id="b" fill="#fff">
                <use xlink:href="#a"/>
            </mask>
            <path fill="#FF595F" d="M47.37 1.467l-.026.169c-.04.223-.109.444-.168.664-.061.237-.12.474-.203.71a9.48 9.48 0 0 1-.44 1.04l-.091.176c-.195.37-.415.737-.666 1.099-.036.053-.078.106-.116.159-.235.328-.496.652-.778.97-.054.062-.102.124-.158.185-.305.333-.643.658-.999.979-.228.203-.48.4-.728.599-.219.175-.43.353-.664.524-.268.194-.564.379-.852.567-.299.194-.582.393-.903.578-.515.299-1.052.575-1.601.84a27.047 27.047 0 0 1-1.958.853c-.067.026-.132.055-.198.08-.556.211-1.128.402-1.705.583-.4.127-.81.236-1.22.347-.311.085-.618.175-.935.251-.431.105-.871.191-1.31.28-.32.065-.636.138-.96.194-.133.024-.268.043-.402.065-.543.088-1.091.165-1.642.231-.16.02-.32.04-.483.058-.314.034-.633.053-.951.08-.534.043-1.07.082-1.607.106-.342.014-.684.022-1.026.028-.435.008-.87.013-1.304.007a40.317 40.317 0 0 1-1.085-.031 38.968 38.968 0 0 1-6.791-.854 34.472 34.472 0 0 1-1.474-.362c-.315-.082-.634-.16-.942-.251-.169-.05-.335-.103-.502-.155a31.039 31.039 0 0 1-1.442-.492c-.137-.05-.276-.097-.411-.15-.433-.167-.85-.351-1.268-.536-.2-.09-.409-.171-.606-.264a24.68 24.68 0 0 1-1.742-.907C2.336 7.193 0 3.654.01.121L0 3.4c-.01 3.532 2.326 7.07 7.005 9.765.56.322 1.142.623 1.74.906.198.094.408.175.61.266.355.157.705.32 1.072.465.062.024.128.046.192.07.135.052.274.1.411.15.474.174.956.339 1.445.493.166.05.33.105.498.153.112.034.222.072.335.104.2.057.409.097.61.149.486.13.975.253 1.473.361.133.029.258.069.393.096.195.04.395.065.592.102.417.08.835.153 1.258.219.168.026.333.063.503.087.185.026.373.04.559.062.392.05.787.095 1.183.133.19.017.376.046.567.062.176.015.355.017.532.029.4.027.799.048 1.202.064.201.008.402.028.603.033.162.003.323-.005.485-.003.434.005.867.003 1.3-.006.216-.004.432.004.648-.003.128-.004.254-.02.382-.025.536-.024 1.07-.063 1.602-.107.217-.018.434-.021.649-.043.103-.01.204-.026.308-.036.16-.018.32-.038.48-.058.552-.066 1.1-.142 1.643-.232.133-.022.269-.04.402-.063l.194-.031c.26-.047.51-.113.767-.164.438-.088.877-.176 1.309-.279.316-.077.623-.166.934-.251.41-.111.82-.222 1.22-.348.087-.027.178-.046.264-.075.489-.158.968-.328 1.44-.508.068-.025.134-.055.203-.082a26.526 26.526 0 0 0 1.956-.852c.548-.265 1.085-.54 1.6-.838l.289-.17c.219-.132.404-.273.611-.407.29-.189.585-.374.855-.57.234-.17.444-.347.663-.522.248-.2.5-.396.728-.6.046-.041.102-.08.146-.12.306-.282.587-.569.853-.859.056-.062.105-.124.16-.185.156-.178.317-.355.46-.536.113-.143.213-.289.318-.435.038-.053.078-.104.115-.158.187-.271.365-.545.521-.82.053-.094.096-.186.144-.28a9.337 9.337 0 0 0 .489-1.07c.018-.047.025-.097.042-.146.084-.235.142-.471.204-.708.042-.159.105-.317.138-.478.012-.062.018-.125.03-.187.01-.056.016-.113.025-.168.052-.334.09-.67.101-1.004l.002-.208.01-3.278c-.001.404-.04.808-.103 1.211" mask="url(#b)"/>
        </g>
        <g transform="translate(57 33.27)">
            <mask id="d" fill="#fff">
                <use xlink:href="#c"/>
            </mask>
            <path fill="#FF8A8F" d="M40.468 4.63c9.297 5.354 9.347 14.041.11 19.396-9.237 5.356-24.267 5.356-33.565 0-9.296-5.355-9.344-14.04-.109-19.396 9.236-5.356 24.268-5.356 33.564 0" mask="url(#d)"/>
        </g>
        <path fill="#FF595F" d="M75.963 42.182a3.248 3.248 0 0 1 .24-.746c.087-.184.198-.338.314-.484.038-.047.075-.098.116-.143a2.08 2.08 0 0 1 .456-.374l-2.474 1.435c-.17.099-.32.229-.457.374-.042.046-.077.096-.116.144-.05.063-.107.117-.152.187a2.733 2.733 0 0 0-.257.52 3.739 3.739 0 0 0-.127.432l-.019.09-.005.024-.017.089c-.012.064-.022.13-.03.199a6.837 6.837 0 0 0-.021.199 4.948 4.948 0 0 0-.016.396v.012l2.474-1.435c.001-.323.031-.62.085-.895l.006-.024"/>
        <g>
            <g transform="translate(73.83 39.456)">
                <mask id="f" fill="#fff">
                    <use xlink:href="#e"/>
                </mask>
                <path fill="#8A8B8E" d="M.588 2.076L3.063.64c.115-.065.235-.122.361-.166L.949 1.91c-.126.045-.247.101-.361.167" mask="url(#f)"/>
            </g>
            <g transform="translate(73.83 39.456)">
                <mask id="h" fill="#fff">
                    <use xlink:href="#g"/>
                </mask>
                <path fill="#8B8C8F" d="M.95 1.909L3.423.474c.1-.036.205-.064.312-.086L1.26 1.823c-.108.022-.212.05-.312.086" mask="url(#h)"/>
            </g>
            <g transform="translate(73.83 39.456)">
                <mask id="j" fill="#fff">
                    <use xlink:href="#i"/>
                </mask>
                <path fill="#8B8D8F" d="M1.26 1.824L3.737.388c.084-.016.169-.029.256-.037L1.518 1.786c-.088.008-.173.02-.257.038" mask="url(#j)"/>
            </g>
            <g transform="translate(73.83 39.456)">
                <mask id="l" fill="#fff">
                    <use xlink:href="#k"/>
                </mask>
                <path fill="#8B8D8F" d="M1.518 1.786L3.992.351c.077-.007.154-.01.232-.011L1.749 1.776c-.079 0-.156.003-.231.01" mask="url(#l)"/>
            </g>
            <g transform="translate(73.83 39.456)">
                <mask id="n" fill="#fff">
                    <use xlink:href="#m"/>
                </mask>
                <path fill="#8C8D90" d="M1.749 1.776L4.223.34c.07 0 .14.003.21.007L1.957 1.783a2.394 2.394 0 0 0-.21-.007" mask="url(#n)"/>
            </g>
            <g transform="translate(73.83 39.456)">
                <mask id="p" fill="#fff">
                    <use xlink:href="#o"/>
                </mask>
                <path fill="#8D8E91" d="M1.958 1.783L4.433.347c.065.005.13.011.198.02L2.155 1.802a3.174 3.174 0 0 0-.197-.019" mask="url(#p)"/>
            </g>
            <g transform="translate(73.83 39.456)">
                <mask id="r" fill="#fff">
                    <use xlink:href="#q"/>
                </mask>
                <path fill="#8D8E91" d="M2.155 1.803L4.631.368c.064.009.128.018.195.032L2.35 1.835a3.19 3.19 0 0 0-.195-.032" mask="url(#r)"/>
            </g>
            <g transform="translate(73.83 39.456)">
                <mask id="t" fill="#fff">
                    <use xlink:href="#s"/>
                </mask>
                <path fill="#8E8F91" d="M2.35 1.835L4.825.4c.06.011.122.024.182.04L2.532 1.875a2.828 2.828 0 0 0-.182-.04" mask="url(#t)"/>
            </g>
            <g transform="translate(73.83 39.456)">
                <mask id="v" fill="#fff">
                    <use xlink:href="#u"/>
                </mask>
                <path fill="#8E9092" d="M2.532 1.875L5.007.44c.061.015.122.032.184.05L2.716 1.927a3.797 3.797 0 0 0-.184-.05" mask="url(#v)"/>
            </g>
            <g transform="translate(73.83 39.456)">
                <mask id="x" fill="#fff">
                    <use xlink:href="#w"/>
                </mask>
                <path fill="#8F9093" d="M2.716 1.925L5.19.49c.058.018.118.037.178.058L2.893 1.983l-.177-.058" mask="url(#x)"/>
            </g>
            <g transform="translate(73.83 39.456)">
                <mask id="z" fill="#fff">
                    <use xlink:href="#y"/>
                </mask>
                <path fill="#8F9093" d="M2.893 1.983L5.369.548c.058.02.118.043.179.067L3.072 2.05a3.68 3.68 0 0 0-.179-.067" mask="url(#z)"/>
            </g>
            <g transform="translate(73.83 39.456)">
                <mask id="B" fill="#fff">
                    <use xlink:href="#A"/>
                </mask>
                <path fill="#909194" d="M3.072 2.05L5.548.616c.058.023.118.049.177.076L3.249 2.126a4.243 4.243 0 0 0-.177-.075" mask="url(#B)"/>
            </g>
            <g transform="translate(73.83 39.456)">
                <mask id="D" fill="#fff">
                    <use xlink:href="#C"/>
                </mask>
                <path fill="#919294" d="M3.25 2.126L5.724.69c.059.027.12.055.179.085L3.428 2.21c-.06-.03-.12-.058-.179-.084" mask="url(#D)"/>
            </g>
            <g transform="translate(73.83 39.456)">
                <mask id="F" fill="#fff">
                    <use xlink:href="#E"/>
                </mask>
                <path fill="#919294" d="M3.428 2.21L5.904.775c.06.03.12.06.182.093L3.61 2.303a4.404 4.404 0 0 0-.182-.093" mask="url(#F)"/>
            </g>
            <g transform="translate(73.83 39.456)">
                <mask id="H" fill="#fff">
                    <use xlink:href="#G"/>
                </mask>
                <use fill="#FF595F" xlink:href="#G"/>
                <path fill="#FF8A8F" d="M3.61 2.303L6.086.868l.14.079L3.75 2.382l-.141-.079" mask="url(#H)"/>
            </g>
        </g>
        <g>
            <path fill="#FF595F" d="M83.166 45.455l.015.016c.262.28.512.58.746.896l.005.006c.23.314.444.643.642.98.01.016.018.033.026.049.193.336.37.681.524 1.032l.006.013a9.85 9.85 0 0 1 .408 1.103 8.596 8.596 0 0 1 .255 1.1c.057.365.087.725.086 1.077l2.475-1.435c.001-.068 0-.134-.002-.2-.001-.07-.005-.142-.01-.213a5.989 5.989 0 0 0-.074-.654v-.01l-.001-.005L88.23 49a7.688 7.688 0 0 0-.102-.464 8.351 8.351 0 0 0-.062-.234c-.017-.063-.036-.125-.055-.187a.107.107 0 0 0-.004-.016l-.01-.032a6.928 6.928 0 0 0-.073-.23c-.025-.076-.053-.15-.08-.227a7.25 7.25 0 0 0-.082-.217c-.028-.072-.056-.144-.086-.216-.024-.055-.047-.111-.072-.166L87.6 47a15.21 15.21 0 0 0-.364-.75c-.052-.095-.106-.189-.16-.282-.01-.016-.017-.032-.027-.049l-.033-.06a11.299 11.299 0 0 0-.61-.92c0-.002-.002-.004-.003-.005l-.003-.004c-.064-.086-.13-.173-.196-.258a13.751 13.751 0 0 0-.344-.412 7 7 0 0 0-.173-.191l-.03-.032-.015-.015-.136-.143c-.063-.063-.125-.125-.188-.185a7.42 7.42 0 0 0-.393-.354l-.097-.078a.228.228 0 0 1-.021-.019c-.028-.02-.052-.043-.08-.062a7.562 7.562 0 0 0-.575-.41 4.055 4.055 0 0 0-.187-.114l-.042-.025-3.868-2.228-2.475 1.435 3.867 2.228c.302.174.597.38.883.611l.022.019c.282.229.555.483.814.76"/>
            <path fill="#E1484D" d="M81.447 44.066c2.452 1.413 4.44 4.85 4.433 7.66l-.28-.161c.008-2.635-1.855-5.855-4.154-7.18l-3.867-2.226c-2.3-1.325-4.174-.26-4.182 2.377l-.279-.16c.008-2.811 2.01-3.95 4.462-2.538l3.867 2.228z"/>
        </g>
    </g>
</svg>
