<svg xmlns="http://www.w3.org/2000/svg" width="119.967" height="99.011" viewBox="0 0 119.967 99.011">
  <g id="bedroom-category-desk" transform="translate(-480.302 -567.891)">
    <g id="그룹_4319" data-name="그룹 4319" transform="translate(480.302 567.891)">
      <path id="패스_5325" data-name="패스 5325" d="M5.315,48.474l-.081,2.3,10.269,6.4L8.98,82.677l2.37,1.478,2.309-1.225L15.4,76.159,25.517,70.8l.591,2.392,2.62,1.75,1.934-1.026L28.536,65.3,45.069,75.611,38.525,101.1l2.37,1.478,2.309-1.225L44.95,94.58l10.113-5.364.591,2.393,2.62,1.75,1.934-1.026L54.821,70.5,101.942,45.5,95.481,70.667l2.37,1.478,2.308-1.224L101.9,64.15l10.113-5.364.591,2.393,2.619,1.75,1.934-1.026-5.338-21.641,11.659-6.184.081-2.3L83.678,6.908,5.314,48.474Zm104.792-6.363,3.3,13.433Zm-2.619.45.462-.245,2.972,12.03.448.217-.448-.216-7.514,3.986Zm.542,15.832-5.375,2.849Zm-88.4,1.36,3.731,2.326,1.056,4.277.449.216-.449-.216L16.9,70.343l-.5,1.928,3.227-12.518Zm6.316,3.938.954,3.863ZM50.6,72.736l.348-.185,3.02,12.225-7.514,3.986L50.6,72.736Zm.476,16.087L45.7,91.672Z" transform="translate(-4.415 -4.225)" fill="#b3dadb" fill-rule="evenodd"/>
      <path id="패스_5326" data-name="패스 5326" d="M8.792,0,0,39.986,2.42,41.38,11.212,1.394Z" transform="translate(92.46 26.481) rotate(2)" fill="#ff595f" fill-rule="evenodd"/>
      <path id="패스_5327" data-name="패스 5327" d="M8.792,0,0,39.986l2.265-1.3,1.508-6.828,11.817-6.806,1.456,5.12,1.9-1.093L10.746.216,9.809,4.625l5.156,18.227L4.42,28.922,10.6,1.044Z" transform="translate(94.831 27.958) rotate(2)" fill="#ff8a8f" fill-rule="evenodd"/>
      <path id="패스_5328" data-name="패스 5328" d="M8.021,0,.648,4.247,0,7.179,10.545,1.11Z" transform="translate(98.489 49.841) rotate(2)" fill="#ffbdbf" fill-rule="evenodd"/>
      <path id="패스_5329" data-name="패스 5329" d="M257.29,85.6l.465-1.806.676-2.537,4.516,18.4-2.483-1.2L257.29,85.6Zm7.482,21.437-2.62-1.75-.591-2.393,1.934-1.026Z" transform="translate(-153.959 -48.339)" fill="#ff595f" fill-rule="evenodd"/>
      <path id="패스_5330" data-name="패스 5330" d="M7.411,0,0,33.845l2.42,1.394L9.831,1.395Z" transform="translate(5.746 44.627) rotate(2)" fill="#ff595f" fill-rule="evenodd"/>
      <path id="패스_5331" data-name="패스 5331" d="M7.411,0,0,33.845l2.265-1.3,1.508-6.827,11.816-6.807,1.456,5.12,1.9-1.093L12.763,1.2,11.223.314l-.46,1.617,4.2,14.78L4.42,22.78l4.8-21.737Z" transform="translate(8.116 46.105) rotate(2)" fill="#ff8a8f" fill-rule="evenodd"/>
      <path id="패스_5332" data-name="패스 5332" d="M8.021,0,.648,4.247,0,7.18,10.545,1.11Z" transform="translate(11.989 61.851) rotate(2)" fill="#ffbdbf" fill-rule="evenodd"/>
      <path id="패스_5333" data-name="패스 5333" d="M44.6,118.836l.465-1.806,1.509.94,3.684,14.918-2.483-1.2L44.6,118.835Zm7.482,21.436-2.619-1.75-.591-2.393,1.934-1.026,1.277,5.168Z" transform="translate(-27.773 -69.56)" fill="#ff595f" fill-rule="evenodd"/>
      <path id="패스_5334" data-name="패스 5334" d="M0,39.986,2.42,41.38,11.212,1.394,8.792,0Z" transform="translate(35.505 56.911) rotate(2)" fill="#ff595f" fill-rule="evenodd"/>
      <path id="패스_5335" data-name="패스 5335" d="M0,39.986l2.265-1.3,1.508-6.828,11.816-6.807,1.456,5.12,1.9-1.092L10.746.216l-.172.81.03.017L9.811,4.62v0l5.156,18.227L4.42,28.921l5.39-24.3.763-3.594L8.792,0Z" transform="translate(37.875 58.389) rotate(2)" fill="#ff8a8f" fill-rule="evenodd"/>
      <path id="패스_5336" data-name="패스 5336" d="M8.021,0,.647,4.247,0,7.179,10.544,1.11Z" transform="translate(41.535 80.272) rotate(2)" fill="#ffbdbf" fill-rule="evenodd"/>
      <path id="패스_5337" data-name="패스 5337" d="M117.249,160.426l.465-1.805.676-2.538,4.516,18.4-2.483-1.2-3.175-12.856Zm7.482,21.437-2.619-1.75-.591-2.393,1.934-1.026Z" transform="translate(-70.873 -92.73)" fill="#ff595f" fill-rule="evenodd"/>
      <path id="패스_5338" data-name="패스 5338" d="M0,44.276l40.729,23.46,76.865-44.275L76.865,0Z" transform="translate(2.444 0) rotate(2)" fill="#ffbdbf" fill-rule="evenodd"/>
      <path id="패스_5339" data-name="패스 5339" d="M0,2.3l40.729,23.46v-2.3L0,0Z" transform="translate(0.899 44.249) rotate(2)" fill="#ff595f" fill-rule="evenodd"/>
      <path id="패스_5340" data-name="패스 5340" d="M0,44.276v2.3L76.865,2.3V0Z" transform="translate(42.33 24.868) rotate(2)" fill="#ff8a8f" fill-rule="evenodd"/>
      <g id="그룹_4318" data-name="그룹 4318" transform="translate(29.721 0.68)">
        <path id="패스_5341" data-name="패스 5341" d="M41.155,9.795l-.006-.849-1.384.011C34.547,5.961,29.218,3.031,24,.037a.291.291,0,0,0-.263-.01Q12.585,6.57,1.441,13.118L0,13.128l.007.887h0a.117.117,0,0,0,.06.069c5.66,3.268,11.309,6.5,17.055,9.716a.3.3,0,0,0,.267,0C25.343,19.189,33.213,14.53,41.1,9.881a.084.084,0,0,0,.05-.085" transform="translate(14.628 21.467) rotate(2)" fill="#c3c1be" fill-rule="evenodd"/>
        <path id="패스_5342" data-name="패스 5342" d="M.244,14.5,23.635.793,23.391,0,0,13.708Z" transform="translate(14.538 20.169) rotate(2)" fill="#c3c1be" fill-rule="evenodd"/>
        <g id="그룹_4317" data-name="그룹 4317" transform="translate(14.644 0) rotate(2)">
          <path id="패스_5343" data-name="패스 5343" d="M1.019,13.369A2.142,2.142,0,0,0,0,15L.14,33.694c0,.566.47.758,1.034.427L23.713,20.914a2.141,2.141,0,0,0,1.019-1.63L24.592.589c0-.565-.471-.758-1.035-.427Z" transform="translate(0 0)" fill="#c3c1be" fill-rule="evenodd"/>
        </g>
        <path id="패스_5344" data-name="패스 5344" d="M.14,33.48c0,.5.412.668.91.375L23.588,20.649a1.879,1.879,0,0,0,.9-1.434L24.345.52c0-.5-.412-.668-.911-.377L.9,13.35A1.88,1.88,0,0,0,0,14.785L.14,33.48Z" transform="translate(14.762 0.146) rotate(2)" fill="#535351" fill-rule="evenodd"/>
        <path id="패스_5345" data-name="패스 5345" d="M0,12.467l.131,17.1L21.518,17.1,21.386,0Z" transform="translate(16.226 2.542) rotate(2)" fill="#363332" fill-rule="evenodd"/>
        <path id="패스_5346" data-name="패스 5346" d="M17.384,23.8C25.336,19.19,33.207,14.53,41.1,9.881c.072-.043.069-.114-.008-.159C35.451,6.459,29.656,3.286,23.99.037a.291.291,0,0,0-.262-.011Q11.883,6.978.046,13.933c-.067.039-.059.107.017.151,5.66,3.268,11.309,6.5,17.055,9.716a.3.3,0,0,0,.267,0" transform="translate(14.657 20.619) rotate(2)" fill="#eef0ef" fill-rule="evenodd"/>
        <path id="패스_5347" data-name="패스 5347" d="M23.161,16.475c1.687-1,3.391-1.986,5.076-2.985.065-.039.058-.106-.017-.15-.976-.566-3.176-1.824-4.154-2.389a.279.279,0,0,0-.254-.007q-2.548,1.509-5.1,3.015c-.066.039-.058.1.017.147l4.175,2.361a.287.287,0,0,0,.256.008M9.983,18.664c7.44-4.318,14.8-8.677,22.187-13.027.068-.039.064-.106-.008-.148C26.886,2.435,27.746,3.074,22.445.035A.272.272,0,0,0,22.2.025Q11.117,6.528.042,13.036c-.062.037-.055.1.016.142,5.295,3.057,4.3,2.473,9.674,5.483a.281.281,0,0,0,.25,0" transform="translate(17.372 22.223) rotate(2)" fill="#d7d7d6" fill-rule="evenodd"/>
        <path id="패스_5348" data-name="패스 5348" d="M10.769,5.44l-.041-.01-1.041-.6.927-.543.038,0a.067.067,0,0,1,.034.007l1.038.6-.925.543-.03.006Zm1.208-.709-.041-.009-1.039-.6.928-.544.037,0a.07.07,0,0,1,.035.007l1.037.6-.927.543-.029.006Zm1.21-.71-.041-.009-1.037-.6.929-.545.038,0a.061.061,0,0,1,.033.007l1.036.6-.929.545-.03.006ZM9.563,6.148l-.042-.01-1.043-.6L9.4,4.994l.037,0A.065.065,0,0,1,9.475,5l1.042.6-.924.543-.03.006Zm-1.206.708-.042-.01-1.045-.6L8.194,5.7l.038,0a.066.066,0,0,1,.035.007l1.043.6-.924.542-.03.006Zm10-2.691-.041-.009-1.027-.6,1.9-1.115-1.365-.789L19.29.794l.041,0A.062.062,0,0,1,19.363.8l2.4,1.375L18.387,4.159ZM14.4,3.309,14.357,3.3l-1.035-.6.931-.546.039,0a.069.069,0,0,1,.034.007l1.034.6-.932.546-.03.006ZM15.918,5.6l-.041-.009L14.847,5l.926-.545.038,0a.056.056,0,0,1,.033.007l1.029.6-.925.545-.03.006Zm-.269-3.028-.042-.01-1.035-.6L17.915,0l.039,0a.067.067,0,0,1,.034.007l1.037.6L15.679,2.569l-.031.006Zm1.477,2.316-.041-.009-1.028-.6.93-.547.039,0,.032.007,1.027.6-.929.547ZM1.1,11.108l-.043-.01L0,10.5l.931-.545.039,0A.069.069,0,0,1,1,9.961l1.053.6-.931.545Zm4,.86-.043-.009L4,11.367l.928-.543.039,0A.067.067,0,0,1,5,10.827l1.048.592c-.361.211-.554.324-.926.543l-.031.006ZM3.158,11.5l-.043-.009L2.066,10.9,3,10.355l.038,0a.07.07,0,0,1,.035.007l1.049.594-.929.544-.031.006Zm4,.855-.043-.01-1.049-.59.924-.542.039,0a.066.066,0,0,1,.033.007l1.05.591-.923.542-.031.006Zm1.208-.709-.042-.01-1.05-.59.921-.541.039,0a.065.065,0,0,1,.033.007l1.048.591-.919.54ZM7.15,7.563l-.041-.009-1.048-.6.925-.543.037,0a.068.068,0,0,1,.035.007l1.046.6-.922.541-.031.006ZM4.735,8.978l-.043-.01-1.051-.6.926-.542.039,0a.062.062,0,0,1,.034.007l1.049.6-.925.542-.03.006ZM5.944,8.27,5.9,8.261l-1.05-.6.926-.542.038,0a.065.065,0,0,1,.035.007l1.047.6-.924.542-.03.005ZM2.312,10.4l-.043-.01-1.052-.6.929-.543.039,0a.065.065,0,0,1,.034.007l1.052.6-.929.543-.03.006Zm1.212-.71-.042-.009L2.43,9.08l.927-.543.038,0a.065.065,0,0,1,.035.007l1.051.6-.926.543-.031.006Zm12.908-5.98L16.391,3.7l-1.029-.6.932-.547.039,0,.031.007,1.03.6-.932.548-.031.006ZM12.807,5.84l-.041-.009-1.035-.6.924-.543.039,0a.063.063,0,0,1,.033.007l1.033.6-.923.543-.03.006Zm-1.2.708-.042-.009-1.038-.6.924-.542.038,0a.061.061,0,0,1,.033.007l1.035.6-.921.542-.029.006Zm2.409-1.417-.042-.01-1.032-.6.927-.544.039,0a.063.063,0,0,1,.033.007l1.031.6-.925.544-.029.006ZM10.4,7.255l-.041-.01-1.04-.6.922-.542.038,0a.062.062,0,0,1,.033.007l1.038.6-.92.541-.03.006Zm-1.2.706-.041-.009-1.044-.6.922-.541.038,0a.064.064,0,0,1,.034.007l1.04.6-.92.541L9.2,7.962ZM15.221,4.42l-.041-.01-1.031-.6.93-.546.039,0a.058.058,0,0,1,.032.007l1.03.6-.929.546-.03.006Zm8.155-1.628-.04-.009-1.027-.59.954-.561.034-.007.04.009c.414.235.627.356,1.03.587l-.957.565-.033.007ZM9.564,10.942l-.042-.01-1.047-.591.918-.54.038,0a.064.064,0,0,1,.034.007l1.045.591-.916.539-.03.006Zm5.151-4.631L14.673,6.3l-1.032-.6.923-.544.038,0a.063.063,0,0,1,.033.007l1.031.6-.922.543-.029.005Z" transform="translate(21.876 24.963) rotate(2)" fill="#363332" fill-rule="evenodd"/>
        <path id="패스_5349" data-name="패스 5349" d="M20.263,4.508l-.04-.009-1.03-.6.936-.549a.3.3,0,0,1,.04,0l.031.007,1.03.6-.936.55-.031.007ZM10.61,10.184l-.042-.009-1.045-.6.923-.542.038,0a.07.07,0,0,1,.034.007l1.043.6-.92.541-.031.006Zm1.921.469-.042-.01-1.043-.593.92-.541.038,0a.065.065,0,0,1,.033.007l1.041.594-.918.54-.029.006Zm1.2-.706-.042-.01-1.04-.593.92-.541.038,0a.062.062,0,0,1,.033.007l1.037.594c-.336.2-.916.54-.916.54l-.029.006Zm2.4-1.412-.041-.009-1.034-.6.922-.542.038,0a.058.058,0,0,1,.033.007l1.032.6-.919.541-.029.006ZM9.4,10.891l-.042-.01-1.047-.594.923-.542.039,0a.063.063,0,0,1,.033.007l1.045.595-.922.541-.03.006Zm5.524-1.649-.041-.01L13.85,8.639l.92-.541.037,0a.068.068,0,0,1,.034.007l1.035.6-.917.54-.03.006Zm-3.6,2.117-.043-.009-1.044-.592.92-.54.038,0a.059.059,0,0,1,.033.007l1.043.593-.918.539-.03.006Zm-1.2.707-.043-.01-1.047-.592.922-.541.039,0a.061.061,0,0,1,.034.007l1.045.592-.92.54-.03.006ZM8.2,11.6l-.042-.009L7.107,11l.925-.542.038,0a.063.063,0,0,1,.034.007l1.047.594-.923.541L8.2,11.6Zm-1.21.709-.042-.01L5.9,11.7l.927-.543.038,0a.067.067,0,0,1,.035.007l1.049.594-.926.543-.03.006Zm1.931.466-.042-.01-1.048-.591.925-.542.038,0a.067.067,0,0,1,.035.007l1.047.591-.923.542-.031.006ZM10.8,6.868l-.043-.01L9.705,6.252l.928-.544.038,0a.068.068,0,0,1,.035.007l1.047.607-.926.543-.028.006ZM6.656,15.7l-.041-.009L5.566,15.1q1.406-.821,2.807-1.644l.039,0a.062.062,0,0,1,.033.007l1.051.59-.293.172q-1.257.738-2.515,1.473l-.033.007ZM2.49,13.337l-.042-.01-1.051-.6.933-.545.04,0a.064.064,0,0,1,.033.007l1.052.6-.934.546ZM1.1,12.544l-.044-.01L0,11.932l.932-.544.039,0a.064.064,0,0,1,.035.007l1.056.6-.933.545-.031.006Zm4.169,2.368L5.225,14.9l-1.048-.594,2.137-1.249a.286.286,0,0,1,.04,0,.058.058,0,0,1,.033.007l1.05.592q-.735.433-1.476.864l-.661.386-.032.006Zm-1.388-.786-.042-.01-1.048-.6L4.371,12.6l.047-.015.043.01,1.05.594-1.6.936ZM2.317,11.833l-.044-.01-1.056-.6.931-.544.039,0a.064.064,0,0,1,.035.007l1.057.6-.931.544-.031.006Zm1.216-.711-.044-.01-1.057-.6.929-.544.038,0a.064.064,0,0,1,.035.007l1.057.6-.929.543-.03.006ZM7.169,8.994l-.043-.01-1.055-.6L7,7.837l.037,0a.072.072,0,0,1,.037.007l1.053.6L7.2,8.989l-.03.006ZM5.958,9.7l-.042-.01-1.057-.6.927-.543.038,0a.073.073,0,0,1,.036.007l1.054.6L5.988,9.7,5.958,9.7Zm-1.212.709L4.7,10.4,3.647,9.8l.929-.544.038,0a.065.065,0,0,1,.035.007l1.057.6-.929.543Zm5.771,4.624-.042-.01-1.053-.59q5.237-3.069,10.451-6.158l1.232-.728.039,0a.059.059,0,0,1,.033.007l1.029.6-3.559,2.1q-4.044,2.39-8.1,4.776l-.031.007ZM27.358,5.1l-.039-.009-1.03-.593.958-.565.033-.007.039.009,1.033.589-.961.568-.033.007Zm-1.238.731-.04-.009-1.028-.594L26,4.664l.043,0,.03.006,1.029.593-.95.562-.032.006Zm-1.226.726-.04-.009-1.027-.6.94-.556a.3.3,0,0,1,.041,0l.03.006s.714.412,1.028.594l-.941.557-.031.006ZM8.05,16.482l-.043-.009-1.051-.592.939-.549a.282.282,0,0,1,.041,0,.064.064,0,0,1,.033.007l1.053.591-.94.55ZM23.673,7.271l-.042-.01-1.027-.6.933-.551.04,0,.031.006,1.027.6-.933.552-.03.006Zm-14.4,8.493-.041-.009-1.053-.591.932-.547.04,0a.065.065,0,0,1,.033.007l1.053.591-.933.546-.031.007Zm-.9-7.478-.043-.01-1.053-.6.928-.543.037,0a.066.066,0,0,1,.036.008l1.051.6-.926.543-.029.005Zm14.086-.3-.04-.009-1.03-.6.927-.547.04,0,.031.007,1.029.6-.927.548-.028.006Zm-.651-1.212-.041-.009-1.027-.595L23.37,4.624l.041,0,.031.006,1.026.593c-.44.259-2.188,1.293-2.624,1.55l-.03.006Zm-2.456,1.45-.041-.009-1.031-.6.922-.544.039,0a.063.063,0,0,1,.032.006l1.029.6-.922.544-.029.006Zm-5.981,3.528-.042-.009-1.045-.592.917-.539.038,0a.067.067,0,0,1,.034.007l1.042.592-.915.539-.029.005Zm7.184-4.238L20.52,7.5l-1.028-.6.927-.546.039,0,.031.006,1.027.6-.926.547Zm4.066-3.988-.04-.009-1.028-.59.951-.559.033-.007.039.009,1.031.588-.954.561Zm-1.364-.783-.041-.009-1.032-.593.946-.555a.325.325,0,0,1,.043,0l.031.006,1.035.59-.95.558-.033.007Zm1.495,2.3-.041-.009-1.025-.593.946-.557.042,0,.031.006,1.027.59-.948.56-.033.007ZM14.573,11.049l-.043-.009-1.041-.593.916-.539.037,0a.063.063,0,0,1,.034.007l1.04.593-.913.538-.03.006ZM9.588,7.577l-.043-.01L8.494,6.961l.927-.543.037,0a.067.067,0,0,1,.035.007l1.049.606-.926.543ZM18.16,8.933l-.041-.009-1.033-.595.92-.542.038,0a.064.064,0,0,1,.032.007l1.032.6-.918.542-.029.006Zm-1.2.706-.041-.009-1.036-.594.918-.541.038,0a.061.061,0,0,1,.032.007l1.034.594-.916.541-.028.005Zm-1.194.7-.041-.009-1.04-.593L15.6,9.2l.037,0a.062.062,0,0,1,.034.007l1.037.594-.915.539-.028.005ZM13.217,5.449l-.042-.01-1.046-.608.93-.545.036,0a.065.065,0,0,1,.035.007l1.045.609-.929.544-.029.006Zm1.211-.711-.041-.01L13.342,4.12l.931-.546.037,0a.067.067,0,0,1,.035.007l1.044.608-.931.545-.029.006Zm-2.421,1.42-.043-.01-1.048-.607L11.846,5l.037,0A.069.069,0,0,1,11.918,5l1.045.608-.927.543-.029.006Zm3.635-2.132-.042-.01-1.044-.608.932-.546.038,0a.066.066,0,0,1,.035.007l1.043.608-.932.546-.029.006ZM18.075,2.6l-.042-.01s-.7-.407-1.044-.608l.935-.548.039,0A.064.064,0,0,1,18,1.44l1.044.606-.937.549Zm-1.218.714-.041-.01L15.772,2.7l.934-.547.037,0a.066.066,0,0,1,.035.007c.419.245.634.37,1.043.607l-.934.548-.03.006ZM19.3,1.884l-.042-.01-1.045-.606.937-.549.038,0a.067.067,0,0,1,.034.007l1.047.6-.939.55-.031.006Zm1.225-.718-.042-.009-1.048-.6L20.369,0l.039,0a.064.064,0,0,1,.034.007c.422.243.639.367,1.051.6l-.942.552-.031.006Zm1.376.792-.041-.009-1.039-.6L21.759.8,21.8.8A.065.065,0,0,1,21.833.8l1.041.594-.946.555-.031.007Z" transform="translate(19.316 23.357) rotate(2)" fill="#363332" fill-rule="evenodd"/>
        <path id="패스_5350" data-name="패스 5350" d="M10.769,5.439l-.041-.009-1.041-.6.927-.543.038,0a.062.062,0,0,1,.034.007l1.038.6-.925.543-.03.006Zm1.208-.709-.041-.009-1.039-.6.928-.543.037,0a.07.07,0,0,1,.035.007l1.037.6-.927.544-.029.006Zm1.21-.71-.041-.009-1.037-.6.929-.545.038,0a.058.058,0,0,1,.033.007l1.036.6-.929.545-.03.006ZM9.563,6.148l-.042-.01-1.043-.6L9.4,4.994l.037,0A.061.061,0,0,1,9.475,5l1.042.6-.924.543-.03.006Zm-1.206.708-.042-.01-1.045-.6L8.194,5.7l.038,0a.062.062,0,0,1,.035.007l1.043.6-.924.542-.03.006Zm10-2.691-.041-.009-1.027-.6,1.9-1.115-1.365-.789L19.29.794l.041,0A.062.062,0,0,1,19.363.8l2.4,1.375L18.387,4.159ZM14.4,3.309,14.357,3.3l-1.035-.6.931-.546.039,0a.068.068,0,0,1,.034.007l1.034.6-.932.546-.03.006ZM15.918,5.6l-.041-.009L14.847,5l.926-.545.038,0a.061.061,0,0,1,.033.007l1.029.6-.925.545-.03.006Zm-.269-3.028-.042-.009-1.035-.6L17.915,0l.039,0a.072.072,0,0,1,.034.007l1.037.6L15.679,2.569l-.031.006Zm1.477,2.316-.041-.009-1.028-.6.93-.547.039,0,.032.007,1.027.6-.929.547ZM1.1,11.108l-.043-.01L0,10.5l.931-.544.039,0A.064.064,0,0,1,1,9.961l1.053.6-.931.545-.031.006Zm4,.86-.043-.009L4,11.367l.928-.543.039,0A.063.063,0,0,1,5,10.828l1.048.591-.926.543-.031.006ZM3.158,11.5l-.043-.009L2.066,10.9,3,10.355l.038,0a.066.066,0,0,1,.035.007l1.049.594-.929.544-.031.005Zm4,.856-.043-.01-1.049-.59.924-.542.039,0a.065.065,0,0,1,.033.007l1.05.59-.923.542-.031.006Zm1.208-.709-.042-.01-1.05-.59.921-.541.039,0a.061.061,0,0,1,.033.007l1.048.591-.919.54ZM7.15,7.563l-.041-.009-1.048-.6.925-.542.037,0a.064.064,0,0,1,.035.007l1.046.6-.922.541-.031.006ZM4.735,8.979l-.043-.01-1.051-.6.926-.542.039,0a.063.063,0,0,1,.034.007l1.049.6-.925.542-.03.006ZM5.944,8.27,5.9,8.261l-1.05-.6.926-.542.038,0a.065.065,0,0,1,.035.007l1.047.6-.924.542-.03.006ZM2.312,10.4l-.043-.009-1.052-.6.929-.543.039,0a.065.065,0,0,1,.034.007l1.052.6-.929.543-.03.006Zm1.212-.71-.042-.01L2.43,9.08l.927-.543.038,0a.07.07,0,0,1,.035.007l1.051.6-.926.543-.031.006Zm12.908-5.98L16.391,3.7l-1.029-.6.932-.547.039,0,.031.006,1.03.6-.932.548-.031.006ZM12.807,5.84l-.041-.01-1.035-.6.924-.543.039,0a.059.059,0,0,1,.033.007l1.033.6-.923.543-.03.006Zm-1.2.708-.042-.01-1.038-.6.924-.542.038,0a.065.065,0,0,1,.033.007l1.035.6-.921.541-.029.006Zm2.409-1.417-.042-.01-1.032-.6.927-.544.039,0a.059.059,0,0,1,.033.007l1.031.6-.925.545-.029.006ZM10.4,7.255l-.041-.009-1.04-.6.922-.541.038,0a.066.066,0,0,1,.033.007l1.038.6-.92.541-.03.006Zm-1.2.706-.041-.009-1.044-.6.922-.542.038,0a.065.065,0,0,1,.034.007l1.04.6-.92.541L9.2,7.961ZM15.221,4.42l-.041-.01-1.031-.6.93-.546.039,0a.058.058,0,0,1,.032.007l1.03.6-.929.546-.03.007Zm8.155-1.628-.04-.008-1.027-.59.954-.561.034-.007.04.009c.414.235.627.356,1.03.587l-.957.565-.033.007ZM9.564,10.942l-.042-.01-1.047-.591.918-.54.038,0a.064.064,0,0,1,.034.007l1.045.591-.916.539-.03.006Zm5.151-4.63-.041-.01-1.032-.6.923-.543.038,0a.067.067,0,0,1,.033.007l1.031.6-.922.543-.029.005Z" transform="translate(21.881 24.833) rotate(2)" fill="#666462" fill-rule="evenodd"/>
        <path id="패스_5351" data-name="패스 5351" d="M20.263,5.991l-.04-.009-1.03-.6.936-.549a.235.235,0,0,1,.04,0l.031.006,1.03.6-.936.55-.031.007ZM10.61,11.667l-.042-.01-1.045-.595.923-.541.038,0a.07.07,0,0,1,.034.007l1.042.6-.92.541-.031.006Zm1.921.469-.042-.009-1.043-.593.92-.541.038,0a.061.061,0,0,1,.033.007l1.041.593-.918.539-.029.006Zm1.2-.705-.042-.01-1.04-.593.92-.541.038,0a.062.062,0,0,1,.033.007l1.037.594c-.336.2-.916.54-.916.54l-.029.006Zm2.4-1.412-.041-.01-1.034-.6.922-.542.038,0a.059.059,0,0,1,.033.007l1.032.6-.919.541-.029.006ZM9.4,12.374l-.042-.009L8.316,11.77l.923-.541.039,0a.068.068,0,0,1,.033.007l1.045.6-.922.541-.03.006Zm5.524-1.649-.041-.009-1.038-.594.92-.542.037,0a.067.067,0,0,1,.034.007l1.035.595-.917.541-.03.005Zm-3.6,2.117-.043-.009-1.044-.592.92-.541.038,0a.063.063,0,0,1,.033.007l1.043.593-.918.539-.03.006Zm-1.2.707-.043-.009-1.047-.592.922-.541.039,0a.065.065,0,0,1,.034.007L11.076,13l-.92.54-.03.006ZM8.2,13.082l-.042-.009-1.049-.594.925-.542.038,0a.067.067,0,0,1,.034.007l1.047.594-.923.541-.031.006Zm-1.21.709-.042-.009L5.9,13.188l.927-.543.038,0a.067.067,0,0,1,.035.007l1.049.594-.926.542-.03.006Zm1.931.466-.042-.009-1.048-.592.925-.543.038,0a.067.067,0,0,1,.035.007l1.047.591-.923.542-.031.006ZM10.8,8.351l-.043-.01L9.705,7.734l.928-.544.038,0a.064.064,0,0,1,.035.007l1.047.608-.926.543-.028.005ZM6.656,17.18l-.041-.009-1.048-.592q1.406-.821,2.807-1.643l.039,0a.067.067,0,0,1,.033.007l1.051.59L9.2,15.7q-1.257.737-2.515,1.473l-.033.007ZM2.49,14.82l-.042-.01-1.051-.6.933-.545.04,0a.064.064,0,0,1,.033.007l1.052.6-.934.546-.031.006ZM1.1,14.027l-.044-.01L0,13.414l.932-.545.039,0a.07.07,0,0,1,.035.007l1.056.6-.933.545-.031.006ZM5.267,16.4l-.042-.009-1.048-.594,2.137-1.249a.286.286,0,0,1,.04,0,.067.067,0,0,1,.033.006l1.05.592Q6.7,15.572,5.96,16l-.661.386-.032.006Zm-1.388-.786L3.836,15.6,2.788,15l1.583-.925.047-.015.043.009,1.05.594-1.6.935ZM2.317,13.315l-.044-.01-1.056-.6.931-.544.039,0a.064.064,0,0,1,.035.007l1.057.6-.931.544-.031.006ZM3.533,12.6l-.044-.01-1.057-.6.929-.544.038,0a.069.069,0,0,1,.035.007l1.057.6-.929.543-.03.006Zm3.636-2.128-.043-.009-1.055-.6L7,9.32l.037,0a.067.067,0,0,1,.037.008l1.053.6-.926.543-.03.005Zm-1.211.709-.042-.01-1.057-.6.927-.543.038,0a.069.069,0,0,1,.036.007l1.054.6-.927.543-.029.006Zm-1.212.709-.044-.01-1.056-.6.929-.543.038,0a.069.069,0,0,1,.035.007l1.057.6-.929.543-.03.006Zm5.771,4.624-.042-.009-1.053-.59q5.237-3.069,10.451-6.158l1.232-.728.039,0a.065.065,0,0,1,.033.006l1.029.6-3.559,2.1q-4.044,2.39-8.1,4.776l-.031.006ZM27.358,6.578l-.039-.009-1.03-.592.958-.565.033-.007.039.009L28.353,6l-.961.568-.033.007ZM26.12,7.31,26.08,7.3l-1.028-.595L26,6.147l.043,0,.03.006,1.029.593-.95.562-.032.007Zm-1.226.726-.04-.009-1.027-.6.94-.556.041,0,.03.006s.714.412,1.028.595l-.941.556-.031.007ZM8.05,17.964l-.043-.009-1.051-.592.939-.549a.282.282,0,0,1,.041,0,.064.064,0,0,1,.033.007l1.053.591-.94.551-.032.006ZM23.673,8.753l-.042-.01-1.027-.6.933-.551.04,0,.031.006,1.027.6-.933.552-.03.007Zm-14.4,8.492-.041-.009-1.053-.591.932-.546.04,0a.065.065,0,0,1,.033.007l1.053.59-.933.547-.031.006Zm-.9-7.477-.043-.01-1.053-.6.928-.543.037,0a.071.071,0,0,1,.036.007l1.051.6-.926.543-.029.006Zm14.086-.3-.04-.009-1.03-.6.927-.547a.285.285,0,0,1,.04,0l.031.006,1.029.6-.927.549-.028.006Zm-.651-1.212-.041-.009-1.027-.595L23.37,6.107a.278.278,0,0,1,.041,0l.031.007,1.026.592c-.44.259-2.188,1.293-2.624,1.55l-.03.005ZM19.358,9.707,19.318,9.7l-1.031-.6.922-.544.039,0a.063.063,0,0,1,.032.006l1.029.6-.922.544-.029.006Zm-5.981,3.528-.042-.009-1.045-.592.917-.539.038,0a.067.067,0,0,1,.034.007l1.042.592-.915.539-.029.005ZM20.561,9l-.041-.01-1.028-.6.927-.546.039,0,.031.007,1.027.6-.926.547Zm4.066-3.988L24.587,5l-1.028-.59.951-.559.033-.007.039.008,1.031.588L24.661,5Zm-1.364-.782-.041-.01-1.032-.592.946-.555a.276.276,0,0,1,.043,0l.031.006,1.035.59-.95.558-.033.007Zm1.495,2.3-.041-.009-1.025-.592.946-.557a.291.291,0,0,1,.042,0l.031.006,1.027.59-.948.56-.033.007ZM14.573,12.531l-.043-.01-1.041-.592.916-.539.037,0a.063.063,0,0,1,.034.007l1.04.593-.913.538-.03.006ZM9.588,9.059l-.043-.01L8.494,8.444,9.421,7.9l.037,0a.067.067,0,0,1,.035.007l1.049.606-.926.543Zm8.572,1.356-.041-.009-1.033-.595.92-.542.038,0a.056.056,0,0,1,.032.007l1.032.6-.918.541-.029.006Zm-1.2.706-.041-.009-1.036-.594.918-.541.038,0a.057.057,0,0,1,.032.007l1.034.595-.916.541-.028.005Zm-1.194.7-.041-.009-1.04-.593.917-.54.037,0a.062.062,0,0,1,.034.007l1.037.594-.915.539-.028.006ZM13.217,6.932l-.042-.009-1.046-.608.93-.545.036,0a.065.065,0,0,1,.035.007l1.045.608-.929.545-.029.005Zm1.211-.71-.041-.01L13.342,5.6l.931-.545.037,0a.067.067,0,0,1,.035.007l1.044.608-.931.546-.029.006Zm-2.421,1.42-.043-.01-1.048-.608.929-.544.037,0a.069.069,0,0,1,.036.007l1.045.608-.927.544-.029.005ZM15.642,5.51,15.6,5.5l-1.044-.608.932-.546.038,0a.065.065,0,0,1,.035.007l1.043.608-.932.547-.029.006Zm2.433-1.427-.042-.01s-.7-.407-1.044-.608l.935-.548.039,0A.068.068,0,0,1,18,2.922l1.044.606-.937.549-.029.006ZM16.857,4.8l-.041-.009-1.043-.609.934-.547.037,0a.066.066,0,0,1,.035.007c.419.245.634.37,1.043.608l-.934.547-.03.006ZM19.3,3.367l-.042-.009-1.045-.606.937-.549.038,0a.067.067,0,0,1,.034.007l1.047.6-.939.55-.031.006Zm1.225-.718-.042-.009-1.048-.6.939-.549.039,0a.068.068,0,0,1,.034.007c.422.243.639.367,1.051.6l-.942.552-.031.006Zm1.376.792-.041-.009-1.039-.6.943-.552.041,0a.064.064,0,0,1,.033.007l1.041.594-.946.555-.031.006ZM19.119.125a1.155,1.155,0,0,0-1.046,0,.319.319,0,0,0,0,.6,1.152,1.152,0,0,0,1.045,0,.319.319,0,0,0,0-.6" transform="translate(19.372 21.745) rotate(2)" fill="#666462" fill-rule="evenodd"/>
        <path id="패스_5352" data-name="패스 5352" d="M0,10.761,18.119.143,0,10.762ZM19.03.519c0-.333-.185-.519-.455-.519a.923.923,0,0,0-.456.143A.923.923,0,0,1,18.575,0C18.844,0,19.027.186,19.03.519Z" transform="translate(20.074 0.332) rotate(2)" fill="#cac9c5" fill-rule="evenodd"/>
        <path id="패스_5353" data-name="패스 5353" d="M10.716,25.077l-.8-1.066,7.832-4.566-.131-17.1L.965,12.051,0,10.762,18.119.143A.924.924,0,0,1,18.575,0c.27,0,.453.186.455.519l.14,18.694v.006a1.881,1.881,0,0,1-.853,1.4l-.044.027-7.557,4.428Z" transform="translate(20.074 0.332) rotate(2)" fill="#666562" fill-rule="evenodd"/>
        <path id="패스_5354" data-name="패스 5354" d="M8.953,21.668,0,9.708,16.653,0l.131,17.1Z" transform="translate(20.957 2.707) rotate(2)" fill="#4d4a49" fill-rule="evenodd"/>
        <path id="패스_5355" data-name="패스 5355" d="M9.2,3H8.686L3.655.14a1.12,1.12,0,0,0-1-.041L.567,1.3H0v.255H0a.416.416,0,0,0,.244.319L5.548,4.9a1.119,1.119,0,0,0,1,.041l2.482-1.43A.289.289,0,0,0,9.2,3.241h0V3Z" transform="translate(2.75 48.062) rotate(2)" fill="#d7d7d6" fill-rule="evenodd"/>
        <path id="패스_5356" data-name="패스 5356" d="M8.964,3.16c.295.17.327.429.072.576L6.554,5.166A.985.985,0,0,1,5.47,5.1L.166,2.079a.306.306,0,0,1,.011-.55L2.659.1a1.12,1.12,0,0,1,1,.041l5.3,3.019Z" transform="translate(2.761 47.594) rotate(2)" fill="#535351" fill-rule="evenodd"/>
        <path id="패스_5357" data-name="패스 5357" d="M6.363,5.059a.947.947,0,0,1-.85-.035L.208,2c-.251-.145-.279-.365-.061-.49L2.629.085A.947.947,0,0,1,3.48.12l5.3,3.019c.251.145.279.364.061.49L6.363,5.059Z" transform="translate(2.869 47.659) rotate(2)" fill="#363332" fill-rule="evenodd"/>
        <path id="패스_5358" data-name="패스 5358" d="M.051.211c-.067.039-.068.1,0,.14L.364.532a.267.267,0,0,0,.242,0L.921.351a.074.074,0,0,0,0-.14L.608.029a.265.265,0,0,0-.241,0Z" transform="translate(9.471 51.59) rotate(2)" fill="#535351" fill-rule="evenodd"/>
        <path id="패스_5359" data-name="패스 5359" d="M.4.4A.173.173,0,0,0,.477.384L.794.2.479.018A.167.167,0,0,0,.4,0,.174.174,0,0,0,.317.018L0,.2.315.384A.167.167,0,0,0,.4.4" transform="translate(9.557 51.673) rotate(2)" fill="#363332" fill-rule="evenodd"/>
        <path id="패스_5360" data-name="패스 5360" d="M7.319,0H0L2.193,3.118H9.512Z" transform="translate(0.109 39.892) rotate(2)" fill="#ff595f" fill-rule="evenodd"/>
        <path id="패스_5361" data-name="패스 5361" d="M0,1.468A7.421,7.421,0,0,0,4.222,0c.972.615,2.011,1.163,3.019,1.7h0A15.393,15.393,0,0,1,2.722,3.893,7.966,7.966,0,0,1,.51,2.109C.329,1.9.16,1.69,0,1.47Z" transform="translate(2.346 39.165) rotate(2)" fill="#fdf0d3" fill-rule="evenodd"/>
        <path id="패스_5362" data-name="패스 5362" d="M.562.158C.576.165.581.18.572.19L.08.758c-.035.04.01.1.1.122A.31.31,0,0,0,.292.895.174.174,0,0,0,.4.843L.848.327.958.2A.085.085,0,0,0,.94.066l0,0A.135.135,0,0,0,.77.091L.331.6.328.6C.313.623.328.65.363.663A.092.092,0,0,0,.458.65L.727.341A.035.035,0,0,1,.766.335.018.018,0,0,1,.774.365L.509.67A.172.172,0,0,1,.331.7C.271.678.244.63.268.589l0-.008L.721.063A.2.2,0,0,1,.967.028l0,0a.125.125,0,0,1,.03.2L.892.35.448.861.433.877A.194.194,0,0,1,.311.931a.282.282,0,0,1-.078,0h0A.416.416,0,0,1,.145.917C.025.88-.034.8.02.738l.5-.575A.036.036,0,0,1,.562.158" transform="translate(5.412 40.897) rotate(2)" fill="#e1484d" fill-rule="evenodd"/>
        <path id="패스_5363" data-name="패스 5363" d="M.078.67A.187.187,0,0,1,0,.5.589.589,0,0,1,.268.036.188.188,0,0,1,.456.018L2.867,1.4l-.378.653L.078.67Z" transform="translate(5.225 38.843) rotate(2)" fill="#ff595f" fill-rule="evenodd"/>
        <path id="패스_5364" data-name="패스 5364" d="M.078.276A.187.187,0,0,1,0,.1.445.445,0,0,1,.013,0l2.58,1.479-.1.18L.078.276Z" transform="translate(5.211 39.237) rotate(2)" fill="#e1484d" fill-rule="evenodd"/>
        <path id="패스_5365" data-name="패스 5365" d="M.534.191A.59.59,0,0,1,.267.652C.12.737,0,.668,0,.5A.59.59,0,0,1,.267.036C.414-.049.534.02.534.191" transform="translate(7.586 40.308) rotate(2)" fill="#3e3c3f" fill-rule="evenodd"/>
        <path id="패스_5366" data-name="패스 5366" d="M5.678,3.072l-.294.51L.1.532C-.148.391.119-.125.387.028Z" transform="translate(7.659 40.413) rotate(2)" fill="#ff595f" fill-rule="evenodd"/>
        <path id="패스_5367" data-name="패스 5367" d="M5.475,3.144,5.383,3.3.1.253A.22.22,0,0,1,.008,0L5.475,3.144Z" transform="translate(7.649 40.691) rotate(2)" fill="#e1484d" fill-rule="evenodd"/>
        <path id="패스_5368" data-name="패스 5368" d="M.416.148a.46.46,0,0,1-.208.36C.093.575,0,.521,0,.389A.461.461,0,0,1,.208.028C.323-.038.416.016.416.148" transform="translate(12.871 43.654) rotate(2)" fill="#3e3c3f" fill-rule="evenodd"/>
        <path id="패스_5369" data-name="패스 5369" d="M.492.134.289.016C.121-.081-.1.282.051.38L.257.513.493.134Z" transform="translate(12.92 43.757) rotate(2)" fill="#e1484d" fill-rule="evenodd"/>
        <path id="패스_5370" data-name="패스 5370" d="M.317.113A.349.349,0,0,1,.159.387C.071.437,0,.4,0,.3A.35.35,0,0,1,.159.021C.246-.029.317.012.317.113" transform="translate(13.127 43.88) rotate(2)" fill="#3e3c3f" fill-rule="evenodd"/>
        <path id="패스_5371" data-name="패스 5371" d="M0,.9c0,.5.882.9,1.969.9s1.97-.4,1.97-.9S3.057,0,1.969,0,0,.4,0,.9" transform="translate(45.266 19.853) rotate(2)" fill="#ff595f" fill-rule="evenodd"/>
        <path id="패스_5372" data-name="패스 5372" d="M2.057.964v.3H2.047l-.038,0H2l-.07.007H1.92l-.068,0H1.845l-.039,0H1.795l-.07,0H1.564l-.042,0H1.482l-.04,0H1.43l-.019,0-.027,0-.016,0-.021,0-.019,0-.024,0-.015,0-.014,0-.029,0-.022,0H1.215l-.033-.006-.012,0-.02,0-.02,0-.024,0-.011,0L1.07,1.217l-.013,0-.027-.007-.014,0L1,1.2.976,1.194l-.02-.005-.012,0L.915,1.177l-.011,0L.883,1.166l-.012,0L.841,1.153l-.007,0L.77,1.127l-.007,0-.03-.012h0L.7,1.1l-.008,0-.03-.013h0L.632,1.069l0,0L.6,1.053l-.005,0L.535,1.02l-.007,0L.5,1A.846.846,0,0,1,0,.3V0A.847.847,0,0,0,.5.7L.529.714l.007,0,.058.03L.6.75.629.765l0,0L.664.781h0L.7.794.7.8.73.809h0l.03.012.007,0L.8.836l.007,0L.833.847l.012,0L.872.861l.011,0L.905.871l.011,0L.945.883l.012,0,.02.006L1,.9,1.018.9l.016,0,.027.007.012,0,.019,0,.014,0,.028.006.02,0,.011,0,.029.006.017,0,.017,0,.013,0,.031,0,.015,0,.018,0,.02,0,.025,0,.012,0,.047,0h0l.02,0h.012l.039,0H1.49l.075,0h0a2.935,2.935,0,0,0,.49-.018A2.615,2.615,0,0,0,2.435.889h0l.033-.01.007,0L2.5.87l.006,0L2.544.856,2.575.845,2.59.84,2.607.834l.02-.007L2.64.822,2.663.813l.012,0L2.7.8l.009,0L2.735.782l.006,0L2.77.766h0L2.8.751l0,0L2.834.734l0,0L2.866.717l0,0L2.9.7,2.911.692,2.922.685l0,0,.007,0A1.271,1.271,0,0,0,3.126.536h0l.02-.019,0,0L3.167.5C3.183.481,3.2.465,3.212.449A.849.849,0,0,0,3.294.337v0l0,0,0-.007,0-.006,0,0,0-.008L3.328.277v0c.009-.018.017-.037.024-.055A.623.623,0,0,0,3.384.105v0l0-.009V.085A.514.514,0,0,0,3.392.019V.335a.677.677,0,0,1-.18.416v0a1.151,1.151,0,0,1-.231.2h0L2.97.956l0,0L2.938.976l-.006,0-.008,0,0,0L2.91.994,2.9,1l-.03.016,0,0-.03.016h0l-.028.015-.006,0-.029.014h0l-.031.014h0l-.03.013L2.7,1.1l-.027.011-.009,0-.025.01-.011,0L2.6,1.137l-.01,0-.024.008-.012,0-.017.006-.024.008L2.5,1.173l-.015,0-.02.006-.017,0-.016,0L2.4,1.2l-.011,0-.03.008-.008,0-.022.005-.02,0-.02,0-.015,0-.03.006-.01,0-.021,0-.023,0-.016,0-.022,0-.02,0-.022,0-.016,0-.024,0-.013,0h0v-.3Z" transform="translate(45.53 20.123) rotate(2)" fill="#e3ebf0" fill-rule="evenodd"/>
        <path id="패스_5373" data-name="패스 5373" d="M2.891.287A.732.732,0,0,1,2.9,1.673a2.648,2.648,0,0,1-2.4,0A.732.732,0,0,1,.493.287a2.648,2.648,0,0,1,2.4,0" transform="translate(45.565 19.149) rotate(2)" fill="#fff" fill-rule="evenodd"/>
        <path id="패스_5374" data-name="패스 5374" d="M2.337,1.349a2.133,2.133,0,0,1-1.933,0,1.014,1.014,0,0,1-.232-.178C-.117.871-.042.486.4.232a2.133,2.133,0,0,1,1.933,0,.854.854,0,0,1,.342.328c.144.27.033.576-.336.789" transform="translate(45.887 19.35) rotate(2)" fill="#c2d4dc" fill-rule="evenodd"/>
        <path id="패스_5375" data-name="패스 5375" d="M2.226,1.2a2.133,2.133,0,0,1-1.933,0,1.014,1.014,0,0,1-.232-.178C-.084.752.028.446.4.232a2.13,2.13,0,0,1,1.933,0A1.012,1.012,0,0,1,2.562.41c.144.27.033.576-.336.789" transform="translate(45.992 19.503) rotate(2)" fill="#e3ebf0" fill-rule="evenodd"/>
        <path id="패스_5376" data-name="패스 5376" d="M.472.254a.455.455,0,0,1-.41,0A.223.223,0,0,1,.013.217C-.018.159.006.094.084.049a.455.455,0,0,1,.41,0A.224.224,0,0,1,.543.087C.574.144.55.209.472.254" transform="translate(47.808 20.056) rotate(2)" fill="#aba9a6" fill-rule="evenodd"/>
        <path id="패스_5377" data-name="패스 5377" d="M4.844,0,4.118,5.774a.835.835,0,0,1-.493.7,2.664,2.664,0,0,1-1.857.209L1.263,0l.505,6.682a2.056,2.056,0,0,1-.542-.209.846.846,0,0,1-.5-.7L0,0H4.844Z" transform="translate(45.005 14.357) rotate(2)" fill="#ff7a7f" fill-rule="evenodd"/>
        <path id="패스_5378" data-name="패스 5378" d="M5.267.485V.5a1.523,1.523,0,0,1-.28.788v0a1.523,1.523,0,0,1-.485.454,3.488,3.488,0,0,1-1.308.412v0l-.047.005h0l-.057.006h0l-.059.006H3.017l-.053,0H2.956l-.054,0H2.889l-.114,0h-.26l-.057,0h-.01l-.055,0H2.381l-.044,0H2.32l-.055,0h0l-.051,0H2.2l-.052-.006H2.133L2.021,2.15l-.011,0L1.9,2.131l-.012,0-.054-.01H1.826l-.05-.01-.007,0L1.713,2.1H1.707l-.057-.013-.058-.014h0a3.188,3.188,0,0,1-.812-.32,1.9,1.9,0,0,1-.5-.4L.259,1.325C.24,1.3.222,1.28.206,1.257s-.033-.046-.047-.07L.148,1.17l-.02-.035-.01-.018L.1,1.081.091,1.064.083,1.046.075,1.028.068,1.01.061.992.054.974.048.956.042.937.037.919.031.9l0-.018C.024.871.021.859.019.846l0-.018,0-.018,0-.018,0-.018L0,.755,0,.737V.074l0,.018,0,.018,0,.019,0,.018,0,.018,0,.018L.024.2l0,.018,0,.018L.038.257.043.275.049.293.062.329.069.347.076.365.092.4.1.419.11.437.119.454c.009.018.02.035.03.053L.16.525.183.56C.2.588.224.617.246.646L.26.663C.275.68.289.7.3.713L.32.73a1.986,1.986,0,0,0,.46.355l.047.026,0,0,.048.026h0l.046.024,0,0,.047.023.007,0,.1.044.005,0,.1.041.005,0,.106.038h0l.053.018h0l.11.034.006,0,.109.028.01,0,.053.013h.006l.05.011.008,0,.057.012h0l.058.011h0l.053.01.015,0,.05.008h0l.056.008h.01l.055.007h.007l.052.007h.01l.057.006h0l.057.005h0l.058,0h.008l.05,0H2.4l.05,0h.015l.056,0h.26l.114,0H2.9l.116-.008h.005l.059-.005h0L3.145,1.5h0L3.195,1.5l.137-.02h0l.059-.009h0l.055-.01.009,0,.05-.01.014,0,.045-.009.017,0,.043-.01.016,0,.042-.01.015,0,.046-.012.013,0,.048-.013.007,0,.046-.013.015,0,.042-.013.012,0,.048-.015.007,0L4.033,1.3l.007,0,.05-.018h0l.049-.019.007,0,.05-.02h0l.049-.022.007,0L4.3,1.189h0l.047-.023.005,0L4.4,1.139h0l.1-.053.024-.014.046-.028h0A1.848,1.848,0,0,0,4.989.7L5,.686v0A1.062,1.062,0,0,0,5.264.107h0c0-.024,0-.047,0-.071v.45Z" transform="translate(44.809 13.899) rotate(2)" fill="#2e2020" fill-rule="evenodd"/>
        <path id="패스_5379" data-name="패스 5379" d="M4.49.446A1.137,1.137,0,0,1,4.5,2.6a4.114,4.114,0,0,1-3.725,0A1.137,1.137,0,0,1,.765.446a4.111,4.111,0,0,1,3.725,0" transform="translate(44.863 12.386) rotate(2)" fill="#605252" fill-rule="evenodd"/>
        <path id="패스_5380" data-name="패스 5380" d="M4.583.013v0c0,.017,0,.035,0,.053h0V.1l0,.013v0l0,.015v0l0,.008v0l0,.015v0l0,.007,0,.006,0,.012V.2l0,.015v0l0,.009h0L4.548.241v0c0,.014-.009.028-.014.042l0,.006,0,.014,0,0,0,.006,0,.007L4.514.334v0L4.508.348l0,.007,0,0,0,.008,0,.009,0,.009v0L4.481.4l0,.006,0,0L4.47.422l0,.009,0,.005-.006.01,0,.007L4.446.463h0L4.437.477v0L4.427.491l0,0L4.408.52l0,.006L4.4.536l0,0-.02.026v0L4.36.582h0L4.348.595l0,0L4.339.606a1.369,1.369,0,0,1-.131.131h0L4.193.75h0L4.16.777,4.126.8h0L4.093.829l-.006,0L4.078.84l-.006,0L4.055.856h0L4.037.868h0L4.017.881h0L4,.893l0,0L3.981.9l-.006,0L3.96.918l0,0L3.941.93l0,0L3.917.943,3.877.966l0,0-.04.021,0,0-.039.02-.007,0-.037.018-.007,0L3.7,1.053l-.005,0-.04.017-.007,0-.041.017L3.6,1.1l-.038.015-.011,0-.036.013-.008,0-.041.015-.008,0-.041.014-.01,0-.039.012-.011,0-.037.011-.013,0-.036.01-.015,0-.041.011-.009,0-.039.01-.014,0-.036.008-.016,0-.039.008-.011,0-.044.009H3l-.045.008-.009,0-.041.007-.011,0-.041.006-.015,0L2.8,1.3H2.779v.408c-.057.007-.113.013-.17.017H2.6c-.054,0-.108.007-.162.009H2.092l-.027,0-.03,0H2.017l-.045,0H1.962l-.035,0-.015,0-.042,0-.02,0-.033,0H1.8L1.761,1.7l-.016,0L1.7,1.693H1.7l-.044-.007H1.643l-.049-.009h0l-.047-.009h0l-.048-.01-.01,0-.037-.008-.011,0L1.388,1.63l-.007,0-.047-.012h0L1.286,1.6l-.006,0-.047-.014h0l-.045-.014-.006,0-.046-.015,0,0-.092-.033-.005,0L.947,1.485l-.009,0L.9,1.463h0L.853,1.443l0,0-.041-.02-.008,0L.767,1.4l-.007,0-.037-.02-.009,0L.677,1.351A1.145,1.145,0,0,1,0,.408V0A1.144,1.144,0,0,0,.678.943L.716.964l.008,0,.038.02.007,0L.8,1.009l.011.006.037.017.009,0,.033.015.009,0,.037.016.015.006.03.012L1,1.1l.031.012.016.006.035.013.015.005.028.01.017.006.037.012.017.005.025.008.021.006.033.01.02.006.023.006.035.009.022.006.023.005.025.006.033.008.02,0,.024.006.035.007.02,0,.027,0,.031.006.025,0,.022,0,.027,0,.031,0,.024,0,.024,0,.028,0,.028,0,.028,0,.02,0,.038,0,.022,0,.028,0,.019,0,.041,0h.019l.029,0H2.09l.037,0h.016l.045,0h.278l.043,0h.021l.038,0h.016l.037,0h.014l.045,0h.013l.034,0,.016,0,.037,0V1.71l.028,0,.024,0,.024,0,.028,0,.027,0,.031-.005.021,0L3,1.676l.013,0,.039-.008.016,0L3.1,1.656l.019,0,.033-.007.021,0L3.2,1.631l.013,0,.038-.01.015,0L3.309,1.6l.009,0,.041-.012h0l.042-.013.01,0,.042-.014.006,0L3.5,1.541l.013,0,.037-.014.007,0L3.6,1.5l0,0,.043-.018,0,0L3.7,1.463h0l.041-.02h0l.041-.02,0,0,.039-.02,0,0,.041-.022h0l.042-.024.02-.012h0l.016-.01.005,0L4,1.3l0,0,.055-.037h0c.024-.016.047-.034.07-.051h0l.033-.026h0l.014-.011,0,0,.008-.007L4.2,1.153l0,0,.015-.013,0,0a1.326,1.326,0,0,0,.122-.122A1.058,1.058,0,0,0,4.512.745l0,0C4.522.72,4.53.7,4.538.679v0L4.547.651v0l0-.011,0-.007V.623l0-.012v0L4.564.582V.575l0-.011v0l0-.014h0l0-.013v0l0-.013v-.5Z" transform="translate(45.167 13.457) rotate(2)" fill="#2e2020" fill-rule="evenodd"/>
        <path id="패스_5381" data-name="패스 5381" d="M3.905.388A.989.989,0,0,1,3.916,2.26a3.581,3.581,0,0,1-3.24,0A.989.989,0,0,1,.666.387a3.581,3.581,0,0,1,3.24,0" transform="translate(45.214 12.141) rotate(2)" fill="#605252" fill-rule="evenodd"/>
        <path id="패스_5382" data-name="패스 5382" d="M3.156,1.822a2.882,2.882,0,0,1-2.611,0,1.385,1.385,0,0,1-.313-.24c-.39-.405-.288-.925.3-1.269a2.882,2.882,0,0,1,2.611,0A1.161,1.161,0,0,1,3.61.755c.2.365.044.778-.454,1.066" transform="translate(45.65 12.413) rotate(2)" fill="#2e2020" fill-rule="evenodd"/>
        <path id="패스_5383" data-name="패스 5383" d="M3.007,1.62A2.882,2.882,0,0,1,.4,1.62a1.385,1.385,0,0,1-.313-.24C-.113,1.015.038.6.536.313a2.881,2.881,0,0,1,2.611,0,1.384,1.384,0,0,1,.314.241c.2.365.044.778-.454,1.066" transform="translate(45.792 12.62) rotate(2)" fill="#605252" fill-rule="evenodd"/>
        <path id="패스_5384" data-name="패스 5384" d="M.114.271A.307.307,0,0,0,.049.321.242.242,0,0,1,.018.293C-.024.216.008.128.114.066a.609.609,0,0,1,.554,0A.279.279,0,0,1,.734.117.146.146,0,0,1,.7.295.29.29,0,0,0,.667.271a.61.61,0,0,0-.554,0" transform="translate(48.245 13.366) rotate(2)" fill="#2e2020" fill-rule="evenodd"/>
        <path id="패스_5385" data-name="패스 5385" d="M.035.139A.29.29,0,0,1,0,.115.3.3,0,0,1,.064.066a.613.613,0,0,1,.554,0L.653.089a.288.288,0,0,1-.065.05.611.611,0,0,1-.553,0" transform="translate(48.287 13.573) rotate(2)" fill="#555356" fill-rule="evenodd"/>
        <path id="패스_5386" data-name="패스 5386" d="M0,5.261l13.852,7.979,9.227-5.315v-.9L9.285,0,0,4.357Z" transform="translate(53.455 16.664) rotate(2)" fill="#ff595f" fill-rule="evenodd"/>
        <path id="패스_5387" data-name="패스 5387" d="M0,5.261l13.852,7.978,9.227-5.315L9.285,0Z" transform="translate(53.487 15.762) rotate(2)" fill="#ff7a7f" fill-rule="evenodd"/>
        <path id="패스_5388" data-name="패스 5388" d="M0,5.19v.6L9.01.6V0Z" transform="translate(67.264 24.336) rotate(2)" fill="#f1f2ec" fill-rule="evenodd"/>
        <path id="패스_5389" data-name="패스 5389" d="M0,.117.049.086,0,.117V.076H0V.064H0l0-.006h0L.01.05h0l0,0h.01l0,0,0,0L.077,0H.061l0,0h0l0,.007h0l0,.006h0l0,0h0v.01h0V.06h0V.085L.1.468v0h0V.518h0V.527L.1.533h0L.1.541l0,.009h0l0,0,0,0H.083A.066.066,0,0,1,.069.575L.021.6h0l0,0,0,0,0,0,0,0H.041l0,0,0-.009h0l0-.008,0-.007,0-.007V.5L.1.468.054.5,0,.116Z" transform="translate(59.422 22.534) rotate(2)" fill="#231916" fill-rule="evenodd"/>
        <path id="패스_5390" data-name="패스 5390" d="M.255.091.24.081h0l-.008,0H.218l0,0,0,0L.2.061H.174l0,0H.023l0,0H0L.047.024l0,0h0l0,0,.005,0H.214l.011,0h0L.238.024.251.029h0l.008,0h0L.275.042l0,0h.01L.3.059l3.03,1.674-.049.031L.255.091Z" transform="translate(59.269 22.224) rotate(2)" fill="#58595b" fill-rule="evenodd"/>
        <path id="패스_5391" data-name="패스 5391" d="M.29.034A.493.493,0,0,1,.333.059L3.362,1.734l.018.4L.371.322.348.308C.283.275.232.31.243.39L.3.772c.014.1-.047.144-.13.1A.3.3,0,0,1,.02.647L0,.218C-.009.027.124-.051.289.034" transform="translate(59.19 22.253) rotate(2)" fill="#3e3a39" fill-rule="evenodd"/>
        <path id="패스_5392" data-name="패스 5392" d="M.076.013h0L.065,0,.018.031l0,0h0l0,0h0l0,0H0L.076.013ZM.049.1.1.481v0h0V.518h0V.531L.1.538.1.545.1.554l0,.009H.069L.044.6.022.617H.043l0-.009,0-.008h0l0-.007h0l0-.007h0V.512L.1.481.054.512,0,.13V.083H0L0,.078H0l0-.006h0L0,.053C.013.049.069.014.055.04l0,.007V.052h0V.1Z" transform="translate(65.363 19.019) rotate(2)" fill="#231916" fill-rule="evenodd"/>
        <path id="패스_5393" data-name="패스 5393" d="M.3.06,3.33,1.734l-.048.031L.253.091H.242l0,0H.209L.227.054l.03-.02,0,0,0,0H.3l0,0h0ZM.248.029l.01,0L.233.05.209.065.2.061H.191l0,0H.179l0,0H.127l-.012,0H.041L.026.04l-.006,0L0,.053.045.024H.059l0,0h0l0,0H.08L.09,0H.242l.007,0Z" transform="translate(65.211 18.722) rotate(2)" fill="#58595b" fill-rule="evenodd"/>
        <path id="패스_5394" data-name="패스 5394" d="M2.62.034a.5.5,0,0,1,.044.026l3.03,1.674.018.4L2.7.322,2.679.308c-.065-.033-.116,0-.1.082l.053.382c.013.1-.047.144-.13.1A.3.3,0,0,1,2.35.647L2.331.218c-.009-.19.124-.269.289-.184m.7,4.555,0,0,0,0,0,0,0,0,.006.008,0,0h0l0,0,0,.006,0,0,.005.007,0,0,.006.007,0,0,.006.007,0,0h0l.007.007,0,0,.006.006,0,0,.005.006,0,0,.007.007h0l.008.008h0l.008.008h0l.008.007,0,0,.008.007h0l.008.007,0,0,.008.007h0l.009.007h0l.008.006,0,0,.009.006h0l.01.007.011.007h0l.01.006h0l.01.006h0l.011.006.1.05a.6.6,0,0,1-.14-.107h0l-.018-.018-.009-.01h0l-.008-.009h0L3.467,4.7h0L3.45,4.684h0l-.007-.008v0h0l-.007-.009h0l-.005-.007,0,0v0l-.006-.008v0l-.006-.008h0L3.4,4.621v0L3.4,4.61h0v0l0-.006h0l0,0v0l0,0V4.584l0,0v0h0V4.567l0,0V4.555h0v-.01h0v0l0,0v0l0,0V4.5l0,0V4.46h0v-.01h0v0l0,0v0h0l0-.006v0h0V4.42h0V4.411h0V4.392h0v0l0,0h0V4.364h0V4.357h0V4.349l0,0V4.34h0V4.326l-.028-.069v0h0v0l0,0v0h0v0h0v0h0v0h0v0h0v0H3.2l-.1-.053,0,.007h0l0,.006,0,.005.007.02h0v0l0,.007h0l0,0v0h0v.014h0v.013l0,.006v.005h0V4.26l.028.07v.017h0v0l0,.007h0v.009h0v.008h0v.008h0V4.4h0v.018l0,0v.006l0,0v.006l0,0v.007l0,.008v0l0,0,.1.053-.1-.053v.03h0V4.51l0,0v.01l0,0v0l0,0v0l0,0v.006l0,0v0l0,0v0l0,0,0,0v0l0,0v0l0,0,0,0v0l0,.005h0l0,0v0l0,0ZM.74,6.682l-.1-.053H.632l.109.054ZM.658,6.653.7,6.673h0l-.04-.02Zm.049.022.033.007Zm-.012,0L.659,6.653h0l0,0,0,0h0l0,0h0l0,0h0l0,0h0l0,0h0l0,0h0l0,0v0l0,0h0v0l0,0v0h0v0h0v0h0l0,0v0H.572l0-.006h0l0-.007h0l-.006-.01L.538,6.48l0-.006v0h0l0-.01h0v0h0V6.448h0v0h0v0h0l0,0v0h0v0h0v0h0v0h0v0h0v0l0,0v0h0V6.4h0v0h0V6.383h0v0h0v0h0V6.366h0V6.358h0v0h0v0h0v0h0V6.336h0V6.327h0v0h0v0h0C.463,6.291.455,6.267.448,6.243L.442,6.217h0v0h0v0h0v0h0v0l0-.006,0-.022v0l0-.02v0h0V6.125h0v0h0l0-.01h0l0-.011V6.09l0-.017,0-.016L.4,6.013v0h0v0h0V6h0v-.02h0v0h0V5.965h0v0h0v0h0v0h0v0h0v0h0v0h0v0h0v-.01h0v0h0v0h0V5.907h0v0h0v0h0v0h0v0h0v0h0v0l-.1-.053v.007h0v0h0v0h0v0h0V5.86h0v.007h0v.013l0,.023.1.052L.291,5.9v0h0v.016h0v.008h0v.007h0v.007h0v0h0v0h0v0h0v.01h0v.011h0v.008L.307,6l.1.053L.307,6c0,.026.009.052.014.078h0v0h0v0h0v0h0v.033l.012.049h0v0l.1.053-.1-.053h0v0h0v0h0v0h0v0h0v0h0v0h0v0h0v0h0v0h0v0h0v.008h0V6.29h0V6.3h0v.008h0c.008.02.016.041.024.06l.1.053-.1-.053v.007h0v0l0,0v0l0,0v0l0,0v0h0v0h0v0h0v0h0v0h0v0h0v0h0v0h0v0h0l0,.006v0l0,.008h0l0,0,.1.053-.1-.053.006.011,0,.007h0v0H.474v0H.483v0H.5l.1.052L.5,6.539h0l0,0v0h0v0l0,0,0,0v0h0v0h0v0h0l0,0h0l0,0H.535l0,0h0l0,0h0l0,0h0l0,0h0l0,0h0l0,0h0l0,0H.57l.016.009h0l-.005,0h0l-.009,0,.1.053.009,0h0l.015,0ZM.1,5.955,0,5.9H.027l0,0h0l0,0,0,0h0l.008.006h0A.275.275,0,0,1,.1,5.978l0,.006,0,0h0v0l0,0v0l0,0V6l.1.052L.112,6H.125l0,0,0,0h0v0H.14v0H.147l0,0v0l0,.011,0,.009h0l0,0v0l.1.053-.1-.053v0H.168v0h0l0,0h0v0h0v0L.2,6.2l.1.053L.2,6.2c.01.028.022.061.035.1v.017l0,0v.005l0,0v.008l0,.01v0l.1.053-.1-.053,0,0v.033l0,0v.035l0,0v.008l0,0v.01h0v0l.005.01h0l.005.009,0,0,.007.012v0L.328,6.5l.007.012v0l.005.009v0l.005.009v0l.005.008v0h0l.022.032c.012.016.024.032.036.047h0a.591.591,0,0,0,.046.049l.03.026a.389.389,0,0,0,.063.042l.1.053L.636,6.791.625,6.784l-.01-.007h0a.581.581,0,0,1-.132-.138,1.181,1.181,0,0,1-.068-.111Q.4,6.491.378,6.454L.373,6.443h0l0-.01v0c0-.008-.008-.017-.011-.025v0l0-.01h0L.34,6.367.327,6.332h0L.317,6.309v0l0,0V6.3l0-.007V6.276h0V6.256h0V6.248L.29,6.232v0l0-.006V6.2h0v0l0,0v0h0v0h0v0h0v0h0v0h0v0h0v0h0v0h0v0h0l0,0L.251,6.118.239,6.093v0H.227l0,0H.218l0-.006L.206,6.041h0l0,0,0,0,0,0,0,0h0l0,0,0,0h0l0,0h0v0h0l0,0h0l0,0h0l0,0h0v0l0,0h0l0,0,0,0h0l0,0h0l0,0,0,0h0l0,0h0l0,0H.125L.114,5.962h0l-.007,0h0Z" transform="translate(62.801 18.669) rotate(2)" fill="#3e3a39" fill-rule="evenodd"/>
        <path id="패스_5395" data-name="패스 5395" d="M.451,2.354l.043,0,.052-.008L.6,2.331l.061-.016.065-.022L.8,2.266l.073-.031L.947,2.2l.077-.041L1.1,2.113l.061-.038.015-.01.074-.05.071-.052.067-.053c.021-.017.043-.035.063-.053L1.513,1.8l.056-.054.053-.056.052-.06c.018-.022.036-.044.053-.066h0a1.229,1.229,0,0,0,.116-.212Q1.87,1.3,1.9,1.227c.015-.039.03-.08.046-.126s.028-.085.042-.132.027-.092.041-.142c.009-.035.019-.072.028-.11v0L2.061.689C2.068.66,2.074.632,2.08.6L2.092.536,2.1.479,2.107.432l0-.042,0-.036V.267C2.1.048,2,.037,1.984.024h0A.078.078,0,0,0,1.943,0H1.933A.19.19,0,0,0,1.9,0,2.82,2.82,0,0,0,.939.418L.915.432C.858.465.8.5.751.531a2.067,2.067,0,0,0-.71.67l-.007.016A.679.679,0,0,0,0,1.5V1.51a2.314,2.314,0,0,0,.052.342,1.17,1.17,0,0,0,.2.447.183.183,0,0,0,.027.024A.074.074,0,0,0,.3,2.336l.005,0a.343.343,0,0,0,.049.012.321.321,0,0,0,.045,0,.347.347,0,0,0,.046,0H.451ZM.934.638.91.65h0ZM1.028.587.989.608h0l.038-.02h0ZM1.1.549,1.063.568h0L1.1.55h0ZM1.154.522,1.133.532h0l.02-.011ZM1.3.451,1.281.459,1.3.451ZM1.48.371,1.462.379,1.479.372h0Z" transform="translate(63.029 23.009) rotate(2)" fill="#fffcfc" fill-rule="evenodd"/>
        <path id="패스_5396" data-name="패스 5396" d="M0,0V.009H0V.034H0l0,.02.1.053V.1h0v0h0v0h0V.085h0v0h0V.074h0V.068h0V.052L.009,0,0,0H0Z" transform="translate(62.879 24.452) rotate(2)" fill="#bcbcba" fill-rule="evenodd"/>
        <path id="패스_5397" data-name="패스 5397" d="M.1.053,0,0V.036L.1.089V.053Z" transform="translate(62.879 24.373) rotate(2)" fill="#c4c5c3" fill-rule="evenodd"/>
        <path id="패스_5398" data-name="패스 5398" d="M.1.053,0,0V.042L.1.095V.053" transform="translate(62.879 24.409) rotate(2)" fill="#c0c0be" fill-rule="evenodd"/>
        <path id="패스_5399" data-name="패스 5399" d="M.1.053,0,0H0L.1.053Z" transform="translate(62.879 24.451) rotate(2)" fill="#bcbcba" fill-rule="evenodd"/>
        <path id="패스_5400" data-name="패스 5400" d="M3.553,2.6a.854.854,0,0,1-.1-.349.7.7,0,0,1,.1-.389c.019-.046.081-.253,1.017-.93q.1-.071.187-.128c.4-.26.668-.315.74-.25a.357.357,0,0,1,.058.22,3.076,3.076,0,0,1-.013.4,2.591,2.591,0,0,1-.183.761,2.685,2.685,0,0,1-.833.828,1.214,1.214,0,0,1-.58.228c-.009,0-.192,0-.39-.39M.466,4.438A2.216,2.216,0,0,1,.414,4.08.676.676,0,0,1,.446,3.8a1.977,1.977,0,0,1,.717-.687c.059-.038.122-.076.188-.113.944-.53,1.022-.413,1.044-.395s.119.024.13.243a1.608,1.608,0,0,1-.058.451,2.5,2.5,0,0,1-.327.85,2.223,2.223,0,0,1-.566.509,1.208,1.208,0,0,1-.861.261c-.089-.033-.207-.3-.248-.484M.061,3.721c-.1.094-.046.419-.034.435.033.042.2.037.269.249.042.124.235.8.621.668a3.383,3.383,0,0,0,.758-.343,2.2,2.2,0,0,0,.468-.4,3.213,3.213,0,0,0,.584-1.445.534.534,0,0,1,.224-.362l.074-.048c.1-.063.2-.066.246.061.053.15.266.7.69.626a1.323,1.323,0,0,0,.478-.205,5.362,5.362,0,0,0,.743-.621A2.816,2.816,0,0,0,5.7.936,2,2,0,0,1,5.922.369C5.933.337,5.953-.038,5.847,0a.891.891,0,0,0-.123.07L5.672.108,5.617.143a1.715,1.715,0,0,1-.149.088,7.224,7.224,0,0,0-.68.389A9.814,9.814,0,0,0,3.459,1.652a3.086,3.086,0,0,1-.426.362c-.023.014-.046.028-.07.041s-.047.033-.069.047a1.808,1.808,0,0,1-.435.191,7.11,7.11,0,0,0-1.346.687c-.221.142-.448.3-.676.482-.045.035-.1.07-.148.1L.235,3.6l-.052.033a1.076,1.076,0,0,0-.122.087" transform="translate(62.707 20.412) rotate(2)" fill="#19261d" fill-rule="evenodd"/>
        <path id="패스_5401" data-name="패스 5401" d="M.513,2.459l.031,0,.037-.005.04-.009L.664,2.43l.047-.015L.762,2.4l.055-.024.06-.029.065-.035.07-.041.059-.037.016-.011.078-.053.081-.06.083-.065.083-.069L1.494,1.9c.027-.025.053-.05.078-.076s.051-.052.075-.078.05-.056.073-.083.051-.063.075-.094A1.66,1.66,0,0,0,1.9,1.4c.006-.01.012-.022.017-.035l.016-.039c.006-.014.011-.03.016-.046s.013-.038.019-.058.022-.074.021-.074a3.414,3.414,0,0,0,.081-.4c0-.023.006-.047.009-.07l0-.041L2.09.6c0-.047.007-.092.009-.135s0-.064,0-.1S2.1.322,2.1.3s0-.037,0-.054,0-.026,0-.039v0l0-.019,0-.017,0-.028,0-.023,0-.016a.017.017,0,0,0,0-.006l0-.015L2.069.065h0v0h0l0-.008A.07.07,0,0,0,2.054.039l0-.006L2.042.025A.086.086,0,0,0,2.027.015h0A.116.116,0,0,0,1.981,0l-.02,0H1.938A1.643,1.643,0,0,0,1.3.277,4.284,4.284,0,0,0,.1,1.333.751.751,0,0,0,.005,1.6.7.7,0,0,0,0,1.687v.031H0v.029H0l0,.028,0,.033c0,.012,0,.024.007.036v0h0v0h0v0h0v0h0v0h0v0h0v0h0v0h0v0L.033,1.9h0c0,.011.007.023.011.034v.011h0v0h0v0h0l0,0v0l0,0,0,.008v0l0,0v0h0c.011.026.023.053.037.081,0,0,0,0,0,0A.9.9,0,0,0,.36,2.4l.009.006.009.007H.384l.021.012a.272.272,0,0,0,.04.017l.028.008.012,0H.513" transform="translate(66.139 21.065) rotate(2)" fill="#fffcfc" fill-rule="evenodd"/>
        <path id="패스_5402" data-name="패스 5402" d="M5.981.056,5.879,0l0,0H5.846l-.008,0H5.817l-.009,0L5.8.029h0L5.778.04l0,0h0l0,0H5.743l0,0H5.694l0,0H5.647l0,0,0,0,0,0L5.618.143,5.6.154h0l0,0h-.04l-.007,0L5.524.2H5.509l-.04.022H5.44l-.007,0-.007,0h0L5.382.274h0l0,0,0,0,0,0h0l0,0,0,0,0,0h0l0,0-.01.006,0,0,0,0h0l0,0,0,0-.01.005,0,0h0L5.3.317l0,0h0l0,0,0,0,0,0,0,0,0,0,0,0h0l0,0,0,0,0,0,0,0,0,0,0,0,0,0,0,0,0,0h0l0,0,0,0,0,0h0l0,0,0,0,0,0h0l0,0,0,0h0l0,0,0,0,0,0,0,0,0,0h0l-.007,0,0,0,0,0,0,0,0,0,0,0,0,0,0,0,0,0,0,0,0,0h0l0,0,0,0,0,0h0l0,0,0,0h0l0,0,0,0h0l0,0,0,0h0l0,0,0,0h0l0,0,0,0L5.073.445h0l0,0,0,0L5.036.467l0,0-.007,0,0,0,0,0h0l0,0,0,0h0l0,0,0,0H5l0,0,0,0h0l0,0,0,0h0L4.957.514h0L4.946.522,4.935.528h0L4.921.536l0,0,0,0h0l0,0,0,0,0,0,0,0,0,0,0,0h0l0,0,0,0,0,0h0l0,0,0,0,0,0h0l0,0,0,0,0,0h0l0,0,0,0,0,0,0,0h0l0,0,0,0,0,0h0l0,0,0,0,0,0h0l0,0,0,0,0,0h0l0,0,0,0,0,0,0,0,0,0,0,0h0l0,0,0,0,0,0h0l-.016.01H4.761l-.006,0h0l0,0h-.02l0,0,0,0,0,0,0,0,0,0,0,0,0,0,0,0,0,0h0L4.625.728h0L4.56.772l0,0L4.539.786l0,0,0,0h0L4.523.8l0,0,0,0,0,0h0l0,0,0,0,0,0,0,0,0,0,0,0,0,0,0,0,0,0,0,0,0,0,0,0c-.085.061-.44.335-.533.4l0,0-.1.084-.037.031,0,0,0,0,0,0-.012.011h0l0,0,0,0,0,0,0,0,0,0h0l0,0,0,0,0,0L3.7,1.44l0,0-.012.01,0,0,0,0h0l0,0,.1.052-.1-.053-.05.045h0L3.6,1.524h0l-.018.016h0l-.01.009,0,0,0,0h0l0,0,0,0,0,0-.007.006,0,0h0l0,0,0,0,0,0,0,0,0,0h0l0,0,0,0,0,0,0,0,0,0,0,0h0l0,0-.013.012,0,0,0,0,0,0,0,0,0,0,0,0h0l0,0,0,0,0,0,0,0,0,0H3.446l0,0L3.408,1.7l0,0,0,0,0,0v0l0,0h0l0,0,0,0h0l0,0,0,0,0,0,0,0,0,0,0,0h0l0,0,0,0h0l0,0,0,0,0,0,0,0,0,0,0,0h0l0,0,0,0,0,0h0l0,0,0,0,0,0,0,0,0,0,0,0,0,0,0,0,0,0h0l0,0,0,0h0l0,0h0l0,0H3.314l-.005,0h0v0h0l-.007.007h0l-.012.011H3.274l0,0h0l-.007.006v0l0,0H3.246l0,0H3.239l.1.052-.1-.053h0l0,0h0l0,0h0l0,0H3.214L3.2,1.888h0l-.018.015-.012.01H3.157l-.011.009h0l0,0H3.1l-.012.009H3.065L3.05,2h0l0,0h0l.1.053-.1-.053,0,0-.008.005,0,0H3l-.019.011H2.905l.1.052-.1-.053h0L2.9,2.1H2.889l0,0h0l-.023.014-.026.015h0l0,0h0l-.008,0h0l-.03.016h0l0,0H2.777l-.017.009h0l0,0h0l0,0h0l0,0h0l0,0h0l0,0,.1.053-.1-.053,0,0H2.711l0,0H2.675l.1.053-.1-.053-.023.009h0l0,0h0l-.008,0H2.612l-.019.007H2.547l-.007,0h0l0,0h0l-.007,0H2.516l-.034.012h0l-.018.007-.088.033h0l-.018.007L2.3,2.357c-.076.031-.4.182-.477.219l0,0h0c-.071.037-.144.075-.217.116h0l-.033.018c-.048.026-.1.054-.146.083h0l0,0-.016.01,0,0,0,0,0,0,0,0-.008,0,0,0h0l0,0,0,0,0,0,0,0,0,0h0l0,0,0,0,0,0,0,0,0,0,0,0,0,0,0,0,0,0,0,0,0,0,0,0h0l0,0,0,0,0,0-.006,0,0,0,0,0h0l0,0-.015.009,0,0h0l0,0,0,0,0,0L1.236,2.9l0,0h0l-.022.013,0,0-.021.013-.071.045-.057.037-.026.016h0l0,0,0,0h0l-.006,0,0,0h0l0,0,0,0,0,0,0,0,0,0,0,0h0l0,0,0,0h0l-.007,0,0,0,0,0,0,0,0,0h0l0,0,0,0h0l0,0,0,0h0l0,0,0,0,0,0,0,0,0,0,0,0h0l0,0,0,0h0l0,0,0,0,0,0h0l0,0,0,0,0,0h0l0,0,0,0,0,0h0l0,0,0,0h0l0,0,0,0,0,0,0,0,0,0,0,0h0l0,0,0,0h0l0,0,0,0h0l0,0,0,0,0,0,0,0,0,0,0,0h0l0,0,0,0,0,0h0l0,0,0,0,0,0h0l0,0-.011.008,0,0h0l0,0,0,0,0,0,0,0,0,0,0,0h0l0,0,0,0,0,0h0l0,0,0,0,0,0h0l0,0,0,0h0l0,0,0,0,0,0h0l0,0,0,0,0,0h0l0,0,0,0-.007.005,0,0,0,0h0l0,0,0,0-.011.008,0,0h0l0,0,0,0L.624,3.32l0,0h0l0,0L.572,3.36l-.015.011h0l0,0h0l0,0,0,0,0,0,0,0,0,0h0l-.006,0,0,0L.52,3.4l0,0,0,0-.077.06-.01.008h0l0,0,.1.052-.1-.053H.407l0,0H.384l.1.053L.384,3.5H.323l0,0L.3,3.558l0,0H.268l-.005,0H.255l-.008,0h0L.236,3.6.2,3.621l0,0H.181l0,0h0l-.008.005H.161l.1.053-.1-.053H.126l0,0h0l0,0h0l-.007,0,.1.053H.186l0,0H.165v0h0l0,0,0,0h0l0,0h0l0,0h0l0,0,0,0a.182.182,0,0,0-.015.025l0,.007,0,.006h0l0,.005v.006l0,.005h0v0l0,0v.013h0l0,.008v0l0,.012L.068,3.871l.041.022,0,.013-.039-.02.039.02,0,.016,0,.017v.071L.073,3.994.1,4.009v.033L.075,4.027.1,4.042l0,.037,0,.04v0h0v.012h0l0,.018h0v0h0L.061,4.128l.055.028v0h0v0h0l0,.017a.082.082,0,0,0,0,.013V4.2h0v0h0l0,0H.15l-.1-.052H.027v0h0l0-.006v0h0v0h0v0h0v0h0v0h0v0h0v0h0V4.1l.015.007L.014,4.1l0-.011h0V4.084h0V4.058h0v0h0V4.045h0V4.039h0v0H0V4.01H0v0H0V4H0V3.992H0v0L.024,4,0,3.989V3.964H0V3.956l.022.012L0,3.956V3.919H0V3.906H0V3.9H0V3.882H0v0H0v0H0v0H0V3.853l.012.006L.006,3.853v0h0v0h0v0h0v0h0l.009,0-.009,0v0h0v0h0v0h0l0-.011h0l0-.008h0v0l0-.056.048-.031v0l0,0h0l.1.053-.1-.053H.075l.1.053-.1-.053,0,0H.092l.005,0,0,0h0l.011-.008.1.053H.249l.007,0h.02l.009-.006.008-.005h0l0,0H.423l.006,0h0l0,0H.454l0,0H.462L.47,3.567l.008-.005h0l0,0H.5l.022-.016.007-.006h0l0,0H.541l0,0,0,0,0,0h0l0,0h0l0,0h0l0,0,0,0h0l0,0,0,0h0l0,0h0l0,0,0,0,0,0h0l0,0,0,0,0,0,0,0h0l0,0,0,0,0,0,0,0h0l0,0,0,0,0,0,0,0h0l0,0,.008-.007,0,0h0l0,0,0,0,0,0,0,0,0,0,0,0,0,0h0l0,0h0l0,0h0l0,0h0l0,0,0,0,0,0,0,0h0l0,0,0,0,0,0h0l0,0,0,0,0,0h0l0,0,0,0,0,0,0,0,0,0,0,0,0,0,0,0,0,0h0l0,0,0,0,0,0h0l0,0,0,0,0,0h0l0,0,0,0h0l0,0,0,0,0,0h0l0,0,0,0,0,0,0,0,0,0,0,0,0,0,0,0,0,0h0l0,0,0,0,0,0h0l0,0,0,0h0l0,0,0,0,0,0h0l0,0,0,0,0,0h0l0,0,0,0,0,0,0,0,0,0,0,0h0l0,0,0,0,0,0h0l0,0,0,0h0l0,0,0,0,0,0h0l0,0,0,0,0,0h0l0,0,0,0,0,0,0,0,0,0,0,0h0l0,0,0,0h0l0,0,0,0,0,0h0l0,0,0,0,0,0,0,0,0,0,0,0h0l0,0,0,0h0l0,0,0,0,0,0h0l0,0,0,0,0,0H1l0,0,0,0,0,0h0l0,0,0,0h0l0,0,0,0,0,0,0,0,0,0,0,0h0l0,0,.011-.008,0,0h0l0,0,0,0,.092-.061.013-.009h.044l0,0,0,0,0,0,0,0,.006,0,0,0h0l0,0,0,0,0,0,.006,0,0,0,0,0h0l.015-.009,0,0,0,0h0l0,0,0,0,0,0,0,0,0,0,0,0,0,0h0l0,0,0,0,.006,0,0,0,0,0,0,0h0l0,0,0,0,0,0,0,0,0,0,0,0,.009-.006,0,0,0,0,0,0,.015-.01,0,0,0,0,0,0,0,0,.009-.006,0,0,0,0,0,0,0,0,.008,0,0,0,0,0,0,0,0,0,0,0h0l0,0,0,0,0,0,0,0,0,0h0l0,0,0,0,0,0,0,0,0,0,0,0,0,0,0,0,0,0,0,0,0,0,0,0h0l0,0,0,0,0,0,0,0,0,0h0l0,0,0,0,0,0,0,0,0,0h0l.007,0,0,0,0,0,0,0,0,0,0,0L1.608,2.8h0l.016-.009,0,0h0l.012-.007,0,0,0,0,.012-.007.008,0,0,0h0L1.7,2.748l0,0h0l0,0,.04-.022h0l0,0,0,0,.012-.007h0L1.788,2.7h0L1.8,2.69l0,0,0,0h0l0,0,.016-.008h0l.019-.01h0l.02-.011h0l.015-.008,0,0,0,0h0c.175-.085.325-.159.5-.231l.057-.023h.006l.01,0h.076l.01,0h.059l.008,0h.017l.006,0L2.7,2.3l.013,0h0l0,0h.075l0,0h.015l.006,0h.007l0,0h.064l0,0h0L2.919,2.2h0l0,0,.019-.011h0l0,0h.029l0,0h0L3,2.155l.006,0h0l0,0h0l.008-.006h0l.005,0h.019l0,0,0,0h0l.008-.006h.024l.006,0h0l0,0,.005,0h.02l.007,0,.01-.007h.015l.007,0,.007,0H3.2l.006,0h0l0,0h.025l0,0H3.3l.006,0h0l.01-.008h0l.026-.022L3.349,1.9h0l.018-.016h0l.015-.014h0l0,0H3.4l.018-.017h0l.009-.009.045-.043h0l0,0h0l0,0,0,0,0,0,0,0,0,0,0,0h0v0l0,0,0,0h0l0,0,0,0h0l0,0,0,0,0,0,0,0,0,0,0,0h0l0,0v0h0l0,0,0,0h0l0,0,.016-.015,0,0h0l0,0h.005l0,0,0,0,0,0,0,0,0,0h0l0,0,0,0,0,0,0,0,0,0,0,0,0,0,0,0,0,0,0,0,0,0h0l0,0,0,0,0,0,0,0,0,0,0,0h0l0,0,0,0,0,0,0,0,0,0h0l0,0,0,0,0,0,0,0,0,0,0,0h0l0,0,0,0,0,0,0,0,0,0h0l0,0L3.7,1.579l0,0h0l.007-.006,0,0,.044-.039.014-.012.055-.048,0,0,0,0,0,0,0,0,0,0,.008-.007h0l0,0,0,0,0,0,0,0,0,0h0l0,0,0,0,0,0,0,0,0,0,0,0,0,0,0,0h0L3.913,1.4l0,0,0,0,0,0,.029-.024,0,0,0,0,0,0,0,0,0,0,0,0,0,0,0,0,0,0h0l0,0,0,0,0,0,0,0,0,0,.02-.016c.056-.043.39-.3.447-.344h0l0,0,0,0,0,0,0,0,0,0,0,0h0l0,0,0,0,0,0,0,0,0,0h0l0,0,0,0,0,0,0,0,0,0,0,0,0,0,0,0,0,0,0,0,0,0,0,0,0,0,0,0,0,0,0,0,0,0,0,0,0,0,0,0,0,0,0,0h0l0,0,0,0,0,0,0,0,0,0h0l0,0,0,0,0,0,0,0,0,0,0,0,0,0,0,0,0,0,0,0,0,0,0,0h0l0,0,0,0L4.7.8l0,0,0,0h0l.02-.014h0l0,0,0,0L4.751.765l.02-.014,0,0h0l0,0L4.788.74l0,0,0,0h0l0,0,0,0,0,0,0,0,0,0L4.829.713l0,0h.008l0,0h.033l0,0h0l0,0h0l0,0,0,0,0,0h0l0,0,0,0,0,0,0,0,0,0,0,0h0l0,0,0,0,0,0h0l0,0,0,0,0,0,0,0h0l0,0,0,0,0,0h0l0,0,0,0,0,0,0,0h0l0,0,0,0,0,0h0l0,0,0,0,0,0,0,0h0L4.994.607H5L5.016.594h0L5.036.582h0L5.081.555,5.131.524h0L5.153.511h0l0,0,0,0,0,0L5.2.486h0L5.216.475h0l.035-.02,0,0L5.27.443,5.315.419,5.356.4,5.366.39h0L5.384.381l0,0h0l.007,0h0l0,0,0,0h0l0,0,0,0h0l0,0,.01-.005,0,0,0,0h0l0,0,0,0,0,0,0,0,0,0,0,0,0,0,0,0,0,0h0l0,0,0,0,0,0h0l0,0,0,0h0l0,0,0,0,.006,0h0l0,0h0l0,0,0,0,0,0h0l0,0,0,0h.035L5.607.265h.01L5.653.238l.007,0h.033l0,0h.055l0,0L5.775.16,5.8.144h.014L5.828.126,5.839.119h0l0,0h0l.006,0h0l0,0H5.91l0,0h.029l.007,0h.028l0,0ZM.027,4.038.005,4.027Z" transform="translate(62.606 20.356) rotate(2)" fill="#595857" fill-rule="evenodd"/>
      </g>
    </g>
  </g>
</svg>
