<svg xmlns="http://www.w3.org/2000/svg" xmlns:xlink="http://www.w3.org/1999/xlink" width="162" height="144" viewBox="0 0 162 144">
    <defs>
        <path id="a" d="M.073.133h24.576v34.07H.073z"/>
    </defs>
    <g fill="none" fill-rule="evenodd">
        <path fill="#B3DADB" d="M23.195 68.098l-.08 2.286 10.205 6.363-6.482 25.34 2.355 1.468 2.294-1.217 1.735-6.729 10.05-5.33.587 2.377 2.603 1.739 1.922-1.02-2.113-8.554 16.43 10.244-6.503 25.327 2.355 1.468 2.295-1.217 1.734-6.728 10.05-5.33.587 2.377 2.603 1.738 1.922-1.02-5.352-21.698 46.826-24.838-6.421 25.008 2.355 1.468 2.294-1.217 1.735-6.728 10.05-5.33.586 2.377 2.603 1.738 1.922-1.02-5.304-21.504 11.586-6.146.08-2.286-39.636-24.712-77.873 41.306zm104.136-6.323l3.277 13.348-3.277-13.348zm-2.602.446l.459-.243 2.953 11.955.445.215-.445-.215-7.467 3.961 4.055-15.673zm.538 15.733l-5.341 2.831 5.341-2.83zm-87.842 1.352l3.707 2.311 1.05 4.25.446.216-.446-.215-7.47 3.962-.494 1.916 3.207-12.44zm6.277 3.913l.948 3.839-.948-3.839zm24.494 8.99l.346-.184 3 12.148-7.467 3.96 4.12-15.925zm.472 15.985l-5.34 2.831 5.34-2.83z"/>
        <path fill="#FF595F" d="M122.915 50.746l-10.118 39.406 2.355 1.468 10.118-39.406z"/>
        <path fill="#FF8A8F" d="M125.27 52.214L115.152 91.62l2.294-1.217 1.735-6.728 11.971-6.35 1.269 5.135 1.921-1.019-7.139-28.944-1.083 4.346 4.488 18.28-10.682 5.662 7.107-27.472z"/>
        <path fill="#FFBDBF" d="M128.14 73.933l-7.47 3.963-.744 2.89 10.682-5.663z"/>
        <path fill="#FF595F" d="M124.986 61.158l.462-1.794.672-2.521 4.488 18.28-2.467-1.19-3.155-12.775zm7.435 21.303l-2.604-1.74-.587-2.377 1.922-1.02 1.269 5.137zM35.371 68.73l-8.533 33.356 2.355 1.469L37.726 70.2z"/>
        <path fill="#FF8A8F" d="M37.727 70.2l-8.534 33.355 2.295-1.217 1.734-6.729 11.971-6.35 1.269 5.136 1.922-1.02L43 71.578l-1.499-.934-.513 1.59 3.662 14.824-10.683 5.662 5.522-21.421z"/>
        <path fill="#FFBDBF" d="M42.182 85.868l-7.47 3.962-.745 2.89 10.683-5.662z"/>
        <path fill="#FF595F" d="M39.027 73.093l.462-1.794 1.5.934 3.66 14.825-2.467-1.19-3.155-12.775zm7.435 21.302l-2.603-1.739-.587-2.377 1.921-1.02 1.269 5.136zM56.198 120.392l2.355 1.468 10.119-39.406-2.355-1.469z"/>
        <path fill="#FF8A8F" d="M58.553 121.86l2.295-1.217 1.734-6.728 11.972-6.35 1.268 5.135 1.922-1.019-7.14-28.944-.199.798.03.018-.912 3.525-.001.005 4.488 18.28-10.683 5.662 6.196-23.947.882-3.543-1.733-1.081z"/>
        <path fill="#FFBDBF" d="M71.542 104.173l-7.47 3.962-.745 2.89 10.683-5.662z"/>
        <path fill="#FF595F" d="M68.387 91.398l.462-1.794.673-2.522 4.488 18.281-2.468-1.19-3.155-12.775zm7.435 21.302l-2.603-1.738-.587-2.378 1.922-1.02 1.268 5.136z"/>
        <path fill="#FFBDBF" d="M23.195 68.098L62.831 92.81l77.873-41.306-39.636-24.712z"/>
        <path fill="#FF595F" d="M23.115 70.384l39.636 24.712.08-2.286-39.636-24.712z"/>
        <path fill="#FF8A8F" d="M62.83 92.81l-.079 2.286 77.873-41.306.08-2.286z"/>
        <path fill="#C3C1BE" d="M106.906 57.288l.023-.843-1.374-.038c-5.079-3.155-10.27-6.25-15.351-9.405-.076-.047-.193-.056-.26-.02-7.534 4.076-15.062 8.154-22.595 12.229l-1.431-.04-.025.881h.003c.005.025.024.05.057.071a1483.886 1483.886 0 0 0 16.6 10.241.298.298 0 0 0 .265.013c8.058-4.307 16.036-8.662 24.035-13.005.04-.022.057-.053.053-.084"/>
        <path fill="#C3C1BE" d="M66.022 59.253L89.73 46.451l-.215-.796-23.706 12.802z"/>
        <g transform="rotate(2 -673.385 1912.098)">
            <mask id="b" fill="#fff">
                <use xlink:href="#a"/>
            </mask>
            <path fill="#C3C1BE" d="M1.085 13.419c-.56.329-1.017 1.058-1.012 1.62l.139 18.578c.004.562.467.753 1.028.424l22.396-13.125c.561-.328 1.017-1.057 1.013-1.62L24.51.72c-.004-.563-.467-.754-1.028-.425L1.085 13.42z" mask="url(#b)"/>
        </g>
        <path fill="#535351" d="M65.484 58.202c-.013.495.386.677.891.404l22.841-12.335c.505-.272.927-.897.94-1.393l.51-18.571c.014-.496-.386-.678-.891-.405L66.934 38.237c-.505.272-.927.897-.94 1.394l-.51 18.57z"/>
        <path fill="#363332" d="M67.529 39.708l-.463 16.99 21.672-11.64.463-16.99z"/>
        <path fill="#EEF0EF" d="M82.842 69.534c8.057-4.307 16.035-8.662 24.034-13.005.073-.04.072-.11-.003-.158-5.487-3.437-11.132-6.789-16.646-10.212-.076-.047-.193-.056-.26-.02-8.004 4.33-16 8.662-24.003 12.991-.067.036-.062.104.012.15a1478.055 1478.055 0 0 0 16.6 10.241.297.297 0 0 0 .266.013"/>
        <path fill="#D7D7D6" d="M91.53 64.05c1.711-.932 3.438-1.854 5.145-2.788.067-.036.062-.103-.011-.15-.95-.595-3.091-1.921-4.043-2.516a.276.276 0 0 0-.251-.016c-1.722.94-3.445 1.879-5.169 2.818-.067.036-.061.102.011.146l4.065 2.49c.074.044.188.052.254.016M78.367 65.767c7.539-4.03 15.003-8.104 22.487-12.168.068-.037.067-.103-.003-.147-5.134-3.216-4.302-2.552-9.46-5.754-.072-.044-.181-.053-.244-.018-7.488 4.05-14.969 8.103-22.456 12.153-.064.034-.059.097.01.14 5.153 3.22 4.184 2.605 9.418 5.782a.28.28 0 0 0 .248.012"/>
        <path fill="#363332" d="M84.083 55.384l-.041-.011-1.013-.634.94-.507.037-.002c.018.001.027.004.033.008l1.01.634-.937.507-.03.005zM85.307 54.722l-.042-.011-1.01-.635.94-.508.037-.001c.018 0 .027.004.034.008l1.009.634-.939.508-.03.005zM86.532 54.058l-.04-.01-1.01-.635.943-.509.038-.001c.017 0 .026.003.032.007l1.008.634-.941.51-.03.004zM82.86 56.045l-.042-.01-1.015-.634.939-.507.037-.001c.018 0 .027.004.033.008l1.014.633-.936.507-.03.004zM81.637 56.706l-.04-.01-1.018-.633.938-.506.037-.002c.018 0 .028.004.035.009l1.014.632-.936.506-.03.004zM91.662 54.381l-.04-.01-.998-.627 1.921-1.042-1.328-.83 1.489-.806a.317.317 0 0 1 .04-.002c.018.001.026.004.032.008l2.332 1.449-3.417 1.855-.03.005zM87.76 53.394l-.04-.01-1.008-.635.943-.51.039-.002c.018 0 .027.004.034.008l1.006.633-.944.51-.03.006zM89.19 55.724l-.04-.01-1.002-.628.939-.51h.038c.017 0 .026.003.032.007l1 .627-.937.51-.03.004zM89.028 52.708l-.041-.011-1.007-.634 3.388-1.83.04-.002c.017 0 .026.004.033.008l1.01.629c-.835.45-3.393 1.835-3.393 1.835l-.03.005zM90.414 55.06l-.04-.012-1-.627.942-.51.04-.002.03.007 1 .627-.942.511zM74.279 60.678l-.043-.01-1.024-.63.943-.51h.039c.018 0 .028.003.034.007l1.024.63-.943.509-.03.004zM78.22 61.67l-.043-.01-1.021-.624.94-.507.039-.002c.018 0 .027.004.033.008l1.02.624-.938.507-.03.005zM76.314 61.141l-.042-.01-1.022-.627.942-.508.038-.001c.018 0 .028.004.034.008l1.022.626-.941.508-.031.004zM80.253 62.13l-.043-.012-1.021-.622.937-.506.038-.002c.018 0 .026.004.033.008l1.022.622-.936.507-.03.004zM81.477 61.467l-.042-.01-1.022-.623.934-.505.038-.002c.017 0 .027.004.033.008l1.02.623-.931.504-.03.005zM80.415 57.367l-.04-.01-1.021-.632.938-.507.037-.001c.018 0 .027.004.034.008l1.018.632-.935.505-.03.005zM77.967 58.69l-.042-.012-1.023-.63.938-.506.04-.002c.017 0 .026.004.033.008l1.022.63-.938.507-.03.004zM79.192 58.028l-.041-.011-1.022-.63.937-.507.038-.001c.019 0 .028.004.035.008l1.019.63-.936.507-.03.004zM75.511 60.014l-.042-.011-1.024-.63.94-.507.04-.002c.017.001.026.004.033.008l1.024.63-.94.507-.03.005zM76.74 59.351l-.042-.01-1.024-.63.94-.508.038-.001c.018 0 .027.004.034.008l1.024.63-.94.507-.03.004zM89.767 53.86l-.04-.01-1.002-.63.945-.511a.335.335 0 0 1 .04-.002l.03.007 1.003.629-.945.512-.03.005zM86.093 55.852l-.04-.01-1.008-.63.937-.507.039-.002c.017 0 .025.004.032.008l1.005.63-.935.506-.03.005zM84.873 56.514l-.04-.011-1.01-.63.935-.506.038-.001c.018 0 .026.003.033.008l1.007.629-.934.506-.029.005zM87.315 55.19l-.041-.011-1.005-.63.94-.508.038-.002c.017 0 .026.004.032.008l1.003.63-.938.508-.03.005zM83.653 57.174l-.04-.011-1.012-.628.934-.506.038-.002c.018 0 .027.004.033.008l1.01.63-.932.504-.03.005zM82.435 57.834l-.04-.01-1.016-.629.935-.505.037-.002c.018 0 .027.004.034.008l1.012.628-.932.505-.03.005zM88.539 54.526l-.04-.01-1.003-.63.942-.51.039-.002a.06.06 0 0 1 .031.007l1.003.63-.942.51-.03.005zM96.694 53.192l-.04-.01-1-.622.968-.524.033-.006.04.01 1.003.619-.97.528-.034.005zM82.695 60.807l-.042-.011-1.02-.623.932-.504.037-.002c.018 0 .027.004.034.008l1.017.624-.928.503-.03.005zM87.97 56.387l-.04-.01-1.005-.628.936-.507.038-.002c.017 0 .026.004.033.008l1.002.627-.934.507-.03.005z"/>
        <path fill="#363332" d="M91 53.192l-.04-.01-1.002-.63.949-.513a.313.313 0 0 1 .04-.002l.03.008 1.003.628-.95.514-.03.005zM81.215 58.494l-.041-.01-1.018-.628.936-.506.038-.001c.017 0 .026.004.033.008l1.015.628-.932.504-.03.005zM83.107 59.027l-.042-.011-1.015-.625.933-.505.037-.002c.018.001.026.004.033.008l1.013.626-.93.504-.029.005zM84.323 58.367l-.042-.01-1.013-.626.932-.505.038-.001c.018 0 .027.003.033.007l1.01.627-.93.504-.028.004zM86.753 57.048l-.041-.01-1.007-.628.934-.506.038-.001a.06.06 0 0 1 .032.007l1.005.628-.932.505-.03.005zM79.994 59.154l-.041-.01-1.02-.627.936-.506.039-.001c.017 0 .026.003.033.007l1.018.628-.935.504-.03.005zM85.537 57.708l-.04-.01-1.01-.627.932-.505.037-.002c.018 0 .027.004.033.008l1.008.627-.93.504-.03.005zM81.89 59.686l-.042-.01-1.017-.625.933-.505.038-.001c.018 0 .026.003.033.007l1.015.625-.93.504-.03.005zM80.67 60.346l-.042-.01-1.019-.625.934-.505.038-.001c.018 0 .028.003.034.008l1.017.624-.932.504-.03.005zM78.771 59.815l-.042-.01-1.02-.627.937-.506.038-.001c.018 0 .027.003.034.008l1.02.626-.936.505-.031.005zM77.545 60.478l-.042-.011-1.023-.626.94-.508.038-.001c.018 0 .027.004.034.008l1.022.626-.939.507-.03.005zM79.447 61.008l-.042-.011-1.02-.624.936-.506.038-.002c.018 0 .027.004.034.008l1.02.624-.936.506-.03.005zM81.517 55.207l-.042-.011-1.022-.639.941-.508.038-.001c.018 0 .027.004.034.008l1.018.64-.938.507-.029.004zM77.098 63.832l-.041-.01-1.02-.625c.949-.51 1.897-1.023 2.844-1.535l.04-.001c.017 0 .026.003.032.007l1.023.623-.296.16c-.85.46-1.7.92-2.55 1.376l-.032.005zM73.042 61.344L73 61.333l-1.023-.631.946-.509.04-.002c.017 0 .026.004.032.008l1.024.63-.946.51-.031.005zM71.687 60.508l-.043-.011-1.026-.635.944-.509.039-.001c.018 0 .027.004.034.008l1.028.634-.945.51-.03.004zM75.745 63.005l-.041-.011-1.02-.626 2.165-1.166a.336.336 0 0 1 .04-.002.06.06 0 0 1 .033.008l1.022.624c-.497.27-.996.538-1.497.807l-.67.36-.032.006zM74.394 62.176l-.042-.011-1.02-.628 1.604-.864.047-.014.042.011 1.022.627-1.622.874zM72.922 59.844l-.043-.012-1.028-.634.943-.508.038-.002c.019 0 .028.004.035.008l1.028.635-.943.507-.03.006zM74.154 59.18l-.043-.011-1.028-.635.942-.508.038-.001c.018 0 .027.004.034.008l1.03.635-.943.507-.03.005zM77.84 57.193l-.043-.012-1.026-.636.94-.507.036-.002c.02.001.03.005.036.009l1.025.636-.939.507-.03.005zM76.612 57.855l-.041-.011-1.029-.636.94-.507.038-.002a.07.07 0 0 1 .035.008l1.026.636-.939.507-.03.005zM75.384 58.517l-.043-.011-1.028-.635.941-.507.038-.002c.019 0 .027.004.034.008l1.029.635-.941.507-.03.005zM80.955 63.31l-.041-.012-1.026-.622c3.538-1.91 7.067-3.832 10.593-5.753l1.25-.68.038-.002a.06.06 0 0 1 .032.007l1.001.629-3.607 1.964a3162.51 3162.51 0 0 1-8.209 4.463l-.03.005zM98.025 54.021l-.038-.01-1.003-.624.971-.528.034-.006.039.01 1.005.622-.974.53-.034.006zM96.77 54.705l-.039-.01-1-.626.961-.523a.325.325 0 0 1 .043-.003l.03.007 1.001.624-.964.525-.032.006zM95.527 55.383l-.04-.01-.999-.628.953-.519a.321.321 0 0 1 .041-.002l.03.007 1 .626-.954.52-.03.006zM78.455 64.66l-.043-.011-1.023-.624.952-.514a.313.313 0 0 1 .04-.001c.018 0 .027.003.033.007l1.026.623-.953.514-.032.006zM94.29 56.053l-.04-.01-1-.628.946-.515a.321.321 0 0 1 .04-.002l.03.007 1 .627-.945.516-.03.005zM79.698 63.989l-.04-.011-1.027-.623.945-.51.04-.003c.018.001.027.004.033.008l1.026.623-.946.51-.03.006zM79.065 56.53l-.042-.01-1.025-.638.94-.507.037-.001c.019 0 .028.004.036.008l1.022.637-.938.507-.03.005zM93.065 56.722l-.04-.01-1.002-.63.94-.51a.315.315 0 0 1 .04-.003l.03.008 1.001.628-.94.512-.029.005zM92.461 55.496l-.04-.01-.999-.627 2.66-1.444a.321.321 0 0 1 .04-.002l.03.007.998.624c-.445.241-2.218 1.208-2.659 1.447l-.03.005zM89.972 56.851l-.04-.01-1.003-.627.935-.508.038-.002c.017 0 .026.004.031.007l1.002.628-.934.508-.03.004zM83.91 60.148l-.042-.011-1.017-.624.93-.503.037-.002c.018.001.027.004.033.008l1.015.624-.927.503-.03.005zM91.191 56.188l-.04-.011-1-.627.939-.51.039-.002.03.007 1 .627-.938.511zM95.368 52.368l-.04-.01-1-.622.963-.521.034-.006.039.01 1.004.62-.967.523zM94.04 51.544l-.04-.01-1.004-.625.96-.518a.304.304 0 0 1 .042-.002l.03.007 1.008.621-.963.522-.032.005zM95.445 53.876l-.04-.01-.997-.625.96-.52a.323.323 0 0 1 .042-.002l.03.007.999.621-.962.523-.032.006zM85.122 59.49l-.042-.011-1.013-.625.928-.503.037-.002c.018 0 .027.004.034.008l1.012.625-.926.503-.03.005zM80.291 55.87l-.042-.012-1.023-.638.94-.508.037-.001c.019 0 .028.004.035.008l1.021.639-.939.507-.029.004zM88.757 57.513l-.04-.01-1.006-.627.932-.507.038-.001a.06.06 0 0 1 .031.007l1.005.627-.93.506-.03.005zM87.544 58.173l-.04-.011-1.009-.626.93-.505.039-.002a.06.06 0 0 1 .031.008l1.006.626-.928.505-.029.005zM86.333 58.831l-.04-.01-1.012-.625.929-.505.037-.001c.017 0 .026.003.033.007l1.009.626-.927.504-.029.004zM83.969 53.882l-.041-.011-1.018-.64.942-.51.036-.001c.019 0 .028.004.035.008l1.016.641-.941.508-.03.005zM85.197 53.219l-.042-.012-1.015-.64.943-.51.036-.001c.018 0 .027.004.034.008l1.016.64-.943.51-.03.005zM82.742 54.545l-.041-.011-1.02-.64.942-.509h.036c.019 0 .028.003.035.007l1.017.64-.94.508-.029.005zM86.427 52.554l-.042-.011-1.016-.641.944-.51.038-.002c.019 0 .028.004.034.009l1.015.64-.944.51-.03.005zM88.892 51.221l-.041-.01-1.015-.64.947-.512.039-.002c.018 0 .027.004.034.009l1.015.637-.95.513-.029.005zM87.658 51.888l-.041-.01-1.015-.642.946-.51.037-.002c.018 0 .027.004.034.008.408.259.617.39 1.015.64l-.946.511-.03.005zM90.13 50.552l-.042-.01-1.017-.64.95-.512.038-.001c.018 0 .027.004.034.008l1.019.637-.952.513-.03.005zM91.37 49.882l-.04-.01-1.02-.637.951-.514.04-.001c.017 0 .026.003.033.007.41.257.621.388 1.022.635l-.954.515-.031.005zM92.71 50.716l-.04-.01-1.012-.63.956-.516a.309.309 0 0 1 .04-.001c.017 0 .026.003.033.007l1.013.627-.959.518-.031.005z"/>
        <path fill="#666462" d="M84.087 55.254l-.04-.01-1.014-.634.94-.508.038-.001c.018 0 .026.003.033.008l1.01.634-.937.506-.03.005zM85.311 54.592l-.041-.01-1.01-.635.94-.508.037-.002c.018.001.027.004.033.008l1.01.634-.94.508-.029.005zM86.537 53.929l-.04-.011-1.01-.634.942-.51.038-.001c.018 0 .026.004.032.008l1.009.634-.941.509-.03.005zM82.865 55.916l-.042-.012-1.015-.632.938-.507.038-.002c.017 0 .026.004.033.008l1.014.633-.937.507-.03.005zM81.642 56.577l-.04-.011-1.018-.633.937-.506.038-.002c.018.001.027.004.034.009l1.015.632-.936.506-.03.005zM91.667 54.251l-.04-.01-.999-.627 1.922-1.042-1.329-.83 1.49-.806a.322.322 0 0 1 .04-.001c.017 0 .026.003.032.007l2.331 1.45-3.417 1.854-.03.005zM87.765 53.264l-.04-.01-1.008-.635.943-.51.039-.002c.017.001.026.004.033.008l1.006.633-.943.511-.03.005zM89.195 55.594l-.04-.01-1.002-.628.938-.509.039-.001a.06.06 0 0 1 .031.007l1.001.628-.938.509-.03.004zM89.032 52.578l-.04-.01-1.007-.635 3.388-1.83.039-.002c.018 0 .027.004.033.008l1.01.63c-.834.45-3.392 1.835-3.392 1.835l-.03.004zM90.418 54.93l-.04-.011-1-.627.942-.511.04-.002.03.007 1 .628-.942.51zM74.283 60.549l-.042-.011-1.024-.63.943-.509.038-.001c.019 0 .028.004.035.008l1.024.63-.943.508-.03.005zM78.224 61.541l-.043-.01-1.02-.624.94-.508.038-.001c.019 0 .027.003.034.007l1.02.624-.938.507-.031.005zM76.318 61.012L76.276 61l-1.022-.627.943-.508.038-.001c.018 0 .027.004.034.008l1.022.626-.942.508-.03.005zM80.257 62l-.042-.011-1.021-.623.936-.506.039-.002c.017 0 .026.004.033.008l1.022.623-.936.506-.03.005zM81.481 61.338l-.042-.011-1.022-.622.934-.506.038-.001c.018 0 .027.003.034.007l1.02.623-.932.505-.03.005zM80.42 57.237l-.041-.01-1.02-.632.937-.506.037-.002c.019 0 .028.004.034.008l1.018.632-.935.506-.03.004zM77.972 58.56l-.042-.012-1.023-.63.938-.506.039-.001c.018 0 .027.003.034.007l1.021.63-.937.507-.03.005zM79.197 57.898l-.042-.01-1.022-.631.938-.507.038-.001c.018 0 .027.004.034.008l1.02.63-.937.507-.03.004zM75.516 59.884l-.043-.01-1.024-.63.941-.508.04-.001c.017 0 .026.003.033.008l1.024.63-.94.507-.031.004zM76.745 59.221l-.042-.01-1.024-.63.94-.507.037-.002c.019 0 .028.004.035.008l1.023.63-.939.507-.03.004zM89.772 53.73l-.04-.01-1.002-.63.945-.511a.342.342 0 0 1 .04-.002l.03.007 1.002.63-.945.511-.03.005zM86.097 55.723l-.04-.011-1.007-.63.937-.507.038-.002c.017.001.026.004.032.008l1.006.63-.936.507-.03.005zM84.878 56.384l-.041-.011-1.01-.63.936-.506.037-.001c.018 0 .027.004.034.008l1.007.629-.934.506-.03.005zM87.32 55.06l-.042-.01-1.004-.63.94-.509.038-.001c.017 0 .026.003.032.007l1.003.63-.938.508-.03.005zM83.658 57.044l-.041-.01-1.012-.629.935-.506.038-.002c.017.001.026.004.033.008l1.01.63-.933.504-.03.005zM82.44 57.704l-.041-.01-1.016-.628.935-.506.038-.001c.018 0 .027.003.033.007l1.013.629-.933.505-.03.004zM88.543 54.396l-.04-.01-1.003-.63.942-.51.04-.002a.06.06 0 0 1 .03.008l1.003.63-.941.51-.03.004zM96.699 53.062l-.04-.01-1-.621.967-.525.034-.005.04.01c.402.247.61.375 1.002.618l-.97.528-.033.005zM82.7 60.677l-.042-.01-1.02-.624.931-.504.038-.001c.018 0 .027.003.033.007l1.018.624-.929.504-.03.004zM87.975 56.257l-.04-.01-1.005-.628.936-.507.038-.002c.017.001.026.004.032.008l1.003.627-.935.508-.029.004z"/>
        <path fill="#666462" d="M91.004 53.062l-.04-.01-1.001-.629.948-.513a.303.303 0 0 1 .04-.002l.03.007 1.003.628-.949.514-.03.005zM81.22 58.364l-.042-.01-1.017-.628.936-.505.037-.002c.018 0 .027.004.034.008l1.015.628-.933.505-.03.004zM83.112 58.897l-.042-.011-1.015-.625.932-.505.037-.001a.06.06 0 0 1 .033.008l1.014.625-.93.504-.03.005zM84.327 58.238l-.041-.011-1.013-.626.932-.505h.038c.018 0 .026.003.033.007l1.01.626c-.342.184-.93.504-.93.504l-.029.005zM86.757 56.918l-.04-.01-1.007-.627.934-.506.038-.002c.017 0 .026.003.032.008l1.004.627-.931.506-.03.004zM79.999 59.025l-.042-.011-1.019-.627.936-.506.039-.001c.017 0 .026.004.033.008l1.017.627-.934.505-.03.005zM85.542 57.578l-.041-.01-1.01-.626.933-.506.037-.002c.017.001.026.004.033.008l1.007.627-.93.505-.03.004zM81.894 59.556l-.042-.01-1.017-.625.933-.505.038-.001c.018 0 .027.004.033.008l1.016.625-.93.503-.03.005zM80.675 60.217l-.042-.011-1.02-.624.935-.506.038-.001c.018 0 .027.004.033.008l1.018.624-.932.505-.03.005zM78.776 59.686l-.042-.011-1.021-.626.937-.507.038-.001c.019 0 .028.004.034.008l1.02.626-.936.506-.03.005zM77.55 60.348l-.042-.011-1.023-.626.94-.507.037-.001c.018 0 .028.003.035.007l1.021.627-.938.506-.03.005zM79.451 60.878l-.042-.01-1.02-.625.937-.506.038-.001c.018 0 .027.004.034.008l1.02.623-.936.506-.03.005zM81.522 55.078l-.043-.012-1.021-.638.94-.509.038-.001c.019 0 .028.004.034.008l1.019.64-.939.507-.028.005zM77.102 63.703l-.04-.011-1.021-.624c.95-.511 1.897-1.024 2.845-1.536l.039-.001c.017 0 .026.004.033.008l1.023.622-.297.16c-.849.46-1.7.92-2.55 1.376l-.032.006zM73.046 61.214l-.041-.011-1.024-.63.946-.51.04-.001c.017 0 .026.003.033.007l1.024.63-.947.51-.03.005zM71.692 60.378l-.043-.01-1.027-.636.945-.508.038-.002c.019 0 .028.004.034.008l1.029.635-.946.509-.03.004zM75.75 62.875l-.042-.01-1.02-.627 2.166-1.166a.307.307 0 0 1 .04-.002c.017.001.026.004.032.008l1.022.624c-.496.27-.996.538-1.496.807l-.67.361-.032.005zM74.398 62.046l-.042-.01-1.02-.629 1.605-.863.047-.014.042.01 1.021.627-1.621.874zM72.926 59.714l-.042-.011-1.029-.635.944-.508.038-.001c.018 0 .028.003.034.008l1.029.634-.943.508-.03.005zM74.159 59.05l-.043-.011-1.029-.634.942-.508.039-.002c.018.001.027.004.033.008l1.03.635-.942.507-.03.005zM77.844 57.063l-.043-.011-1.026-.636.94-.508.037-.001c.019 0 .029.004.036.008l1.024.636-.938.508-.03.004zM76.617 57.725l-.042-.011-1.028-.636.94-.507.038-.002c.019.001.028.004.035.009l1.026.635-.94.507-.03.005zM75.389 58.387l-.043-.011-1.028-.635.94-.507.039-.002c.018.001.027.004.034.008l1.028.636-.94.506-.03.005zM80.96 63.18l-.042-.011-1.026-.623c3.539-1.91 7.067-3.832 10.594-5.753l1.249-.68.038-.002c.017 0 .026.004.032.007l1.002.629-3.608 1.965c-2.732 1.489-5.467 2.979-8.208 4.462l-.031.005zM98.03 53.891l-.039-.01-1.002-.624.97-.528.034-.005.04.01 1.004.621-.974.53-.033.006zM96.775 54.575l-.04-.01-1-.626.962-.523a.306.306 0 0 1 .043-.002l.03.006 1 .625-.963.525-.032.005zM95.532 55.253l-.04-.01-1-.627.954-.52a.327.327 0 0 1 .04-.001l.03.007s.695.433 1 .626l-.953.52-.031.005zM78.46 64.53l-.043-.011-1.023-.624.951-.513a.293.293 0 0 1 .041-.002c.018 0 .027.004.033.007l1.025.624-.953.514-.032.005zM94.295 55.924l-.041-.011-1-.628.947-.515a.327.327 0 0 1 .04-.002l.03.007 1 .628-.946.515-.03.006zM79.703 63.859l-.041-.011-1.026-.623.945-.51.04-.002c.017 0 .026.004.032.008l1.026.622-.945.51-.031.006zM79.07 56.401l-.042-.01-1.025-.638.94-.507.037-.002a.07.07 0 0 1 .035.009l1.023.637-.939.507-.03.004zM93.07 56.592l-.04-.01-1.003-.629.94-.511a.266.266 0 0 1 .04-.002l.03.007 1.001.628-.94.513-.028.004zM92.466 55.366l-.04-.01-1-.626 2.66-1.445a.3.3 0 0 1 .04-.002l.03.007.999.624-2.66 1.448-.03.004zM89.976 56.722l-.04-.011-1.003-.627.935-.508.039-.002c.017 0 .025.004.03.008l1.003.627-.934.508-.03.005zM83.914 60.018l-.041-.01-1.017-.624.929-.504.038-.001c.017 0 .027.003.033.007l1.015.625-.928.503-.029.004zM91.196 56.058l-.04-.01-1.001-.628.94-.51.038-.001.031.007 1 .627-.939.51zM95.372 52.238l-.04-.01-1-.621.964-.522.033-.006.04.01 1.003.62-.967.524zM94.045 51.414l-.04-.01-1.004-.624.959-.52a.304.304 0 0 1 .042-.001l.03.007 1.008.622-.962.52-.033.006zM95.45 53.746l-.04-.01-.998-.624.96-.52a.313.313 0 0 1 .042-.003l.03.007 1 .622-.962.523-.032.005zM85.126 59.36l-.042-.011-1.013-.624.929-.504.037-.002c.018.001.026.004.033.008l1.012.625-.926.503-.03.005zM80.296 55.74l-.043-.012-1.022-.638.94-.508h.036c.02 0 .029.003.035.008l1.022.638-.94.507-.028.004zM88.761 57.383l-.04-.01-1.006-.627.933-.506.037-.002c.018 0 .026.004.032.008l1.004.626-.93.506-.03.005zM87.549 58.043l-.041-.01-1.008-.626.93-.505.038-.002c.017 0 .025.003.032.007l1.006.627-.929.505-.028.004zM86.338 58.702l-.04-.011-1.013-.625.93-.505.036-.001c.018 0 .026.004.033.008l1.01.625-.927.504-.03.005zM83.973 53.752l-.04-.01-1.019-.641.942-.51h.036c.02 0 .029.003.035.008l1.017.64-.942.509-.029.004zM85.201 53.089l-.041-.011-1.016-.641.943-.51h.036c.019 0 .028.003.035.007l1.015.64-.943.51-.029.005zM82.747 54.415l-.042-.011-1.02-.64.942-.508.037-.002c.018 0 .028.004.035.009l1.017.64-.94.507-.03.005zM86.431 52.424l-.042-.011-1.015-.64.944-.51.038-.002c.018 0 .027.004.034.008l1.015.64-.945.51-.029.005zM88.897 51.091l-.041-.01-1.016-.64.948-.512.038-.002c.018.001.027.005.034.009l1.016.638-.95.513-.03.004zM87.662 51.758l-.04-.01-1.016-.641.947-.511.036-.002c.018.001.028.004.035.009.407.258.616.39 1.015.64l-.947.51-.03.005zM90.134 50.423l-.042-.011-1.016-.639.95-.512.037-.002c.019 0 .027.004.034.008l1.02.637-.952.514-.03.005zM91.375 49.753l-.041-.012-1.02-.636.952-.514.039-.001c.017 0 .026.004.033.008.411.256.622.387 1.023.634l-.955.516-.03.005zM92.714 50.586l-.04-.01-1.011-.63.955-.516a.35.35 0 0 1 .04-.001c.018 0 .026.003.033.007l1.013.627-.958.518-.032.005zM90.07 47.197c-.281-.176-.746-.192-1.038-.036-.292.156-.3.424-.017.6.282.176.746.193 1.038.037.292-.156.3-.425.018-.6"/>
        <path fill="#CAC9C5" d="M71.412 35.818l18.363-9.916-18.363 9.916zm19.254-9.511c.01-.331-.166-.522-.434-.532.268.01.443.2.434.532z"/>
        <path fill="#666562" d="M81.558 50.407l-.756-1.086 7.936-4.262.463-16.99-16.876 9.063-.913-1.314 18.363-9.916a.916.916 0 0 1 .457-.127c.268.01.443.2.434.532l-.51 18.57v.007c-.016.48-.413 1.08-.896 1.363l-.044.025-7.658 4.135z"/>
        <path fill="#4D4A49" d="M80.802 49.321l-8.476-12.189L89.2 28.07l-.463 16.99z"/>
        <path fill="#D7D7D6" d="M63.606 75.863l-.514-.018-4.897-3.017c-.287-.179-.734-.213-.993-.075l-2.115 1.121-.563-.02-.009.254h.001c0 .111.077.23.23.325l5.164 3.183c.287.179.734.213.993.076l2.514-1.334c.124-.066.182-.159.18-.258l.009-.237z"/>
        <path fill="#535351" d="M63.374 75.546c.287.179.31.438.051.575l-2.514 1.334c-.259.137-.58.201-1.075-.105l-5.163-3.183c-.196-.12-.228-.408.03-.545l2.515-1.335c.259-.137.706-.103.993.076l5.163 3.183z"/>
        <path fill="#363332" d="M60.832 77.406c-.22.117-.598.088-.843-.065l-5.164-3.182c-.244-.152-.264-.372-.043-.489l2.515-1.334c.22-.117.599-.088.843.065l5.163 3.182c.245.153.265.372.044.489l-2.515 1.334z"/>
        <path fill="#535351" d="M61.291 76.28c-.068.036-.07.098-.005.138l.305.192c.064.04.172.044.24.008l.32-.17c.068-.035.07-.098.006-.138l-.306-.192a.265.265 0 0 0-.24-.008l-.32.17z"/>
        <path fill="#363332" d="M61.713 76.564a.167.167 0 0 0 .08-.016l.323-.17-.307-.193a.167.167 0 0 0-.08-.02.171.171 0 0 0-.08.015l-.322.17.306.193c.02.012.049.02.08.02"/>
        <path fill="#FF595F" d="M59.214 64.697l-7.269-.254 2.07 3.173 7.269.254z"/>
        <path fill="#FDF0D3" d="M54.118 65.179c1.707-.013 2.844-.439 4.244-1.312.943.645 1.956 1.225 2.939 1.797v.001c-.519.45-3.198 1.782-4.564 2.016a7.915 7.915 0 0 1-2.136-1.848 8.63 8.63 0 0 1-.483-.653v-.001z"/>
        <path fill="#E1484D" d="M57.767 65.619c.014.008.018.022.009.032l-.51.547c-.035.038.008.095.093.125a.31.31 0 0 0 .115.018.17.17 0 0 0 .106-.047l.465-.498.114-.122c.04-.042.034-.102-.013-.133l-.004-.003a.134.134 0 0 0-.165.022l-.454.487-.003.005c-.016.02-.002.048.031.062.035.014.078.01.096-.01l.277-.297c.01-.01.027-.012.04-.005.012.007.015.02.007.03l-.275.293c-.035.039-.114.05-.177.024-.059-.024-.084-.073-.059-.112l.005-.009.464-.498a.197.197 0 0 1 .245-.026l.004.002c.07.048.08.134.023.194l-.113.121-.458.491-.015.016a.197.197 0 0 1-.123.05.279.279 0 0 1-.079 0l-.002-.001a.401.401 0 0 1-.084-.02c-.118-.04-.173-.122-.119-.181l.516-.554c.01-.01.029-.012.043-.003"/>
        <path fill="#FF595F" d="M57.084 64.07c-.047-.03-.075-.09-.072-.174a.586.586 0 0 1 .282-.45c.074-.04.14-.04.188-.011l2.346 1.456-.398.635-2.346-1.456z"/>
        <path fill="#E1484D" d="M57.084 64.07c-.047-.03-.075-.09-.072-.174a.436.436 0 0 1 .017-.103l2.51 1.558-.109.175-2.346-1.456z"/>
        <path fill="#3E3C3F" d="M59.9 65.065a.585.585 0 0 1-.282.45c-.149.078-.265.006-.26-.163a.586.586 0 0 1 .282-.45c.15-.079.265-.006.26.163"/>
        <path fill="#FF595F" d="M64.98 68.208l-.31.496-5.146-3.212c-.237-.148.046-.652.307-.49l5.15 3.206z"/>
        <path fill="#E1484D" d="M64.766 68.55l-.096.154-5.146-3.212c-.086-.054-.103-.155-.078-.254l5.32 3.312z"/>
        <path fill="#3E3C3F" d="M65.036 68.344a.457.457 0 0 1-.22.35c-.116.062-.207.006-.202-.126a.457.457 0 0 1 .22-.35c.116-.062.207-.006.202.126"/>
        <path fill="#E1484D" d="M65.16 68.435l-.197-.125c-.164-.103-.397.25-.249.354l.2.139.247-.368z"/>
        <path fill="#3E3C3F" d="M65.192 68.53a.347.347 0 0 1-.166.266c-.089.047-.158.004-.155-.096.004-.1.079-.22.167-.267.089-.047.158-.004.154.096"/>
        <path fill="#FF595F" d="M96.788 45.428c-.018.496.844.93 1.924.967 1.08.037 1.97-.334 1.988-.83.017-.497-.845-.93-1.925-.967-1.08-.038-1.97.334-1.987.83"/>
        <path fill="#E3EBF0" d="M99.091 45.827l-.011.3h-.009l-.038.003h-.008a3.474 3.474 0 0 1-.07.005h-.01l-.068.002h-.133l-.048-.002-.022-.002h-.011l-.039-.003h-.008l-.023-.002h-.003l-.04-.004-.013-.001-.02-.002-.007-.001a1.772 1.772 0 0 1-.04-.005l-.011-.001-.02-.003-.027-.003-.015-.003-.021-.003-.019-.003-.024-.004-.015-.003-.014-.002-.029-.006-.022-.004-.008-.002-.032-.007-.012-.002-.02-.005-.02-.005-.023-.006-.011-.002-.025-.007-.012-.003-.026-.007-.014-.004-.019-.006-.02-.006-.02-.007-.013-.004-.028-.009-.01-.003-.022-.008-.011-.004-.03-.01-.007-.004a1.663 1.663 0 0 1-.062-.025l-.007-.003-.03-.012-.003-.002-.027-.012-.008-.004a1.896 1.896 0 0 1-.06-.03l-.004-.002-.03-.015-.004-.003a1.72 1.72 0 0 1-.057-.031l-.007-.005a2.238 2.238 0 0 1-.027-.016c-.325-.203-.483-.46-.473-.71l.011-.3c-.01.25.148.507.474.71l.026.016.008.005.056.031.005.003.029.016.004.001.03.015v.001l.03.014.009.004.026.012.004.002.03.012.006.003.03.013.007.002.024.01.012.004.027.01.01.004.022.008.01.003.029.01.012.003.02.007.02.006.02.006.015.004.027.008.012.003.019.005.014.003.028.007.019.005.01.002.03.007.017.003.017.004.013.002.03.007.016.002.018.003.02.004.025.004.012.002.046.006.02.003.012.001.038.005h.008l.074.008h.002c.163.013.327.013.487-.001a2.6 2.6 0 0 0 .378-.061l.005-.001.033-.009.006-.001.024-.007.006-.001.036-.01.031-.01.015-.005.017-.005.02-.006.013-.005.023-.008.013-.005.024-.01.009-.003.027-.01.006-.003.03-.012h.001a.911.911 0 0 0 .03-.014l.004-.002.03-.014.004-.002.027-.013.006-.003.028-.015.012-.006.01-.006.004-.002.008-.004c.074-.042.14-.088.197-.135v-.001a.785.785 0 0 0 .021-.018l.003-.002a.914.914 0 0 0 .15-.17l.001-.003.003-.003.004-.007.004-.006.002-.004.005-.008a.652.652 0 0 0 .016-.028l.002-.003a.702.702 0 0 0 .06-.166v-.003l.003-.009V45a.56.56 0 0 0 .008-.065l-.01.292-.001.01v.002l-.001.01a.672.672 0 0 1-.193.407l.011-.3-.011.3a1.143 1.143 0 0 1-.236.19l-.01.006-.005.002-.028.017-.006.004-.008.004-.004.002-.01.006-.012.006-.03.016-.002.001-.03.015h-.003c-.01.006-.019.01-.029.014l-.005.003-.03.013-.002.001-.031.013-.002.001-.03.012-.007.003-.028.01-.008.003-.026.01-.01.003-.025.008-.01.003-.025.008-.012.004-.018.005-.023.007-.019.004-.015.005-.02.005-.017.004-.016.004-.028.006-.01.003-.03.006-.009.002-.022.004-.02.004-.02.004-.015.002-.03.005-.01.002-.02.003-.023.003-.016.002-.022.003-.02.003-.023.002-.016.002-.024.002-.013.001h-.002l.011-.3z"/>
        <path fill="#FFF" d="M99.978 44.215c.646.403.628 1.02-.04 1.377-.67.357-1.736.32-2.382-.083-.647-.403-.63-1.02.04-1.377.668-.357 1.735-.32 2.382.083"/>
        <path fill="#C2D4DC" d="M99.71 45.45c-.54.288-1.399.258-1.92-.067a1.02 1.02 0 0 1-.224-.184c-.276-.308-.188-.688.257-.925.539-.288 1.399-.258 1.92.067.16.1.27.216.329.337.133.274.012.573-.362.772"/>
        <path fill="#E3EBF0" d="M99.71 45.45c-.54.288-1.399.258-1.92-.067a1.02 1.02 0 0 1-.224-.184c-.134-.274-.012-.573.361-.773.539-.288 1.398-.258 1.92.067.091.057.166.12.225.185.133.274.012.573-.362.772"/>
        <path fill="#ABA9A6" d="M99.806 45a.45.45 0 0 1-.407-.014.224.224 0 0 1-.048-.039c-.028-.058-.003-.121.077-.164a.45.45 0 0 1 .407.014c.02.012.035.026.047.04.029.057.003.121-.076.163"/>
        <path fill="#FF7A7F" d="M101.37 39.236l-.92 5.709c-.005.251-.177.497-.514.677-.507.271-1.244.314-1.852.144l-.27-6.654.27 6.654a2.053 2.053 0 0 1-.53-.227c-.327-.204-.484-.461-.474-.712l-.52-5.759 1.254.044 3.557.124z"/>
        <path fill="#2E2020" d="M101.58 39.277l-.001.017v.002c-.014.23-.117.52-.306.773l.022-.591-.022.592c-.127.17-.293.325-.498.434-.376.202-.835.322-1.313.364l.024-.658-.024.658a4.91 4.91 0 0 1-.047.004h-.004a2.29 2.29 0 0 1-.057.004h-.004l-.059.004h-.006l-.053.002h-.007l-.054.002h-.012a4.75 4.75 0 0 1-.114.001h-.065l-.012-.001-.05-.001h-.007l-.055-.003h-.014l-.05-.003h-.005a3.565 3.565 0 0 1-.057-.005h-.01a6.322 6.322 0 0 1-.054-.005l-.012-.001-.044-.004-.016-.002-.054-.006h-.005l-.05-.007-.014-.002-.052-.007-.011-.002a5.388 5.388 0 0 1-.111-.018l-.01-.002a4.542 4.542 0 0 1-.11-.02l-.012-.003-.053-.011-.007-.002a4.273 4.273 0 0 1-.05-.011l-.007-.002a6.011 6.011 0 0 1-.055-.014h-.005a3.202 3.202 0 0 1-.113-.03l-.003-.003a3.163 3.163 0 0 1-.795-.345 1.906 1.906 0 0 1-.487-.42l-.014-.016a1.509 1.509 0 0 1-.095-.141l-.01-.018a1.013 1.013 0 0 1-.019-.035l-.009-.018a.868.868 0 0 1-.017-.036l-.008-.018-.007-.018-.007-.018-.007-.019-.006-.018-.006-.018-.006-.018-.005-.018-.005-.019-.004-.018-.004-.018a.741.741 0 0 1-.007-.037l-.003-.018-.003-.018-.002-.018-.001-.019-.002-.018-.001-.018v-.073l.024-.659v.073l.001.019.002.018.001.018.003.019.002.018.003.018.003.018.004.019.004.018.005.018.004.019.005.018.012.036.006.018.007.018.015.037.008.018.008.018.008.018.028.053.01.018a1.51 1.51 0 0 0 .082.123l.014.017.041.052.015.017c.114.13.262.255.444.368l.046.028.003.001.046.028h.002c.015.01.03.017.046.026l.004.002.046.024.007.004.096.047.006.002c.032.016.066.03.1.045l.005.002.104.042.004.001.053.02h.003c.036.014.072.026.108.038l.006.002c.035.011.07.022.107.032l.01.003.052.015.006.001c.016.005.033.01.05.013l.007.002.056.014h.001l.057.014h.003l.053.012.014.003.05.01h.004l.055.01.01.002.054.01h.007l.051.008.01.002.056.008h.005l.056.007h.004l.058.007.007.001.05.005.012.001.05.004.015.001.055.004h.004l.057.003h.005l.058.003h.007l.057.002H99.06l.01.001h.114l.012-.001c.038 0 .077-.002.115-.004h.005l.06-.003h.002l.06-.005h.002l.047-.004a3.86 3.86 0 0 0 .196-.022h.003l.055-.008.01-.001a3.11 3.11 0 0 0 .048-.008l.015-.002.044-.008.017-.003.043-.009.016-.003.043-.008.015-.004.046-.01.013-.003.048-.012.007-.001.046-.012.016-.004.042-.012.012-.003.048-.014.008-.003.048-.015.008-.003.05-.016h.002l.049-.018.007-.003.05-.019h.002l.05-.02.007-.003.047-.02h.002l.048-.021.005-.003.047-.022.003-.001.098-.05.024-.013a1.77 1.77 0 0 0 .046-.026h.001c.172-.1.313-.21.424-.33l.01-.01h.001c.16-.177.255-.369.283-.565V38.9a.918.918 0 0 0 .007-.07v-.02l-.017.466z"/>
        <path fill="#605252" d="M100.863 37.708c1.004.626.976 1.583-.063 2.138-1.039.555-2.695.497-3.7-.13-1.004-.625-.976-1.583.063-2.137 1.039-.555 2.695-.497 3.7.129"/>
        <path fill="#2E2020" d="M101.272 38.346v.004a.76.76 0 0 1-.004.052v.002l-.002.012v.007l-.001.005-.001.006-.003.013v.005l-.003.015v.002l-.002.008-.001.003-.003.015v.003l-.003.007-.001.006-.003.011-.002.006-.004.014v.002l-.003.009-.006.018v.002l-.016.04-.003.007-.005.013-.002.004-.002.005-.003.007-.006.013-.002.002-.005.012-.004.007-.002.004-.004.009-.005.008-.005.009-.001.003-.007.012-.003.006-.003.005-.006.009-.005.008-.003.006-.007.01-.004.005-.006.01-.001.001-.01.013v.002l-.009.012-.003.005a2.244 2.244 0 0 1-.018.023l-.004.006-.008.01-.003.004a.794.794 0 0 1-.021.025l-.002.002-.011.013-.012.012-.002.002-.008.01c-.04.042-.085.084-.134.124v.001l-.016.012a3.125 3.125 0 0 1-.067.05l-.002.002-.033.023-.006.004-.01.006-.005.004-.017.011-.001.001-.017.01-.002.002-.019.011-.001.001-.017.01-.004.003-.015.008-.005.004-.016.009-.003.001-.017.01-.004.002-.02.01c-.013.007-.026.015-.04.021l-.003.002-.04.02-.005.002a1.83 1.83 0 0 1-.039.018l-.007.003-.037.017-.007.003a2.97 2.97 0 0 1-.04.016l-.004.003-.04.016-.008.002-.041.016-.006.002-.039.014-.011.003-.036.012-.008.003a3.355 3.355 0 0 1-.042.013l-.009.003-.04.012-.01.002a3.946 3.946 0 0 1-.04.011l-.01.003-.038.01-.013.003-.036.009-.015.003a4.052 4.052 0 0 1-.04.01l-.01.001-.04.009-.013.002-.036.007-.016.003-.04.007-.01.002-.045.007h-.007l-.045.007-.009.001a2.127 2.127 0 0 1-.041.006l-.011.001-.041.005-.015.001a4.195 4.195 0 0 1-.043.004l-.008.001-.008.001-.015.405a3.909 3.909 0 0 1-.17.011h-.007a3.804 3.804 0 0 1-.162.004H99.03l-.054-.002h-.012l-.042-.001-.022-.001-.027-.002h-.02l-.03-.003-.034-.002-.02-.002-.03-.002-.027-.003-.03-.002-.018-.002-.044-.005-.01-.001-.036-.005-.015-.002-.042-.006-.019-.003-.033-.005-.01-.001a1.93 1.93 0 0 1-.044-.008l-.017-.003-.043-.008h-.005l-.043-.01h-.009a5.439 5.439 0 0 1-.048-.011l-.004-.001-.047-.011h-.003a2.678 2.678 0 0 1-.047-.012l-.01-.003-.037-.01-.01-.002a1.986 1.986 0 0 1-.045-.013l-.007-.002a2.373 2.373 0 0 1-.046-.014h-.002l-.045-.014-.006-.002a5.5 5.5 0 0 1-.047-.016h-.001a3.812 3.812 0 0 1-.044-.016l-.006-.002a1.988 1.988 0 0 1-.044-.016l-.005-.002a2.603 2.603 0 0 1-.09-.036l-.005-.002a3.098 3.098 0 0 1-.084-.038l-.009-.004a1.998 1.998 0 0 1-.04-.019l-.003-.001a1.735 1.735 0 0 1-.04-.02l-.004-.002-.04-.02-.007-.005a2.338 2.338 0 0 1-.033-.019l-.007-.003a2.16 2.16 0 0 1-.036-.021l-.009-.005a1.52 1.52 0 0 1-.037-.023c-.44-.274-.652-.621-.639-.96l.015-.405c-.012.339.2.686.64.96l.037.022.008.005.036.022.007.003.031.018.011.006.037.019.008.004.033.017.009.004.035.017.015.007.03.013.016.007.03.014.017.006.033.014.016.006.028.011.017.007.036.013.016.006.024.008.021.007.033.011.02.007.022.007.034.01.021.006.023.007.024.007.032.008.02.006.025.006.034.008.02.005.026.006.03.007.026.005.022.005.026.005.031.006.024.004.023.005.029.004.028.005.027.004.02.003.038.005.022.003.027.004.018.002.041.005.02.001.028.003.024.002.037.003.015.002.045.003h.01l.034.002.023.001.022.001.037.002h.045l.043.001h.125l.038-.002h.016l.037-.002h.014l.044-.003h.013l.034-.003.017-.001.036-.003-.015.405.028-.003.024-.002.025-.002.027-.004.028-.003.03-.004.022-.003.034-.005.012-.001.04-.007.016-.002.034-.006.019-.004.032-.006.02-.004.034-.007.013-.003.038-.008.015-.003.04-.01.01-.003.04-.01.005-.002.042-.011.01-.003.043-.012.006-.002.04-.012.012-.005.037-.012.008-.003.042-.014.003-.002.044-.016.005-.002c.014-.005.028-.01.042-.017h.003a3.43 3.43 0 0 0 .042-.018l.003-.002.041-.018.005-.002a2.38 2.38 0 0 0 .04-.019l.004-.002.041-.02a1.87 1.87 0 0 0 .043-.022l.02-.011.002-.001.017-.01.005-.002.037-.022.002-.001.056-.035h.001a1.69 1.69 0 0 0 .072-.049h.001l.033-.025h.001l.015-.012.005-.004.008-.006.011-.009.002-.002.016-.012.002-.002c.046-.038.087-.077.125-.118.078-.083.139-.17.182-.261l.002-.004c.01-.02.018-.04.026-.06v-.002a.748.748 0 0 0 .01-.026l.001-.003.004-.012.002-.007.002-.005.003-.012v-.002a.768.768 0 0 0 .008-.027l.002-.007.002-.01v-.002l.004-.014.002-.014.001-.004.002-.012v-.005l.002-.01.001-.004.002-.012v-.004l.001-.012v-.005l.002-.01v-.016l.001-.005v-.013l.016-.405z"/>
        <path fill="#605252" d="M100.633 37.387c.874.544.849 1.377-.054 1.86-.904.482-2.344.432-3.217-.113-.874-.545-.85-1.377.054-1.86.903-.482 2.343-.432 3.217.113"/>
        <path fill="#2E2020" d="M100.272 39.055c-.728.389-1.89.348-2.593-.09a1.38 1.38 0 0 1-.303-.25c-.372-.416-.254-.928.346-1.25.729-.388 1.89-.348 2.594.091.216.135.364.292.444.456.18.369.016.774-.488 1.043"/>
        <path fill="#605252" d="M100.272 39.055c-.728.389-1.89.348-2.593-.09a1.38 1.38 0 0 1-.303-.25c-.182-.37-.017-.774.488-1.044.727-.389 1.888-.348 2.592.09.124.078.225.162.304.25.18.37.016.775-.488 1.044"/>
        <path fill="#2E2020" d="M99.883 38.357a.299.299 0 0 0-.066.047.275.275 0 0 1-.03-.029c-.039-.078-.004-.164.103-.221a.607.607 0 0 1 .55.019.29.29 0 0 1 .064.053c.03.059.016.122-.037.174a.374.374 0 0 0-.034-.024.607.607 0 0 0-.55-.019"/>
        <path fill="#555356" d="M99.851 38.428a.319.319 0 0 1-.034-.024.298.298 0 0 1 .066-.047.608.608 0 0 1 .55.02.37.37 0 0 1 .034.023.29.29 0 0 1-.066.047.608.608 0 0 1-.55-.019"/>
        <path fill="#FF595F" d="M104.775 46.586l13.48 8.404 9.347-4.959.032-.897-13.456-7.451-9.372 4.006z"/>
        <path fill="#FF7A7F" d="M104.806 45.689l13.48 8.404 9.348-4.959-13.425-8.348z"/>
        <path fill="#F1F2EC" d="M118.5 54.14l-.021.598 9.128-4.842.021-.599z"/>
        <path fill="#231916" d="M110.884 47.31l.049-.029-.049.03V47.274l.001-.005v-.001l.002-.005.002-.005.002-.006v-.001l.004-.007v-.001l.002-.002v-.001h.001v-.001h.001v-.001h.001v-.001h.001v-.001l.001-.001v-.001h.001v-.001h.001l.001-.001.001-.001h.001v-.001l.003-.002a.022.022 0 0 1 .004-.003l.049-.029h-.001v.001h-.002v.001h-.001v.001h-.001l-.001.001h-.001v.001h-.001v.001h-.001v.001h-.001v.001h-.001v.001h-.001v.001h-.001v.001l-.001.001-.001.001v.001h-.001l-.002.003v.001h-.001a.064.064 0 0 0-.006.013v.001l-.002.005v.001a.04.04 0 0 0-.002.006v.005l-.001.005v.008l-.001.002V47.281l.04.382v.005l.001.006V47.7l-.001.005v.003l-.002.004v.001l-.001.006v.001l-.003.007-.003.007-.005.01-.001.001-.002.003v.001h-.001v.001l-.002.002v.001h-.001v.001l-.002.001a.063.063 0 0 1-.014.012l-.048.028h.002v-.001h.001l.004-.003.002-.002.003-.003a.025.025 0 0 0 .003-.003l.001-.002h.001v-.001l.001-.001v-.001h.001v-.001h.001v-.001l.002-.003a.417.417 0 0 0 .01-.024l.002-.007.002-.007v-.006l.001-.006v-.006-.007-.006-.012l.048-.03-.049.03-.039-.382z"/>
        <path fill="#58595B" d="M110.984 46.985l-.015-.01-.001-.001h-.001l-.002-.002-.008-.005h-.001v-.001h-.002v-.001h-.001l-.001-.001h-.001v-.001h-.001l-.002-.001-.003-.002-.003-.002a.282.282 0 0 0-.01-.005h-.001v-.001h-.002v-.001h-.002v-.001h-.002v-.001h-.001l-.003-.002h-.002v-.001h-.003v-.001h-.002v-.001h-.002v-.001h-.002v-.001h-.002l-.001-.001h-.001l-.003-.002h-.003v-.001h-.003v-.001h-.002l-.001-.001h-.001l-.003-.001h-.001v-.001h-.003v-.001h-.003v-.001h-.003v-.001h-.003l-.001-.001h-.003l-.001-.001h-.002v-.001h-.004v-.001h-.004l-.001-.001h-.003v-.001h-.005l-.004-.001-.002-.001h-.006v-.001h-.003-.006v-.001h-.017l-.001-.001H110.795v.001h-.007l-.001.001h-.006v.001h-.005v.001h-.004l-.001.001h-.003v.001h-.003l-.001.001h-.002l-.001.001h-.002l-.003.002c-.002 0-.003 0-.005.002h-.003v.001h-.002v.001h-.002v.001h-.002v.001h-.002v.001h-.001l-.003.002h-.001l-.001.001.047-.028.002-.002h.003l.002-.002.006-.003h.002v-.001h.002v-.001h.002l.001-.001h.001l.001-.001h.003V46.9h.002l.001-.001h.002l.001-.001h.003v-.001h.003l.002-.001h.003v-.001h.005v-.001h.004l.001-.001h.007l.001-.001H110.853v-.001H110.882v.001h.008l.001.001h.005v.001h.006v.001h.005v.001h.004v.001h.004v.001h.004v.001h.004v.001h.003v.001h.003v.001h.003v.001h.003l.002.001h.001v.001h.003v.001h.003v.001h.002v.001h.001a.494.494 0 0 0 .024.01l.012.006.008.005h.002v.001h.002l.012.008.003.002h.001l.001.001.002.001v.001h.002v.001h.001l.002.002h.001l.014.01 2.95 1.768-.048.03-2.95-1.769z"/>
        <path fill="#3E3A39" d="M110.942 46.958a.473.473 0 0 1 .043.027l2.95 1.768.004.397-2.926-1.903a.17.17 0 0 0-.022-.014c-.063-.036-.115-.002-.107.077l.04.382c.01.096-.053.14-.133.096a.295.295 0 0 1-.138-.23l-.004-.427c-.002-.19.132-.263.293-.173"/>
        <path fill="#231916" d="M116.866 43.716l-.011-.013-.048.029.004.003-.001.001h-.001v.001h-.002v.001l-.003.003h-.001v.001h-.001l-.001.002h-.001v.001h-.001v.001h-.001v.001h-.001v.002h-.001v.001h-.001v.001h-.001v.001l-.001.002.073-.038zm-.03.084l.04.382v.037l-.001.007-.002.006-.001.007-.003.007-.003.008-.005.009v.002h-.001v.001h-.001v.001l-.001.001v.001h-.001v.001h-.001v.001h-.001v.001l-.001.001-.001.001h-.001v.001l-.001.001-.001.001v.001h-.001l-.001.001h-.001v.001l-.002.001v.001h-.002v.001h-.001v.001h-.001v.001h-.002v.001l-.025.015-.024.014h.001l.001-.002h.002l.001-.001v-.001h.001l.001-.001h.001v-.001h.001v-.001h.001v-.001h.001v-.001h.001v-.001h.001v-.001h.001v-.001l.001-.001.001-.001.001-.001.001-.002h.001v-.001l.001-.001v-.001h.001v-.001l.001-.001v-.001a.066.066 0 0 0 .006-.01l.003-.007.002-.006v-.001l.002-.007v-.007l.002-.006v-.012-.006-.007-.012l.048-.029-.048.03-.04-.382v-.036l.002-.005.001-.005.002-.006.002-.006-.001-.018c.008-.004.065-.037.05-.012l-.002.007-.002.005-.001.004v.004l-.001.001v.002l-.001.005V43.8z"/>
        <path fill="#58595B" d="M116.936 43.475l2.95 1.768-.048.03-2.95-1.768-.001-.001h-.001v-.001h-.002v-.001h-.001V43.5h-.001V43.5h-.002v-.001l-.002-.001-.004-.003h-.001l-.001-.001h-.001v-.001h-.001v-.001h-.002v-.001h-.001l-.001-.001h-.001v-.001h-.001l-.001-.001h-.001l-.001-.001h-.001v-.001h-.001l-.001-.001h-.001v-.001h-.002v-.001h-.002v-.001h-.001v-.001h-.002v-.001h-.002v-.001l-.003-.001.018-.011.031-.019.003.002.004.003h.002v.001h.002v.001h.001l.001.001h.001v.001h.002v.001h.001l.001.001h.001v.001h.001v.001h.002v.001h.001l.001.001h.001v.001h.002v.001h.001v.001h.002v.001h.001v.001h.002v.001h.001v.001h.001v.001h.002v.001h.002v.001l.002.002h.001zm-.051-.031l.01.004-.026.015-.024.015-.009-.005-.001-.001h-.002v-.001h-.002v-.001h-.002v-.001h-.001l-.004-.002h-.001v-.001h-.002v-.001h-.002v-.001h-.003l-.004-.003h-.002l-.001-.001h-.001l-.001-.001h-.002l-.001-.001-.003-.001-.003-.001h-.001v-.001h-.003v-.001h-.003v-.001h-.002v-.001h-.004v-.001h-.002l-.001-.001h-.003v-.001h-.004v-.001h-.004v-.001h-.003v-.001h-.004a.163.163 0 0 0-.012-.003l-.005-.001h-.005v-.001H116.73v-.001H116.696l-.009.001-.003.001-.005.001-.015.004-.006.002a.144.144 0 0 0-.021.01l.046-.028h.001l.001-.001h.002v-.001h.001l.001-.001h.001v-.001h.002v-.001h.002v-.001h.002v-.001h.001l.005-.002.005-.002h.002l.001-.001h.002v-.001h.002l.002-.001h.001a.116.116 0 0 1 .01-.003h.004l.001-.001h.006v-.001h.007l.001-.001H116.789l.004.001h.004l.001.001h.005v.001h.005l.002.001h.001l.002.001h.004v.001h.004v.001h.003v.001h.004v.001h.003v.001h.004v.001h.001l.002.001h.002l.001.001h.002v.001h.003v.001h.003v.001h.002v.001h.003v.001h.002v.001h.003v.001h.002v.001h.002v.001h.003v.001h.002v.001h.002v.001h.002v.001h.002v.001h.002v.001h.002v.001h.001l.007.004z"/>
        <path fill="#3E3A39" d="M116.845 43.478a.423.423 0 0 1 .042.027l2.951 1.768.005.396-2.927-1.902a.156.156 0 0 0-.022-.015c-.063-.035-.115-.002-.107.078l.04.381c.01.097-.053.141-.133.096a.294.294 0 0 1-.137-.23l-.005-.426c-.002-.19.132-.263.293-.173M117.38 48.026l.002.004.003.004.003.004.003.005.005.008.004.004v.001l.003.004.004.006.004.004.005.007.002.004.006.007.002.003.006.007v.002h.001l.001.001.006.008.002.002.006.007.003.004.006.006.003.003.006.008h.001l.001.002.008.008.008.009h.001l.008.008.003.003.008.007v.001l.008.007.003.003.008.007h.001l.009.008.001.001.008.007.003.001a.31.31 0 0 0 .008.007h.002l.01.008.01.007a.198.198 0 0 0 .01.007h.001a.337.337 0 0 0 .01.007h.002a.363.363 0 0 0 .01.007l.094.053a.676.676 0 0 1-.153-.13v-.001l-.008-.01-.008-.01-.009-.01v-.002l-.015-.02h-.001l-.006-.009-.002-.001v-.001l-.006-.01h-.001v-.001l-.006-.008-.001-.002-.002-.002-.005-.008-.002-.002-.005-.009-.001-.002-.005-.008-.002-.002v-.002l-.006-.008-.001-.002-.001-.002-.004-.006v-.002h-.001l-.001-.002-.002-.002-.002-.005-.001-.002-.001-.002-.001-.002-.003-.004v-.002h-.001l-.001-.002-.001-.002-.001-.002-.002-.002v-.002l-.003-.004-.001-.002-.001-.002-.001-.002-.001-.002-.001-.002-.002-.002v-.002l-.002-.002v-.003h-.001v-.002l-.002-.002-.002-.004-.001-.002-.002-.004-.001-.002-.001-.002-.001-.002-.001-.002-.001-.002-.001-.002-.001-.002-.001-.002-.001-.002-.001-.002-.001-.002-.001-.002-.001-.002-.002-.003-.001-.004-.001-.002-.001-.002-.001-.002-.001-.002-.002-.002v-.002l-.001-.002-.001-.002-.001-.003-.001-.002-.001-.002-.001-.002-.001-.002-.001-.002v-.002l-.002-.002V47.9l-.002-.002v-.002l-.002-.002v-.002l-.001-.002-.001-.002v-.002h-.001v-.002l-.002-.002-.002-.004v-.003l-.001-.001-.003-.006v-.003l-.001-.001-.001-.002-.001-.002v-.002l-.001-.002-.001-.001-.001-.003-.001-.002v-.002l-.001-.001-.001-.002v-.002l-.002-.002v-.002l-.001-.002v-.001h-.001v-.002l-.002-.002v-.004l-.001-.001-.001-.003-.001-.001-.002-.005v-.002l-.001-.002v-.002l-.002-.002v-.002l-.001-.002-.001-.002v-.002l-.002-.002v-.002l-.001-.002v-.002l-.001-.002v-.001h-.001v-.003l-.002-.002v-.001l-.001-.004-.001-.002v-.002l-.002-.002v-.003l-.001-.002-.001-.002v-.002l-.001-.002v-.001l-.001-.002-.026-.07v-.001l-.001-.002v-.002h-.001v-.001l-.001-.002v-.002l-.002-.004v-.002l-.001-.003-.001-.001v-.002l-.001-.001v-.003l-.001-.002v-.001l-.001-.002-.001-.001v-.003l-.001-.001v-.002l-.001-.002v-.001l-.001-.001v-.002l-.001-.001v-.002h-.001v-.003h-.001v-.004h-.001v-.002h-.001v-.003l-.1-.056c0 .003.002.005.003.007v.002l.002.007.002.005.006.02.002.005.003.007.001.005v.002h.001v.001l.001.002v.002l.001.002v.001l.001.002.001.002v.002l.001.001v.002l.001.002.001.002v.002l.001.002.001.002v.001l.002.002.002.006v.002l.001.002v.001l.001.001v.002l.001.002.001.002v.002l.002.002v.002l.001.002.026.07.001.003v.002l.002.002v.001l.001.002v.002l.001.002.001.002v.002h.001v.002l.004.007v.002l.001.002.001.002v.002l.002.001v.002l.001.002v.002l.002.002v.002l.001.001v.001l.001.002.001.002v.002l.002.002v.002l.001.002.001.002.001.002.001.002v.002l.002.002v.002l.001.002.001.002.001.002.001.002.001.002.001.002v.002l.003.004v.003l.002.002v.002l.003.004v.002l.002.002v.002l.002.004.001.002.001.002.001.003.005.008v.002l.003.004.099.056-.1-.056.002.002v.002l.002.002v.002l.002.002v.003l.002.002v.001l.002.002v.002l.002.002v.003l.002.002.001.002.001.002.001.002.001.002.001.002.001.002.001.002.002.002v.002l.002.002v.002l.002.002.001.002.001.002.001.002.001.002.002.002v.002l.002.003v.002l.002.002.001.002.002.002.002.004.001.002.001.002.001.002.003.004.001.002.001.002.002.002v.002l.003.004.002.002V48l.002.002.003.005v.002l.002.002.001.002.004.005.002.003v.002l.004.004zM114.748 50.015l-.099-.056h-.004l-.003-.001.106.057zm-.08-.032l.036.02.003.002-.04-.022zm.048.025l.032.007-.032-.007zm-.012-.004l-.036-.02-.001-.002h-.001l-.001-.001h-.001l-.003-.003-.002-.002-.002-.002-.002-.002-.002-.002-.002-.002v-.001l-.002-.001-.002-.003h-.001l-.001-.002-.002-.002-.001-.001-.001-.002-.002-.002-.001-.002h-.001l-.002-.003-.002-.002-.003-.004v-.001l-.002-.002-.002-.002-.001-.002-.001-.001-.001-.002-.001-.001-.001-.002-.001-.001-.001-.002-.001-.002-.001-.001-.001-.002-.001-.001-.001-.001v-.001l-.001-.001-.001-.002-.001-.001-.001-.002-.001-.002h-.001v-.002l-.001-.001-.001-.001v-.001l-.001-.001-.001-.001v-.001l-.001-.002h-.001v-.002h-.001l-.001-.002v-.001l-.001-.001-.001-.001v-.001l-.001-.002h-.001v-.002l-.001-.001-.001-.001v-.002h-.001l-.001-.002v-.001l-.001-.001-.001-.001v-.002h-.001v-.002l-.002-.001v-.003l-.004-.006-.001-.002-.004-.007-.005-.011a.903.903 0 0 1-.019-.039l-.002-.006v-.002h-.001l-.005-.01v-.002l-.001-.003-.001-.001v-.002l-.001-.002-.001-.001v-.002l-.001-.001v-.002l-.001-.001-.001-.002v-.001l-.002-.002v-.002l-.002-.003v-.003l-.001-.002v-.001l-.002-.002v-.003l-.001-.001-.001-.002v-.001l-.001-.002v-.002l-.001-.001v-.002l-.001-.001-.001-.002-.002-.004v-.003l-.001-.002-.001-.001v-.002l-.001-.001v-.002l-.001-.002v-.001l-.001-.002-.001-.001v-.002l-.001-.001v-.002l-.001-.002v-.001l-.001-.002v-.001l-.001-.002-.001-.001V49.7l-.001-.001v-.002l-.001-.002v-.001l-.001-.002v-.001l-.001-.002v-.001l-.001-.002v-.001l-.001-.002v-.002l-.001-.001v-.002l-.001-.001v-.002l-.001-.001v-.002l-.001-.002-.001-.001v-.002l-.001-.001v-.002l-.001-.002v-.003l-.001-.001-.001-.002v-.003l-.001-.001v-.002l-.001-.001v-.002l-.001-.002v-.001l-.001-.002v-.001a1.356 1.356 0 0 1-.02-.072l-.006-.027v-.001l-.001-.002v-.001l-.001-.004v-.003l-.001-.002v-.003l-.001-.001v-.003l-.001-.001v-.005h-.001v-.003l-.001-.006-.004-.022v-.001l-.004-.02v-.003l-.001-.005v-.002l-.001-.004-.001-.004v-.004l-.002-.01-.002-.011v-.006l-.003-.017-.003-.016-.005-.044v-.005l-.001-.001v-.005l-.001-.002V49.316l-.001-.004v-.003l-.001-.002V49.298l-.001-.002V49.287h-.001v-.008l-.001-.001V49.267l-.001-.002V49.254l-.001-.002V49.242l-.001-.002v-.012l-.001-.001V49.212h-.001v-.002l-.1-.056.001.006v.011l.001.001v.011l.001.007v.001l.001.013.002.023.1.055-.1-.055v.004l.001.002v.008h.001V49.25l.001.001v.01l.001.001v.006l.001.001V49.278l.001.001v.005l.001.002v.007l.001.002v.008l.001.001v.005l.001.002v.004l.001.002.001.01.1.055-.1-.056.012.078v.004l.001.002v.004l.001.002v.004l.001.002v.004l.001.002v.003l.001.003v.003l.001.002v.002l.001.002v.004l.001.002v.002l.002.006a.893.893 0 0 0 .01.05v.002l.002.005.099.055-.1-.055h.001v.005h.001v.003l.001.002v.002l.001.001v.004l.001.001v.002h.001v.004l.001.002v.001l.001.001v.002l.001.002v.003h.001v.005h.001v.002l.001.001v.003l.001.001v.003l.001.001v.001l.001.002v.002l.001.001v.002l.001.002v.002l.001.002v.001l.001.002v.002l.001.001v.002l.001.001v.002l.001.002v.002l.001.002v.001l.001.002.001.002v.003l.001.001v.002l.001.001v.002l.001.002v.001l.001.001v.002l.001.002.001.001v.002l.001.001v.002l.001.002v.003l.001.001.001.002v.001l.022.06.1.057-.1-.056.001.002v.001l.002.003v.002l.001.001v.002l.001.002.002.004.001.002v.002l.002.004.001.002v.001l.003.005v.001l.001.002v.001l.001.002v.001l.002.002v.003l.002.002v.003l.002.001v.003l.002.002v.003l.001.001.001.002v.001l.002.002v.003l.002.001v.003l.002.001v.001l.003.007v.001l.005.009v.001l.002.004.1.056-.1-.056.006.01v.001l.003.007.001.001v.002h.001l.001.002v.001l.001.002h.001v.002l.001.001v.001l.002.002.002.003v.001l.001.002.001.002v.001l.002.001v.002l.002.002v.002l.002.002v.001l.001.002h.001v.002h.001l.001.002.001.002.001.001v.001l.001.001v.001h.001v.002h.001l.001.002.001.002h.001v.002h.001l.001.002.001.002.1.056-.1-.056.001.002.002.003.001.001.002.002v.001l.003.003.003.005.001.001.001.002.001.001.001.001.001.002.001.001.001.002h.001l.002.004h.001l.001.002.003.003.002.002v.001l.002.001v.002h.002l.002.003v.001l.002.001.002.002.001.001.001.002.002.001.001.001.001.002.002.001.001.001.002.001v.001h.002l.002.002v.001l.002.001.002.002.004.002v.001h.002l.002.002.017.01h-.001l-.005-.003h-.001l-.01-.004.1.055.008.004.015.006zm-.565-.733l-.099-.056.002.001v.001h.002l.001.002h.002l.001.001.003.002h.001l.001.001.003.002h.001l.002.002.002.001.002.001.001.001.002.002.003.002.002.001h.001l.003.003.002.002h.001l.002.002a.29.29 0 0 1 .008.006l.002.002h.001a.298.298 0 0 1 .042.043l.004.006.002.003h.001v.002l.002.002.002.002v.002l.003.003.001.002.1.056-.1-.056.001.001v.001h.001v.001l.001.001v.001h.001v.001l.001.001v.001h.001v.001l.001.002.001.001v.001h.001v.002h.001v.001l.001.001v.001l.001.001.003.005.002.004v.001l.002.003v.002h.001v.001l.001.001v.001l.001.001v.001l.001.002.001.001v.002l.001.001v.001l.002.003v.002h.001v.002h.001v.003h.001v.002h.001v.002l.001.001.001.003.002.003a.372.372 0 0 0 .004.012l.003.009v.001l.002.005.001.003.1.056-.1-.056v.003h.001v.004h.001v.003l.001.001v.003h.001v.002l.001.001v.003l.001.001v.003h.001l.001.004v.003h.001v.003l.022.07.099.056-.1-.055.032.095.001.003v.002l.002.003v.002l.002.003v.002l.002.003.001.005.001.002.001.003.002.005.001.002v.003l.002.003.004.01v.003l.002.002.099.056-.1-.056.002.004.001.002v.002l.001.002.001.002.001.002v.002l.002.002v.002l.001.002.001.002v.001l.001.002.001.002.001.002.001.002v.002l.002.002.001.004.001.002v.002l.002.002v.002l.001.002v.002h.001l.001.002v.002l.002.002v.002l.002.002v.002l.001.002.001.002v.002l.002.002v.002l.002.002.001.004.001.002.001.002.001.002.001.002.002.004v.002l.002.002v.002l.001.002.001.002.001.001.001.003.005.01.005.01.001.003.007.013v.002l.006.01.007.012v.002l.006.01v.001h.001v.002l.006.009v.002h.001v.001l.006.009.001.002v.001a1.16 1.16 0 0 0 .055.08v.001a.423.423 0 0 0 .072.078.37.37 0 0 0 .062.044l.1.055a.274.274 0 0 1-.022-.013l-.01-.007-.01-.007a.578.578 0 0 1-.127-.143 1.096 1.096 0 0 1-.097-.185l-.005-.012v-.002l-.005-.01v-.002l-.01-.025-.001-.002-.004-.01v-.001a1.73 1.73 0 0 1-.021-.06h-.001l-.008-.023v-.003l-.002-.004-.001-.003v-.002l-.001-.002-.003-.007v-.002l-.001-.002v-.003l-.001-.002-.001-.002v-.002l-.002-.002v-.005l-.002-.002v-.004l-.002-.002v-.004l-.001-.001v-.002l-.001-.002v-.002l-.001-.002-.005-.016-.001-.002-.002-.006v-.004l-.001-.002v-.001l-.001-.002-.001-.002-.001-.003v-.002l-.001-.002v-.002l-.001-.002v-.001l-.001-.002v-.002l-.001-.001-.002-.005v-.005l-.001-.002v-.001l-.001-.002v-.003l-.001-.001v-.002h-.001v-.002l-.001-.002v-.002l-.001-.002v-.002l-.001-.001v-.002l-.001-.002v-.001l-.001-.001v-.004h-.001v-.002l-.001-.002v-.002l-.002-.003v-.003l-.001-.002v-.001h-.001l-.001-.004a.276.276 0 0 0-.017-.043l-.002-.003v-.002h-.001v-.002l-.001-.001v-.001h-.001v-.001l-.001-.001V49.4l-.001-.001v-.002h-.001v-.001l-.001-.001v-.002h-.001v-.001h-.001v-.001l-.001-.002v-.001h-.001v-.001l-.001-.001v-.001l-.001-.001v-.001h-.001v-.001l-.001-.001v-.001l-.001-.001v-.001h-.001v-.001l-.004-.006a.207.207 0 0 0-.008-.012l-.002-.002-.003-.004-.002-.002-.001-.002-.002-.002v-.001l-.001-.001-.002-.002-.002-.002v-.001h-.001l-.002-.003-.002-.002v-.001h-.001l-.002-.002-.002-.002-.001-.002-.002-.002-.002-.001-.001-.002-.002-.002h-.001v-.002l-.002-.001-.002-.002h-.001l-.001-.001-.002-.002-.002-.001v-.001h-.001l-.002-.002-.002-.002v-.001h-.001l-.002-.002-.002-.001-.001-.001-.002-.002h-.001l-.001-.001-.002-.002-.002-.001-.001-.001-.002-.002h-.002v-.001l-.002-.001-.001-.001-.002-.002h-.001l-.003-.002-.001-.001a.247.247 0 0 0-.01-.007h-.002l-.007-.005h-.002l-.002-.002z"/>
        <path fill="#FFFCFC" d="M114.838 50.02a.61.61 0 0 0 .094-.008.933.933 0 0 0 .183-.043 1.738 1.738 0 0 0 .299-.125 2.372 2.372 0 0 0 .14-.077l.016-.01a2.341 2.341 0 0 0 .216-.146 1.64 1.64 0 0 0 .125-.101 1.881 1.881 0 0 0 .223-.228c.004-.007.053-.068.122-.207a2.342 2.342 0 0 0 .107-.248 3.63 3.63 0 0 0 .124-.38l.007-.025a2.86 2.86 0 0 0 .055-.254 1.147 1.147 0 0 0 .009-.077.819.819 0 0 0 .003-.087c-.004-.218-.106-.231-.12-.245l-.002-.001c-.005-.005-.014-.015-.038-.021h-.003c-.002-.002-.004-.002-.007-.003a.211.211 0 0 0-.035-.002c-.108.002-.359.068-.967.382l-.024.013c-.058.03-.114.061-.166.093-.396.235-.652.49-.729.64l-.007.017a.673.673 0 0 0-.042.274v.015c.003.104.018.221.04.34.027.153.105.363.181.452.009.01.017.019.026.025a.092.092 0 0 0 .026.015.299.299 0 0 0 .093.02l.045.002h.006zm.538-1.688l-.023.011.023-.011zm.096-.047l-.04.019.039-.019zm.072-.035a7.236 7.236 0 0 1-.037.017l.036-.017zm.055-.026l-.021.01.021-.01zm.145-.065l-.016.007.016-.007zm.184-.073a.545.545 0 0 0-.018.007l.018-.007z"/>
        <path fill="#BCBCBA" d="M114.322 49.1V49.134l.001.001v.02l.1.056V49.19l-.001-.002V49.168l-.001-.014-.09-.05-.005-.003h-.001l-.003-.002z"/>
        <path fill="#C4C5C3" d="M114.422 49.078l-.1-.056v.035l.099.056V49.078z"/>
        <path fill="#C0C0BE" d="M114.42 49.113l-.098-.055V49.099l.099.056v-.003-.039"/>
        <path fill="#BCBCBA" d="M114.42 49.155l-.098-.056.099.056z"/>
        <path fill="#19261D" d="M117.59 47.795a.849.849 0 0 1-.087-.35c-.003-.219.096-.352.11-.383.021-.046.09-.249 1.042-.89.067-.044.13-.084.191-.12.41-.244.674-.29.743-.222.033.032.048.112.05.22.002.109-.009.247-.027.397-.026.221-.123.612-.208.75-.177.287-.524.595-.856.792-.219.13-.431.212-.584.207-.009-.001-.19-.012-.374-.401m-3.13 1.714a2.242 2.242 0 0 1-.04-.358.672.672 0 0 1 .043-.274c.065-.148.325-.413.736-.657.06-.036.124-.072.19-.106.956-.494 1.03-.375 1.051-.355.015.014.117.028.121.245.002.1-.017.242-.074.446-.166.597-.344.822-.353.833a2.21 2.21 0 0 1-.58.486c-.332.197-.682.303-.864.23-.088-.036-.196-.305-.23-.49m-.377-.726c-.106.089-.06.414-.048.43.03.043.194.045.258.257.037.125.205.804.593.685.22-.068.49-.151.764-.314.162-.096.324-.22.479-.383.417-.443.588-1.211.63-1.415a.53.53 0 0 1 .234-.352l.076-.045c.1-.06.202-.059.242.069.047.15.24.702.664.645a1.32 1.32 0 0 0 .482-.187c.274-.163.542-.4.76-.592.383-.339.526-1.203.558-1.369.056-.284.216-.477.245-.556.012-.03.045-.402-.062-.365a.855.855 0 0 0-.124.066l-.053.031-.056.034a1.643 1.643 0 0 1-.15.082 7.16 7.16 0 0 0-.69.363c-.512.304-.985.66-1.355.979-.127.109-.26.24-.436.344a1.395 1.395 0 0 1-.07.04 1.48 1.48 0 0 1-.07.044c-.176.104-.311.133-.439.175-.373.122-.85.331-1.36.635a8.512 8.512 0 0 0-.688.455 1.964 1.964 0 0 1-.15.097l-.057.033-.053.031c-.05.03-.095.059-.124.083"/>
        <path fill="#FFFCFC" d="M117.986 48.194l.03-.002a.752.752 0 0 0 .22-.052 1.371 1.371 0 0 0 .182-.08 2.126 2.126 0 0 0 .13-.072l.017-.01a2.46 2.46 0 0 0 .247-.168 3.908 3.908 0 0 0 .167-.136 3.079 3.079 0 0 0 .234-.229 2.134 2.134 0 0 0 .19-.25.435.435 0 0 0 .037-.072 1.094 1.094 0 0 0 .038-.102 3.413 3.413 0 0 0 .128-.535l.006-.04a3.29 3.29 0 0 0 .018-.177 2.25 2.25 0 0 0 .007-.095l.002-.07v-.054l-.001-.039v-.001l-.001-.019-.002-.018a.594.594 0 0 0-.007-.05c0-.006-.002-.011-.003-.016l-.002-.006c0-.005-.002-.01-.004-.015l-.005-.015v-.001l-.001-.003-.001-.001-.004-.009-.007-.013-.005-.006-.007-.008a.073.073 0 0 0-.015-.011.132.132 0 0 0-.044-.014.289.289 0 0 0-.043-.003c-.196.002-.48.156-.644.252-.364.216-1.1.726-1.23 1.007-.01.025-.077.117-.101.265a.67.67 0 0 0-.009.083V47.46l.001.011.002.03a1.52 1.52 0 0 0 .01.067v.004l.001.002v.003l.001.002v.003l.001.002v.004l.001.002v.003h.001v.002l.008.03v.001a.558.558 0 0 0 .01.035l.001.004.001.003v.001l.001.003v.001l.002.003v.004l.001.001.002.003v.004l.002.004.003.008.001.004.002.004v.003c.01.026.022.054.035.081l.001.003a.902.902 0 0 0 .245.34l.009.006.01.006v.001h.001l.002.002h.001a.297.297 0 0 0 .088.04.093.093 0 0 0 .017.003h.022"/>
        <path fill="#595857" d="M119.989 45.293l-.1-.056-.004-.002-.003-.001h-.001l-.004-.001h-.011l-.002.001h-.003l-.001.001h-.001l-.002.001-.009.004h-.002v.001h-.003v.001h-.002v.001h-.002l-.001.001h-.001l-.001.001h-.001l-.001.001h-.001l-.001.001h-.001l-.001.001h-.001l-.001.001-.01.005-.01.005h-.001l-.001.001h-.001a.519.519 0 0 0-.017.01l-.003.001v.001h-.001l-.006.003-.002.002h-.002v.001h-.001l-.001.001-.002.001-.001.001h-.001l-.002.001-.001.001h-.001l-.001.001h-.001v.001l-.002.001h-.001l-.001.001-.002.001-.002.001-.001.001-.002.001-.002.002h-.002l-.001.001-.002.001-.002.001-.001.001h-.001v.001h-.002v.001h-.001l-.002.001-.001.001h-.001v.001h-.002v.001h-.001l-.001.001-.002.001-.001.001h-.001v.001h-.002v.001h-.001l-.001.001-.002.001-.002.001-.001.001h-.001v.001h-.002v.001h-.001l-.001.001-.002.001h-.001l-.001.002h-.002l-.002.002-.003.001v.001h-.001l-.001.001h-.001l-.001.001-.002.001-.002.002h-.002v.001h-.002v.001h-.001l-.001.001h-.001v.001h-.002v.001h-.001l-.001.001h-.001l-.001.001-.002.001-.001.001h-.001l-.001.001h-.001v.001l-.002.001-.001.001-.002.001-.002.001-.003.002h-.001l-.001.001-.002.001-.002.002h-.001l-.003.002-.003.002-.002.001-.022.013-.017.01-.002.001-.002.001-.001.001-.003.002h-.001l-.001.001h-.001l-.001.001-.001.001h-.002v.001h-.002v.001l-.002.001h-.001l-.001.001-.001.001h-.001l-.001.001h-.001l-.001.001-.001.001h-.001l-.001.001h-.002v.002h-.003v.001h-.002v.001h-.001v.001h-.002v.001h-.002v.001h-.001l-.001.001h-.001l-.008.005a.991.991 0 0 1-.026.014h-.001l-.001.001-.001.001h-.001l-.002.001-.002.001v.001h-.003v.001h-.001v.001h-.002l-.001.001-.041.02h-.001l-.001.001h-.001l-.001.001h-.001l-.001.001h-.001l-.001.001h-.002v.001h-.002v.001h-.002l-.002.001-.001.001h-.001l-.002.001h-.001v.001h-.002v.001h-.002v.001h-.001l-.003.001-.007.004-.007.003-.003.001a2.556 2.556 0 0 0-.041.02h-.001l-.004.002-.004.002-.002.001h-.001l-.004.002-.003.002-.003.001-.004.002-.01.005-.004.002-.004.001-.003.002-.004.002-.01.005-.003.002h-.002l-.002.001-.014.007-.003.002h-.002l-.002.002-.004.001-.003.002-.004.002-.003.002-.004.001-.002.002h-.001l-.004.002-.003.002-.003.001-.004.002-.004.002-.003.002-.003.001-.004.002-.003.002-.004.002-.003.001-.004.002-.003.002-.004.002-.003.001-.002.001-.002.001-.003.002-.004.002h-.001l-.003.002-.003.002-.005.002-.003.001-.004.002-.003.002h-.001l-.007.004-.003.002-.004.002-.004.002-.003.002-.004.002-.004.002-.004.001-.003.003-.004.001-.003.002-.005.002-.003.002-.003.002h-.001l-.004.002-.003.002-.003.001-.001.001-.004.002-.004.002-.002.001-.001.001-.004.002-.004.002h-.001l-.002.002-.004.002-.004.002h-.001l-.002.002-.004.002-.004.002-.011.006-.004.002-.003.002-.03.016-.004.002-.007.004-.004.002-.002.001-.002.001-.003.002-.004.002-.002.001-.002.001-.003.002-.004.002-.002.001-.002.001-.003.002-.004.002-.001.001-.003.001-.003.002-.004.003h-.001l-.002.001-.018.01-.001.001-.002.001-.01.005-.01.006h-.001l-.012.008-.003.001-.003.002-.002.001h-.001l-.004.003-.002.001-.004.002-.002.002-.004.001-.004.003h-.002l-.002.003-.003.001-.003.002-.004.002-.002.002-.003.001-.003.001v.001l-.003.002-.003.001-.003.002h-.001l-.002.002-.003.002-.003.001-.003.002-.003.002-.003.002-.003.001h-.001l-.002.002-.003.002-.003.002-.003.001-.003.002-.003.002-.003.002h-.001l-.002.001-.003.002-.003.002-.003.002-.003.001-.003.002-.003.002h-.001l-.002.002-.003.001-.003.002-.003.002-.002.001-.016.01h-.001l-.001.001h-.001l-.001.001h-.001v.001h-.001l-.002.001v.001h-.002v.001l-.007.004h-.001l-.003.002-.002.001-.002.001v.001h-.001l-.001.001h-.001l-.001.001h-.001l-.001.001-.002.001v.001h-.002v.001h-.002v.001h-.001l-.001.001-.001.001h-.001l-.004.003-.004.003-.005.002-.004.003-.004.002-.004.003-.004.002-.005.003-.002.002h-.002c-.023.015-.046.03-.07.043v.001a4.836 4.836 0 0 0-.066.042l-.004.002-.016.01-.004.003-.003.002h-.002v.001l-.008.005-.004.003-.004.002-.004.003h-.001l-.003.003-.004.002-.004.003-.004.003-.004.002-.005.003-.004.003-.004.002-.004.003-.004.003-.004.002-.003.002c-.087.057-.448.317-.542.383l-.004.003-.104.08-.038.03h-.002l-.003.003-.004.003-.012.01-.004.003-.005.004-.004.003-.004.003-.004.003-.004.004-.004.003-.004.003-.041.033-.005.004-.012.01-.004.003-.003.002-.005.004.1.056-.1-.056-.051.042-.018.015-.02.016-.01.009-.003.003-.004.003-.003.002-.003.003-.004.003-.006.006-.003.002-.004.003-.003.003-.004.003-.003.002-.003.003-.004.003-.003.003-.003.003-.003.002-.004.003-.002.002-.004.004-.013.01v.001l-.003.003-.004.002-.003.003-.003.003-.003.002-.002.002-.001.001-.004.003-.003.003-.003.003-.003.002-.003.003h-.001v.001h-.001v.001h-.001l-.001.001v.001h-.002v.001l-.001.001-.002.001v.001h-.001v.001h-.001v.001h-.001l-.001.001h-.001v.001h-.001v.001l-.003.002-.036.032-.002.002-.002.002-.004.003-.001.002-.002.001-.001.001h-.001l-.002.002-.002.002-.001.001-.003.002-.001.002-.002.002-.002.001-.002.002-.002.002-.002.001-.002.002-.002.002-.001.001-.002.002-.002.002-.002.001-.002.002-.002.002-.002.001-.002.002-.002.002-.001.001-.001.001-.001.001-.002.002-.002.001-.002.002-.002.002-.002.001-.002.002-.002.002-.002.001-.002.002-.002.002-.002.002-.001.001-.002.001-.002.003h-.002l-.004.004-.001.002h-.002v.002h-.001l-.001.001-.002.001-.001.001-.005.005-.002.001-.001.002h-.001l-.002.002-.001.001-.007.006-.002.001-.012.011-.002.001-.001.002h-.002l-.001.002-.001.001-.003.002-.002.002-.007.006h-.001l-.003.003-.001.001-.002.001-.001.002h-.002v.001l-.001.001-.002.001-.001.002h-.002v.002h-.001l-.002.001-.001.001-.001.001-.002.002h-.001l.099.057-.1-.056-.001.001-.001.001h-.001l-.005.004v.001l-.002.002h-.001l-.002.002h-.001V47l-.002.001-.002.001v.001l-.002.002h-.001l-.001.001h-.001l-.001.002h-.001l-.011.01h-.002l-.001.001v.001l-.02.014-.012.01h-.002v.001h-.001v.002h-.002l-.001.001h-.001v.001h-.002v.002h-.002v.001l-.012.009h-.001l-.002.002-.004.002v.001h-.001l-.001.001h-.001v.001l-.002.001h-.001l-.001.001v.001h-.001l-.001.001h-.002v.001l-.001.001h-.001l-.001.001-.001.001h-.001v.001h-.002v.001l-.002.001-.001.001-.002.001-.001.001-.001.001h-.001v.001h-.002v.001l-.002.001v.001h-.002l-.001.002h-.002v.001h-.001a.417.417 0 0 1-.012.009h-.001l-.001.001h-.001l-.002.001-.001.001-.001.001h-.001v.001h-.001v.001h-.002l-.001.001-.001.001h-.001v.001h-.002v.001h-.001l-.001.001-.001.001h-.002v.001l-.002.001-.002.002h-.001l-.002.001-.015.01h-.001l-.004.003.098.056-.099-.056-.002.002-.008.004-.003.002h-.001v.001h-.001l-.001.001h-.001l-.001.001h-.001v.001h-.001l-.001.001h-.001v.001h-.002v.001h-.002v.001h-.001l-.001.001h-.001v.001h-.002v.001h-.002v.001h-.001l-.001.001h-.001v.001h-.002v.001h-.002v.001h-.001l-.001.001h-.001l-.02.011-.001.001h-.001l-.001.001h-.001l-.002.001-.001.001h-.001v.001h-.002v.001h-.002v.001h-.002v.001h-.002v.001h-.001l-.001.001h-.001v.001h-.001l-.001.001h-.001v.001h-.002v.001h-.001v.001h-.001v.001h-.002l-.001.001-.001.001h-.001v.001h-.002v.001h-.001v.001h-.001l-.001.001h-.001v.001h-.002v.001h-.002v.001h-.001v.001h-.001l-.001.001h-.001v.001h-.001l-.001.001h-.001v.001h-.002v.001h-.002v.001h-.001v.001h-.001l-.001.001h-.001v.001h-.001l-.001.001h-.001v.001h-.002v.001h-.002v.001l-.002.001-.002.001-.001.001-.001.001h-.001l-.001.001h-.001v.001h-.001l-.001.001h-.001l-.001.001h-.001l.099.057-.1-.056-.008.005h-.001l-.001.001h-.001v.001h-.001l-.001.001h-.001v.001h-.002v.001l-.003.002-.023.013a1.15 1.15 0 0 1-.027.014l-.002.001-.004.003-.01.004-.03.016h-.001l-.004.002h-.001l-.002.001-.002.001h-.001v.001h-.001l-.002.001a.603.603 0 0 1-.018.008h-.001l-.005.003h-.001l-.005.003h-.002l-.004.002h-.002v.001l-.005.002h-.001l-.004.002.1.056-.1-.056-.005.002h-.001l-.002.001-.002.001h-.001l-.001.001h-.002v.001h-.003v.001h-.002l-.004.003h-.004v.001h-.002v.001h-.002l-.001.001h-.002v.001h-.003l-.001.001h-.002l-.002.002h-.003v.001h-.002v.001h-.003l-.002.001-.002.001h-.001l.099.056-.1-.055-.023.008h-.001l-.004.002h-.001l-.008.003h-.003v.001h-.002l-.001.001h-.002l-.001.001h-.003v.001h-.002l-.001.001h-.001l-.002.001h-.003v.001h-.002l-.001.001h-.002l-.018.007h-.004l-.002.001h-.002l-.002.001h-.001v.001h-.002l-.002.001h-.002l-.001.001h-.002l-.002.001h-.002l-.002.001h-.001l-.002.002h-.004l-.002.001h-.001l-.002.001h-.002l-.002.001h-.001l-.002.001-.002.001-.007.002h-.002l-.003.002h-.004l-.007.003h-.003l-.002.001-.002.001h-.001a1.78 1.78 0 0 0-.035.011l-.003.001-.018.006-.089.03-.018.006-.058.021c-.078.029-.4.167-.482.201l-.003.001h-.001a7.517 7.517 0 0 0-.22.108l-.034.017c-.049.024-.098.05-.148.077h-.001l-.003.003-.017.008-.003.002-.005.003-.004.002-.004.002-.008.005-.003.001h-.001l-.004.003-.004.002-.004.002-.004.003-.004.002h-.002l-.003.002-.004.003-.004.002-.004.002-.004.002-.004.003-.004.002-.004.002-.004.003-.005.002-.003.001-.003.002-.003.002-.003.002-.003.001-.003.002-.006.003-.003.002-.003.002-.003.002-.016.008-.002.002-.003.001-.004.002-.003.002-.003.002-.009.005-.003.002-.002.001h-.001l-.022.014-.003.001-.021.012a7.64 7.64 0 0 0-.13.077l-.026.016-.002.001-.004.002-.003.003h-.002l-.006.004-.004.003-.004.002-.004.003-.003.002-.004.002-.004.003-.003.001-.001.001-.004.003-.004.002h-.001l-.007.005-.004.002-.004.003-.004.002-.003.002-.004.003-.004.003h-.002l-.002.002-.004.002-.004.003h-.001l-.003.002-.004.003-.004.002-.004.003-.004.002-.002.002h-.001l-.004.003-.004.003h-.002l-.002.002-.004.003-.004.002-.004.003-.004.002-.003.002-.005.003-.004.003-.002.001-.002.001-.004.003-.003.002-.002.001-.002.002-.004.002-.004.003-.004.002-.004.003-.003.002h-.001l-.004.003-.004.003h-.002l-.002.002-.004.003-.004.002-.004.003-.004.002-.003.003-.004.003-.004.002-.003.002-.005.003-.003.002-.003.002h-.001l-.004.003-.004.003-.002.001-.002.001-.003.003-.011.007-.005.003-.003.002-.004.003-.004.002-.004.003-.004.003-.003.002-.004.003-.004.002-.003.002-.004.003-.004.003-.002.001-.002.001-.004.003-.004.003h-.001l-.002.002-.004.003-.004.002h-.001l-.003.003-.004.002-.003.003-.004.003-.004.002-.008.005-.003.003-.003.002h-.001l-.004.003-.004.003-.011.008h-.002l-.002.002-.004.003-.004.002-.007.006-.004.002-.004.003-.046.032-.014.01-.002.001-.003.002-.002.002-.002.002-.004.003h-.002l-.002.003-.005.003h-.001v.001l-.007.004-.002.002-.007.005-.002.001-.002.002a6.61 6.61 0 0 0-.078.057l-.01.007h-.001l-.001.001h-.001v.001h-.001v.001h-.001l-.003.002.1.056-.1-.056-.001.001-.002.001-.001.001-.001.001h-.001l-.001.001-.002.001-.001.001-.001.001h-.001l-.001.001h-.001v.001l-.002.001h-.001v.001h-.001v.001h-.001l-.001.001h-.001v.001h-.001l-.001.001h-.001v.001h-.002v.001l-.001.001h-.001l-.001.001h-.001v.001h-.001l-.001.001h-.001v.001h-.001l-.002.001v.001h-.002v.001l.099.056-.1-.056v.001h-.002v.001l-.002.001-.002.001v.001h-.002v.001l-.002.001h-.001v.001h-.002v.001h-.001l-.001.001h-.001v.001h-.001l-.001.001h-.001l-.001.002h-.002l-.001.001-.001.001h-.001v.001h-.001l-.001.001h-.001l-.002.001v.001h-.002v.001l-.002.001-.001.001-.002.001-.002.001-.001.001h-.001l-.001.001-.001.001h-.001v.001h-.002l-.001.002h-.002v.001h-.002v.001h-.001l-.002.002h-.002l-.002.002h-.001v.001h-.001l-.001.001-.005.003-.016.01-.003.002h-.002v.001h-.002v.001h-.001l-.001.001h-.001l-.001.001-.002.001-.001.001h-.001l-.001.001h-.001l-.001.001-.002.001-.001.001-.001.001h-.001l-.001.001-.003.002h-.002v.001h-.001l-.002.002h-.002v.001h-.002l-.005.004h-.002l-.001.002h-.002l-.002.002-.008.004v.001h-.001l-.01.007-.034.02-.003.001h-.001l-.002.002h-.002l-.001.002h-.003v.002h-.003v.001h-.001l-.001.001h-.001v.001h-.002v.001h-.001v.001h-.001l-.004.003-.009.005h-.001v.001h-.002v.001h-.001l-.001.001h-.001v.001h-.001l.099.056-.1-.056-.001.001-.001.001h-.001l-.001.001h-.001v.001h-.002v.001h-.001v.001h-.001l-.002.001-.001.001h-.001l-.001.001h-.001v.001l-.002.001h-.001l-.001.001h-.001v.001h-.001v.001h-.001l-.001.001h-.001l-.001.001h-.002v.001h-.001v.001h-.001l-.001.001-.002.001-.001.001-.002.001-.002.001-.003.002-.007.005.099.056h-.001v.001h-.001l-.001.001h-.001v.001h-.002v.001h-.001v.001h-.001l-.001.001h-.001l-.001.001-.001.001h-.001v.001h-.001l-.001.001h-.001v.001h-.001l-.001.001h-.001v.001h-.001v.001h-.002v.001h-.001v.001h-.002v.001h-.001v.001h-.001l-.001.001h-.001v.001h-.001v.001l-.004.002-.001.001h-.001v.001h-.001v.001h-.001l-.001.001h-.001v.001h-.001v.001h-.001v.001h-.002v.001h-.001v.001h-.001v.001h-.001l-.001.001h-.001v.001h-.001l-.001.002h-.002l-.001.002-.002.002-.002.001-.001.002-.004.003-.001.002-.002.002h-.001l-.003.004-.002.002a.166.166 0 0 0-.018.032l-.003.006-.002.006-.001.003-.001.003-.002.005-.001.003-.002.005-.001.003v.002l-.002.003v.005l-.003.008v.002l-.003.013-.04-.023.04.023-.002.012-.038-.021.038.021-.003.016-.002.016-.001.008v.003l-.001.01-.002.023v.027l-.028-.016.027.016v.032l-.027-.015.028.015a1.261 1.261 0 0 0 .004.077v.008l.002.007c0 .006 0 .012.002.018v.005l-.053-.03.053.03v.003h.001v.005l.004.018.002.013.001.002v.004h.001v.002l.001.002v.001l.001.001.003.003v.001h.001v.001l.001.001h.001v.001h.001v.001h.001v.001h.001l.001.001.001.001h.001l.001.001h.001v.001h.001v.001h.002v.001h.001l.001.001h.001l-.098-.055h-.002l-.001-.001h-.001v-.001h-.001v-.001h-.002v-.001h-.001l-.001-.001h-.001v-.001h-.001v-.001h-.001l-.001-.001h-.001v-.001l-.001-.001h-.001v-.001h-.001v-.001l-.001-.001h-.001v-.001l-.001-.001v-.001h-.001v-.001l-.001-.002v-.003h-.001l-.002-.006v-.005h-.001v-.004l-.001-.001v-.004l-.001-.002v-.005l-.001-.001v-.005h-.001v-.006l-.001-.001v-.006l.014.009-.015-.009-.001-.01v-.005l-.001-.002v-.008l-.001-.001-.001-.01v-.01h-.001V49.047l-.001-.001v-.011l-.001-.006v-.017h-.001V48.99l.022.013-.022-.013V48.96l.021.013-.022-.013V48.937l.001-.006V48.92l.001-.001V48.905h.001v-.004l.001-.008v-.007l.001-.001v-.007h.001v-.007h.001v-.001l.001-.008.001-.007.012.007-.012-.007v-.002h.001v-.006h.001v-.004l.01.005-.01-.005v-.001l.001-.002v-.002l.001-.001v-.002l.001-.003v-.001l.003-.01v-.002l.002-.008v-.001l.001-.002v-.056l.049-.029v.003l.002-.002.002-.001.099.056-.1-.056h.001l.001-.001h.001v-.001h.001v-.001h.001l.001-.001.001-.001h.001v-.001h.001v-.001h.001l.001-.001.1.055-.1-.055.005-.004h.001l.001-.001.001-.001h.001v-.001h.001l.001-.001h.001v-.001h.001v-.001h.001l.001-.001.002-.001.006-.004.004-.003.001-.001.012-.008.099.056h.001v-.001h.001l.001-.001h.001v-.001h.001l.001-.001.002-.001h.001v-.001h.001l.001-.001.001-.001h.001l.001-.001.001-.001h.001l.001-.001.001-.001h.001l.002-.001.001-.001h.001v-.001h.002v-.001l.002-.001.001-.001h.001v-.001h.002v-.001h.002v-.001l.007-.005h.001l.003-.002h.001l.001-.001h.001l.001-.001h.001v-.001h.001l.001-.001h.001v-.001h.002v-.001h.001l.002-.001v-.001h.002v-.001h.001l.001-.001.01-.006.007-.004h.001l.004-.003h.001l.001-.001.002-.001.001-.001h.001v-.001h.002v-.001h.001l.001-.001h.001v-.001h.002v-.001h.001l.001-.001h.001v-.001h.002l.001-.001h.001l.001-.001.002-.001.001-.001h.001l.001-.001.002-.001.001-.001h.001l.001-.001.002-.001.002-.001.001-.001h.001v-.001h.002v-.001h.001l.001-.001h.001l.001-.001.002-.001.001-.001h.001l.001-.001h.001v-.001h.002v-.001h.002v-.001h.001l.001-.001h.001l.001-.001.002-.001.001-.001h.001l.001-.001.001-.001.002-.001.001-.001h.001l.001-.001h.001v-.001h.001l.002-.001.001-.001h.001l.001-.001h.001v-.001h.002v-.001h.002v-.001h.001l.001-.001h.001v-.001h.002v-.001h.002v-.002h.003l.001-.001.001-.001.002-.001.001-.001h.001l.001-.001h.001v-.001h.002v-.001h.001l.001-.001h.001v-.001h.001l.001-.001h.001l.001-.001h.001v-.001h.002v-.001h.001l.001-.001h.001l.001-.001.001-.001h.001v-.001h.002v-.001h.002v-.001l.002-.001h.001v-.001h.002v-.001l.002-.001.006-.004h.001l.001-.001h.001l.004-.003.002-.001.002-.001v-.001h.002l.001-.001.002-.002h.002l.001-.002h.002V48.6h.001l.001-.001h.001l.003-.002.002-.001v-.001h.002v-.001l.002-.001.008-.005.008-.006h.001l.001-.001.003-.002h.001l.003-.002.001-.001h.001v-.001h.001l.001-.001h.001v-.001h.002v-.001h.001v-.001h.002v-.001h.001v-.001h.002v-.001h.001l.001-.001.001-.001.023-.015.007-.006.003-.002h.001v-.001h.001l.001-.001h.001v-.001h.001v-.001h.001l.003-.002.002-.002.002-.002.002-.001.002-.002.002-.001.003-.002.002-.001.002-.002.003-.002h.001l.002-.002.002-.002.002-.001.003-.002.002-.002.002-.001.002-.002.002-.001.002-.002h.001l.001-.001.003-.002.002-.001.002-.002.002-.001.001-.001v-.001l.003-.001.002-.002.002-.002.003-.001.001-.001.003-.002.004-.003.002-.002.002-.001.002-.002.009-.006.002-.001.002-.002.004-.003.002-.001.003-.002.002-.001.002-.002.002-.001.002-.002.002-.001.002-.002.002-.001.002-.002.003-.001.002-.002.002-.001.002-.002.002-.001.002-.002h.001l.001-.001.002-.002.003-.001.003-.003.002-.001.002-.002.004-.002.004-.003.004-.003.003-.002.004-.003.004-.003.004-.002.004-.003.003-.003.004-.002.003-.003h.001l.004-.003.004-.002.002-.002h.001l.004-.003.004-.003.002-.001.002-.002.004-.002.004-.003v-.001l.003-.002.004-.002.004-.003.004-.002.004-.003.003-.003.004-.002.004-.003.003-.002.005-.003.003-.003.003-.002h.001l.004-.003.004-.002.002-.002h.002l.003-.003.004-.003.002-.001.002-.002.004-.002.004-.003.003-.002.004-.003.004-.002.004-.003.004-.002.003-.003.004-.002.004-.003.003-.002.004-.003.004-.002.003-.002.001-.001.004-.003.004-.002.001-.001.002-.002.004-.002.004-.002.001-.001.003-.002.003-.002.004-.003h.001l.003-.002.004-.003.004-.002.004-.003.003-.003.003-.001.001-.001.004-.003.004-.002.002-.002h.002l.004-.003.004-.003.004-.002.004-.003.004-.002.004-.003.004-.003.002-.001.002-.001.004-.003.003-.002.002-.001.003-.002.003-.002.004-.003.004-.002.004-.003.004-.002.004-.003.004-.002.002-.002h.002l.004-.003.004-.003.004-.002.003-.003.004-.002.004-.002.004-.003.003-.002h.001l.004-.003.012-.007.004-.003.003-.002.004-.003.094-.057.014-.008.001-.001h.001l.002-.002.002-.001.002-.001.002-.001.001-.001h.001v-.001h.002l.001-.002h.001l.002-.001.002-.001.001-.001h.001l.001-.001h.001l.001-.001.001-.001.002-.001.002-.001.001-.001h.001l.001-.001h.001l.001-.001.002-.002h.002v-.001h.002v-.001h.001l.001-.001h.001l.003-.003.003-.002.004-.001.003-.002.006-.004.003-.002.002-.001.004-.002.003-.002.003-.002.007-.004.003-.002.004-.002.002-.001.015-.01.003-.001.004-.002.003-.002.003-.001.003-.002.003-.002.003-.002.003-.002.003-.001.003-.002.003-.002.003-.002.007-.003.003-.002.003-.002.003-.002h.001l.002-.001.003-.002.003-.002.003-.002.003-.001.003-.002.003-.002.01-.005.003-.002.003-.002.003-.001.015-.009.003-.002.003-.001.003-.002.003-.002.01-.005.003-.002.004-.002.004-.002.004-.003.008-.004.004-.002.004-.002.004-.003.005-.002.002-.002h.002l.004-.002.004-.003.004-.002.004-.002.004-.003h.001l.003-.002.004-.002.004-.002.004-.002.004-.003.004-.002.004-.002.005-.002.004-.002.004-.003.004-.002.003-.002.005-.002.004-.002.004-.002.004-.003.004-.002h.002l.002-.002.004-.002.004-.002.004-.002.004-.003.004-.002h.001l.007-.004.004-.002.005-.002.004-.002.003-.002.005-.002.016-.009.002-.001.002-.001.016-.008.003-.002.002-.001.003-.001.012-.007.003-.002.005-.002.012-.006.008-.004.002-.001.002-.001.016-.008.004-.002h.001l.003-.003.041-.02h.001l.003-.002.004-.002.012-.006.003-.001.022-.01v-.001l.016-.008.004-.002.003-.001.005-.002.016-.008.004-.002.019-.01.02-.01h.002l.014-.006.004-.002.003-.002h.001c.177-.078.329-.147.506-.212l.058-.02.003-.002h.002l.01-.004.003-.001.003-.001.002-.001h.003l.003-.002h.002l.003-.002h.002l.003-.001.002-.001.003-.001.003-.001h.002l.003-.002h.002l.003-.002h.002l.003-.001.003-.001.002-.001h.003l.002-.002h.003l.002-.001.003-.001.002-.001.003-.001h.002l.003-.002h.002l.01-.004h.003l.002-.001h.002v-.001h.002l.001-.001h.003l.001-.001h.001l.002-.001h.002v-.001h.003v-.001h.003v-.001h.003l.001-.001h.003l.001-.001h.002v-.001h.003l.002-.001h.001v-.001h.002l.002-.001h.002l.002-.001h.002l.001-.001h.001l.003-.001h.001l.002-.001.009-.003h.002l.001-.001.004-.001h.001l.002-.001.004-.001h.002l.006-.003.049-.015.013-.004h.002v-.001h.003l.004-.002h.002l.002-.001h.001l.002-.001.002-.001h.002l.001-.001h.002l.002-.001.002-.001h.003l.001-.001h.001l.002-.001.002-.001h.002v-.001h.003l.002-.001.002-.001h.002v-.001h.002l.002-.001h.002l.001-.001h.002l.001-.001h.001l.002-.001h.001l.001-.001h.002l.001-.001h.001l.001-.001h.002l.002-.001h.001l.001-.001h.001l.002-.001h.001l.001-.001h.002v-.001h.003v-.001h.002l.004-.002.003-.001.002-.001h.001l.001-.001h.003v-.001l.003-.001h.001l.006-.003.003-.001h.002v-.001h.002v-.001l.004-.001.002-.001h.001l.001-.001h.001l.001-.001h.002v-.001h.002v-.001h.002l.002-.001h.001v-.001h.002l.001-.001h.001l.002-.001.002-.001h.001l.001-.001h.002v-.001h.002l.001-.001h.002v-.001h.001v-.001h.002l.001-.001.003-.001h.002l.001-.002h.002l.001-.001h.002v-.001h.002v-.001h.002v-.001h.002v-.001h.002v-.001h.002l.002-.001h.001v-.001h.002v-.001h.002v-.001l.005-.002a.595.595 0 0 0 .022-.011h.001l.004-.003.02-.01.004-.002h.001v-.001h.002V47.3h.002V47.3h.001l.001-.001h.002v-.001h.001l.001-.001.002-.001h.001v-.001h.001l.001-.001h.001l.001-.001h.001v-.001h.002v-.001h.001l.001-.001h.001l.001-.001h.001v-.001h.002v-.001h.002l.005-.003v-.001l.017-.01.006-.003h.001l.001-.002h.001l.005-.003h.001l.008-.006h.001l.003-.002.005-.003h.001v-.001h.002v-.001h.001v-.001h.001l.001-.001h.001v-.001h.002v-.001h.001l.001-.001h.001v-.001H117v-.001H117l.002-.001.001-.001.002-.001.003-.002.004-.003h.001v-.001h.001l.001-.001h.001l.008-.006h.001l.001-.001h.001l.001-.001h.001v-.001h.003v-.001h.001l.001-.001h.001v-.001h.001l.001-.001h.002v-.001h.002v-.001h.002v-.001h.001l.001-.001h.001v-.001h.002l.006-.004.002-.001.005-.003.005-.003h.002l.001-.001h.001v-.001h.001l.001-.001h.001l.001-.001h.001V47.2h.001l.001-.001h.001l.001-.001h.001v-.001h.002l.001-.001h.001v-.001h.001l.001-.001.008-.005.01-.006h.002v-.001l.002-.001h.001v-.001h.001l.001-.001h.001l.001-.001.002-.001.001-.001h.001l.001-.001.001-.001.008-.005.007-.004.001-.001.001-.001h.001l.001-.001h.001v-.001h.001l.001-.001h.002v-.001l.001-.001h.001v-.001h.002v-.001h.002v-.001h.001v-.001h.001l.001-.001.002-.001.001-.001.002-.002h.001l.001-.001.006-.004h.001l.001-.001h.001l.002-.002.002-.002h.002v-.001h.001v-.001h.001l.001-.001.002-.001.001-.001h.001v-.001h.001v-.001h.002v-.001h.001v-.001h.002v-.001h.002v-.001l.002-.001.001-.001.001-.001h.001l.001-.001v-.001l.003-.002h.001l.002-.001.001-.002h.002v-.001h.001l.001-.001.002-.002h.001l.001-.001.001-.001.001-.001h.001l.001-.001.001-.001h.001l.001-.001v-.001h.002v-.001h.001l.001-.001.002-.002h.001v-.001h.002v-.001h.001l.001-.001.002-.001v-.001h.001v-.001h.002v-.001h.001v-.001l.002-.001.002-.002.002-.001.001-.001.002-.001.001-.002h.001l.001-.001.002-.001.001-.001v-.001l.003-.001v-.001h.002v-.002h.002l.005-.005h.001l.001-.001h.001l.001-.001.01-.009h.001l.027-.021.007-.006.001-.002a.928.928 0 0 0 .02-.015v-.001l.002-.002h.001l.016-.014.001-.001.002-.001.004-.004h.001l.002-.002.001-.001.002-.002h.001l.019-.017.01-.009.046-.04.002-.002.003-.003.001-.001h.001l.002-.002.002-.002.002-.002.002-.001.001-.002.002-.002.002-.001.002-.002.002-.002.002-.001.002-.002.001-.002h.002v-.001l.002-.002.002-.001.002-.002.002-.002.002-.001.001-.002h.001l.001-.001.002-.002.002-.002h.001l.003-.003.001-.002.002-.001.002-.002.016-.014.004-.004h.001l.001-.001.001-.001h.001v-.001h.001v-.001l.003-.002.001-.001v-.001h.002v-.001h.001v-.001h.001v-.001l.004-.003.003-.003.003-.002.004-.003.003-.003.001-.001.002-.002.003-.003.003-.002.004-.003.003-.003.003-.002.003-.003.004-.003.003-.003.003-.003.003-.002.002-.001.001-.002.004-.003.003-.003.003-.003.004-.002.002-.003h.001l.003-.003.004-.003.003-.002.003-.003.003-.003h.001l.003-.003.003-.003.004-.002.003-.003.003-.003.003-.002.004-.004.003-.002.004-.003.003-.003.003-.003.004-.003.013-.01.002-.003h.001l.007-.006.004-.003.045-.037.013-.011.057-.046.004-.003.002-.002.003-.002.004-.003.004-.003.008-.007.004-.003.004-.003.005-.004.004-.003.003-.003h.001l.004-.004.004-.003.005-.003.004-.003.004-.004.004-.003.004-.003.004-.004.009-.006.004-.004.004-.003.005-.003.03-.023.004-.004.004-.003.004-.003.002-.002.003-.002.004-.003.004-.003.005-.004.004-.003.004-.003.005-.004.004-.003.004-.003.004-.003.021-.016c.057-.04.398-.286.456-.326l.004-.003.005-.002.004-.003.004-.003.004-.003.003-.002.002-.001.004-.003.004-.003.005-.003.004-.003.004-.002.005-.003.004-.003.004-.003.005-.003.004-.003.004-.003.005-.002.004-.003.004-.003.005-.003.004-.003.004-.003.004-.002.005-.003.004-.003.004-.002.004-.003.004-.003.004-.002.004-.003.004-.003.003-.001.001-.001.004-.003.004-.002.004-.003.004-.003.004-.002.002-.001.003-.002.004-.003.004-.002.004-.003.004-.002.004-.003.004-.003.004-.002.004-.003.004-.003.004-.002.004-.002.005-.003.004-.003.008-.005.004-.003.002-.001.002-.001.02-.013h.002l.003-.003.004-.002.016-.01.021-.014.003-.001.002-.001.004-.003.008-.005.004-.002.004-.003h.002l.003-.002.004-.003.004-.003.004-.002.004-.003.013-.007.004-.003h.002V45.9l.002-.001.002-.001.001-.001h.001l.004-.003h.001v-.001h.002v-.001h.002v-.001h.002v-.001l.001-.001h.001l.001-.001h.001l.001-.001h.001l.001-.001v-.001h.002v-.001h.002v-.001h.001l.001-.001h.001l.001-.001h.001l.001-.002h.002v-.001h.002v-.001h.002v-.001h.002v-.001l.001-.001.005-.003h.002v-.001l.004-.003h.002l.001-.001.003-.002.003-.002.003-.002h.002l.001-.001.003-.002.003-.002.003-.002.003-.001.003-.002.003-.002.002-.001.004-.002.003-.002.003-.002.003-.002.003-.001.003-.002.002-.001.004-.003.003-.001.003-.002.003-.002.003-.002.003-.001.002-.002.004-.002.003-.002.003-.001.003-.002.003-.002.003-.002h.002v-.001l.01-.005v-.001l.022-.012.002-.001.018-.01.001-.001a6.532 6.532 0 0 1 .096-.053l.022-.012.003-.002.004-.002.004-.002.032-.018h.001l.019-.01.002-.001.035-.019.004-.002.014-.008.045-.023.042-.02.01-.006.018-.009.004-.001v-.001l.003-.001.007-.004h.002l.002-.001.003-.002.004-.002h.001l.002-.001.004-.002.003-.002.002-.001h.002l.003-.002.01-.005.004-.002.003-.002.004-.001.004-.002.003-.002.004-.002.003-.001.004-.002.003-.002.004-.001.003-.002.004-.002.003-.001.004-.002.003-.002.004-.001.003-.002h.002l.002-.002.003-.001.004-.002.006-.003.004-.002h.002l.002-.001.003-.002.004-.002.003-.001.004-.002.003-.002h.002l.001-.001h.001l.001-.001h.001l.002-.001h.001v-.001h.003v-.001h.001l.001-.001h.002v-.001h.001l.001-.001h.001l.001-.001h.002v-.001h.003v-.001h.002v-.001h.001l.001-.001h.002v-.001h.002v-.001h.002v-.001h.001l.035-.017h.001v-.001h.002l.001-.001h.001l.001-.001h.001v-.001h.002v-.001h.002l.036-.02.008-.005h.002v-.001l.002-.001h.001l.002-.002h.001l.001-.001h.001l.002-.001.002-.001v-.001h.002v-.001h.002v-.002h.003v-.001h.002l.001-.001.001-.001h.001l.002-.001v-.001h.002v-.001h.001v-.001h.002l.004-.003h.001v-.001h.001l.001-.001h.001l.002-.001.002-.002h.001l.002-.001.001-.001h.001l.001-.001.001-.001h.001l.001-.001.002-.001.002-.001.002-.002h.002v-.001h.002v-.001h.001l.001-.001h.001v-.001h.002v-.001h.002v-.001h.001l.001-.001h.001v-.001l.002-.001.002-.001.001-.001h.001l.001-.001h.001v-.001h.002v-.001h.001l.001-.001h.001l.001-.001h.001l.002-.002.002-.001.005-.003.019-.012.025-.015.002-.001h.001l.002-.002h.002v-.001h.001l.001-.001.002-.001.001-.001h.001v-.001l.015-.008.011-.007.002-.001.003-.002h.001v-.001h.001l.002-.001.006-.004h.002v-.001l.003-.002h.001l.002-.001.001-.001h.001v-.001h.001l.002-.001.001-.001h.001v-.001h.002l.001-.001h.001v-.001h.002v-.001h.001l.001-.001.002-.001h.001v-.001h.002v-.001h.002v-.001h.002v-.001h.001l.001-.001h.001l.001-.001h.001v-.001h.001l.001-.001h.001l.001-.001h.001l.001-.001h.001l.001-.001h.001v-.001h.002l.001-.001.001-.001h.001l.001-.001h.001l.002-.001h.001v-.001h.001l.003-.002h.002v-.001h.001l.001-.001h.001l.001-.001h.001l.001-.001h.001l.001-.001h.002v-.001h.002V45.3h.001l.002-.001h.001l.001-.001h.001l.001-.001h.002v-.001h.002v-.001h.002l.002-.001.007-.003h.002l.001-.001h.001l.003-.001h.002v-.001h.015l.004.002.005.001zm-6.05 3.748l-.022-.012.021.012z"/>
    </g>
</svg>
