<svg xmlns="http://www.w3.org/2000/svg" width="188" height="243" viewBox="0 0 188 243">
    <defs>
        <filter id="a" width="112.4%" height="113.9%" x="-6.2%" y="-7%" filterUnits="objectBoundingBox">
            <feOffset dy="2" in="SourceAlpha" result="shadowOffsetOuter1"/>
            <feGaussianBlur in="shadowOffsetOuter1" result="shadowBlurOuter1" stdDeviation="15"/>
            <feColorMatrix in="shadowBlurOuter1" result="shadowMatrixOuter1" values="0 0 0 0 0 0 0 0 0 0.309803922 0 0 0 0 0.321568627 0 0 0 0.2 0"/>
            <feMerge>
                <feMergeNode in="shadowMatrixOuter1"/>
                <feMergeNode in="SourceGraphic"/>
            </feMerge>
        </filter>
        <filter id="b" width="214.4%" height="173.3%" x="-57.2%" y="-36.6%" filterUnits="objectBoundingBox">
            <feOffset dy="2" in="SourceAlpha" result="shadowOffsetOuter1"/>
            <feGaussianBlur in="shadowOffsetOuter1" result="shadowBlurOuter1" stdDeviation="15.5"/>
            <feColorMatrix in="shadowBlurOuter1" result="shadowMatrixOuter1" values="0 0 0 0 0 0 0 0 0 0.309803922 0 0 0 0 0.321568627 0 0 0 0.2 0"/>
            <feMerge>
                <feMergeNode in="shadowMatrixOuter1"/>
                <feMergeNode in="SourceGraphic"/>
            </feMerge>
        </filter>
    </defs>
    <g fill="none" fill-rule="evenodd" filter="url(#b)" transform="translate(38.666 30.235)">
        <path fill="#7F9FA0" d="M66.418 3.88c2.345 1.351 4.25 4.644 4.243 7.342l-.83-.478c.008-2.176-1.526-4.825-3.416-5.914-.896-.515-1.756-.591-2.416-.216-.659.375-1.028 1.149-1.03 2.176-.005 1.516.731 3.294 1.916 4.637 1.185 1.352 1.914 3.05 1.91 4.445l-.001.208a4.334 4.334 0 0 0-.417-.277 3.382 3.382 0 0 0-.411-.202v-.206c.004-1.027-.548-2.297-1.449-3.321-1.469-1.67-2.383-3.886-2.378-5.762.004-1.284.456-2.24 1.28-2.702.816-.473 1.878-.376 2.999.27"/>
        <path fill="#02858A" d="M52.544 13.427l.007.004v.197a21.14 21.14 0 0 0 .312 3.455l.007.002c.065.37.137.743.22 1.115l-.007-.003c.377 1.71.948 3.454 1.676 5.143 2.438 5.752 6.709 11.094 11.563 13.89 4.856 2.796 9.128 2.377 11.606-.546 1.38-1.631 2.21-4.052 2.257-7.139v-.196l19.647 20.459L110.97 92.15l-9.961 1.175-4.014-35.468-.101 35.953-.143 50.236-61.37-35.35.142-50.236.102-35.954-4.202 30.737-9.92-12.628 11.342-29.392 19.699 2.204"/>
        <path fill="#0D6D71" d="M52.55 13.431v.197l.464.07-.463-.267m9.017 5.194l-8.697-1.54c.063.371.136.743.218 1.116l26.523 15.277c-.385 1.27-.964 2.353-1.684 3.207L54.759 23.34c2.438 5.752 6.709 11.094 11.564 13.89 4.855 2.796 9.127 2.376 11.605-.545 1.38-1.632 2.21-4.053 2.256-7.14l.001-.196-.47-.272.47.469c-.026 1.22-.156 2.345-.42 3.36l-9.486-9.264-8.71-5.017M96.996 57.857l4.013 35.468-4.116.486z"/>
        <path fill="#0063A7" d="M35.625 22.507l-.102 35.952-4.1-5.217z"/>
        <path fill="#536869" d="M53.083 18.197l.007.003 26.523 15.278c-.386 1.271-.965 2.352-1.685 3.206L54.76 23.34a28.713 28.713 0 0 1-1.677-5.143M66.377 15.803c.14.08.279.173.417.277.196.145.387.313.575.5l12.346 12.498.47.467c-.027 1.22-.157 2.346-.42 3.36l-9.485-9.262-4.348-4.245-4.363-.773-8.699-1.54-.008-.001a21.25 21.25 0 0 1-.31-3.455l.463.068 12.367 1.74c.19.027.386.084.584.165.136.055.273.122.41.201"/>
        <path fill="#7F9FA0" d="M54.876 16.646c2.344 1.35 4.25 4.644 4.243 7.341l-.83-.477c.008-2.176-1.526-4.826-3.417-5.914-.896-.517-1.756-.591-2.415-.217-.659.375-1.028 1.15-1.031 2.176-.004 1.516.732 3.295 1.917 4.638 1.185 1.352 1.914 3.05 1.91 4.445l-.001.208a4.334 4.334 0 0 0-.417-.278 3.457 3.457 0 0 0-.412-.201l.001-.207c.004-1.027-.548-2.296-1.45-3.322-1.468-1.669-2.383-3.885-2.378-5.76.005-1.284.457-2.242 1.28-2.703.817-.472 1.88-.375 3 .27"/>
        <path fill="#B3DADB" d="M41.002 26.192l.007.004-.001.198c.005 1.125.113 2.286.313 3.455l.007.002c.064.37.137.743.22 1.115l-.007-.003c.377 1.709.948 3.454 1.676 5.141 2.438 5.753 6.709 11.096 11.563 13.891 4.855 2.797 9.128 2.376 11.606-.545 1.38-1.631 2.21-4.052 2.256-7.14l.001-.196 19.647 20.46 11.137 42.342-9.96 1.174-4.014-35.468-.101 35.954-.143 50.235-61.37-35.35.142-50.235.102-35.954-4.202 30.736-9.92-12.627 11.342-29.393 19.699 2.204"/>
        <path fill="#9ACED0" d="M41.009 26.196l-.001.198.464.07-.463-.268m9.017 5.195l-8.697-1.54c.063.37.136.742.218 1.116l26.522 15.277c-.384 1.27-.964 2.352-1.683 3.206l-23.17-13.345c2.439 5.753 6.71 11.095 11.565 13.891 4.854 2.795 9.127 2.375 11.605-.546 1.38-1.631 2.21-4.052 2.256-7.14l.001-.196-.47-.27.47.467c-.026 1.22-.157 2.346-.421 3.36l-9.486-9.263-8.71-5.017M85.454 70.623l4.013 35.468-4.116.484zM24.083 35.272l-.102 35.953-4.1-5.217z"/>
        <path fill="#536869" d="M41.541 30.963l.006.003L68.07 46.244c-.385 1.27-.964 2.352-1.685 3.206L43.218 36.104a28.677 28.677 0 0 1-1.677-5.141M54.835 28.569c.139.08.278.172.417.277.196.145.387.312.575.5l12.346 12.498.47.467c-.027 1.22-.157 2.345-.42 3.36l-9.487-9.263-4.346-4.244-4.364-.773-8.698-1.54-.008-.002a21.254 21.254 0 0 1-.312-3.455l.464.069 12.368 1.74c.19.027.386.083.583.164.136.055.274.122.412.202"/>
        <path fill="#7F9FA0" d="M44.915 33.47c2.345 1.352 4.25 4.645 4.243 7.342l-.829-.478c.006-2.175-1.526-4.824-3.417-5.912-.896-.517-1.756-.593-2.415-.217-.66.374-1.028 1.148-1.032 2.176-.004 1.515.732 3.294 1.918 4.637 1.185 1.352 1.914 3.05 1.91 4.446l-.002.206a3.622 3.622 0 0 0-.828-.479l.001-.205c.003-1.028-.548-2.296-1.45-3.322-1.469-1.67-2.383-3.886-2.378-5.761.004-1.284.456-2.241 1.28-2.702.817-.473 1.879-.376 3 .27"/>
        <path fill="#1B9195" d="M31.041 43.017l.007.004v.198a21.27 21.27 0 0 0 .312 3.456h.007c.065.371.138.743.22 1.116l-.006-.002a28.785 28.785 0 0 0 1.676 5.141c2.438 5.753 6.708 11.095 11.563 13.891 4.855 2.796 9.128 2.376 11.605-.546 1.38-1.63 2.21-4.052 2.257-7.138l.001-.198L78.33 79.4l11.138 42.342-9.96 1.175-4.014-35.468-.102 35.953-.142 50.235-61.37-35.35.141-50.235.103-35.953L9.92 82.833 0 70.207l11.342-29.394 19.698 2.204"/>
        <path fill="#02858A" d="M31.048 43.022v.196l.464.07-.464-.266m9.018 5.194l-8.698-1.54c.064.37.136.743.219 1.115L58.109 63.07c-.385 1.27-.964 2.351-1.685 3.205L33.257 52.931c2.437 5.752 6.708 11.093 11.563 13.89 4.855 2.796 9.128 2.376 11.604-.546 1.382-1.631 2.212-4.052 2.258-7.139v-.196l-.47-.271.47.467c-.026 1.22-.156 2.346-.422 3.36l-9.484-9.262-8.71-5.018M75.493 87.448l4.014 35.468-4.116.485zM14.123 52.098L14.02 88.05l-4.1-5.217z"/>
        <path fill="#536869" d="M31.58 47.788l.007.003L58.109 63.07c-.384 1.27-.963 2.352-1.685 3.206L33.257 52.93a28.677 28.677 0 0 1-1.676-5.142M44.874 45.393c.14.081.279.174.417.278.196.146.388.313.575.5l12.347 12.498.47.468c-.028 1.22-.158 2.345-.422 3.359l-9.485-9.263-4.347-4.244-4.363-.774-8.699-1.539-.008-.002a21.359 21.359 0 0 1-.311-3.455l.464.07 12.368 1.738c.19.028.385.084.583.165.135.055.274.123.411.201"/>
        <path fill="#7F9FA0" d="M35.601 48.166L72.437 4.22a2.568 2.568 0 0 0-.324-3.622 2.582 2.582 0 0 0-3.63.323L31.648 44.867a2.568 2.568 0 0 0 .323 3.622 2.58 2.58 0 0 0 3.63-.323"/>
    </g>
</svg>
