<svg xmlns="http://www.w3.org/2000/svg" width="86.07" height="104.613" viewBox="0 0 86.07 104.613">
  <g id="bedroom-category-dressingtable" transform="translate(0 0)">
    <path id="패스_5403" data-name="패스 5403" d="M4.77,0,0,2.764v35L4.77,35Z" transform="translate(4.771 53.177)" fill="#ff595f" fill-rule="evenodd"/>
    <path id="패스_5404" data-name="패스 5404" d="M57.665,0,0,33.368,28.4,49.805,86.07,16.437Z" transform="translate(0 19.809)" fill="#ffcdcf" fill-rule="evenodd"/>
    <g id="그룹_4320" data-name="그룹 4320" transform="translate(48.918 38.712) rotate(180)">
      <path id="패스_5405" data-name="패스 5405" d="M28.654,10.113c0-9.058-6.415-12.708-14.328-8.149S0,17.56,0,26.619s6.414,12.707,14.327,8.15,14.328-15.6,14.328-24.656" transform="translate(1.031 0)" fill="#ff8a8f" fill-rule="evenodd"/>
      <path id="패스_5406" data-name="패스 5406" d="M28.654,10.113c0-9.059-6.415-12.708-14.328-8.15S0,17.559,0,26.619s6.414,12.707,14.327,8.149,14.328-15.6,14.328-24.655" transform="translate(1.031 1.98)" fill="#ffbdbf" fill-rule="evenodd"/>
      <path id="패스_5407" data-name="패스 5407" d="M28.655,10.113c0-9.058-6.415-12.708-14.328-8.149S0,17.56,0,26.619s6.414,12.707,14.328,8.149,14.328-15.6,14.328-24.655" transform="translate(0 1.282)" fill="#fff" fill-rule="evenodd"/>
      <path id="패스_5408" data-name="패스 5408" d="M28.36,10.009c0-8.966-6.349-12.578-14.18-8.066S0,17.38,0,26.345s6.349,12.577,14.18,8.067,14.18-15.437,14.18-24.4" transform="translate(0.071 1.401)" fill="#ffeeef" fill-rule="evenodd"/>
      <path id="패스_5409" data-name="패스 5409" d="M26.813,9.463c0-8.476-6-11.892-13.406-7.626S0,16.432,0,24.908,6,36.8,13.407,32.535,26.813,17.94,26.813,9.464" transform="translate(0.844 2.392)" fill="#fffcfc" fill-rule="evenodd"/>
      <path id="패스_5410" data-name="패스 5410" d="M14.25,2.243C6.846,6.507.842,16.837.842,25.314c0,4.219,1.487,7.183,3.893,8.571C1.838,32.74,0,29.6,0,24.908,0,16.431,6,6.1,13.406,1.836,17.126-.306,20.491-.51,22.92.891,20.582-.034,17.556.338,14.25,2.243" transform="translate(0.845 2.393)" fill="#ffbdbf" fill-rule="evenodd"/>
    </g>
    <g id="그룹_4325" data-name="그룹 4325" transform="translate(26.72 48.099) rotate(180)">
      <g id="그룹_4321" data-name="그룹 4321" transform="translate(0 6.836)">
        <path id="패스_5411" data-name="패스 5411" d="M7,13.7V2.023A1.728,1.728,0,0,0,5.983.592a5.465,5.465,0,0,0-4.949,0A1.753,1.753,0,0,0,0,2.023V13.7Z" transform="translate(0 0)" fill="#ffdedf" fill-rule="evenodd"/>
      </g>
      <g id="그룹_4322" data-name="그룹 4322" transform="translate(0 18.513)">
        <path id="패스_5412" data-name="패스 5412" d="M5.967,3.453c1.371-.79,1.378-2.07.016-2.861a5.467,5.467,0,0,0-4.949,0c-1.371.79-1.379,2.07-.017,2.86a5.466,5.466,0,0,0,4.95,0" transform="translate(0 0)" fill="#ffeeef" fill-rule="evenodd"/>
      </g>
      <path id="패스_5413" data-name="패스 5413" d="M0,9.077a1.754,1.754,0,0,1,1.033-1.43,5.078,5.078,0,0,1,2.478-.592V0A5.073,5.073,0,0,0,1.033.593,1.753,1.753,0,0,0,0,2.023Z" transform="translate(0 9.747)" fill="#ffacaf" fill-rule="evenodd"/>
      <path id="패스_5414" data-name="패스 5414" d="M4.836,2.988V1.4a1.194,1.194,0,0,0-.7-.988,3.777,3.777,0,0,0-3.421,0A1.211,1.211,0,0,0,0,1.4v1.59Z" transform="translate(1.082 20.131)" fill="#ff595f" fill-rule="evenodd"/>
      <g id="그룹_4323" data-name="그룹 4323" transform="translate(1.082 21.721)">
        <path id="패스_5415" data-name="패스 5415" d="M4.122,2.386A1.044,1.044,0,0,0,4.134.409a3.78,3.78,0,0,0-3.421,0A1.044,1.044,0,0,0,.7,2.386a3.776,3.776,0,0,0,3.421,0" transform="translate(0 0)" fill="#ff7a7f" fill-rule="evenodd"/>
      </g>
      <path id="패스_5416" data-name="패스 5416" d="M7,13.7V2.022A1.727,1.727,0,0,0,5.983.592a5.468,5.468,0,0,0-4.949,0A1.756,1.756,0,0,0,0,2.022V13.7H7Z" transform="translate(5.001 3.418)" fill="#ffdedf" fill-rule="evenodd"/>
      <path id="패스_5417" data-name="패스 5417" d="M5.967,3.453c1.371-.79,1.378-2.071.016-2.861a5.467,5.467,0,0,0-4.949,0c-1.371.79-1.379,2.071-.017,2.861a5.467,5.467,0,0,0,4.95,0" transform="translate(5.001 15.096)" fill="#ffeeef" fill-rule="evenodd"/>
      <path id="패스_5418" data-name="패스 5418" d="M0,9.076a1.755,1.755,0,0,1,1.033-1.43,5.079,5.079,0,0,1,2.478-.592V0A5.074,5.074,0,0,0,1.033.593,1.754,1.754,0,0,0,0,2.023V9.077Z" transform="translate(5.001 6.33)" fill="#ffacaf" fill-rule="evenodd"/>
      <path id="패스_5419" data-name="패스 5419" d="M4.836,2.987V1.4a1.193,1.193,0,0,0-.7-.988,3.777,3.777,0,0,0-3.421,0A1.212,1.212,0,0,0,0,1.4V2.987Z" transform="translate(6.083 16.714)" fill="#ff595f" fill-rule="evenodd"/>
      <path id="패스_5420" data-name="패스 5420" d="M4.122,2.386A1.044,1.044,0,0,0,4.134.409a3.779,3.779,0,0,0-3.42,0A1.044,1.044,0,0,0,.7,2.386a3.777,3.777,0,0,0,3.421,0" transform="translate(6.083 18.304)" fill="#ff7a7f" fill-rule="evenodd"/>
      <g id="그룹_4324" data-name="그룹 4324" transform="translate(10.003 0)">
        <path id="패스_5421" data-name="패스 5421" d="M7,13.7V2.023A1.729,1.729,0,0,0,5.982.592a5.466,5.466,0,0,0-4.949,0A1.754,1.754,0,0,0,0,2.023V13.7H7Z" transform="translate(0)" fill="#ffdedf" fill-rule="evenodd"/>
      </g>
      <path id="패스_5422" data-name="패스 5422" d="M5.967,3.453c1.371-.79,1.379-2.07.016-2.86a5.464,5.464,0,0,0-4.949,0c-1.372.79-1.379,2.07-.017,2.86a5.463,5.463,0,0,0,4.95,0" transform="translate(10.003 11.678)" fill="#ffeeef" fill-rule="evenodd"/>
      <path id="패스_5423" data-name="패스 5423" d="M0,9.077a1.753,1.753,0,0,1,1.033-1.43,5.075,5.075,0,0,1,2.477-.592V0A5.074,5.074,0,0,0,1.033.592,1.755,1.755,0,0,0,0,2.023V9.077Z" transform="translate(10.003 2.912)" fill="#ffacaf" fill-rule="evenodd"/>
      <path id="패스_5424" data-name="패스 5424" d="M4.837,2.987V1.4a1.2,1.2,0,0,0-.7-.989,3.777,3.777,0,0,0-3.42,0A1.212,1.212,0,0,0,0,1.4V2.987H4.837Z" transform="translate(11.085 13.296)" fill="#ff595f" fill-rule="evenodd"/>
      <path id="패스_5425" data-name="패스 5425" d="M4.123,2.386A1.044,1.044,0,0,0,4.134.409a3.779,3.779,0,0,0-3.42,0A1.044,1.044,0,0,0,.7,2.386a3.777,3.777,0,0,0,3.421,0" transform="translate(11.084 14.886)" fill="#ff7a7f" fill-rule="evenodd"/>
    </g>
    <g id="그룹_4328" data-name="그룹 4328" transform="translate(19.32 48.24) rotate(180)">
      <g id="그룹_4326" data-name="그룹 4326" transform="translate(0 0)">
        <path id="패스_5426" data-name="패스 5426" d="M4.044,6.132l-.012-4.97a1,1,0,0,0-.587-.82A3.126,3.126,0,0,0,.6.342a1.01,1.01,0,0,0-.6.832L0,6.143a1.009,1.009,0,0,1,.6-.832,3.159,3.159,0,0,1,2.859,0,1,1,0,0,1,.587.821" fill="#ffdedf" fill-rule="evenodd"/>
      </g>
      <g id="그룹_4327" data-name="그룹 4327" transform="translate(0 4.97)">
        <path id="패스_5427" data-name="패스 5427" d="M3.447,1.994A.872.872,0,0,0,3.456.342,3.157,3.157,0,0,0,.6.342a.872.872,0,0,0-.01,1.652,3.159,3.159,0,0,0,2.859,0" transform="translate(0 0)" fill="#ffeeef" fill-rule="evenodd"/>
      </g>
      <path id="패스_5428" data-name="패스 5428" d="M2.135,1A1.95,1.95,0,0,0,.37,1,.624.624,0,0,0,0,1.513L0,.659A.662.662,0,0,1,.363.211a1.95,1.95,0,0,1,1.765,0A.619.619,0,0,1,2.49.718v.724A.657.657,0,0,0,2.135,1" transform="translate(0.768 5.817)" fill="#ff595f" fill-rule="evenodd"/>
      <path id="패스_5429" data-name="패스 5429" d="M2.127,1.231A.538.538,0,0,0,2.133.211a1.95,1.95,0,0,0-1.765,0,.538.538,0,0,0-.005,1.02,1.949,1.949,0,0,0,1.764,0" transform="translate(0.77 6.605)" fill="#ff7a7f" fill-rule="evenodd"/>
      <path id="패스_5430" data-name="패스 5430" d="M4.029,1.163a1,1,0,0,0-.587-.82A3.127,3.127,0,0,0,.6.342a1.012,1.012,0,0,0-.6.832v2.3a1.011,1.011,0,0,1,.6-.832,3.129,3.129,0,0,1,2.845,0,1,1,0,0,1,.587.82v-2.3Z" transform="translate(0.002 1.52)" fill="#ff595f" fill-rule="evenodd"/>
    </g>
    <g id="그룹_4331" data-name="그룹 4331" transform="translate(22.198 49.88) rotate(180)">
      <g id="그룹_4329" data-name="그룹 4329" transform="translate(0 0)">
        <path id="패스_5431" data-name="패스 5431" d="M4.044,6.132l-.012-4.97a1,1,0,0,0-.587-.82A3.126,3.126,0,0,0,.6.342a1.01,1.01,0,0,0-.6.832L0,6.143a1.009,1.009,0,0,1,.6-.832,3.159,3.159,0,0,1,2.859,0,1,1,0,0,1,.587.821" fill="#ffdedf" fill-rule="evenodd"/>
      </g>
      <g id="그룹_4330" data-name="그룹 4330" transform="translate(0 4.97)">
        <path id="패스_5432" data-name="패스 5432" d="M3.447,1.994A.872.872,0,0,0,3.456.342,3.157,3.157,0,0,0,.6.342a.872.872,0,0,0-.01,1.652,3.159,3.159,0,0,0,2.859,0" transform="translate(0 0)" fill="#ffeeef" fill-rule="evenodd"/>
      </g>
      <path id="패스_5433" data-name="패스 5433" d="M2.135,1A1.95,1.95,0,0,0,.37,1,.624.624,0,0,0,0,1.513L0,.659A.662.662,0,0,1,.363.211a1.95,1.95,0,0,1,1.765,0A.619.619,0,0,1,2.49.718v.724A.657.657,0,0,0,2.135,1" transform="translate(0.768 5.817)" fill="#ff595f" fill-rule="evenodd"/>
      <path id="패스_5434" data-name="패스 5434" d="M2.127,1.231A.538.538,0,0,0,2.133.211a1.95,1.95,0,0,0-1.765,0,.538.538,0,0,0-.005,1.02,1.949,1.949,0,0,0,1.764,0" transform="translate(0.77 6.605)" fill="#ff7a7f" fill-rule="evenodd"/>
      <path id="패스_5435" data-name="패스 5435" d="M4.029,1.163a1,1,0,0,0-.587-.82A3.127,3.127,0,0,0,.6.342a1.012,1.012,0,0,0-.6.832v2.3a1.011,1.011,0,0,1,.6-.832,3.129,3.129,0,0,1,2.845,0,1,1,0,0,1,.587.82v-2.3Z" transform="translate(0.002 1.52)" fill="#ff595f" fill-rule="evenodd"/>
    </g>
    <path id="패스_5436" data-name="패스 5436" d="M0,17.5V35l4.771,2.764v-17.5L23.634,31.176v17.5L28.4,51.436v-35l-4.771-2.764v0L0,0Z" transform="translate(0 53.177)" fill="#ffacaf" fill-rule="evenodd"/>
    <path id="패스_5437" data-name="패스 5437" d="M4.677,0l.095.054v35L0,32.29V2.706Z" transform="translate(76.518 39.067)" fill="#ff595f" fill-rule="evenodd"/>
    <path id="패스_5438" data-name="패스 5438" d="M0,2.764v35L4.771,35V0Z" transform="translate(81.289 36.358)" fill="#ff8a8f" fill-rule="evenodd"/>
    <path id="패스_5439" data-name="패스 5439" d="M4.771,30.608v0L0,33.368v35L4.771,65.6v-17.5L57.666,17.5V0Z" transform="translate(28.404 36.245)" fill="#ff8a8f" fill-rule="evenodd"/>
    <path id="패스_5440" data-name="패스 5440" d="M0,13.549,23.392,0V9.808L0,23.4Z" transform="translate(32.924 57.664)" fill="#ffacaf" fill-rule="evenodd"/>
    <path id="패스_5441" data-name="패스 5441" d="M2.339.754A2.065,2.065,0,0,1,1.17,2.447c-.646.291-1.17,0-1.17-.64A2.063,2.063,0,0,1,1.17.114c.646-.291,1.169,0,1.169.64" transform="translate(43.451 68.085)" fill="#ff595f" fill-rule="evenodd"/>
    <path id="패스_5442" data-name="패스 5442" d="M0,13.549,23.392,0V9.808L0,23.4Z" transform="translate(57.856 43.291)" fill="#ffacaf" fill-rule="evenodd"/>
    <path id="패스_5443" data-name="패스 5443" d="M2.34.754A2.066,2.066,0,0,1,1.17,2.448c-.647.291-1.17,0-1.17-.64A2.062,2.062,0,0,1,1.17.114c.645-.291,1.169,0,1.169.64" transform="translate(68.383 53.711)" fill="#ff595f" fill-rule="evenodd"/>
  </g>
</svg>
