<svg xmlns="http://www.w3.org/2000/svg" xmlns:xlink="http://www.w3.org/1999/xlink" width="550" height="100" viewBox="0 0 550 100">
    <defs>
        <path id="a" d="M0 .06h45v42.23H0z"/>
    </defs>
    <g fill="none" fill-rule="evenodd">
        <rect width="550" height="100" fill="#FF595F" rx="6"/>
        <g transform="translate(98 30)">
            <mask id="b" fill="#fff">
                <use xlink:href="#a"/>
            </mask>
            <path fill="#FFF" d="M22.5.06C34.926.06 45 8.195 45 18.23 45 28.265 34.926 36.4 22.5 36.4c-1.427 0-2.822-.109-4.176-.314-2.494 1.732-8.272 5.746-8.659 6.01-.494.336-1.247.352-.94-.898.245-1.007 1.479-5.714 1.95-7.508C4.267 30.487 0 24.76 0 18.23 0 8.195 10.074.06 22.5.06zm9.511 13.048c-.618 0-1.251.26-1.238.764.024.892-.026 8.786-.028 9.731v.057c0 .929 2.227.962 2.397.105l.01-.107v-3.25l.708-.58 3.092 4.31c.605.815 2.469-.587 2.017-1.442l-.051-.08-3.284-4.416s2.078-2.296 3.012-3.257l.096-.097c.495-.503-.968-2.042-1.53-1.679l-.057.046c-.482.489-3.778 3.86-3.978 4.064l-.01.01s.03-2.067.003-3.328l-.003-.153c-.012-.437-.5-.664-1.032-.694l-.124-.004zM18.005 13.1c-.55 0-1.087.206-1.316.72-.56 1.258-2.533 7.05-3.285 8.89l-.069.165c-.484 1.14 1.53 2.075 2.108 1.06l.05-.101.469-1.678h4.292s-.136.065.355 1.421l.067.185c.447 1.206 2.556.431 2.263-.75l-.035-.113c-.641-1.727-2.813-7.821-3.315-8.991l-.039-.088c-.177-.388-.776-.673-1.39-.714l-.155-.006zm-3.95 0h-1.028l-6.103.01c-1.33.002-1.37 2.2-.13 2.346l.133.008h2.345v.246c.003 1.172.013 6.181.003 7.695v.115c.003 1.079 2.268 1.105 2.427.103l.008-.116.011-8.056.786-.001h1.547c1.41 0 1.459-2.195.143-2.342l-.141-.008zm10.94.003c-.636 0-1.272.367-1.27 1.1.004 1.853.01 7.363.01 8.565l.001.233s-.17 1.217.788 1.328l.145.008.51-.001c1.142-.002 2.918-.01 3.941-.011h.256c1.063 0 1.096-2.228.109-2.387l-.114-.01h-.472c-1.065-.002-2.49-.01-2.63-.011h-.011v-.257c.001-1.089.007-5.339.006-7.06v-.403c-.002-.684-.558-1.047-1.15-1.09l-.119-.004zm-6.844 2.673l1.306 4.177h-2.72l1.414-4.177z" mask="url(#b)"/>
        </g>
        <text fill="#FFF" font-family="SpoqaHanSans-Bold, SpoqaHanSans" font-size="28" font-weight="bold">
            <tspan x="152" y="62">카카오톡으로 로그인하기</tspan>
        </text>
    </g>
</svg>
