<svg xmlns="http://www.w3.org/2000/svg" xmlns:xlink="http://www.w3.org/1999/xlink" width="50" height="50" viewBox="0 0 50 50">
    <defs>
        <path id="prefix__a" d="M0 0L50 0 50 50 0 50z"/>
    </defs>
    <g fill="none" fill-rule="evenodd">
        <mask id="prefix__b" fill="#fff">
            <use xlink:href="#prefix__a"/>
        </mask>
        <path fill="#F2F2F2" d="M50 25c0 13.807-11.193 25-25 25S0 38.807 0 25 11.193 0 25 0s25 11.193 25 25" mask="url(#prefix__b)"/>
        <path fill="#FF595E" d="M15.567 29.861C15.567 26.026 19.791 25 25 25c5.21 0 9.433 1.026 9.433 4.861"/>
        <path stroke="#1A1A1A" stroke-linecap="round" stroke-width="1.736" d="M34.722 23.958v5.657c0 .52-.421.94-.94.94H16.217c-.52 0-.94-.42-.94-.94v-5.657c0-1.342-1.088-2.43-2.43-2.43-1.343 0-2.431 1.088-2.431 2.43V33.1c0 1.28 1.037 2.318 2.317 2.318h24.531c1.28 0 2.318-1.038 2.318-2.318v-9.14c0-1.343-1.088-2.431-2.43-2.431s-2.43 1.088-2.43 2.43z"/>
        <path fill="#1A1A1A" d="M21.354 18.403c0 .67-.544 1.215-1.215 1.215s-1.215-.544-1.215-1.215.544-1.215 1.215-1.215c.67 0 1.215.544 1.215 1.215M31.077 18.403c0 .67-.545 1.215-1.216 1.215-.671 0-1.215-.544-1.215-1.215s.544-1.215 1.215-1.215 1.216.544 1.216 1.215"/>
        <path stroke="#1A1A1A" stroke-linecap="round" stroke-width="1.736" d="M15.567 29.861C15.567 26.026 19.791 25 25 25c5.21 0 9.433 1.026 9.433 4.861M13.553 35.417v2.777M36.447 35.417v2.777M13.195 21.528v-4.563c0-2.849 2.31-5.16 5.16-5.16h13.29c2.85 0 5.16 2.311 5.16 5.16v4.563"/>
    </g>
</svg>
