<svg xmlns="http://www.w3.org/2000/svg" xmlns:xlink="http://www.w3.org/1999/xlink" width="50" height="50" viewBox="0 0 50 50">
    <defs>
        <path id="prefix__a" d="M0 50L50 50 50 0 0 0z"/>
    </defs>
    <g fill="none" fill-rule="evenodd">
        <path fill="#F2F2F2" d="M50 25c0 13.807-11.193 25-25 25S0 38.807 0 25 11.193 0 25 0s25 11.193 25 25"/>
        <mask id="prefix__b" fill="#fff">
            <use xlink:href="#prefix__a"/>
        </mask>
        <path fill="#B2DADB" d="M15.625 22.569L34.375 22.569 34.375 11.458 15.625 11.458z" mask="url(#prefix__b)"/>
        <path stroke="#1A1A1A" stroke-linecap="round" stroke-width="1.736" d="M33.09 39.236H16.91c-.71 0-1.284-.575-1.284-1.284V12.048c0-.71.575-1.284 1.284-1.284h16.182c.709 0 1.284.575 1.284 1.284v25.904c0 .71-.575 1.284-1.284 1.284zM16.32 22.57h17.36M19.792 14.93v3.473M19.792 26.042v3.472" mask="url(#prefix__b)"/>
    </g>
</svg>
