<svg xmlns="http://www.w3.org/2000/svg" width="50" height="50" viewBox="0 0 50 50">
    <g fill="none" fill-rule="evenodd">
        <path fill="#F2F2F2" d="M50 25c0 13.807-11.193 25-25 25S0 38.807 0 25 11.193 0 25 0s25 11.193 25 25"/>
        <path fill="#FF595E" d="M40.4 35.07H9.6c-.316 0-.572-.257-.572-.572v-6.426c0-2.272 1.842-4.114 4.114-4.114h23.716c2.272 0 4.114 1.842 4.114 4.114v6.426c0 .315-.255.571-.571.571"/>
        <path stroke="#1A1A1A" stroke-linecap="round" stroke-width="1.736" d="M40.4 35.07H9.6c-.316 0-.572-.257-.572-.572v-6.426c0-2.272 1.842-4.114 4.114-4.114h23.716c2.272 0 4.114 1.842 4.114 4.114v6.426c0 .315-.255.571-.571.571zM9.375 30.692h31.25"/>
        <path stroke="#1A1A1A" stroke-linecap="round" stroke-width="2.083" d="M11.806 35.764h2.083M36.111 35.764h2.083M37.5 23.264v-5.847c0-1.757-1.424-3.18-3.18-3.18H15.68c-1.756 0-3.18 1.423-3.18 3.18v5.847"/>
        <path stroke="#1A1A1A" stroke-linecap="round" stroke-width="1.736" d="M22.396 23.611V21.99c0-.639-.518-1.157-1.156-1.157h-3.243c-.639 0-1.157.518-1.157 1.157v1.621M33.16 23.611V21.99c0-.639-.518-1.157-1.157-1.157H28.76c-.638 0-1.156.518-1.156 1.157v1.621"/>
    </g>
</svg>
