<svg xmlns="http://www.w3.org/2000/svg" width="199" height="50" viewBox="0 0 199 50">
    <g fill="none" fill-rule="evenodd">
        <g>
            <path fill="#FF595F" d="M38.444 32.692c1.558-1.157 1.545-1.49.22-2.821-.458-.46-.993-.854-1.46-1.305-.756-.731-1.47-.681-2.297-.06-1.974 1.48-4.165 2.527-6.72 2.942-4.304.697-8.153-.163-11.544-2.685-1.445-1.075-1.696-1.107-2.983.07-.397.362-.796.723-1.185 1.093-1.17 1.114-1.126 1.725.194 2.706 3.794 2.82 8.057 4.416 13.004 4.21 4.872.221 9.055-1.387 12.771-4.15zM8.5 47.042c-3.201-.005-4.493-1.266-4.495-4.38-.005-5.875-.006-11.75 0-17.623.003-2.35.748-4.39 2.59-6.014 4.68-4.128 9.33-8.289 14.003-12.424.896-.793 1.78-1.629 2.789-2.265 1.365-.86 2.57-.724 3.787.32a837.167 837.167 0 019.052 7.879c2.369 2.09 4.664 4.262 7.058 6.324 1.905 1.64 2.704 3.683 2.706 6.086.006 6.032.025 12.064-.007 18.096-.014 2.646-1.46 3.995-4.164 4-5.594.007-11.187.002-16.78.002-5.514 0-11.026.005-16.539-.002z" transform="translate(-40 -20) translate(40 20)"/>
            <path fill="#4C4C4C" fill-rule="nonzero" d="M118.88 25.525l.019-.736c.096-4.357.056-13.55-.019-17.624-1.4-.2-4.88-.16-5.96 0l-.029.983c-.09 4.06-.08 14.236.029 17.377 1.4.12 4.72.16 5.96 0zm-11.44-.44c.84-.96 2.2-3.28 2.68-4.56l-9-4.6v-2.84l6.925-.063c.328-.004.622-.01.875-.017.12-1.4.12-3.64 0-5.16l-1.628-.03c-7.18-.118-17.408-.044-20.412.03-.16 1.44-.16 3.56 0 5.16l.451.023c1.431.057 4.295.057 7.509.057v2.96L86 21.805c.56 1.24 2.2 3.44 3.08 4.36 2.8-1.68 6.04-3.76 9-5.8 3.08 1.72 6.32 3.28 9.36 4.72zm11.44 2.2c-1.48-.08-3.8-.08-5.88 0v3.08l-3.104-.018c-4.695-.02-10.44-.014-14.456.018v-3.08c-.92-.08-4.8-.16-5.88 0l-.029.475c-.17 3.27-.161 11.383.029 15.525l.441.03c4.435.247 26.3.201 28.879-.03l.037-1.261c.115-4.582.073-10.794-.037-14.739zm-23.44 11v-2.96l2.137.014c4.752.026 10.863.02 15.423-.014v2.96l-2.23.035c-4.345.043-12.271.031-15.33-.035zm29.898-16l.405-.136c2.68-.926 8.62-3.343 13.515-5.544l1.65.703c4.758 2.01 10.055 4.106 12.31 4.857.92-1.12 1.96-3.48 2.24-4.88l-1.248-.517c-3.24-1.328-7.78-3.094-11.792-4.643.04-1.72 0-3.52-.08-4.96-1.4-.16-5.24-.12-6.32 0-.08 1.44-.12 3.24-.08 4.92l-3.352 1.365a1301.53 1301.53 0 00-9.608 3.995c.28 1.28 1.52 3.88 2.36 4.84zm31.04 1.72l-1.78-.025c-6.55-.069-25.181-.118-32.62.025-.16 1.48-.16 3.64 0 5l1.268.036c2.73.057 7.93.09 13.412.124l.007 1.553c.013 1.53.043 2.947.073 3.847 1.6.12 4.64.12 6.12 0l.016-.689c.024-1.336.024-3.052.024-4.71l6.93-.021c3.207-.023 5.649-.067 6.55-.14.16-1.56.16-3.6 0-5zm-26.08 14.08c.08-1.76.08-4.4 0-6.4-1.44-.12-4.88-.16-6.12-.04l-.024.543c-.106 2.673-.162 8.341.024 11.097l.925.036c5.665.164 26.877.152 29.875-.036.16-1.48.16-3.76 0-5.2l-1.346-.022c-4.458-.049-15.476-.013-23.334.022zm54.778 5.08c1.4.12 4.76.16 6 0l.022-.866c.137-6.419.13-29.928-.022-35.134-1.4-.2-4.92-.24-6 0l-.033 1.948c-.093 7.696-.112 29.865.033 34.052zm-15.6-1.72l.52-.005c7.537-.166 10.689-4.036 10.758-16.603l.002-.432c0-13.055-3.209-16.954-11.018-17.038l-.262-.002c-7.912 0-11.247 3.756-11.32 16.609v.431c0 13.2 3.32 17.04 11.32 17.04zm.176-5.601l-.176.001c-4.04 0-5.2-2.16-5.2-11.44l.003-.8c.066-8.474 1.24-10.576 5.02-10.638l.177-.002c4.04 0 5.16 2.16 5.16 11.44l-.003.8c-.065 8.475-1.201 10.577-4.981 10.639z" transform="translate(-40 -20) translate(40 20)"/>
        </g>
        <path d="M184.808 70.739c1.558-1.158 1.545-1.49.219-2.822-.457-.459-.992-.853-1.46-1.305-.756-.73-1.469-.68-2.296-.06-1.975 1.48-4.166 2.528-6.72 2.942-4.305.698-8.153-.162-11.544-2.684-1.446-1.075-1.697-1.107-2.984.069-.396.362-.795.723-1.184 1.093-1.17 1.114-1.126 1.725.193 2.706 3.795 2.82 8.057 4.416 13.005 4.211 4.871.22 9.054-1.388 12.771-4.15z" transform="translate(-40 -20)"/>
    </g>
</svg>
