<svg xmlns="http://www.w3.org/2000/svg" width="113.849" height="90.864" viewBox="0 0 113.849 90.864">
  <g id="kitchen-category-table" transform="translate(0 -0.36)">
    <path id="패스_5094" data-name="패스 5094" d="M9.628,105.235c-.941,0-1.7-.307-1.7-1.175V77.837a1.643,1.643,0,0,1,1.7-1.579,1.642,1.642,0,0,1,1.7,1.58V104.06c0,.869-.76,1.176-1.7,1.176M37.9,121.621c-.941,0-1.7-.4-1.7-1.411V89.582a1.706,1.706,0,1,1,3.4,0V120.21c0,1.014-.765,1.411-1.7,1.411M110.231,80.24c-.938,0-1.7-.4-1.7-1.483V50.9a1.716,1.716,0,1,1,3.4,0V78.757c0,1.079-.76,1.483-1.7,1.483" transform="translate(-4.958 -30.397)" fill="#ff8a8f" fill-rule="evenodd"/>
    <path id="패스_5095" data-name="패스 5095" d="M109.41,54.941c-.035.024-.075.047-.114.07L36.846,96.842a4.065,4.065,0,0,1-3.528.4L1.008,78.581l-.57-.328A.768.768,0,0,1,0,77.585v2.3a.762.762,0,0,0,.438.665L33.319,99.537a4.057,4.057,0,0,0,3.527-.4L109.3,57.309a2,2,0,0,0,1.121-1.287v-2.3a1.909,1.909,0,0,1-1.006,1.218" transform="translate(0 -33.38)" fill="#ff8a8f" fill-rule="evenodd"/>
    <g id="그룹_4265" data-name="그룹 4265" transform="translate(0 0.36)">
      <path id="패스_5096" data-name="패스 5096" d="M109.982,19.591,77.1.606a4.072,4.072,0,0,0-3.526.4L1.12,42.834C.393,43.254,0,43.765,0,44.2a.767.767,0,0,0,.438.667l.57.328L33.318,63.856a4.063,4.063,0,0,0,3.527-.4L109.3,21.628c.04-.022.079-.046.114-.069a1.912,1.912,0,0,0,1.007-1.218v-.132a.78.78,0,0,0-.434-.617" transform="translate(0 -0.356)" fill="#fbb9bb" fill-rule="evenodd"/>
      <g id="그룹_4264" data-name="그룹 4264" transform="translate(51.565 11.332)">
        <path id="패스_5097" data-name="패스 5097" d="M3.718,45.172v0a.912.912,0,0,1-.54.76A2.915,2.915,0,0,1,.548,45.93a.4.4,0,0,1-.04-.024A.906.906,0,0,1,0,45.176H0a.621.621,0,0,1,.011-.121.989.989,0,0,1,.529-.637L.59,44.39a2.922,2.922,0,0,1,2.579.031,1,1,0,0,1,.54.655v0l.009.092Z" transform="translate(-0.001 -27.934)" fill="#cce7e8" fill-rule="evenodd"/>
        <path id="패스_5098" data-name="패스 5098" d="M3.718,33.631v0H0l.011-.121.741-7.857H2.965l.743,7.879v0Z" transform="translate(-0.001 -16.394)" fill="#cce7e8" fill-rule="evenodd"/>
        <path id="패스_5099" data-name="패스 5099" d="M3.377,46.052a2.581,2.581,0,0,1-2.332,0A.708.708,0,0,1,1.038,44.7a2.585,2.585,0,0,1,2.332,0,.709.709,0,0,1,.007,1.343" transform="translate(-0.35 -28.137)" fill="#e5f2f3" fill-rule="evenodd"/>
        <path id="패스_5100" data-name="패스 5100" d="M.954,26.017.589,32.849l-.042.786-.038.731A.907.907,0,0,1,0,33.634H0a.612.612,0,0,1,.011-.121l.741-7.858H.9l.053.362Z" transform="translate(-0.001 -16.393)" fill="#e5f2f3" fill-rule="evenodd"/>
        <path id="패스_5101" data-name="패스 5101" d="M3.895,24.142a1.732,1.732,0,0,0-1.564,0,.475.475,0,0,0,.005.9,1.729,1.729,0,0,0,1.563,0,.475.475,0,0,0,0-.9" transform="translate(-1.257 -15.329)" fill="#e5f2f3" fill-rule="evenodd"/>
        <path id="패스_5102" data-name="패스 5102" d="M4.089,24.416a1.414,1.414,0,0,0-1.28,0,.389.389,0,0,0,0,.737,1.418,1.418,0,0,0,1.28,0c.352-.2.35-.533,0-.737" transform="translate(-1.593 -15.522)" fill="#9aced0" fill-rule="evenodd"/>
        <path id="패스_5103" data-name="패스 5103" d="M4.382,20.332l-.173-.012c.045-.651.121-1.307.195-1.94a18.082,18.082,0,0,0,.154-4.311A39.608,39.608,0,0,1,4.8,4.776l.172.022a39.44,39.44,0,0,0-.242,9.249A18.232,18.232,0,0,1,4.576,18.4c-.073.632-.149,1.285-.194,1.932" transform="translate(-2.633 -3.333)" fill="#02858a" fill-rule="evenodd"/>
        <g id="그룹_4263" data-name="그룹 4263" transform="translate(1.335 0)">
          <path id="패스_5104" data-name="패스 5104" d="M.6.353A2.981,2.981,0,0,0,.232,3c1.076,1.715,1.422-.456,1.23-1.6S.833.236.6.353" transform="translate(-0.043 -0.305)" fill="#02858a" fill-rule="evenodd"/>
        </g>
        <path id="패스_5105" data-name="패스 5105" d="M4.248,1.7c-.584-.349-1.065,2.379-.506,2.965S4.859,4.5,4.88,3.987s-.1-1.965-.632-2.286" transform="translate(-2.186 -1.39)" fill="#4da9ad" fill-rule="evenodd"/>
        <path id="패스_5106" data-name="패스 5106" d="M5.844,1.658a8.557,8.557,0,0,1-.311,2.835c-.2.708.848-.142.87-.874C6.451,2,5.883,1.231,5.844,1.658" transform="translate(-3.445 -1.31)" fill="#32979b" fill-rule="evenodd"/>
        <path id="패스_5107" data-name="패스 5107" d="M2.925,13.375c-.763-.765,1.059-1.849,1.265-1.861.086.559-.349,2.779-1.265,1.861m-.058,2.43c.763-.765-1.059-1.849-1.265-1.861-.086.559.349,2.779,1.265,1.861" transform="translate(-0.996 -7.547)" fill="#4da9ad" fill-rule="evenodd"/>
        <path id="패스_5108" data-name="패스 5108" d="M4.275,27.671s-.09,7.231-.112,7.663l-.022.43A2.215,2.215,0,0,0,5.554,35.5c-.03-.881-.443-7.928-.443-7.928a4.339,4.339,0,0,1-.836.1" transform="translate(-2.591 -17.59)" fill="#e5f2f3" fill-rule="evenodd"/>
      </g>
    </g>
    <g id="그룹_4266" data-name="그룹 4266" transform="translate(59.317 55.161)">
      <path id="패스_5109" data-name="패스 5109" d="M19.388,62.159a14.4,14.4,0,0,0-13.026,0c-1.8,1.038-2.7,2.4-2.7,3.76a3.205,3.205,0,0,0,.2,1.093,5.344,5.344,0,0,0,2.5,2.667,14.4,14.4,0,0,0,13.026,0,5.346,5.346,0,0,0,2.5-2.667,3.142,3.142,0,0,0,.2-1.156c-.028-1.341-.927-2.676-2.7-3.7m-1.2.694a11.741,11.741,0,0,0-10.622,0,3.733,3.733,0,0,0-2.2,3.067,2.611,2.611,0,0,0,.16.891,4.36,4.36,0,0,0,2.039,2.175,11.739,11.739,0,0,0,10.622,0,4.361,4.361,0,0,0,2.041-2.175,2.561,2.561,0,0,0,.159-.943,3.762,3.762,0,0,0-2.2-3.016" transform="translate(-2.293 -37.908)" fill="#ff9b9f" fill-rule="evenodd"/>
      <path id="패스_5110" data-name="패스 5110" d="M19.388,60.053a14.4,14.4,0,0,0-13.026,0c-1.8,1.038-2.7,2.4-2.7,3.761a3.2,3.2,0,0,0,.2,1.093,5.343,5.343,0,0,0,2.5,2.667,14.393,14.393,0,0,0,13.026,0,5.347,5.347,0,0,0,2.5-2.667,3.142,3.142,0,0,0,.2-1.156c-.028-1.341-.927-2.676-2.7-3.7M5.366,63.882h15.02v-.016q0-.052,0-.1a3.762,3.762,0,0,0-2.2-3.015,11.739,11.739,0,0,0-10.622,0,3.732,3.732,0,0,0-2.2,3.067c0,.022,0,.046,0,.069M19.94,65.29H5.813a4.913,4.913,0,0,0,1.753,1.59,11.737,11.737,0,0,0,10.622,0,4.916,4.916,0,0,0,1.753-1.59" transform="translate(-2.293 -36.591)" fill="#fbb9bb" fill-rule="evenodd"/>
      <path id="패스_5111" data-name="패스 5111" d="M26.013,39.9c-.745,0-1.346-.368-1.346-.822V19.113c0-.454.6-.822,1.345-.822s1.346.368,1.346.822V39.077c0,.455-.6.823-1.346.822" transform="translate(-15.43 -11.442)" fill="#fbb9bb" fill-rule="evenodd"/>
      <path id="패스_5112" data-name="패스 5112" d="M18.066,20.638a16.539,16.539,0,0,1-14.967,0A6.139,6.139,0,0,1,.226,17.573,3.682,3.682,0,0,1,0,16.317v2.512c0,1.563,1.034,3.127,3.1,4.32a16.538,16.538,0,0,0,14.967,0c2.034-1.174,3.068-2.708,3.1-4.247q0-.073,0-.146V16.391a3.617,3.617,0,0,1-.225,1.182,6.142,6.142,0,0,1-2.875,3.065" transform="translate(0 -10.207)" fill="#ff595f" fill-rule="evenodd"/>
      <path id="패스_5113" data-name="패스 5113" d="M18.066,1.79A16.546,16.546,0,0,0,3.1,1.79C1.034,2.983,0,4.546,0,6.111A3.687,3.687,0,0,0,.226,7.367,6.14,6.14,0,0,0,3.1,10.431a16.538,16.538,0,0,0,14.967,0,6.142,6.142,0,0,0,2.875-3.065,3.609,3.609,0,0,0,.225-1.328c-.032-1.54-1.065-3.074-3.1-4.249" transform="translate(0 0)" fill="#ff8a8f" fill-rule="evenodd"/>
      <path id="패스_5114" data-name="패스 5114" d="M6.993,76.64H21.12a4.088,4.088,0,0,1-.762.885H7.754a4.107,4.107,0,0,1-.762-.885m15.568.57v.315h-.248q.134-.156.248-.315M5.8,77.525H5.552V77.21q.115.159.249.315" transform="translate(-3.473 -47.941)" fill="#ff9b9f" fill-rule="evenodd"/>
    </g>
    <g id="그룹_4267" data-name="그룹 4267" transform="translate(92.682 35.276)">
      <path id="패스_5115" data-name="패스 5115" d="M19.388,62.159a14.4,14.4,0,0,0-13.026,0c-1.8,1.038-2.7,2.4-2.7,3.76a3.205,3.205,0,0,0,.2,1.093,5.344,5.344,0,0,0,2.5,2.667,14.4,14.4,0,0,0,13.026,0,5.346,5.346,0,0,0,2.5-2.667,3.142,3.142,0,0,0,.2-1.156c-.028-1.341-.927-2.676-2.7-3.7m-1.2.694a11.741,11.741,0,0,0-10.622,0,3.733,3.733,0,0,0-2.2,3.067,2.611,2.611,0,0,0,.16.891,4.36,4.36,0,0,0,2.039,2.175,11.739,11.739,0,0,0,10.622,0,4.361,4.361,0,0,0,2.041-2.175,2.561,2.561,0,0,0,.159-.943,3.762,3.762,0,0,0-2.2-3.016" transform="translate(-2.293 -37.908)" fill="#ff9b9f" fill-rule="evenodd"/>
      <path id="패스_5116" data-name="패스 5116" d="M19.388,60.053a14.4,14.4,0,0,0-13.026,0c-1.8,1.038-2.7,2.4-2.7,3.761a3.2,3.2,0,0,0,.2,1.093,5.343,5.343,0,0,0,2.5,2.667,14.393,14.393,0,0,0,13.026,0,5.347,5.347,0,0,0,2.5-2.667,3.142,3.142,0,0,0,.2-1.156c-.028-1.341-.927-2.676-2.7-3.7M5.366,63.882h15.02v-.016q0-.052,0-.1a3.762,3.762,0,0,0-2.2-3.015,11.739,11.739,0,0,0-10.622,0,3.732,3.732,0,0,0-2.2,3.067c0,.022,0,.046,0,.069M19.94,65.29H5.813a4.913,4.913,0,0,0,1.753,1.59,11.737,11.737,0,0,0,10.622,0,4.916,4.916,0,0,0,1.753-1.59" transform="translate(-2.293 -36.591)" fill="#fbb9bb" fill-rule="evenodd"/>
      <path id="패스_5117" data-name="패스 5117" d="M26.013,39.9c-.745,0-1.346-.368-1.346-.822V19.113c0-.454.6-.822,1.345-.822s1.346.368,1.346.822V39.077c0,.455-.6.823-1.346.822" transform="translate(-15.43 -11.442)" fill="#fbb9bb" fill-rule="evenodd"/>
      <path id="패스_5118" data-name="패스 5118" d="M18.066,20.638a16.539,16.539,0,0,1-14.967,0A6.139,6.139,0,0,1,.226,17.573,3.682,3.682,0,0,1,0,16.317v2.512c0,1.563,1.034,3.127,3.1,4.32a16.538,16.538,0,0,0,14.967,0c2.034-1.174,3.068-2.708,3.1-4.247q0-.073,0-.146V16.391a3.617,3.617,0,0,1-.225,1.182,6.142,6.142,0,0,1-2.875,3.065" transform="translate(0 -10.207)" fill="#ff595f" fill-rule="evenodd"/>
      <path id="패스_5119" data-name="패스 5119" d="M18.066,1.79A16.546,16.546,0,0,0,3.1,1.79C1.034,2.983,0,4.546,0,6.111A3.687,3.687,0,0,0,.226,7.367,6.14,6.14,0,0,0,3.1,10.431a16.538,16.538,0,0,0,14.967,0,6.142,6.142,0,0,0,2.875-3.065,3.609,3.609,0,0,0,.225-1.328c-.032-1.54-1.065-3.074-3.1-4.249" transform="translate(0 0)" fill="#ff8a8f" fill-rule="evenodd"/>
      <path id="패스_5120" data-name="패스 5120" d="M6.993,76.64H21.12a4.088,4.088,0,0,1-.762.885H7.754a4.107,4.107,0,0,1-.762-.885m15.568.57v.315h-.248q.134-.156.248-.315M5.8,77.525H5.552V77.21q.115.159.249.315" transform="translate(-3.473 -47.941)" fill="#ff9b9f" fill-rule="evenodd"/>
    </g>
  </g>
</svg>
