<svg xmlns="http://www.w3.org/2000/svg" width="191" height="225" viewBox="0 0 191 225">
    <defs>
        <filter id="prefix__a" width="184.7%" height="166.3%" x="-42.3%" y="-33.1%" filterUnits="objectBoundingBox">
            <feOffset dy="2" in="SourceAlpha" result="shadowOffsetOuter1"/>
            <feGaussianBlur in="shadowOffsetOuter1" result="shadowBlurOuter1" stdDeviation="14"/>
            <feColorMatrix in="shadowBlurOuter1" result="shadowMatrixOuter1" values="0 0 0 0 0 0 0 0 0 0.309803922 0 0 0 0 0.321568627 0 0 0 0.2 0"/>
            <feMerge>
                <feMergeNode in="shadowMatrixOuter1"/>
                <feMergeNode in="SourceGraphic"/>
            </feMerge>
        </filter>
    </defs>
    <g fill="none" fill-rule="evenodd" filter="url(#prefix__a)" transform="matrix(-1 0 0 1 164 23)">
        <path fill="#CDBEBB" d="M56.523 85.193L56.523 173.013 132.22 129.407 132.22 41.585z"/>
        <path fill="#FFACAF" d="M4.02 140.794L59.952 173.014 59.952 85.194 4.02 53.022z"/>
        <path fill="#FFDEDF" d="M59.952 143.054L59.952 174.989 135.649 131.382 135.649 99.447z"/>
        <path fill="#FF7A7F" d="M128.737 127.399L128.737 113.97 66.863 149.615 66.863 163.044z"/>
        <path fill="#FFACAF" d="M127.738 114.547L127.738 126.824 128.736 127.399 128.736 113.97z"/>
        <path fill="#FFACAF" d="M127.738 126.825L128.737 127.398 66.864 163.044 66.864 161.893z"/>
        <path fill="#FF9B9F" d="M57.524 173.589L59.952 174.989 59.952 143.055 57.524 141.656z"/>
        <path fill="#FFACAF" d="M57.524 141.655L59.952 143.054 135.647 99.447 133.22 98.047z"/>
        <path fill="#FFDEDF" d="M59.952 86.7L59.952 141.882 135.649 98.275 135.649 43.091z"/>
        <path fill="#FF9B9F" d="M51.939 82.084L59.953 86.7 59.953 141.882 53.258 138.026z"/>
        <path fill="#9B9599" d="M57.524 85.301L59.952 86.7 135.647 43.091 133.22 41.693z"/>
        <path fill="#FF7A7F" d="M115.392 120.521L115.392 118.713 118.873 116.707 118.873 118.515z"/>
        <path fill="#FFACAF" d="M111.045 116.208L115.391 118.711 118.874 116.706 114.526 114.202z"/>
        <path fill="#FF7A7F" d="M115.392 120.521L115.392 118.713 111.046 116.207 111.046 118.015z"/>
        <path fill="#FF7A7F" d="M88.987 135.731L88.987 133.925 115.392 118.713 115.392 120.521z"/>
        <path fill="#FFACAF" d="M87.842 133.264L88.987 133.924 115.392 118.711 114.247 118.054z"/>
        <path fill="#FF7A7F" d="M85.506 137.737L85.506 135.931 88.987 133.926 88.987 135.732z"/>
        <path fill="#FFACAF" d="M81.158 133.424L85.506 135.93 88.987 133.924 84.639 131.419zM85.506 137.737L85.506 135.931 81.158 133.424 81.158 135.234z"/>
        <path fill="#FFDEDF" d="M60.539 78.72L60.539 87.597 136.387 43.902 136.387 35.026z"/>
        <path fill="#F9DBDC" d="M0 43.846L60.539 78.721 136.388 35.026 75.848 0.151z"/>
        <path fill="#FBB9BB" d="M0 52.721L60.539 87.598 60.539 78.719 0 43.847z"/>
        <path fill="#E1484D" d="M7.271 39.47L7.271 41.093 65.316 74.531 129.116 37.777z"/>
        <path fill="#FF595F" d="M71.071 2.716L7.272 39.47 65.315 72.908 129.117 36.154z"/>
        <path fill="#FF7A7F" d="M128.306 35.79L71.098 2.834 8.08 39.139 65.287 72.095z"/>
        <path fill="#FF595F" d="M34.396 54.297L96.177 54.297 126.458 36.854 12.045 36.854 8.082 39.139z"/>
        <path fill="#E1484D" d="M129.116 36.154L129.116 37.777 65.317 74.531 65.317 72.908z"/>
        <g>
            <path fill="#E1484D" d="M80.024 35.617c1.023.59 2.686.585 3.715-.007 1.027-.592 1.033-1.552.01-2.14-1.022-.588-2.685-.586-3.714.007-1.027.594-1.033 1.552-.01 2.14" transform="translate(22.5 10.44)"/>
            <path fill="#FF595F" d="M80.024 35.058c1.023.588 2.686.586 3.715-.007 1.027-.594 1.033-1.551.01-2.14-1.022-.59-2.685-.585-3.714.007-1.027.592-1.033 1.55-.01 2.14" transform="translate(22.5 10.44)"/>
            <path fill="#FF595F" d="M79.26 33.985L84.513 33.985 84.513 32.75 79.26 32.75z" transform="translate(22.5 10.44)"/>
            <path fill="#FFDEDF" d="M80.024 33.822c1.023.59 2.686.586 3.715-.006 1.027-.592 1.033-1.552.01-2.14-1.022-.588-2.685-.586-3.714.006-1.027.595-1.033 1.552-.01 2.14" transform="translate(22.5 10.44)"/>
            <path fill="#FF595F" d="M80.212 33.715c.92.529 2.414.527 3.34-.007.926-.533.93-1.394.01-1.923-.92-.53-2.414-.527-3.34.004-.926.533-.93 1.396-.01 1.926" transform="translate(22.5 10.44)"/>
            <path fill="#E1484D" d="M72.77 39.796c1.021.588 2.684.586 3.713-.006 1.029-.594 1.035-1.552.012-2.14-1.022-.59-2.685-.586-3.714.006-1.027.592-1.034 1.552-.01 2.14" transform="translate(22.5 10.44)"/>
            <path fill="#FF595F" d="M72.77 39.236c1.021.59 2.684.586 3.713-.006s1.035-1.55.012-2.14c-1.022-.588-2.685-.586-3.714.006-1.027.595-1.034 1.552-.01 2.14" transform="translate(22.5 10.44)"/>
            <path fill="#FF595F" d="M72.008 38.164L77.261 38.164 77.261 36.929 72.008 36.929z" transform="translate(22.5 10.44)"/>
            <path fill="#FFDEDF" d="M72.77 38.002c1.021.588 2.684.586 3.713-.007 1.029-.594 1.035-1.552.012-2.14-1.022-.59-2.685-.585-3.714.007-1.027.592-1.034 1.552-.01 2.14" transform="translate(22.5 10.44)"/>
            <path fill="#FF595F" d="M72.957 37.894c.92.53 2.414.527 3.34-.006.926-.534.93-1.395.01-1.924-.919-.53-2.415-.527-3.34.004-.925.534-.93 1.397-.01 1.926" transform="translate(22.5 10.44)"/>
            <path fill="#E1484D" d="M61.889 46.064c1.02.59 2.683.586 3.712-.006 1.03-.592 1.036-1.55.013-2.14-1.023-.588-2.686-.586-3.715.006-1.027.595-1.033 1.552-.01 2.14" transform="translate(22.5 10.44)"/>
            <path fill="#FF595F" d="M61.889 45.505c1.02.588 2.683.586 3.712-.006 1.03-.594 1.036-1.552.013-2.14-1.023-.59-2.686-.586-3.715.007-1.027.592-1.033 1.55-.01 2.14" transform="translate(22.5 10.44)"/>
            <path fill="#FF595F" d="M61.125 44.432L66.378 44.432 66.378 43.197 61.125 43.197z" transform="translate(22.5 10.44)"/>
            <path fill="#FFDEDF" d="M61.889 44.27c1.02.59 2.683.586 3.712-.006 1.03-.593 1.036-1.55.013-2.14-1.023-.588-2.686-.586-3.715.006-1.027.594-1.033 1.552-.01 2.14" transform="translate(22.5 10.44)"/>
            <path fill="#FF595F" d="M62.076 44.162c.92.53 2.414.527 3.34-.006.926-.533.93-1.394.01-1.924-.92-.529-2.416-.527-3.34.005-.926.533-.93 1.396-.01 1.925" transform="translate(22.5 10.44)"/>
            <path fill="#E1484D" d="M54.633 50.244c1.023.588 2.686.586 3.715-.006 1.027-.593 1.033-1.552.01-2.14-1.02-.588-2.683-.586-3.712.006-1.03.592-1.033 1.552-.013 2.14" transform="translate(22.5 10.44)"/>
            <path fill="#FF595F" d="M54.633 49.684c1.023.59 2.686.586 3.715-.006 1.027-.593 1.033-1.55.01-2.14-1.02-.588-2.683-.586-3.712.006-1.03.594-1.033 1.552-.013 2.14" transform="translate(22.5 10.44)"/>
            <path fill="#FF595F" d="M53.87 48.611L59.121 48.611 59.121 47.376 53.87 47.376z" transform="translate(22.5 10.44)"/>
            <path fill="#FFDEDF" d="M54.633 48.45c1.023.587 2.686.585 3.715-.007 1.027-.592 1.033-1.552.01-2.14-1.02-.588-2.683-.586-3.712.007-1.03.592-1.033 1.551-.013 2.14" transform="translate(22.5 10.44)"/>
            <path fill="#FF595F" d="M54.821 48.342c.92.529 2.414.527 3.34-.007.924-.533.93-1.394.011-1.923-.92-.53-2.416-.527-3.34.004-.926.533-.93 1.396-.01 1.926" transform="translate(22.5 10.44)"/>
            <path fill="#E1484D" d="M72.351 16.137c-3.439 0-6.884.756-9.51 2.27-2.503 1.441-3.882 3.34-3.882 5.35 0 1.988 1.358 3.865 3.82 5.285 5.2 2.994 13.687 2.978 18.919-.036 2.502-1.443 3.88-3.341 3.88-5.349 0-1.986-1.357-3.864-3.82-5.283-2.59-1.491-5.995-2.237-9.407-2.237m-.168 15.593c-3.496 0-6.981-.762-9.633-2.293-2.612-1.502-4.052-3.52-4.052-5.68 0-2.179 1.461-4.22 4.113-5.746 5.358-3.09 14.05-3.106 19.377-.036 2.612 1.506 4.051 3.524 4.051 5.682 0 2.178-1.46 4.22-4.112 5.746-2.69 1.552-6.221 2.327-9.744 2.327M40.02 34.765c-3.44 0-6.887.756-9.516 2.27-2.5 1.442-3.878 3.34-3.878 5.348 0 1.989 1.357 3.864 3.82 5.286 5.2 2.993 13.686 2.978 18.918-.036 2.502-1.442 3.88-3.34 3.88-5.348 0-1.99-1.357-3.866-3.821-5.286-2.589-1.491-5.992-2.234-9.404-2.234m-.17 15.592c-3.496 0-6.981-.762-9.633-2.291-2.612-1.504-4.051-3.522-4.051-5.683 0-2.177 1.458-4.219 4.11-5.745 5.36-3.087 14.052-3.102 19.38-.036 2.611 1.506 4.048 3.524 4.048 5.683 0 2.177-1.458 4.219-4.11 5.745-2.69 1.55-6.221 2.327-9.744 2.327" transform="translate(22.5 10.44)"/>
            <path fill="#E1484D" d="M34.96 45.067c2.725 1.57 7.174 1.562 9.918-.02 1.292-.74 2.004-1.715 2.004-2.738 0-1.014-.701-1.978-1.972-2.709-2.728-1.57-7.177-1.558-9.92.02-1.29.743-2 1.717-2 2.74 0 1.014.698 1.976 1.97 2.707m4.93 1.625c-1.873 0-3.74-.41-5.16-1.226-1.42-.82-2.202-1.924-2.202-3.106 0-1.195.794-2.308 2.233-3.14 2.869-1.65 7.526-1.661 10.378-.017 1.42.817 2.204 1.922 2.202 3.106 0 1.195-.794 2.31-2.233 3.138-1.44.831-3.332 1.245-5.218 1.245M72.312 19.802c-1.802 0-3.61.397-4.988 1.189-1.29.745-2.002 1.717-2.002 2.742 0 1.015.701 1.976 1.972 2.707 2.726 1.569 7.173 1.56 9.917-.019 1.293-.745 2.004-1.718 2.004-2.74 0-1.015-.7-1.974-1.972-2.705-1.357-.781-3.142-1.174-4.931-1.174m-.089 8.266c-1.87 0-3.74-.412-5.16-1.229-1.419-.817-2.201-1.92-2.201-3.106 0-1.193.793-2.31 2.233-3.141 2.87-1.649 7.528-1.657 10.38-.015 1.418.817 2.2 1.92 2.2 3.104 0 1.195-.793 2.31-2.232 3.14-1.442.829-3.334 1.247-5.22 1.247M9.16 30.206c2.726 1.568 7.175 1.56 9.92-.02 1.291-.743 2.003-1.72 2.003-2.74 0-1.014-.701-1.976-1.972-2.709-2.726-1.57-7.175-1.562-9.92.02-1.29.743-2 1.72-2 2.742 0 1.012.698 1.974 1.97 2.707m4.93 1.625c-1.873 0-3.74-.41-5.16-1.228-1.42-.817-2.202-1.922-2.202-3.104 0-1.195.794-2.31 2.233-3.14 2.871-1.655 7.526-1.66 10.378-.019 1.42.82 2.202 1.922 2.202 3.106 0 1.195-.792 2.308-2.233 3.138-1.44.831-3.332 1.247-5.218 1.247M46.515 4.94c-1.804 0-3.612.396-4.99 1.188-1.29.745-2.002 1.72-2.002 2.744 0 1.013.701 1.974 1.972 2.707 2.726 1.567 7.173 1.56 9.917-.019 1.293-.745 2.004-1.72 2.004-2.742 0-1.012-.7-1.974-1.972-2.707-1.355-.781-3.14-1.172-4.929-1.172m-.09 8.266c-1.872 0-3.74-.41-5.161-1.229-1.419-.819-2.201-1.921-2.201-3.104 0-1.197.793-2.31 2.233-3.141 2.87-1.65 7.528-1.661 10.38-.017 1.418.817 2.2 1.92 2.2 3.104 0 1.195-.793 2.31-2.232 3.14-1.442.829-3.332 1.247-5.22 1.247" transform="translate(22.5 10.44)"/>
            <path fill="#E1484D" d="M36.98 14.178c5.199 2.992 13.685 2.978 18.919-.036 2.502-1.44 3.88-3.339 3.88-5.346 0-1.987-1.357-3.867-3.82-5.286C50.758.515 42.272.53 37.042 3.546c-2.502 1.442-3.88 3.34-3.88 5.346 0 1.989 1.357 3.868 3.82 5.286m9.403 2.69c-3.494 0-6.981-.764-9.633-2.291-2.614-1.506-4.051-3.524-4.051-5.685 0-2.178 1.46-4.217 4.11-5.743C42.168.062 50.862.047 56.19 3.113c2.611 1.506 4.05 3.524 4.05 5.683 0 2.177-1.46 4.218-4.112 5.745-2.69 1.552-6.221 2.327-9.744 2.327M14.22 19.902c-3.439 0-6.886.758-9.515 2.272-2.5 1.44-3.878 3.339-3.878 5.346 0 1.99 1.357 3.866 3.82 5.286 5.2 2.993 13.686 2.98 18.918-.036 2.502-1.442 3.88-3.34 3.88-5.346 0-1.989-1.357-3.866-3.821-5.286-2.589-1.49-5.992-2.236-9.404-2.236m-.17 15.592c-3.496 0-6.981-.762-9.633-2.291C1.805 31.699.366 29.681.366 27.52c0-2.177 1.46-4.216 4.11-5.745 5.36-3.087 14.055-3.1 19.38-.036 2.611 1.506 4.05 3.524 4.05 5.685 0 2.177-1.46 4.217-4.112 5.745-2.69 1.55-6.221 2.325-9.744 2.325" transform="translate(22.5 10.44)"/>
            <path fill="#FF7A7F" d="M109.718 84.917L109.718 37.728 40.883 77.385 40.883 124.572z" transform="translate(22.5 10.44)"/>
            <path fill="#E1484D" d="M41.113 77.517v46.66l68.374-39.392V38.127l-68.374 39.39zm-.461 47.456V77.25l.115-.065 69.181-39.853v47.72l-.115.065-69.181 39.856z" transform="translate(22.5 10.44)"/>
            <path fill="#FF595F" d="M105.911 82.737L105.911 51.179 44.69 86.446 44.69 118.005z" transform="translate(22.5 10.44)"/>
            <path fill="#E1484D" d="M101.562 76.888L101.562 57.601 49.039 87.858 49.039 107.144z" transform="translate(22.5 10.44)"/>
            <path fill="#E84E53" d="M92.318 72.676L92.318 62.926 101.562 57.6 101.562 78.302 49.039 108.559 49.039 97.61z" transform="translate(22.5 10.44)"/>
            <path fill="#FF595F" d="M103.682 49.194L103.682 46.991 107.163 44.988 107.163 47.188z" transform="translate(22.5 10.44)"/>
            <path fill="#FF595F" d="M102.109 46.086L103.683 46.991 107.164 44.988 105.59 44.08z" transform="translate(22.5 10.44)"/>
            <path fill="#E1484D" d="M103.682 49.194L103.682 46.991 102.108 46.086 102.108 48.289z" transform="translate(22.5 10.44)"/>
            <path fill="#FFDEDF" d="M49.426 80.45L49.426 78.247 103.681 46.991 103.681 49.193z" transform="translate(22.5 10.44)"/>
            <path fill="#FFACAF" d="M48.613 77.779L49.426 78.247 103.683 46.991 102.868 46.524z" transform="translate(22.5 10.44)"/>
            <path fill="#FF595F" d="M45.945 82.455L45.945 80.252 49.426 78.247 49.426 80.45z" transform="translate(22.5 10.44)"/>
            <path fill="#FF595F" d="M44.372 79.346L45.945 80.254 49.426 78.248 47.854 77.341z" transform="translate(22.5 10.44)"/>
            <path fill="#E1484D" d="M45.945 82.455L45.945 80.252 44.372 79.347 44.372 81.548z" transform="translate(22.5 10.44)"/>
        </g>
    </g>
</svg>
