<svg xmlns="http://www.w3.org/2000/svg" width="446" height="293" viewBox="0 0 446 293">
    <defs>
        <filter id="prefix__a" width="129.7%" height="147.7%" x="-14.8%" y="-23.9%" filterUnits="objectBoundingBox">
            <feOffset dy="2" in="SourceAlpha" result="shadowOffsetOuter1"/>
            <feGaussianBlur in="shadowOffsetOuter1" result="shadowBlurOuter1" stdDeviation="14"/>
            <feColorMatrix in="shadowBlurOuter1" result="shadowMatrixOuter1" values="0 0 0 0 0 0 0 0 0 0.309803922 0 0 0 0 0.321568627 0 0 0 0.2 0"/>
            <feMerge>
                <feMergeNode in="shadowMatrixOuter1"/>
                <feMergeNode in="SourceGraphic"/>
            </feMerge>
        </filter>
    </defs>
    <g fill="none" fill-rule="evenodd" filter="url(#prefix__a)" transform="translate(28 23)">
        <path fill="#CBE3F6" d="M329.895 148.77L329.625 242.055 390.105 206.91 390.375 113.625z"/>
        <path fill="#B3DADB" d="M194.805 164.25L329.625 242.055 329.895 148.77 195.075 70.92z"/>
        <path fill="#80C2C4" d="M134.19 35.775L0.27 113.625 61.155 148.77 195.075 70.92 329.895 148.77 390.375 113.625 255.6 35.775 194.67 0.63z"/>
        <path fill="#9ACED0" d="M61.02 148.905L60.75 242.235 194.67 164.385 194.94 71.1z"/>
        <path fill="#67B6B9" d="M0 206.91L60.885 242.055 61.155 148.77 0.27 113.625z"/>
        <g>
            <path fill="#B3DADB" d="M222.84 37.575V33.75l-1.71-.18c-.18-.135-.36-.27-.585-.405l-41.4-23.895a7.394 7.394 0 00-7.47 0l-29.07 16.875-2.475-.225v3.915c-.18 1.71.585 3.465 2.295 4.455l41.4 23.895a7.394 7.394 0 007.47 0L220.5 41.22a4.59 4.59 0 002.295-3.555v-.09h.045z" transform="translate(69.3 34.335)"/>
            <path fill="#CCE7E8" d="M171.675 5.4L142.47 22.365c-3.06 1.8-3.06 6.255 0 8.01l41.4 23.895a7.394 7.394 0 007.47 0l29.205-16.965c3.06-1.8 3.06-6.255 0-8.01L179.145 5.4a7.395 7.395 0 00-7.47 0" transform="translate(69.3 34.335)"/>
            <path fill="#B3DADB" d="M211.545 29.43l-31.86-18.405a5.648 5.648 0 00-5.715 0l-22.455 13.05c-2.385 1.395-2.34 4.815 0 6.165l5.265 3.015 13.77-8.01a5.648 5.648 0 015.715 0L202.86 40.59l8.685-5.04c2.34-1.35 2.34-4.77 0-6.12" transform="translate(69.3 34.335)"/>
            <path fill="#80C2C4" d="M170.505 25.29l-13.77 8.01 26.595 15.345a5.648 5.648 0 005.715 0l13.77-8.01L176.22 25.29a5.648 5.648 0 00-5.715 0" transform="translate(69.3 34.335)"/>
            <path fill="#4DA9AD" d="M208.62 14.4L199.755 19.575 193.905 16.245 202.815 11.07z" transform="translate(69.3 34.335)"/>
            <path fill="#1B9195" d="M208.62 14.4L208.62 16.425 199.71 21.6 199.755 19.575z" transform="translate(69.3 34.335)"/>
            <path fill="#02858A" d="M199.755 19.575L199.71 21.6 193.905 18.225 193.905 16.245z" transform="translate(69.3 34.335)"/>
            <path fill="#A7BED5" d="M202.14 5.355L199.395 6.975 196.605 5.355 199.35 3.78z" transform="translate(69.3 34.335)"/>
            <path fill="#1B9195" d="M202.14 5.355L202.095 16.74 199.35 18.315 199.395 6.975z" transform="translate(69.3 34.335)"/>
            <path fill="#02858A" d="M199.395 6.975L199.35 18.315 196.605 16.74 196.605 5.355zM191.97 8.1L191.97 11.295 189.225 9.675 189.225 6.525z" transform="translate(69.3 34.335)"/>
            <path fill="#1B9195" d="M191.97 8.1L202.14 2.205 202.14 5.4 191.97 11.295z" transform="translate(69.3 34.335)"/>
            <path fill="#4DA9AD" d="M189.225 6.525L199.35 0.63 202.14 2.205 191.97 8.1z" transform="translate(69.3 34.335)"/>
            <path fill="#B3DADB" d="M.405 119.34L.18 192.87 57.285 159.66 57.51 86.175zM117.18 51.48L66.06 81.18 65.835 154.71 117 125.01z" transform="translate(69.3 34.335)"/>
            <path fill="#CCE7E8" d="M134.28 51.39L134.1 125.01 185.175 154.485 184.995 80.64zM252 119.34L193.545 85.59 193.77 159.435 251.82 192.96z" transform="translate(69.3 34.335)"/>
            <path fill="#4DA9AD" d="M53.19 133.875c0-.09 0-.18.045-.27v-.495c0-.09.045-.18.09-.27v-.045c.045-.09.045-.18.09-.27.045-.09.045-.18.09-.225 0 0 0-.045.045-.045.045-.09.045-.135.09-.18v-.045c.045-.09.045-.135.09-.225 0 0 0-.045.045-.045.045-.045.045-.135.09-.18 0 0 0-.045.045-.045.045-.09.09-.135.135-.225 0 0 0-.045.045-.045a.34.34 0 00.09-.18s0-.045.045-.045c.045-.09.09-.135.135-.225l.045-.045a.778.778 0 01.18-.225v-.045c.09-.09.135-.18.225-.27l.045-.045.135-.135.135-.135.045-.045.18-.18c.09-.045.135-.135.225-.18 0 0 .045 0 .045-.045.09-.045.135-.09.225-.135 0 0 .045 0 .045-.045.09-.045.135-.09.225-.135a.34.34 0 01.18-.09s.045 0 .045-.045c.045 0 .09-.045.135-.045h.045c.045 0 .09-.045.135-.045h.045c.045 0 .09-.045.135-.045h.135c.045 0 .09 0 .135-.045h.675c.045 0 .09 0 .135.045.045 0 .09.045.135.045h.045c.045 0 .09.045.09.045h.045l-3.645-2.115c-.045 0-.09-.045-.09-.045-.045 0-.09-.045-.135-.045-.045 0-.09-.045-.135-.045h-.585c-.045 0-.09 0-.135.045h-.135c-.045 0-.09.045-.135.045h-.045c-.045 0-.09.045-.135.045h-.045c-.045 0-.09.045-.135.045 0 0-.045 0-.045.045-.045.045-.135.045-.18.09-.09.045-.135.09-.225.135 0 0-.045 0-.045.045-.09.045-.135.09-.225.135 0 0-.045 0-.045.045-.09.045-.135.135-.225.18l-.18.18-.135.135-.135.135c-.09.09-.135.18-.225.27-.045.09-.09.135-.18.225-.045.09-.09.135-.135.225v.045a.34.34 0 00-.09.18v.045c-.045.09-.09.135-.135.225v.045c-.045.045-.045.135-.09.18v.045c-.045.09-.09.135-.09.225v.045c-.045.045-.045.135-.09.18v.09c-.045.09-.045.18-.09.225-.045.09-.045.18-.09.27v.045c-.045.09-.045.18-.09.27v.495c0 .09 0 .18-.045.27v.315c0 .9.315 1.53.855 1.845l3.645 2.115c-.54-.315-.855-.945-.855-1.845v-.27l-.54.09z" transform="translate(69.3 34.335)"/>
            <path fill="#1B9195" d="M56.07 129.195c1.575-.9 2.88-.18 2.88 1.665s-1.305 4.05-2.88 4.995c-1.575.9-2.88.18-2.88-1.665s1.26-4.095 2.88-4.995" transform="translate(69.3 34.335)"/>
            <path fill="#4DA9AD" d="M71.775 122.85c0-.09 0-.18.045-.27v-.495c0-.09.045-.18.09-.27v-.045c.045-.09.045-.18.09-.27.045-.09.045-.18.09-.225 0 0 0-.045.045-.045.045-.09.045-.135.09-.18v-.045c.045-.09.045-.135.09-.225 0 0 0-.045.045-.045.045-.045.045-.135.09-.18 0 0 0-.045.045-.045.045-.09.09-.135.135-.225 0 0 0-.045.045-.045a.34.34 0 00.09-.18s0-.045.045-.045c.045-.09.09-.135.135-.225l.045-.045a.778.778 0 01.18-.225v-.045c.09-.09.135-.18.225-.27l.045-.045.135-.135.135-.135.045-.045.18-.18c.09-.045.135-.135.225-.18 0 0 .045 0 .045-.045.09-.045.135-.09.225-.135 0 0 .045 0 .045-.045.09-.045.135-.09.225-.135a.34.34 0 01.18-.09s.045 0 .045-.045c.045 0 .09-.045.135-.045h.045c.045 0 .09-.045.135-.045h.045c.045 0 .09-.045.135-.045h.135c.045 0 .09 0 .135-.045h.675c.045 0 .09 0 .135.045.045 0 .09.045.135.045h.045c.045 0 .09.045.09.045h.045l-3.645-2.115c-.045 0-.09-.045-.09-.045-.045 0-.09-.045-.135-.045-.045 0-.09-.045-.135-.045h-.585c-.045 0-.09 0-.135.045h-.135c-.045 0-.09.045-.135.045h-.045c-.045 0-.09.045-.135.045h-.045c-.045 0-.09.045-.135.045 0 0-.045 0-.045.045-.045.045-.135.045-.18.09-.09.045-.135.09-.225.135 0 0-.045 0-.045.045-.09.045-.135.09-.225.135 0 0-.045 0-.045.045-.09.045-.135.135-.225.18l-.18.18-.135.135-.135.135c-.09.09-.135.18-.225.27-.045.09-.09.135-.18.225-.045.09-.09.135-.135.225v.045a.34.34 0 00-.09.18v.045c-.045.09-.09.135-.135.225v.045c-.045.045-.045.135-.09.18v.045c-.045.09-.09.135-.09.225v.045c-.045.045-.045.135-.09.18v.09c-.045.09-.045.18-.09.225-.045.09-.045.18-.09.27v.045c-.045.09-.045.18-.09.27v.495c0 .09 0 .18-.045.27v.315c0 .9.315 1.53.855 1.845l3.645 2.115c-.54-.315-.855-.945-.855-1.845v-.27l-.54.09z" transform="translate(69.3 34.335)"/>
            <path fill="#1B9195" d="M74.61 118.17c1.575-.9 2.88-.18 2.88 1.665s-1.305 4.05-2.88 4.995c-1.575.9-2.88.18-2.88-1.665s1.305-4.095 2.88-4.995" transform="translate(69.3 34.335)"/>
            <path fill="#4DA9AD" d="M197.865 133.875c0-.09 0-.18-.045-.27v-.495c0-.09-.045-.18-.09-.27v-.045c-.045-.09-.045-.18-.09-.27-.045-.09-.045-.18-.09-.225 0 0 0-.045-.045-.045-.045-.09-.045-.135-.09-.18v-.045c-.045-.09-.045-.135-.09-.225 0 0 0-.045-.045-.045-.045-.045-.045-.135-.09-.18 0 0 0-.045-.045-.045-.045-.09-.09-.135-.135-.225 0 0 0-.045-.045-.045a.336.336 0 01-.09-.18s0-.045-.045-.045c-.045-.09-.09-.135-.135-.225l-.045-.045a.773.773 0 00-.18-.225v-.045c-.09-.09-.135-.18-.225-.27l-.045-.045-.135-.135-.135-.135-.045-.045-.18-.18c-.09-.045-.135-.135-.225-.18 0 0-.045 0-.045-.045-.09-.045-.135-.09-.225-.135 0 0-.045 0-.045-.045-.09-.045-.135-.09-.225-.135a.342.342 0 00-.18-.09s-.045 0-.045-.045c-.045 0-.09-.045-.135-.045h-.045c-.045 0-.09-.045-.135-.045h-.045c-.045 0-.09-.045-.135-.045h-.135c-.045 0-.09 0-.135-.045h-.675c-.045 0-.09 0-.135.045-.045 0-.09.045-.135.045h-.045c-.045 0-.09.045-.09.045h-.045l3.645-2.115c.045 0 .09-.045.09-.045.045 0 .09-.045.135-.045.045 0 .09-.045.135-.045h.585c.045 0 .09 0 .135.045h.135c.045 0 .09.045.135.045h.045c.045 0 .09.045.135.045h.045c.045 0 .09.045.135.045 0 0 .045 0 .045.045.045.045.135.045.18.09.09.045.135.09.225.135 0 0 .045 0 .045.045.09.045.135.09.225.135 0 0 .045 0 .045.045.09.045.135.135.225.18l.18.18.135.135.135.135c.09.09.135.18.225.27.045.09.09.135.18.225.045.09.09.135.135.225v.045a.34.34 0 01.09.18v.045c.045.09.09.135.135.225v.045c.045.045.045.135.09.18v.045c.045.09.09.135.09.225v.045c.045.045.045.135.09.18v.09c.045.09.045.18.09.225.045.09.045.18.09.27v.045c.045.09.045.18.09.27v.495c0 .09 0 .18.045.27v.315c0 .9-.315 1.53-.855 1.845l-3.645 2.115c.54-.315.855-.945.855-1.845v-.27l.54.09z" transform="translate(69.3 34.335)"/>
            <path fill="#1B9195" d="M194.985 129.195c-1.575-.9-2.88-.18-2.88 1.665s1.305 4.05 2.88 4.995c1.575.9 2.88.18 2.88-1.665s-1.305-4.095-2.88-4.995" transform="translate(69.3 34.335)"/>
            <path fill="#4DA9AD" d="M179.28 122.85c0-.09 0-.18-.045-.27v-.495a.64.64 0 00-.09-.27v-.045c-.045-.09-.045-.18-.09-.27-.045-.09-.045-.18-.09-.225 0 0 0-.045-.045-.045-.045-.09-.045-.135-.09-.18v-.045c-.045-.09-.045-.135-.09-.225 0 0 0-.045-.045-.045-.045-.045-.045-.135-.09-.18 0 0 0-.045-.045-.045-.045-.09-.09-.135-.135-.225 0 0 0-.045-.045-.045a.34.34 0 01-.09-.18s0-.045-.045-.045c-.045-.09-.09-.135-.135-.225l-.045-.045a.77.77 0 00-.18-.225v-.045c-.09-.09-.135-.18-.225-.27l-.045-.045-.135-.135-.135-.135-.045-.045a67.967 67.967 0 00-.18-.18c-.09-.045-.135-.135-.225-.18 0 0-.045 0-.045-.045-.09-.045-.135-.09-.225-.135 0 0-.045 0-.045-.045-.09-.045-.135-.09-.225-.135a.34.34 0 00-.18-.09s-.045 0-.045-.045c-.045 0-.09-.045-.135-.045h-.045c-.045 0-.09-.045-.135-.045h-.045c-.045 0-.09-.045-.135-.045h-.135c-.045 0-.09 0-.135-.045h-.675c-.045 0-.09 0-.135.045-.045 0-.09.045-.135.045h-.045c-.045 0-.09.045-.09.045h-.045l3.645-2.115c.045 0 .09-.045.09-.045.045 0 .09-.045.135-.045.045 0 .09-.045.135-.045h.585c.045 0 .09 0 .135.045h.135c.045 0 .09.045.135.045h.045c.045 0 .09.045.135.045h.045c.045 0 .09.045.135.045 0 0 .045 0 .045.045.045.045.135.045.18.09.09.045.135.09.225.135 0 0 .045 0 .045.045.09.045.135.09.225.135 0 0 .045 0 .045.045.09.045.135.135.225.18a34.026 34.026 0 00.315.315l.135.135c.09.09.135.18.225.27.045.09.09.135.18.225.045.09.09.135.135.225v.045c.045.045.09.135.09.18v.045c.045.09.09.135.135.225v.045c.045.045.045.135.09.18v.045c.045.09.09.135.09.225v.045c.045.045.045.135.09.18v.09c.045.09.045.18.09.225.045.09.045.18.09.27v.045c.045.09.045.18.09.27v.495c0 .09 0 .18.045.27v.315c0 .9-.315 1.53-.855 1.845l-3.06 2.205c.54-.315.855-.945.855-1.845v-.27h-.045z" transform="translate(69.3 34.335)"/>
            <path fill="#1B9195" d="M176.4 118.17c-1.575-.9-2.88-.18-2.88 1.665s1.305 4.05 2.88 4.995c1.575.9 2.88.18 2.88-1.665s-1.26-4.095-2.88-4.995" transform="translate(69.3 34.335)"/>
        </g>
    </g>
</svg>
