<svg xmlns="http://www.w3.org/2000/svg" width="71.228" height="91.308" viewBox="0 0 71.228 91.308">
  <g id="kitchen-category-oven" transform="translate(71.228 -83.681) rotate(180)">
    <path id="패스_4992" data-name="패스 4992" d="M56.523-127.15v-45.863L96.055-150.24v45.864Z" transform="translate(-27.004 -0.944)" fill="#cdbebb" fill-rule="evenodd"/>
    <path id="패스_4993" data-name="패스 4993" d="M4.02-156.187l29.21-16.827v45.863l-29.21,16.8Z" transform="translate(-1.921 -0.944)" fill="#ffacaf" fill-rule="evenodd"/>
    <path id="패스_4994" data-name="패스 4994" d="M59.952-158.311v-16.678l39.532,22.773v16.678Z" transform="translate(-28.642)" fill="#ffdedf" fill-rule="evenodd"/>
    <path id="패스_4995" data-name="패스 4995" d="M99.176-144.429v7.013L66.863-156.031v-7.013Z" transform="translate(-31.944 -5.707)" fill="#ff7a7f" fill-rule="evenodd"/>
    <path id="패스_4996" data-name="패스 4996" d="M127.738-120.687V-127.1l.521-.3v7.013Z" transform="translate(-61.028 -22.736)" fill="#ffacaf" fill-rule="evenodd"/>
    <path id="패스_4997" data-name="패스 4997" d="M98.655-144.129l.522-.3L66.864-163.044v.6Z" transform="translate(-31.945 -5.707)" fill="#ffacaf" fill-rule="evenodd"/>
    <path id="패스_4998" data-name="패스 4998" d="M57.524-174.258l1.268-.731v16.677l-1.268.731Z" transform="translate(-27.482)" fill="#ff9b9f" fill-rule="evenodd"/>
    <path id="패스_4999" data-name="패스 4999" d="M57.524-142.323l1.268-.731,39.531,22.773-1.267.731Z" transform="translate(-27.482 -15.257)" fill="#ffacaf" fill-rule="evenodd"/>
    <path id="패스_5000" data-name="패스 5000" d="M59.952-113.064v-28.818l39.532,22.773v28.819Z" transform="translate(-28.642 -15.817)" fill="#ffdedf" fill-rule="evenodd"/>
    <path id="패스_5001" data-name="패스 5001" d="M51.939-110.653l4.185-2.411v-28.818l-3.5,2.014Z" transform="translate(-24.814 -15.817)" fill="#ff9b9f" fill-rule="evenodd"/>
    <path id="패스_5002" data-name="패스 5002" d="M57.524-85.969l1.268-.731L98.323-63.925l-1.267.73Z" transform="translate(-27.482 -42.181)" fill="#9b9599" fill-rule="evenodd"/>
    <path id="패스_5003" data-name="패스 5003" d="M115.392-120.521v.944l1.818,1.048v-.944Z" transform="translate(-55.129 -26.022)" fill="#ff7a7f" fill-rule="evenodd"/>
    <path id="패스_5004" data-name="패스 5004" d="M111.045-117.4l2.27-1.307,1.819,1.047-2.271,1.308Z" transform="translate(-53.052 -26.887)" fill="#ffacaf" fill-rule="evenodd"/>
    <path id="패스_5005" data-name="패스 5005" d="M113.316-120.521v.944l-2.27,1.309v-.944Z" transform="translate(-53.053 -26.022)" fill="#ff7a7f" fill-rule="evenodd"/>
    <path id="패스_5006" data-name="패스 5006" d="M88.987-135.731v.943l13.79,7.944v-.944Z" transform="translate(-42.514 -18.756)" fill="#ff7a7f" fill-rule="evenodd"/>
    <path id="패스_5007" data-name="패스 5007" d="M87.842-133.579l.6-.345,13.79,7.945-.6.343Z" transform="translate(-41.967 -19.619)" fill="#ffacaf" fill-rule="evenodd"/>
    <path id="패스_5008" data-name="패스 5008" d="M85.506-137.737v.943l1.818,1.047v-.943Z" transform="translate(-40.851 -17.797)" fill="#ff7a7f" fill-rule="evenodd"/>
    <path id="패스_5009" data-name="패스 5009" d="M81.158-135.485l2.271-1.309,1.818,1.048-2.271,1.308Zm2.271-2.252v.943l-2.271,1.309v-.945Z" transform="translate(-38.774 -17.797)" fill="#ffacaf" fill-rule="evenodd"/>
    <path id="패스_5010" data-name="패스 5010" d="M60.539-82.961V-87.6L100.15-64.778v4.635Z" transform="translate(-28.923 -41.752)" fill="#ffdedf" fill-rule="evenodd"/>
    <path id="패스_5011" data-name="패스 5011" d="M0-60.508,31.616-78.721,71.228-55.9,39.611-37.688Z" transform="translate(0 -45.993)" fill="#f9dbdc" fill-rule="evenodd"/>
    <path id="패스_5012" data-name="패스 5012" d="M0-69.384,31.616-87.6v4.637L0-64.749Z" transform="translate(0 -41.752)" fill="#fbb9bb" fill-rule="evenodd"/>
    <path id="패스_5013" data-name="패스 5013" d="M7.271-56.221v-.848L37.585-74.531,70.9-55.336Z" transform="translate(-3.474 -47.994)" fill="#e1484d" fill-rule="evenodd"/>
    <path id="패스_5014" data-name="패스 5014" d="M40.591-36.251,7.272-55.445,37.585-72.908,70.9-53.713Z" transform="translate(-3.474 -48.77)" fill="#ff595f" fill-rule="evenodd"/>
    <path id="패스_5015" data-name="패스 5015" d="M70.867-53.135,40.991-35.924,8.08-54.884,37.956-72.1Z" transform="translate(-3.86 -49.158)" fill="#ff7a7f" fill-rule="evenodd"/>
    <path id="패스_5016" data-name="패스 5016" d="M21.824-54.3H54.089L69.9-45.188H10.152l-2.07-1.193Z" transform="translate(-3.861 -57.661)" fill="#ff595f" fill-rule="evenodd"/>
    <path id="패스_5017" data-name="패스 5017" d="M98.636-54.489v-.848L65.317-74.531v.848Z" transform="translate(-31.206 -47.994)" fill="#e1484d" fill-rule="evenodd"/>
    <g id="그룹_4261" data-name="그룹 4261" transform="translate(11.942 -154.321)">
      <path id="패스_5018" data-name="패스 5018" d="M79.66-35.827a2.148,2.148,0,0,1,1.94,0,.59.59,0,0,1,.005,1.118,2.149,2.149,0,0,1-1.94,0c-.536-.31-.539-.811-.005-1.118" transform="translate(-38.059 82.493)" fill="#e1484d" fill-rule="evenodd"/>
      <path id="패스_5019" data-name="패스 5019" d="M79.66-35.268a2.15,2.15,0,0,1,1.94,0c.536.31.539.81.005,1.118a2.147,2.147,0,0,1-1.94,0,.59.59,0,0,1-.005-1.118" transform="translate(-38.059 82.225)" fill="#ff595f" fill-rule="evenodd"/>
      <path id="패스_5020" data-name="패스 5020" d="M79.26-33.985H82v.645H79.26Z" transform="translate(-38.058 81.503)" fill="#ff595f" fill-rule="evenodd"/>
      <path id="패스_5021" data-name="패스 5021" d="M79.66-34.032a2.148,2.148,0,0,1,1.94,0,.59.59,0,0,1,.005,1.118,2.151,2.151,0,0,1-1.94,0c-.536-.311-.539-.811-.005-1.118" transform="translate(-38.059 81.635)" fill="#ffdedf" fill-rule="evenodd"/>
      <path id="패스_5022" data-name="패스 5022" d="M79.884-33.9a1.931,1.931,0,0,1,1.744,0c.484.278.486.728.005,1a1.934,1.934,0,0,1-1.744,0,.531.531,0,0,1-.005-1.006" transform="translate(-38.185 81.563)" fill="#ff595f" fill-rule="evenodd"/>
      <path id="패스_5023" data-name="패스 5023" d="M72.405-40.006a2.149,2.149,0,0,1,1.939,0c.537.31.541.811.006,1.118a2.147,2.147,0,0,1-1.94,0,.59.59,0,0,1-.005-1.118" transform="translate(-34.593 84.489)" fill="#e1484d" fill-rule="evenodd"/>
      <path id="패스_5024" data-name="패스 5024" d="M72.405-39.446a2.146,2.146,0,0,1,1.939,0,.589.589,0,0,1,.006,1.118,2.151,2.151,0,0,1-1.94,0c-.536-.311-.54-.811-.005-1.118" transform="translate(-34.593 84.222)" fill="#ff595f" fill-rule="evenodd"/>
      <path id="패스_5025" data-name="패스 5025" d="M72.008-38.164h2.743v.645H72.008Z" transform="translate(-34.593 83.499)" fill="#ff595f" fill-rule="evenodd"/>
      <path id="패스_5026" data-name="패스 5026" d="M72.405-38.212a2.148,2.148,0,0,1,1.939,0c.537.31.541.811.006,1.118a2.147,2.147,0,0,1-1.94,0,.59.59,0,0,1-.005-1.118" transform="translate(-34.593 83.632)" fill="#ffdedf" fill-rule="evenodd"/>
      <path id="패스_5027" data-name="패스 5027" d="M72.629-38.083a1.931,1.931,0,0,1,1.744,0c.484.279.486.729.005,1a1.934,1.934,0,0,1-1.744,0c-.483-.279-.486-.73-.005-1.006" transform="translate(-34.719 83.559)" fill="#ff595f" fill-rule="evenodd"/>
      <path id="패스_5028" data-name="패스 5028" d="M61.524-46.274a2.145,2.145,0,0,1,1.939,0c.538.309.541.809.007,1.118a2.152,2.152,0,0,1-1.94,0c-.536-.311-.539-.811-.005-1.118" transform="translate(-29.394 87.484)" fill="#e1484d" fill-rule="evenodd"/>
      <path id="패스_5029" data-name="패스 5029" d="M61.524-45.715a2.148,2.148,0,0,1,1.939,0c.538.31.541.811.007,1.118a2.147,2.147,0,0,1-1.94,0,.59.59,0,0,1-.005-1.118" transform="translate(-29.394 87.217)" fill="#ff595f" fill-rule="evenodd"/>
      <path id="패스_5030" data-name="패스 5030" d="M61.125-44.432h2.743v.645H61.125Z" transform="translate(-29.394 86.494)" fill="#ff595f" fill-rule="evenodd"/>
      <path id="패스_5031" data-name="패스 5031" d="M61.524-44.48a2.145,2.145,0,0,1,1.939,0c.538.31.541.809.007,1.118a2.152,2.152,0,0,1-1.94,0c-.536-.31-.539-.811-.005-1.118" transform="translate(-29.394 86.627)" fill="#ffdedf" fill-rule="evenodd"/>
      <path id="패스_5032" data-name="패스 5032" d="M61.748-44.351a1.931,1.931,0,0,1,1.744,0,.53.53,0,0,1,.005,1,1.934,1.934,0,0,1-1.744,0,.53.53,0,0,1-.005-1.005" transform="translate(-29.52 86.554)" fill="#ff595f" fill-rule="evenodd"/>
      <path id="패스_5033" data-name="패스 5033" d="M54.269-50.454a2.152,2.152,0,0,1,1.94,0,.59.59,0,0,1,.005,1.118,2.148,2.148,0,0,1-1.939,0,.59.59,0,0,1-.007-1.118" transform="translate(-25.928 89.481)" fill="#e1484d" fill-rule="evenodd"/>
      <path id="패스_5034" data-name="패스 5034" d="M54.269-49.894a2.148,2.148,0,0,1,1.94,0,.59.59,0,0,1,.005,1.118,2.148,2.148,0,0,1-1.939,0c-.538-.31-.539-.811-.007-1.118" transform="translate(-25.928 89.214)" fill="#ff595f" fill-rule="evenodd"/>
      <path id="패스_5035" data-name="패스 5035" d="M53.87-48.611h2.742v.645H53.87Z" transform="translate(-25.928 88.491)" fill="#ff595f" fill-rule="evenodd"/>
      <path id="패스_5036" data-name="패스 5036" d="M54.269-48.66a2.153,2.153,0,0,1,1.94,0,.59.59,0,0,1,.005,1.118,2.147,2.147,0,0,1-1.939,0,.59.59,0,0,1-.007-1.118" transform="translate(-25.928 88.623)" fill="#ffdedf" fill-rule="evenodd"/>
      <path id="패스_5037" data-name="패스 5037" d="M54.493-48.531a1.931,1.931,0,0,1,1.744,0c.483.278.486.728.006,1a1.934,1.934,0,0,1-1.744,0,.531.531,0,0,1-.005-1.006" transform="translate(-26.054 88.551)" fill="#ff595f" fill-rule="evenodd"/>
      <path id="패스_5038" data-name="패스 5038" d="M50.285-32.486a10.168,10.168,0,0,1-4.967-1.185,3.417,3.417,0,0,1-2.027-2.794,3.373,3.373,0,0,1,1.995-2.76,10.959,10.959,0,0,1,9.88.019,3.419,3.419,0,0,1,2.026,2.793A3.371,3.371,0,0,1,55.2-33.654a10.069,10.069,0,0,1-4.913,1.168M50.2-40.629a10.284,10.284,0,0,0-5.031,1.2,3.591,3.591,0,0,0-2.116,2.966,3.641,3.641,0,0,0,2.148,3,11.214,11.214,0,0,0,10.12.019,3.6,3.6,0,0,0,2.116-2.967,3.641,3.641,0,0,0-2.147-3A10.414,10.414,0,0,0,50.2-40.629M33.4-42.214a10.183,10.183,0,0,1-4.97-1.185,3.418,3.418,0,0,1-2.025-2.793A3.373,3.373,0,0,1,28.4-48.953a10.96,10.96,0,0,1,9.88.019,3.418,3.418,0,0,1,2.026,2.793,3.371,3.371,0,0,1-2,2.761A10.06,10.06,0,0,1,33.4-42.214m-.089-8.143a10.3,10.3,0,0,0-5.031,1.2,3.594,3.594,0,0,0-2.116,2.968,3.64,3.64,0,0,0,2.146,3,11.229,11.229,0,0,0,10.121.019,3.6,3.6,0,0,0,2.114-2.968,3.64,3.64,0,0,0-2.146-3,10.426,10.426,0,0,0-5.089-1.215" transform="translate(-12.692 89.325)" fill="#e1484d" fill-rule="evenodd"/>
      <path id="패스_5039" data-name="패스 5039" d="M21.472-45.843a5.741,5.741,0,0,1,5.18.01A1.755,1.755,0,0,1,27.7-44.4a1.735,1.735,0,0,1-1.03,1.415A5.75,5.75,0,0,1,21.488-43a1.758,1.758,0,0,1-1.044-1.431,1.731,1.731,0,0,1,1.029-1.414m2.575-.849a5.53,5.53,0,0,0-2.695.64A1.962,1.962,0,0,0,20.2-44.43a1.986,1.986,0,0,0,1.166,1.64,6.014,6.014,0,0,0,5.42.009,1.956,1.956,0,0,0,1.15-1.622,1.982,1.982,0,0,0-1.166-1.639,5.577,5.577,0,0,0-2.725-.65M40.979-32.649a5.348,5.348,0,0,1-2.6-.621A1.761,1.761,0,0,1,37.329-34.7a1.732,1.732,0,0,1,1.03-1.414,5.747,5.747,0,0,1,5.179.01,1.76,1.76,0,0,1,1.047,1.431,1.73,1.73,0,0,1-1.03,1.413,5.28,5.28,0,0,1-2.575.613m-.046-4.317a5.53,5.53,0,0,0-2.695.642A1.958,1.958,0,0,0,37.089-34.7a1.987,1.987,0,0,0,1.166,1.64,6.022,6.022,0,0,0,5.421.008,1.958,1.958,0,0,0,1.149-1.621,1.984,1.984,0,0,0-1.166-1.64,5.6,5.6,0,0,0-2.726-.651M8-38.082a5.75,5.75,0,0,1,5.181.01,1.761,1.761,0,0,1,1.046,1.431,1.736,1.736,0,0,1-1.03,1.415,5.744,5.744,0,0,1-5.181-.01A1.76,1.76,0,0,1,6.97-36.669,1.733,1.733,0,0,1,8-38.082m2.575-.849a5.519,5.519,0,0,0-2.695.641,1.958,1.958,0,0,0-1.15,1.621A1.985,1.985,0,0,0,7.9-35.029a6.011,6.011,0,0,0,5.42.01,1.96,1.96,0,0,0,1.15-1.622A1.981,1.981,0,0,0,13.3-38.28a5.578,5.578,0,0,0-2.725-.651M27.507-24.887a5.349,5.349,0,0,1-2.606-.62,1.763,1.763,0,0,1-1.046-1.433,1.735,1.735,0,0,1,1.03-1.414,5.75,5.75,0,0,1,5.179.01,1.761,1.761,0,0,1,1.047,1.432,1.735,1.735,0,0,1-1.03,1.414,5.272,5.272,0,0,1-2.574.612M27.46-29.2a5.519,5.519,0,0,0-2.7.642,1.959,1.959,0,0,0-1.149,1.621,1.984,1.984,0,0,0,1.166,1.64,6.017,6.017,0,0,0,5.421.009,1.958,1.958,0,0,0,1.149-1.621,1.984,1.984,0,0,0-1.166-1.64,5.593,5.593,0,0,0-2.726-.651" transform="translate(-3.406 87.574)" fill="#e1484d" fill-rule="evenodd"/>
      <path id="패스_5040" data-name="패스 5040" d="M19.487-24.362a10.963,10.963,0,0,1,9.88.019,3.416,3.416,0,0,1,2.026,2.792A3.372,3.372,0,0,1,29.4-18.791a10.952,10.952,0,0,1-9.879-.019A3.418,3.418,0,0,1,17.493-21.6a3.37,3.37,0,0,1,1.995-2.761m4.911-1.4a10.309,10.309,0,0,0-5.031,1.2A3.594,3.594,0,0,0,17.253-21.6a3.64,3.64,0,0,0,2.146,3,11.228,11.228,0,0,0,10.121.019,3.6,3.6,0,0,0,2.115-2.968,3.642,3.642,0,0,0-2.147-3A10.414,10.414,0,0,0,24.4-25.767M7.6-27.351a10.183,10.183,0,0,1-4.969-1.187A3.416,3.416,0,0,1,.607-31.33,3.371,3.371,0,0,1,2.6-34.09a10.957,10.957,0,0,1,9.88.019,3.418,3.418,0,0,1,2.026,2.792,3.371,3.371,0,0,1-2,2.761A10.067,10.067,0,0,1,7.6-27.351m-.089-8.143a10.3,10.3,0,0,0-5.031,1.2A3.594,3.594,0,0,0,.366-31.33a3.644,3.644,0,0,0,2.146,3,11.232,11.232,0,0,0,10.121.019,3.6,3.6,0,0,0,2.115-2.969,3.642,3.642,0,0,0-2.147-3,10.425,10.425,0,0,0-5.089-1.214" transform="translate(-0.366 82.224)" fill="#e1484d" fill-rule="evenodd"/>
      <path id="패스_5041" data-name="패스 5041" d="M76.832-103.862v24.644L40.883-99.929v-24.643Z" transform="translate(-19.723 124.781)" fill="#ff7a7f" fill-rule="evenodd"/>
      <path id="패스_5042" data-name="패스 5042" d="M40.893-100.189v-24.368L76.6-103.985v24.367Zm-.241-24.784v24.923l.06.034L76.841-79.2v-24.921l-.06-.034Z" transform="translate(-19.613 124.973)" fill="#e1484d" fill-rule="evenodd"/>
      <path id="패스_5043" data-name="패스 5043" d="M76.662-99.587v16.481L44.69-101.524v-16.481Z" transform="translate(-21.542 121.644)" fill="#ff595f" fill-rule="evenodd"/>
      <path id="패스_5044" data-name="패스 5044" d="M76.469-91.343V-81.27l-27.43-15.8v-10.072Z" transform="translate(-23.62 116.455)" fill="#e1484d" fill-rule="evenodd"/>
      <path id="패스_5045" data-name="패스 5045" d="M71.641-89.819v5.092l4.828,2.781V-92.757l-27.43-15.8v5.718Z" transform="translate(-23.62 117.131)" fill="#e84e53" fill-rule="evenodd"/>
      <path id="패스_5046" data-name="패스 5046" d="M103.682-49.194v1.15L105.5-47v-1.149Z" transform="translate(-49.726 88.769)" fill="#ff595f" fill-rule="evenodd"/>
      <path id="패스_5047" data-name="패스 5047" d="M102.109-46.518l.822-.473,1.818,1.046-.822.474Z" transform="translate(-48.974 87.717)" fill="#ff595f" fill-rule="evenodd"/>
      <path id="패스_5048" data-name="패스 5048" d="M102.93-49.194v1.15l-.822.473v-1.151Z" transform="translate(-48.974 88.769)" fill="#e1484d" fill-rule="evenodd"/>
      <path id="패스_5049" data-name="패스 5049" d="M49.426-80.45v1.15L77.76-62.976v-1.15Z" transform="translate(-23.805 103.702)" fill="#ffdedf" fill-rule="evenodd"/>
      <path id="패스_5050" data-name="패스 5050" d="M48.613-78l.425-.244L77.373-61.924l-.426.244Z" transform="translate(-23.416 102.649)" fill="#ffacaf" fill-rule="evenodd"/>
      <path id="패스_5051" data-name="패스 5051" d="M45.945-82.455V-81.3l1.818,1.047v-1.15Z" transform="translate(-22.142 104.66)" fill="#ff595f" fill-rule="evenodd"/>
      <path id="패스_5052" data-name="패스 5052" d="M44.372-79.78l.821-.474,1.818,1.048-.821.474Z" transform="translate(-21.39 103.608)" fill="#ff595f" fill-rule="evenodd"/>
      <path id="패스_5053" data-name="패스 5053" d="M45.193-82.455V-81.3l-.821.473v-1.149Z" transform="translate(-21.39 104.66)" fill="#e1484d" fill-rule="evenodd"/>
    </g>
  </g>
</svg>
