<svg xmlns="http://www.w3.org/2000/svg" width="47.544" height="79.039" viewBox="0 0 47.544 79.039">
  <g id="kitchen-category-trashcan" transform="translate(0 -0.93)">
    <g id="그룹_4269" data-name="그룹 4269" transform="translate(0 0.93)">
      <path id="패스_5121" data-name="패스 5121" d="M45.688,17.562c-.02.228-.036.457-.078.682-.034.187-.09.371-.14.558-.057.217-.11.435-.187.649-.063.177-.148.354-.225.53q-.145.344-.317.676c-.089.164-.194.324-.292.484a11.332,11.332,0,0,1-1.088,1.475c-.049.055-.093.113-.145.168-.281.306-.59.605-.917.9-.209.188-.441.368-.668.549-.2.162-.4.326-.613.484-.246.178-.517.348-.782.521s-.534.362-.828.531a22.277,22.277,0,0,1-2.06,1.039c-.2.092-.414.177-.622.265q-.837.351-1.717.65c-.209.07-.413.148-.624.214-.369.116-.747.217-1.124.319-.286.078-.566.161-.857.23-.4.1-.8.175-1.2.257-.276.055-.547.118-.827.168-.815.143-1.642.257-2.477.344-.259.029-.52.045-.78.067-.487.04-.976.076-1.466.1-.315.013-.632.019-.948.026-.4.008-.794.01-1.191.006q-.5-.007-1-.028-1.058-.039-2.111-.143-1.035-.1-2.064-.259c-.387-.059-.771-.128-1.153-.2-.3-.057-.605-.117-.9-.183-.457-.1-.906-.213-1.352-.33-.25-.067-.5-.128-.75-.2-.8-.234-1.582-.495-2.338-.79q-.557-.22-1.1-.466c-.187-.083-.379-.158-.562-.244q-.816-.384-1.6-.834C4.278,23.3,2.13,20.047,2.139,16.8L1.994,67.81c-.01,3.246,2.14,6.5,6.439,8.974.514.3,1.049.573,1.6.833.181.086.373.16.558.242.327.146.65.3.988.429.038.015.08.026.119.04.757.294,1.538.555,2.338.789.067.019.124.045.189.063.183.052.374.089.559.137.447.118.9.231,1.353.33.122.028.238.064.362.089.179.037.364.06.544.1.382.071.764.14,1.152.2.155.023.307.057.464.08s.342.035.511.057q.543.069,1.09.122c.171.016.343.043.516.057s.326.014.49.026c.367.026.733.046,1.1.059.186.008.369.025.555.03.148,0,.3,0,.447,0,.4.006.794,0,1.192,0,.2,0,.4,0,.593,0,.118,0,.235-.019.352-.024q.735-.034,1.468-.1c.2-.017.4-.021.6-.04.063-.007.124-.019.184-.026q1.245-.129,2.479-.345c.04-.007.08-.01.119-.017.237-.041.465-.1.7-.148.405-.082.812-.162,1.211-.258.288-.07.57-.152.854-.23.378-.1.757-.2,1.126-.321.078-.025.161-.042.238-.068.133-.044.253-.1.385-.146q.881-.3,1.719-.649c.209-.088.417-.173.622-.265a22.5,22.5,0,0,0,2.325-1.2c.2-.121.371-.251.562-.374.267-.173.538-.343.784-.522.215-.157.409-.321.61-.481.228-.184.461-.364.67-.552.041-.038.093-.073.135-.111.279-.258.537-.521.782-.788.05-.054.093-.11.143-.167.145-.165.294-.327.425-.495.057-.073.1-.149.149-.223.188-.249.355-.5.512-.758.068-.108.154-.211.217-.32.029-.053.047-.109.076-.164.12-.224.219-.449.317-.676.057-.132.136-.263.187-.4.016-.045.022-.091.039-.135.076-.216.128-.432.187-.649.038-.147.1-.291.126-.44.009-.038.007-.078.013-.117.043-.228.057-.455.079-.683.013-.148.048-.3.051-.446l0-.19.147-51.011c0,.213-.036.425-.055.638" transform="translate(-0.096 -1.423)" fill="#ff7a7f" fill-rule="evenodd"/>
      <path id="패스_5122" data-name="패스 5122" d="M39.315,7.323c8.54,4.918,8.585,12.892.1,17.811s-22.291,4.925-30.83.006-8.594-12.9-.1-17.822,22.291-4.914,30.83,0" transform="translate(-0.103 -0.789)" fill="#828386" fill-rule="evenodd"/>
      <path id="패스_5123" data-name="패스 5123" d="M8.178,73.457a4.876,4.876,0,0,1-2.546-3.851V17.962c0-1.4,1.14-1.953,2.546-1.229a4.875,4.875,0,0,1,2.546,3.85V72.229c0,1.4-1.14,1.952-2.546,1.228" transform="translate(-0.271 -1.404)" fill="#e1484d" fill-rule="evenodd"/>
      <path id="패스_5124" data-name="패스 5124" d="M8.775,17.1c-1.248-.479-2.214.078-2.214,1.367V70.116a4.816,4.816,0,0,0,1.993,3.5c1.248.479,2.215-.077,2.215-1.366V20.607a4.814,4.814,0,0,0-1.994-3.5" transform="translate(-0.316 -1.429)" fill="#ff595f" fill-rule="evenodd"/>
      <path id="패스_5125" data-name="패스 5125" d="M41.515,73.031a1.738,1.738,0,0,1-2.546-1.641V19.744a3.966,3.966,0,0,1,2.546-3.438,1.738,1.738,0,0,1,2.544,1.642V69.6a3.966,3.966,0,0,1-2.544,3.438" transform="translate(-1.877 -1.392)" fill="#e1484d" fill-rule="evenodd"/>
      <path id="패스_5126" data-name="패스 5126" d="M40.95,73.033a3.963,3.963,0,0,0,2.544-3.438V17.95a1.644,1.644,0,0,0-1.451-1.771,2.751,2.751,0,0,0-.528.129,3.964,3.964,0,0,0-2.546,3.438V71.393a1.645,1.645,0,0,0,1.45,1.77,2.751,2.751,0,0,0,.53-.129" transform="translate(-1.877 -1.393)" fill="#ff595f" fill-rule="evenodd"/>
      <path id="패스_5127" data-name="패스 5127" d="M19.291,75.543A2.542,2.542,0,0,1,16.745,73V21.357a2.546,2.546,0,0,1,5.091,0V73a2.542,2.542,0,0,1-2.545,2.539" transform="translate(-0.807 -1.52)" fill="#e1484d" fill-rule="evenodd"/>
      <path id="패스_5128" data-name="패스 5128" d="M19.564,18.843a2.535,2.535,0,0,0-2.3,2.515V73a2.534,2.534,0,0,0,2.3,2.515A2.534,2.534,0,0,0,21.861,73V21.357a2.534,2.534,0,0,0-2.3-2.515m10.33,56.7A2.543,2.543,0,0,1,27.347,73V21.357a2.546,2.546,0,0,1,5.092,0V73a2.543,2.543,0,0,1-2.546,2.539" transform="translate(-0.832 -1.52)" fill="#ff595f" fill-rule="evenodd"/>
      <g id="그룹_4268" data-name="그룹 4268" transform="translate(0 13.668)">
        <path id="패스_5129" data-name="패스 5129" d="M47.441,1.476c-.01.055-.017.112-.026.168-.04.224-.109.445-.168.666-.061.237-.12.474-.2.709A9.5,9.5,0,0,1,46.6,4.063l-.091.176a10.409,10.409,0,0,1-.666,1.1c-.036.054-.078.107-.116.16a12.115,12.115,0,0,1-.78.973c-.054.061-.1.123-.158.184-.306.333-.643.66-1,.98-.228.2-.481.4-.729.6-.219.176-.43.355-.666.525-.267.2-.563.38-.853.568s-.583.393-.9.579q-.994.571-2.04,1.045c-.5.229-1,.447-1.525.65-.067.027-.131.055-.2.08-.556.212-1.129.4-1.708.584-.4.127-.812.236-1.221.347-.311.086-.619.176-.936.252-.432.1-.873.19-1.314.28-.32.065-.637.138-.96.194-.133.024-.268.043-.4.065q-.815.133-1.645.231c-.161.019-.321.04-.484.057-.314.035-.634.054-.952.081-.536.044-1.072.083-1.61.107-.343.014-.684.022-1.027.029-.436.008-.871.012-1.307.006q-.543-.008-1.086-.03a39.027,39.027,0,0,1-6.8-.855q-.742-.165-1.475-.362c-.315-.083-.635-.161-.943-.253-.169-.049-.335-.1-.5-.154q-.728-.229-1.444-.493c-.137-.05-.276-.1-.411-.149-.434-.168-.852-.352-1.27-.538-.2-.09-.409-.171-.607-.265q-.89-.419-1.745-.908C2.34,7.21,0,3.666.01.128L0,3.412c-.01,3.537,2.329,7.081,7.015,9.779.562.324,1.144.623,1.744.908.2.093.408.175.609.266.356.157.707.321,1.076.466.061.024.128.046.191.069.135.052.274.1.412.15q.717.264,1.447.493c.166.051.331.1.5.154.112.033.223.071.336.1.2.057.409.1.61.149.487.129.977.253,1.475.362.133.029.259.069.394.1.2.041.4.067.592.1.419.079.838.152,1.26.219.168.026.334.063.5.087s.372.039.559.062c.393.05.789.1,1.185.133.19.017.377.048.568.063.176.015.356.016.533.029.4.027.8.048,1.2.064.2.009.4.029.6.033.162,0,.324,0,.485,0,.435.006.868,0,1.3-.006.217,0,.433,0,.648,0,.129,0,.255-.021.384-.026q.8-.038,1.6-.108c.216-.017.435-.021.649-.042.1-.01.206-.027.309-.036.16-.019.32-.038.481-.059q.828-.1,1.646-.231c.133-.023.268-.041.4-.064.064-.011.13-.019.194-.031.26-.048.511-.112.767-.164.439-.089.879-.176,1.311-.28.317-.076.624-.167.937-.251.41-.111.821-.222,1.222-.348.087-.027.177-.047.264-.076q.727-.235,1.442-.507c.069-.026.133-.056.2-.082q1-.387,1.959-.854c.549-.266,1.088-.542,1.6-.84.1-.057.2-.114.29-.171.219-.13.4-.272.612-.406.29-.188.586-.375.857-.571.234-.17.445-.347.664-.523.247-.2.5-.4.729-.6.046-.041.1-.08.146-.12.306-.282.587-.569.855-.86.056-.062.1-.124.16-.186.156-.178.317-.355.46-.537.114-.143.214-.289.319-.436.038-.052.079-.1.115-.158.188-.271.366-.546.524-.822.051-.092.1-.186.143-.279.032-.058.062-.117.091-.176a9.383,9.383,0,0,0,.4-.895c.019-.048.025-.1.042-.148.085-.235.143-.472.2-.709.041-.159.1-.318.138-.479.011-.062.018-.125.029-.188s.017-.112.027-.168a8.2,8.2,0,0,0,.1-1.005l0-.207.01-3.284a7.9,7.9,0,0,1-.1,1.214" transform="translate(0 -0.128)" fill="#e1484d" fill-rule="evenodd"/>
      </g>
      <path id="패스_5130" data-name="패스 5130" d="M40.529,4.666c9.311,5.364,9.36,14.064.11,19.427s-24.3,5.364-33.616,0S-2.334,10.031,6.916,4.668s24.3-5.365,33.614,0" transform="translate(0 -0.645)" fill="#ff8a8f" fill-rule="evenodd"/>
      <path id="패스_5131" data-name="패스 5131" d="M19.822,9.287a3.252,3.252,0,0,1,.242-.746,2.383,2.383,0,0,1,.314-.484c.038-.048.074-.1.116-.143a2.059,2.059,0,0,1,.456-.376L18.472,8.975a2.074,2.074,0,0,0-.458.375c-.042.046-.077.1-.116.144-.049.064-.107.118-.152.188a2.737,2.737,0,0,0-.257.522,3.745,3.745,0,0,0-.128.432l-.019.089,0,.025-.017.089q-.018.1-.03.2t-.022.2q-.016.2-.016.4v.011l2.479-1.437a4.709,4.709,0,0,1,.086-.9l0-.024" transform="translate(-0.831 -0.977)" fill="#ff595f" fill-rule="evenodd"/>
    </g>
    <g id="그룹_4280" data-name="그룹 4280" transform="translate(17.443 6.851)">
      <path id="패스_5132" data-name="패스 5132" d="M.618,2.1,3.1.666A2.189,2.189,0,0,1,3.459.5L.981,1.936A2.189,2.189,0,0,0,.619,2.1" transform="translate(-0.618 -0.365)" fill="#8a8b8e" fill-rule="evenodd"/>
      <path id="패스_5133" data-name="패스 5133" d="M1,1.932,3.478.495A2.216,2.216,0,0,1,3.79.409L1.311,1.846A2.346,2.346,0,0,0,1,1.932" transform="translate(-0.636 -0.36)" fill="#8b8c8f" fill-rule="evenodd"/>
      <path id="패스_5134" data-name="패스 5134" d="M1.327,1.844,3.8.407A2.493,2.493,0,0,1,4.062.369L1.584,1.807a2.432,2.432,0,0,0-.257.038" transform="translate(-0.652 -0.359)" fill="#8b8d8f" fill-rule="evenodd"/>
      <path id="패스_5135" data-name="패스 5135" d="M1.6,1.807,4.075.369q.115-.01.231-.011L1.828,1.8a2.3,2.3,0,0,0-.231.011" transform="translate(-0.665 -0.358)" fill="#8b8d8f" fill-rule="evenodd"/>
      <path id="패스_5136" data-name="패스 5136" d="M1.84,1.8,4.319.358c.069,0,.139,0,.209.007L2.049,1.8q-.1-.008-.209-.007" transform="translate(-0.677 -0.358)" fill="#8c8d90" fill-rule="evenodd"/>
      <g id="그룹_4270" data-name="그룹 4270" transform="translate(1.373 0.007)">
        <path id="패스_5137" data-name="패스 5137" d="M2.06,1.8,4.539.365c.066.006.131.011.2.02L2.258,1.822q-.1-.013-.2-.019" transform="translate(-2.06 -0.365)" fill="#8d8e91" fill-rule="evenodd"/>
      </g>
      <g id="그룹_4271" data-name="그룹 4271" transform="translate(1.571 0.028)">
        <path id="패스_5138" data-name="패스 5138" d="M2.268,1.824,4.748.387c.064.01.128.019.2.031L2.463,1.856q-.1-.019-.2-.031" transform="translate(-2.268 -0.387)" fill="#8d8e91" fill-rule="evenodd"/>
      </g>
      <g id="그룹_4272" data-name="그룹 4272" transform="translate(1.765 0.059)">
        <path id="패스_5139" data-name="패스 5139" d="M2.472,1.857,4.952.42c.06.012.122.026.182.041L2.655,1.9q-.091-.023-.183-.04" transform="translate(-2.472 -0.42)" fill="#8e8f91" fill-rule="evenodd"/>
      </g>
      <g id="그룹_4273" data-name="그룹 4273" transform="translate(1.947 0.1)">
        <path id="패스_5140" data-name="패스 5140" d="M2.664,1.9,5.143.463c.062.015.123.032.185.05L2.848,1.951q-.091-.028-.184-.05" transform="translate(-2.664 -0.463)" fill="#8e9092" fill-rule="evenodd"/>
      </g>
      <g id="그룹_4274" data-name="그룹 4274" transform="translate(2.131 0.15)">
        <path id="패스_5141" data-name="패스 5141" d="M2.857,1.953,5.337.516c.057.017.118.037.178.057L3.035,2.01l-.178-.057" transform="translate(-2.857 -0.516)" fill="#8f9093" fill-rule="evenodd"/>
      </g>
      <g id="그룹_4275" data-name="그룹 4275" transform="translate(2.309 0.208)">
        <path id="패스_5142" data-name="패스 5142" d="M3.044,2.014,5.524.577c.058.02.119.043.179.067L3.223,2.081q-.089-.036-.179-.067" transform="translate(-3.044 -0.577)" fill="#8f9093" fill-rule="evenodd"/>
      </g>
      <g id="그룹_4276" data-name="그룹 4276" transform="translate(2.488 0.276)">
        <path id="패스_5143" data-name="패스 5143" d="M3.232,2.085,5.712.648c.059.023.118.048.178.075L3.41,2.16q-.088-.04-.178-.076" transform="translate(-3.232 -0.648)" fill="#909194" fill-rule="evenodd"/>
      </g>
      <g id="그룹_4277" data-name="그룹 4277" transform="translate(2.666 0.351)">
        <path id="패스_5144" data-name="패스 5144" d="M3.419,2.164,5.9.727c.058.026.12.054.179.085L3.6,2.249Q3.51,2.2,3.419,2.163" transform="translate(-3.419 -0.727)" fill="#919294" fill-rule="evenodd"/>
      </g>
      <g id="그룹_4278" data-name="그룹 4278" transform="translate(2.845 0.435)">
        <path id="패스_5145" data-name="패스 5145" d="M3.607,2.252,6.087.815c.061.03.121.061.182.093L3.789,2.346Q3.7,2.3,3.608,2.252" transform="translate(-3.607 -0.815)" fill="#919294" fill-rule="evenodd"/>
      </g>
      <g id="그룹_4279" data-name="그룹 4279" transform="translate(0 0)">
        <path id="패스_5146" data-name="패스 5146" d="M3.1.659.618,2.1A3.147,3.147,0,0,1,3.787,2.4L6.264.965A4.048,4.048,0,0,0,4.271.358,2.314,2.314,0,0,0,3.1.659" transform="translate(-0.618 -0.358)" fill="#ff595f"/>
        <path id="패스_5147" data-name="패스 5147" d="M3.8,2.351,6.278.914l.141.078L3.94,2.429,3.8,2.351" transform="translate(-0.771 -0.385)" fill="#ff8a8f" fill-rule="evenodd"/>
      </g>
    </g>
    <g id="그룹_4281" data-name="그룹 4281" transform="translate(16.143 7.459)">
      <path id="패스_5148" data-name="패스 5148" d="M10.473,5.126l.015.016a9.984,9.984,0,0,1,.747.9l0,.006a11.441,11.441,0,0,1,.642.981l.027.049a10.861,10.861,0,0,1,.524,1.034l.007.013a9.865,9.865,0,0,1,.407,1.1,8.608,8.608,0,0,1,.256,1.1,6.878,6.878,0,0,1,.087,1.078L15.669,9.97c0-.067,0-.133,0-.2s0-.142-.01-.213a6,6,0,0,0-.073-.655V8.887q-.053-.34-.137-.674-.03-.118-.063-.234c-.017-.064-.036-.126-.055-.188a.081.081,0,0,0,0-.016l-.01-.032q-.035-.115-.074-.229c-.025-.076-.052-.152-.079-.228s-.054-.145-.083-.217l-.087-.216-.071-.167-.006-.013q-.054-.125-.112-.247c-.038-.079-.075-.158-.114-.235s-.091-.179-.138-.267-.106-.19-.16-.284l-.027-.048-.033-.06q-.282-.476-.61-.923l0,0,0,0q-.1-.131-.2-.259-.168-.21-.345-.413-.085-.1-.173-.19L12.967,3.7a.073.073,0,0,0-.014-.015l-.136-.143a7.431,7.431,0,0,0-.582-.539c-.032-.029-.066-.053-.1-.08l-.022-.019c-.027-.019-.052-.043-.079-.062q-.278-.218-.576-.409-.092-.06-.188-.114c-.014-.01-.029-.019-.043-.027L7.357.066,4.878,1.5,8.752,3.734a6.852,6.852,0,0,1,.884.613l.022.019a8.323,8.323,0,0,1,.815.76" transform="translate(-0.41 -0.066)" fill="#ff595f" fill-rule="evenodd"/>
      <path id="패스_5149" data-name="패스 5149" d="M8.525,3.776a9.776,9.776,0,0,1,4.44,7.672l-.281-.162A9.153,9.153,0,0,0,8.525,4.1L4.651,1.866C2.348.54.471,1.607.463,4.248L.184,4.087C.192,1.273,2.2.132,4.653,1.545Z" transform="translate(-0.184 -0.108)" fill="#e1484d" fill-rule="evenodd"/>
    </g>
  </g>
</svg>
