<svg xmlns="http://www.w3.org/2000/svg" width="44" height="92" viewBox="0 0 44 92">
  <g id="kitchen-category-refrigerator" transform="translate(0 0)">
    <path id="패스_5054" data-name="패스 5054" d="M22.383,0l-22,13,22,13,22-13h0Z" transform="translate(-0.383)" fill="#f9dbdc" fill-rule="evenodd"/>
    <path id="패스_5055" data-name="패스 5055" d="M68.233,52.565v25h0l22-13v-25h0Z" transform="translate(-46.233 -26.565)" fill="#fbb9bb" fill-rule="evenodd"/>
    <path id="패스_5056" data-name="패스 5056" d="M68.233,130.121h0v1h0l22-13v-1Z" transform="translate(-46.233 -79.121)" fill="#ff8a8f" fill-rule="evenodd"/>
    <path id="패스_5057" data-name="패스 5057" d="M68.01,133.8h0v40l22-13v-40Z" transform="translate(-46.01 -81.803)" fill="#fbb9bb" fill-rule="evenodd"/>
    <path id="패스_5058" data-name="패스 5058" d="M.224,117.865l22,13v-1l-22-13Z" transform="translate(-0.224 -78.865)" fill="#ff7a7f" fill-rule="evenodd"/>
    <path id="패스_5059" data-name="패스 5059" d="M0,64.565l22,13v-25l-22-13Zm0,41,22,13v-40l-22-13Z" transform="translate(0 -26.565)" fill="#ff8a8f" fill-rule="evenodd"/>
    <path id="패스_5060" data-name="패스 5060" d="M74.672,128.656h1v1Z" transform="translate(-50.672 -86.656)" fill="#e1484d" fill-rule="evenodd"/>
    <path id="패스_5061" data-name="패스 5061" d="M80.5,110.214v-1l1-1v9h-1v-7Z" transform="translate(-54.503 -73.214)" fill="#ff8a8f" fill-rule="evenodd"/>
    <path id="패스_5062" data-name="패스 5062" d="M74.672,114.319l1,1v-7h-1v-1h1l1,1v8h-1l-1-1Z" transform="translate(-50.672 -72.319)" fill="#ff7a7f" fill-rule="evenodd"/>
    <path id="패스_5063" data-name="패스 5063" d="M75.7,106.01h-1l1-1,1,1h1l-1,1Z" transform="translate(-50.703 -71.011)" fill="#f9dbdc" fill-rule="evenodd"/>
    <path id="패스_5064" data-name="패스 5064" d="M74.672,189.557l1-1v1Z" transform="translate(-50.672 -127.557)" fill="#e1484d" fill-rule="evenodd"/>
    <path id="패스_5065" data-name="패스 5065" d="M80.5,170.115v-1h1v8l-1,1v-8Z" transform="translate(-54.503 -114.115)" fill="#ff8a8f" fill-rule="evenodd"/>
    <path id="패스_5066" data-name="패스 5066" d="M74.672,175.221h1v-6l-1-1v-1l1,1h1v9l-1-1h-1Z" transform="translate(-50.672 -113.221)" fill="#ff7a7f" fill-rule="evenodd"/>
    <path id="패스_5067" data-name="패스 5067" d="M75.7,166.912l-1-1h2l1,1h-2Z" transform="translate(-50.703 -111.912)" fill="#f9dbdc" fill-rule="evenodd"/>
  </g>
</svg>
