<svg xmlns="http://www.w3.org/2000/svg" xmlns:xlink="http://www.w3.org/1999/xlink" width="358" height="295" viewBox="0 0 358 295">
    <defs>
        <filter id="prefix__a" width="138%" height="152.9%" x="-19%" y="-29.1%" filterUnits="objectBoundingBox">
            <feOffset dy="2" in="SourceAlpha" result="shadowOffsetOuter1"/>
            <feGaussianBlur in="shadowOffsetOuter1" result="shadowBlurOuter1" stdDeviation="14"/>
            <feColorMatrix in="shadowBlurOuter1" result="shadowMatrixOuter1" values="0 0 0 0 0 0 0 0 0 0.309803922 0 0 0 0 0.321568627 0 0 0 0.2 0"/>
            <feMerge>
                <feMergeNode in="shadowMatrixOuter1"/>
                <feMergeNode in="SourceGraphic"/>
            </feMerge>
        </filter>
        <filter id="prefix__b" width="1230%" height="326%" x="-565%" y="-113%" filterUnits="objectBoundingBox">
            <feOffset dy="2" in="SourceAlpha" result="shadowOffsetOuter1"/>
            <feGaussianBlur in="shadowOffsetOuter1" result="shadowBlurOuter1" stdDeviation="13.5"/>
            <feColorMatrix in="shadowBlurOuter1" result="shadowMatrixOuter1" values="0 0 0 0 0 0 0 0 0 0.309803922 0 0 0 0 0.321568627 0 0 0 0.2 0"/>
            <feMerge>
                <feMergeNode in="shadowMatrixOuter1"/>
                <feMergeNode in="SourceGraphic"/>
            </feMerge>
        </filter>
        <path id="prefix__c" d="M0.043 0.304L3.965 0.304 3.965 9.189 0.043 9.189z"/>
    </defs>
    <g fill="none" fill-rule="evenodd" filter="url(#prefix__a)" transform="translate(27 24)">
        <path fill="#FF8A8F" d="M12.472 199.246c-2.513 0-4.546-.82-4.546-3.139v-70.025c0-2.33 2.033-4.217 4.546-4.217 2.505 0 4.536 1.887 4.536 4.218v70.024c0 2.32-2.03 3.14-4.536 3.14M87.977 243.004c-2.512 0-4.542-1.06-4.542-3.767l.001-81.79c0-2.717 2.029-4.914 4.541-4.914 2.497 0 4.54 2.198 4.54 4.913v81.79c0 2.708-2.043 3.768-4.54 3.768M281.123 132.499c-2.505 0-4.546-1.079-4.546-3.96V54.162c0-2.869 2.04-5.207 4.545-5.207 2.507 0 4.536 2.338 4.536 5.207l.001 74.377c0 2.881-2.03 3.96-4.536 3.96"/>
        <path fill="#FF8A8F" d="M292.17 56.976c-.093.064-.2.125-.305.186L98.394 168.87c-3.11 1.796-7.327 2.27-9.42 1.06L2.691 120.103l-1.521-.875c-.787-.455-1.17-1.082-1.17-1.783v6.138c0 .704.383 1.326 1.17 1.777l87.805 50.706c2.092 1.212 6.31.738 9.419-1.063L291.865 63.298c1.825-1.05 2.87-2.324 2.993-3.436v-6.139c-.124 1.05-1.052 2.236-2.687 3.253"/>
        <g>
            <path fill="#FBB9BB" d="M293.697 51.721L205.893 1.023c-2.095-1.205-6.316-.732-9.417 1.062L2.991 113.79C1.05 114.91 0 116.276 0 117.443c0 .7.382 1.327 1.17 1.782l1.521.875 86.283 49.826c2.092 1.21 6.31.737 9.419-1.06L291.865 57.159c.106-.06.21-.122.305-.185 1.635-1.018 2.563-2.203 2.688-3.253v-.352c-.049-.652-.427-1.22-1.16-1.647" transform="translate(0 .004)"/>
            <g filter="url(#prefix__b)" transform="translate(0 .004) translate(137.7 29.696)">
                <path fill="#CCE7E8" d="M9.927 46.953v.01c.007.737-.474 1.473-1.443 2.03-1.932 1.111-5.075 1.106-7.021-.014a1.061 1.061 0 01-.106-.065c-.898-.548-1.35-1.25-1.356-1.95v-.004c0-.11.009-.216.03-.323.116-.62.586-1.223 1.412-1.7.041-.024.085-.049.13-.072 1.94-1.04 4.986-1.012 6.886.083.853.492 1.332 1.114 1.441 1.749l.004.01.023.246z"/>
                <path fill="#CCE7E8" d="M9.927 46.953L9.927 46.964 0.001 46.964 0.001 46.96 0.031 46.637 2.011 25.656 7.915 25.656 9.9 46.697 9.904 46.707z"/>
                <path fill="#E5F2F3" d="M8.085 48.764c-1.714.987-4.502.982-6.227-.013-1.724-.992-1.733-2.597-.019-3.586 1.714-.986 4.502-.981 6.227.012 1.724.993 1.733 2.6.02 3.587"/>
                <path fill="#E5F2F3" d="M2.546 26.622l-.974 18.243-.113 2.098-.102 1.953c-.898-.55-1.35-1.25-1.356-1.953v-.003c0-.11.009-.217.03-.322l1.98-20.983h.394l.141.967z"/>
                <path fill="#E5F2F3" d="M7.044 24.456c-1.158-.666-3.027-.67-4.177-.007-1.148.662-1.143 1.738.014 2.404 1.156.667 3.026.671 4.175.008 1.15-.662 1.145-1.74-.012-2.405"/>
                <path fill="#9ACED0" d="M6.666 24.674c-.948-.547-2.477-.549-3.417-.006-.94.542-.936 1.424.01 1.969.948.544 2.477.548 3.418.005.94-.541.935-1.422-.011-1.968"/>
                <path fill="#02858A" d="M4.672 46.316l-.463-.031c.12-1.738.322-3.489.52-5.18.437-3.767.89-7.661.41-11.513-.8-6.417-.565-15.462.645-24.816l.46.06c-1.205 9.315-1.44 18.318-.645 24.698.486 3.906.03 7.829-.41 11.623-.196 1.687-.399 3.432-.517 5.16"/>
                <g transform="translate(3.523 .617)">
                    <mask id="prefix__d" fill="#fff">
                        <use xlink:href="#prefix__c"/>
                    </mask>
                    <path fill="#02858A" d="M1.522.434C.919.734-.801 5.339.546 7.49c2.873 4.581 3.796-1.218 3.285-4.28C3.321.148 2.152.12 1.521.435" mask="url(#prefix__d)"/>
                </g>
                <path fill="#4DA9AD" d="M5.508 1.752C3.948.82 2.664 8.105 4.156 9.671c1.492 1.564 2.983-.44 3.04-1.814.058-1.374-.254-5.247-1.688-6.105"/>
                <path fill="#32979B" d="M6.407 1.852c-.14 1.55.402 3.25-.831 7.57-.54 1.891 2.265-.38 2.323-2.333.129-4.322-1.388-6.376-1.492-5.237"/>
                <path fill="#4DA9AD" d="M5.152 16.484c-2.038-2.042 2.827-4.938 3.379-4.97.23 1.492-.932 7.422-3.379 4.97M4.998 22.973c2.038-2.042-2.827-4.938-3.378-4.97-.23 1.492.932 7.421 3.378 4.97"/>
                <path fill="#E5F2F3" d="M4.5 27.842s-.24 19.311-.3 20.463l-.059 1.149s2.501.328 3.773-.715c-.08-2.352-1.182-21.171-1.182-21.171s-1.18.274-2.232.274"/>
            </g>
        </g>
        <g>
            <path fill="#FF9B9F" d="M45.653 64.76c-9.604-5.545-25.18-5.545-34.784 0-4.8 2.772-7.204 6.407-7.204 10.042 0 .977.177 1.959.525 2.92.943 2.609 3.168 5.097 6.679 7.122 9.607 5.546 25.18 5.546 34.784 0 3.51-2.025 5.74-4.513 6.682-7.123a8.391 8.391 0 00.522-3.086c-.074-3.58-2.475-7.145-7.204-9.875m-3.21 1.853c-7.83-4.521-20.532-4.521-28.364 0-3.915 2.26-5.874 5.225-5.874 8.19 0 .796.144 1.596.428 2.38.768 2.127 2.584 4.156 5.446 5.808 7.835 4.522 20.533 4.522 28.364 0 2.863-1.652 4.68-3.68 5.449-5.808a6.84 6.84 0 00.425-2.517c-.06-2.92-2.017-5.827-5.874-8.053" transform="translate(158.4 146.7)"/>
            <path fill="#FBB9BB" d="M45.653 62.654c-9.604-5.544-25.18-5.544-34.784 0-4.8 2.772-7.204 6.407-7.204 10.043 0 .977.177 1.958.525 2.919.943 2.61 3.168 5.097 6.679 7.122 9.607 5.547 25.18 5.547 34.784 0 3.51-2.025 5.74-4.513 6.682-7.122a8.391 8.391 0 00.522-3.086c-.074-3.58-2.475-7.146-7.204-9.876M8.207 72.88h40.11v-.043a7.06 7.06 0 000-.277c-.06-2.919-2.017-5.826-5.874-8.052-7.83-4.522-20.532-4.522-28.364 0-3.915 2.26-5.874 5.224-5.874 8.189 0 .06 0 .122.002.183m38.918 3.76H9.4c.969 1.55 2.529 3.004 4.68 4.245 7.835 4.523 20.533 4.523 28.364 0 2.152-1.241 3.713-2.696 4.682-4.245" transform="translate(158.4 146.7)"/>
            <path fill="#FBB9BB" d="M28.262 75.994c-1.989 0-3.595-.982-3.595-2.196l.001-53.311c0-1.213 1.604-2.196 3.593-2.196 1.987 0 3.595.983 3.595 2.196v53.311c0 1.214-1.61 2.197-3.594 2.196" transform="translate(158.4 146.7)"/>
            <path fill="#FF595F" d="M48.245 27.855c-11.035 6.373-28.928 6.373-39.968 0-4.034-2.327-6.591-5.185-7.674-8.184A9.832 9.832 0 010 16.317v6.709c0 4.174 2.76 8.35 8.277 11.537 11.04 6.373 28.932 6.373 39.967 0 5.431-3.135 8.192-7.232 8.278-11.341.002-.13.002-.26 0-.39v-6.318a9.66 9.66 0 01-.6 3.157c-1.082 2.999-3.644 5.857-7.677 8.184" transform="translate(158.4 146.7)"/>
            <path fill="#FF8A8F" d="M48.245 4.778c-11.035-6.37-28.933-6.37-39.968 0C2.76 7.964 0 12.14 0 16.317c0 1.123.204 2.25.603 3.354 1.083 2.998 3.64 5.857 7.674 8.184 11.04 6.373 28.932 6.373 39.967 0 4.035-2.327 6.595-5.186 7.678-8.184a9.638 9.638 0 00.6-3.546c-.085-4.113-2.843-8.21-8.277-11.347" transform="translate(158.4 146.7)"/>
            <path fill="#FF9B9F" d="M9.4 76.64h37.725c-.512.82-1.191 1.613-2.035 2.362H11.433c-.843-.749-1.521-1.542-2.034-2.362m41.572 1.522v.84h-.663c.238-.277.459-.557.663-.84m-44.755.84h-.664v-.841c.205.283.426.564.664.841" transform="translate(158.4 146.7)"/>
        </g>
        <g>
            <path fill="#FF9B9F" d="M45.653 64.76c-9.604-5.545-25.18-5.545-34.784 0-4.8 2.772-7.204 6.407-7.204 10.042 0 .977.177 1.959.525 2.92.943 2.609 3.168 5.097 6.679 7.122 9.607 5.546 25.18 5.546 34.784 0 3.51-2.025 5.74-4.513 6.682-7.123a8.391 8.391 0 00.522-3.086c-.074-3.58-2.475-7.145-7.204-9.875m-3.21 1.853c-7.83-4.521-20.532-4.521-28.364 0-3.915 2.26-5.874 5.225-5.874 8.19 0 .796.144 1.596.428 2.38.768 2.127 2.584 4.156 5.446 5.808 7.835 4.522 20.533 4.522 28.364 0 2.863-1.652 4.68-3.68 5.449-5.808a6.84 6.84 0 00.425-2.517c-.06-2.92-2.017-5.827-5.874-8.053" transform="translate(247.5 93.6)"/>
            <path fill="#FBB9BB" d="M45.653 62.654c-9.604-5.544-25.18-5.544-34.784 0-4.8 2.772-7.204 6.407-7.204 10.043 0 .977.177 1.958.525 2.919.943 2.61 3.168 5.097 6.679 7.122 9.607 5.547 25.18 5.547 34.784 0 3.51-2.025 5.74-4.513 6.682-7.122a8.391 8.391 0 00.522-3.086c-.074-3.58-2.475-7.146-7.204-9.876M8.207 72.88h40.11v-.043a7.06 7.06 0 000-.277c-.06-2.919-2.017-5.826-5.874-8.052-7.83-4.522-20.532-4.522-28.364 0-3.915 2.26-5.874 5.224-5.874 8.189 0 .06 0 .122.002.183m38.918 3.76H9.4c.969 1.55 2.529 3.004 4.68 4.245 7.835 4.523 20.533 4.523 28.364 0 2.152-1.241 3.713-2.696 4.682-4.245" transform="translate(247.5 93.6)"/>
            <path fill="#FBB9BB" d="M28.262 75.994c-1.989 0-3.595-.982-3.595-2.196l.001-53.311c0-1.213 1.604-2.196 3.593-2.196 1.987 0 3.595.983 3.595 2.196v53.311c0 1.214-1.61 2.197-3.594 2.196" transform="translate(247.5 93.6)"/>
            <path fill="#FF595F" d="M48.245 27.855c-11.035 6.373-28.928 6.373-39.968 0-4.034-2.327-6.591-5.185-7.674-8.184A9.832 9.832 0 010 16.317v6.709c0 4.174 2.76 8.35 8.277 11.537 11.04 6.373 28.932 6.373 39.967 0 5.431-3.135 8.192-7.232 8.278-11.341.002-.13.002-.26 0-.39v-6.318a9.66 9.66 0 01-.6 3.157c-1.082 2.999-3.644 5.857-7.677 8.184" transform="translate(247.5 93.6)"/>
            <path fill="#FF8A8F" d="M48.245 4.778c-11.035-6.37-28.933-6.37-39.968 0C2.76 7.964 0 12.14 0 16.317c0 1.123.204 2.25.603 3.354 1.083 2.998 3.64 5.857 7.674 8.184 11.04 6.373 28.932 6.373 39.967 0 4.035-2.327 6.595-5.186 7.678-8.184a9.638 9.638 0 00.6-3.546c-.085-4.113-2.843-8.21-8.277-11.347" transform="translate(247.5 93.6)"/>
            <path fill="#FF9B9F" d="M9.4 76.64h37.725c-.512.82-1.191 1.613-2.035 2.362H11.433c-.843-.749-1.521-1.542-2.034-2.362m41.572 1.522v.84h-.663c.238-.277.459-.557.663-.84m-44.755.84h-.664v-.841c.205.283.426.564.664.841" transform="translate(247.5 93.6)"/>
        </g>
    </g>
</svg>
