<svg xmlns="http://www.w3.org/2000/svg" xmlns:xlink="http://www.w3.org/1999/xlink" width="110" height="143" viewBox="0 0 110 143">
    <defs>
        <path id="prefix__b" d="M0 0.128L49.95 0.128 49.95 18.066 0 18.066z"/>
        <path id="prefix__d" d="M0.01 0.645L49.95 0.645 49.95 29.506 0.01 29.506z"/>
        <path id="prefix__f" d="M3.224.674L.618 2.184c.853-.494 2.03-.425 3.329.323L6.55.996C5.799.563 5.088.358 4.456.358c-.459 0-.874.109-1.232.316"/>
        <path id="prefix__h" d="M3.224.674L.618 2.184c.853-.494 2.03-.425 3.329.323L6.55.996C5.799.563 5.088.358 4.456.358c-.459 0-.874.109-1.232.316"/>
        <path id="prefix__j" d="M3.224.674L.618 2.184c.853-.494 2.03-.425 3.329.323L6.55.996C5.799.563 5.088.358 4.456.358c-.459 0-.874.109-1.232.316"/>
        <path id="prefix__l" d="M3.224.674L.618 2.184c.853-.494 2.03-.425 3.329.323L6.55.996C5.799.563 5.088.358 4.456.358c-.459 0-.874.109-1.232.316"/>
        <path id="prefix__n" d="M3.224.674L.618 2.184c.853-.494 2.03-.425 3.329.323L6.55.996C5.799.563 5.088.358 4.456.358c-.459 0-.874.109-1.232.316"/>
        <path id="prefix__p" d="M3.224.674L.618 2.184c.853-.494 2.03-.425 3.329.323L6.55.996C5.799.563 5.088.358 4.456.358c-.459 0-.874.109-1.232.316"/>
        <path id="prefix__r" d="M3.224.674L.618 2.184c.853-.494 2.03-.425 3.329.323L6.55.996C5.799.563 5.088.358 4.456.358c-.459 0-.874.109-1.232.316"/>
        <path id="prefix__t" d="M3.224.674L.618 2.184c.853-.494 2.03-.425 3.329.323L6.55.996C5.799.563 5.088.358 4.456.358c-.459 0-.874.109-1.232.316"/>
        <path id="prefix__v" d="M3.224.674L.618 2.184c.853-.494 2.03-.425 3.329.323L6.55.996C5.799.563 5.088.358 4.456.358c-.459 0-.874.109-1.232.316"/>
        <path id="prefix__x" d="M3.224.674L.618 2.184c.853-.494 2.03-.425 3.329.323L6.55.996C5.799.563 5.088.358 4.456.358c-.459 0-.874.109-1.232.316"/>
        <path id="prefix__z" d="M3.224.674L.618 2.184c.853-.494 2.03-.425 3.329.323L6.55.996C5.799.563 5.088.358 4.456.358c-.459 0-.874.109-1.232.316"/>
        <path id="prefix__B" d="M3.224.674L.618 2.184c.853-.494 2.03-.425 3.329.323L6.55.996C5.799.563 5.088.358 4.456.358c-.459 0-.874.109-1.232.316"/>
        <path id="prefix__D" d="M3.224.674L.618 2.184c.853-.494 2.03-.425 3.329.323L6.55.996C5.799.563 5.088.358 4.456.358c-.459 0-.874.109-1.232.316"/>
        <path id="prefix__F" d="M3.224.674L.618 2.184c.853-.494 2.03-.425 3.329.323L6.55.996C5.799.563 5.088.358 4.456.358c-.459 0-.874.109-1.232.316"/>
        <path id="prefix__H" d="M3.224.674L.618 2.184c.853-.494 2.03-.425 3.329.323L6.55.996C5.799.563 5.088.358 4.456.358c-.459 0-.874.109-1.232.316"/>
        <filter id="prefix__a" width="354%" height="249.4%" x="-127%" y="-74.7%" filterUnits="objectBoundingBox">
            <feOffset dy="2" in="SourceAlpha" result="shadowOffsetOuter1"/>
            <feGaussianBlur in="shadowOffsetOuter1" result="shadowBlurOuter1" stdDeviation="15.5"/>
            <feColorMatrix in="shadowBlurOuter1" result="shadowMatrixOuter1" values="0 0 0 0 0 0 0 0 0 0.309803922 0 0 0 0 0.321568627 0 0 0 0.2 0"/>
            <feMerge>
                <feMergeNode in="shadowMatrixOuter1"/>
                <feMergeNode in="SourceGraphic"/>
            </feMerge>
        </filter>
    </defs>
    <g fill="none" fill-rule="evenodd" filter="url(#prefix__a)" transform="translate(30 27)">
        <g transform="translate(0 .285)">
            <path fill="#FF7A7F" d="M47.899 17.601c-.021.24-.038.48-.082.717-.036.196-.095.39-.147.586-.06.228-.116.457-.196.682-.066.186-.155.372-.236.557a9.603 9.603 0 01-.333.71c-.093.172-.204.34-.307.508a11.905 11.905 0 01-1.143 1.55c-.052.058-.098.119-.152.176-.295.322-.62.636-.963.945-.22.197-.463.387-.702.577-.213.17-.417.343-.644.508-.258.187-.543.366-.822.547-.288.187-.561.38-.87.558-.686.399-1.417.756-2.164 1.092-.215.097-.435.186-.654.278-.586.246-1.188.474-1.804.683-.22.074-.434.155-.656.225-.388.122-.785.228-1.181.335-.3.082-.595.169-.9.242-.416.1-.84.184-1.264.27-.29.058-.575.124-.869.176-.856.15-1.725.27-2.602.361-.272.03-.546.047-.82.07-.512.042-1.025.08-1.54.102-.331.014-.664.02-.996.027-.417.008-.834.011-1.251.006-.35-.005-.7-.015-1.05-.029a36.427 36.427 0 01-2.218-.15 38.181 38.181 0 01-2.168-.272c-.407-.062-.81-.134-1.211-.21-.32-.06-.636-.123-.95-.192-.48-.105-.952-.224-1.42-.347-.263-.07-.528-.135-.788-.21-.84-.246-1.662-.52-2.456-.83a26.414 26.414 0 01-1.159-.49c-.196-.087-.398-.166-.59-.256a23.264 23.264 0 01-1.68-.876c-4.517-2.601-6.774-6.016-6.765-9.426l-.152 53.591c-.01 3.41 2.248 6.826 6.765 9.428.54.311 1.102.602 1.68.875.19.09.392.168.586.254.344.153.683.312 1.038.451.04.016.084.027.125.042.795.309 1.616.583 2.456.829.07.02.13.047.199.066.192.055.393.093.587.144.47.124.941.243 1.421.347.128.029.25.067.38.093.188.039.382.063.572.1.401.075.803.147 1.21.21.163.024.323.06.487.084.178.025.359.037.537.06.38.048.761.09 1.145.128.18.017.36.045.542.06.172.014.343.015.515.027.386.027.77.048 1.157.062.195.008.388.026.583.031.156.004.313-.004.47-.003.417.006.834.002 1.252-.004.207-.004.416.003.623-.003.124-.005.247-.02.37-.025a38.4 38.4 0 001.542-.102c.209-.018.42-.022.626-.042.066-.007.13-.02.193-.027a37.875 37.875 0 002.604-.362c.042-.007.084-.01.125-.018.249-.043.489-.107.736-.156.426-.086.853-.17 1.272-.271.303-.074.599-.16.897-.242.397-.107.795-.215 1.183-.337.082-.026.169-.044.25-.071.14-.046.266-.106.405-.153.617-.209 1.218-.437 1.806-.682.22-.092.438-.182.653-.278a23.64 23.64 0 002.443-1.257c.21-.127.39-.264.59-.393.28-.182.565-.36.824-.548.226-.165.43-.337.641-.505.24-.193.484-.382.704-.58.043-.04.098-.077.142-.117.293-.271.564-.547.822-.828.053-.057.098-.116.15-.175.152-.173.309-.344.447-.52.06-.077.1-.157.157-.234.197-.262.373-.528.538-.796.071-.113.162-.222.228-.336.031-.056.049-.115.08-.172.126-.235.23-.472.333-.71.06-.139.143-.276.196-.416.017-.047.023-.096.041-.142.08-.227.135-.454.196-.682.04-.154.101-.306.132-.462.009-.04.007-.082.014-.123.045-.24.06-.478.083-.718.014-.156.05-.313.054-.469l.002-.2.154-53.593c-.001.224-.038.447-.058.67"/>
            <path fill="#828386" d="M41.196 7.51c8.972 5.167 9.02 13.544.105 18.712-8.923 5.174-23.419 5.174-32.39.006-8.973-5.168-9.029-13.55-.106-18.724 8.914-5.168 23.419-5.163 32.39.005"/>
            <path fill="#E1484D" d="M8.307 76.344c-1.477-.76-2.675-2.572-2.675-4.046V18.04c0-1.473 1.198-2.052 2.675-1.291 1.477.76 2.675 2.571 2.675 4.045v54.26c0 1.472-1.198 2.051-2.675 1.29"/>
            <path fill="#FF595F" d="M8.887 17.113c-1.311-.503-2.326.082-2.326 1.436v54.259c0 1.275.896 2.798 2.094 3.68 1.311.503 2.327-.081 2.327-1.435v-54.26c0-1.274-.896-2.799-2.095-3.68"/>
            <path fill="#E1484D" d="M41.644 75.91c-1.478.522-2.675-.251-2.675-1.724v-54.26c0-1.474 1.197-3.09 2.675-3.612 1.477-.521 2.673.252 2.673 1.725V72.3c0 1.473-1.196 3.09-2.673 3.612"/>
            <path fill="#FF595F" d="M41.05 75.91c1.477-.52 2.673-2.138 2.673-3.612V18.04c0-1.06-.624-1.749-1.524-1.861a2.89 2.89 0 00-.555.136c-1.478.521-2.675 2.138-2.675 3.612v54.26c0 1.059.625 1.747 1.523 1.86a2.89 2.89 0 00.557-.135"/>
            <path fill="#E1484D" d="M19.42 78.414a2.671 2.671 0 01-2.675-2.668v-54.26a2.672 2.672 0 012.675-2.669 2.672 2.672 0 012.674 2.669v54.26a2.671 2.671 0 01-2.674 2.668"/>
            <path fill="#FF595F" d="M19.68 18.844c-1.354.133-2.415 1.259-2.415 2.642v54.26a2.662 2.662 0 002.414 2.642 2.662 2.662 0 002.415-2.643V21.486c0-1.383-1.061-2.51-2.415-2.642M30.532 78.414a2.672 2.672 0 01-2.675-2.668v-54.26a2.672 2.672 0 012.675-2.669 2.672 2.672 0 012.675 2.669v54.26a2.672 2.672 0 01-2.675 2.668"/>
            <g transform="translate(0 14.877)">
                <mask id="prefix__c" fill="#fff">
                    <use xlink:href="#prefix__b"/>
                </mask>
                <path fill="#E1484D" d="M49.842 1.544c-.01.058-.018.118-.027.177-.042.235-.115.467-.177.7-.064.249-.126.498-.213.745a9.974 9.974 0 01-.464 1.096l-.096.185c-.205.39-.436.775-.7 1.155-.038.057-.082.112-.122.168a12.73 12.73 0 01-.819 1.022c-.057.064-.107.129-.166.193-.321.35-.676.693-1.051 1.03-.24.214-.505.422-.766.63-.23.185-.452.373-.7.552-.28.205-.592.399-.896.597-.314.204-.612.413-.95.608a25.055 25.055 0 01-2.143 1.098c-.522.241-1.055.47-1.602.683-.07.028-.138.058-.208.084-.584.223-1.186.423-1.794.614-.421.133-.853.248-1.283.365-.327.09-.65.185-.983.265-.454.11-.917.2-1.38.294-.336.068-.669.145-1.009.204-.14.025-.282.045-.423.068-.571.093-1.148.174-1.728.243-.169.02-.337.042-.508.06-.33.037-.666.057-1 .085-.563.046-1.126.087-1.692.112-.36.015-.719.023-1.079.03-.458.008-.915.013-1.373.006a42.422 42.422 0 01-1.141-.032 41.002 41.002 0 01-7.146-.898 36.27 36.27 0 01-1.55-.38c-.331-.087-.667-.169-.991-.266-.178-.052-.352-.108-.529-.162a32.659 32.659 0 01-1.517-.518c-.144-.053-.29-.103-.432-.157-.456-.176-.895-.37-1.334-.565-.212-.095-.43-.18-.638-.278a25.968 25.968 0 01-1.833-.954C2.458 7.568 0 3.845.01.128L0 3.578c-.01 3.716 2.447 7.439 7.37 10.274.59.34 1.202.655 1.832.954.208.098.429.184.64.279.374.165.743.337 1.13.49.064.025.134.048.201.073.142.055.288.104.433.158a33.91 33.91 0 001.52.518c.174.054.348.11.524.162.118.035.234.075.353.109.21.06.43.102.641.157.512.136 1.026.266 1.55.38.14.03.272.072.414.1.205.043.415.07.622.109.44.083.88.16 1.324.23.177.027.351.066.53.091.194.027.391.041.587.065.413.053.829.1 1.245.14.2.018.396.05.597.066.185.016.374.017.56.03.42.028.84.05 1.265.067.211.009.423.03.634.035.17.004.34-.005.51-.003.457.006.912.003 1.368-.006.228-.004.455.004.681-.003.136-.005.268-.022.403-.027a44.218 44.218 0 001.686-.113c.227-.018.457-.022.682-.044.108-.011.216-.028.325-.038.168-.02.336-.04.505-.062.58-.069 1.156-.15 1.729-.243.14-.024.282-.043.423-.067.067-.012.137-.02.204-.033.273-.05.537-.118.806-.172.461-.093.923-.185 1.377-.294.333-.08.656-.175.984-.264.431-.117.863-.233 1.284-.366.091-.028.186-.049.277-.08a30.946 30.946 0 001.515-.533c.072-.027.14-.059.213-.086a27.91 27.91 0 002.058-.897c.577-.279 1.143-.569 1.683-.882.104-.06.205-.12.305-.18.23-.137.425-.286.643-.427.305-.198.616-.394.9-.6.246-.179.467-.365.698-.549.26-.21.526-.417.766-.632.048-.043.107-.084.153-.126.322-.296.617-.598.898-.903.059-.065.11-.13.168-.195.164-.187.333-.373.483-.564.12-.15.225-.304.335-.458.04-.055.083-.11.121-.166.198-.285.385-.574.55-.864.054-.097.1-.195.15-.293.034-.061.065-.123.096-.185.156-.311.3-.624.419-.94.02-.05.026-.103.044-.155.089-.247.15-.496.215-.745.043-.167.11-.334.145-.503.012-.065.019-.131.03-.197.011-.059.018-.118.028-.177a8.61 8.61 0 00.106-1.056l.002-.218.01-3.45c0 .426-.042.85-.108 1.275" mask="url(#prefix__c)"/>
            </g>
            <mask id="prefix__e" fill="#fff">
                <use xlink:href="#prefix__d"/>
            </mask>
            <path fill="#FF8A8F" d="M42.58 4.87c9.782 5.635 9.834 14.776.116 20.41-9.719 5.635-25.534 5.635-35.317 0-9.78-5.634-9.832-14.774-.114-20.408C16.982-.764 32.799-.764 42.58 4.87" mask="url(#prefix__e)"/>
            <path fill="#FF595F" d="M19.952 9.376a3.417 3.417 0 01.254-.784c.09-.194.208-.356.33-.509.04-.05.078-.104.122-.15.145-.154.302-.292.479-.395l-2.603 1.51c-.179.104-.336.241-.481.394-.044.048-.081.1-.122.151-.052.067-.112.124-.16.197a2.876 2.876 0 00-.27.548 3.934 3.934 0 00-.134.454l-.02.094-.005.026-.018.093a3.518 3.518 0 00-.031.21 7.195 7.195 0 00-.023.209 5.206 5.206 0 00-.017.417v.012l2.604-1.51c.001-.339.033-.652.09-.942l.005-.025"/>
        </g>
        <g transform="translate(17.708 6.793)">
            <mask id="prefix__g" fill="#fff">
                <use xlink:href="#prefix__f"/>
            </mask>
            <path fill="#8A8B8E" d="M.618 2.184L3.223.674a2.3 2.3 0 01.38-.175L.999 2.009c-.133.047-.26.106-.38.175" mask="url(#prefix__g)"/>
            <mask id="prefix__i" fill="#fff">
                <use xlink:href="#prefix__h"/>
            </mask>
            <path fill="#8B8C8F" d="M.999 2.009L3.603.499c.105-.038.215-.067.328-.09l-2.604 1.51a2.465 2.465 0 00-.328.09" mask="url(#prefix__i)"/>
            <mask id="prefix__k" fill="#fff">
                <use xlink:href="#prefix__j"/>
            </mask>
            <path fill="#8B8D8F" d="M1.327 1.919L3.93.409c.088-.018.178-.031.27-.04L1.597 1.88a2.555 2.555 0 00-.27.04" mask="url(#prefix__k)"/>
            <mask id="prefix__m" fill="#fff">
                <use xlink:href="#prefix__l"/>
            </mask>
            <path fill="#8B8D8F" d="M1.597 1.88L4.2.37a3 3 0 01.243-.012L1.84 1.868c-.083 0-.164.004-.243.012" mask="url(#prefix__m)"/>
            <mask id="prefix__o" fill="#fff">
                <use xlink:href="#prefix__n"/>
            </mask>
            <path fill="#8C8D90" d="M1.84 1.869L4.444.358c.073 0 .146.003.22.007L2.06 1.876a2.52 2.52 0 00-.22-.007" mask="url(#prefix__o)"/>
            <g>
                <mask id="prefix__q" fill="#fff">
                    <use xlink:href="#prefix__p"/>
                </mask>
                <path fill="#8D8E91" d="M2.06 1.876L4.664.365c.069.006.138.012.209.021l-2.605 1.51a3.34 3.34 0 00-.208-.02" mask="url(#prefix__q)"/>
            </g>
            <g>
                <mask id="prefix__s" fill="#fff">
                    <use xlink:href="#prefix__r"/>
                </mask>
                <path fill="#8D8E91" d="M2.268 1.897L4.873.387c.067.01.135.02.205.033L2.473 1.93a3.356 3.356 0 00-.205-.033" mask="url(#prefix__s)"/>
            </g>
            <g>
                <mask id="prefix__u" fill="#fff">
                    <use xlink:href="#prefix__t"/>
                </mask>
                <path fill="#8E8F91" d="M2.472 1.93L5.077.42c.063.013.128.027.191.043l-2.604 1.51a2.975 2.975 0 00-.192-.042" mask="url(#prefix__u)"/>
            </g>
            <g>
                <mask id="prefix__w" fill="#fff">
                    <use xlink:href="#prefix__v"/>
                </mask>
                <path fill="#8E9092" d="M2.664 1.973L5.268.463c.065.016.129.034.194.053l-2.605 1.51a3.996 3.996 0 00-.193-.053" mask="url(#prefix__w)"/>
            </g>
            <g>
                <mask id="prefix__y" fill="#fff">
                    <use xlink:href="#prefix__x"/>
                </mask>
                <path fill="#8F9093" d="M2.857 2.026L5.462.516c.06.018.124.039.187.06l-2.605 1.51-.187-.06" mask="url(#prefix__y)"/>
            </g>
            <g>
                <mask id="prefix__A" fill="#fff">
                    <use xlink:href="#prefix__z"/>
                </mask>
                <path fill="#8F9093" d="M3.044 2.087L5.649.577c.061.021.125.045.188.07l-2.605 1.51a3.871 3.871 0 00-.188-.07" mask="url(#prefix__A)"/>
            </g>
            <g>
                <mask id="prefix__C" fill="#fff">
                    <use xlink:href="#prefix__B"/>
                </mask>
                <path fill="#909194" d="M3.232 2.158L5.837.648c.062.024.124.05.187.079l-2.605 1.51a4.465 4.465 0 00-.187-.08" mask="url(#prefix__C)"/>
            </g>
            <g>
                <mask id="prefix__E" fill="#fff">
                    <use xlink:href="#prefix__D"/>
                </mask>
                <path fill="#919294" d="M3.419 2.237L6.024.727c.061.027.126.057.188.089l-2.605 1.51a4.306 4.306 0 00-.188-.09" mask="url(#prefix__E)"/>
            </g>
            <g>
                <mask id="prefix__G" fill="#fff">
                    <use xlink:href="#prefix__F"/>
                </mask>
                <path fill="#919294" d="M3.607 2.325L6.212.815c.064.031.127.064.191.098l-2.605 1.51a4.634 4.634 0 00-.19-.098" mask="url(#prefix__G)"/>
            </g>
            <g>
                <mask id="prefix__I" fill="#fff">
                    <use xlink:href="#prefix__H"/>
                </mask>
                <use fill="#FF595F" xlink:href="#prefix__H"/>
                <path fill="#FF8A8F" d="M3.798 2.424L6.403.914l.148.082-2.604 1.51-.149-.082" mask="url(#prefix__I)"/>
            </g>
        </g>
        <g>
            <path fill="#FF595F" d="M10.756 5.382l.016.017c.275.293.539.61.785.943l.005.006c.242.33.467.676.675 1.031l.028.051c.203.354.389.717.551 1.086l.007.014a10.364 10.364 0 01.428 1.16 9.044 9.044 0 01.269 1.158c.06.384.092.763.091 1.133l2.604-1.51c0-.07 0-.14-.003-.21a4.55 4.55 0 00-.01-.224 6.301 6.301 0 00-.077-.688l-.001-.01-.001-.006a8.09 8.09 0 00-.144-.708 8.787 8.787 0 00-.066-.246c-.018-.067-.038-.132-.058-.197 0-.006-.003-.012-.004-.017l-.01-.034a7.29 7.29 0 00-.078-.241c-.026-.08-.055-.16-.083-.24a7.629 7.629 0 00-.087-.228l-.091-.227-.075-.175-.006-.014a9.888 9.888 0 00-.118-.26c-.04-.083-.079-.166-.12-.247a16.003 16.003 0 00-.145-.281c-.054-.1-.111-.2-.168-.298l-.028-.05-.035-.063a11.888 11.888 0 00-.641-.97l-.004-.005-.003-.003a11.552 11.552 0 00-.206-.272 14.469 14.469 0 00-.362-.434 7.365 7.365 0 00-.182-.2l-.033-.034c-.004-.006-.01-.012-.015-.016l-.143-.15a7.807 7.807 0 00-.611-.566c-.034-.03-.069-.056-.102-.084a.24.24 0 01-.023-.02c-.028-.02-.055-.045-.083-.065a7.956 7.956 0 00-.605-.43 4.267 4.267 0 00-.197-.12c-.015-.01-.03-.02-.045-.028L7.482.066l-2.604 1.51 4.07 2.344c.317.183.628.4.929.644l.023.02c.296.24.583.508.856.798" transform="translate(16.776 7.723)"/>
            <path fill="#E1484D" d="M8.947 3.92c2.58 1.487 4.673 5.103 4.665 8.06l-.295-.17c.008-2.772-1.951-6.16-4.37-7.553l-4.07-2.344C2.457.52.486 1.641.477 4.415l-.293-.169C.192 1.29 2.298.091 4.879 1.576L8.947 3.92z" transform="translate(16.776 7.723)"/>
        </g>
    </g>
</svg>
