<svg xmlns="http://www.w3.org/2000/svg" width="192" height="334" viewBox="0 0 192 334">
    <defs>
        <filter id="prefix__a" width="184.7%" height="141%" x="-42.3%" y="-20.5%" filterUnits="objectBoundingBox">
            <feOffset dy="2" in="SourceAlpha" result="shadowOffsetOuter1"/>
            <feGaussianBlur in="shadowOffsetOuter1" result="shadowBlurOuter1" stdDeviation="14"/>
            <feColorMatrix in="shadowBlurOuter1" result="shadowMatrixOuter1" values="0 0 0 0 0 0 0 0 0 0.309803922 0 0 0 0 0.321568627 0 0 0 0.2 0"/>
            <feMerge>
                <feMergeNode in="shadowMatrixOuter1"/>
                <feMergeNode in="SourceGraphic"/>
            </feMerge>
        </filter>
    </defs>
    <g fill="none" fill-rule="evenodd" filter="url(#prefix__a)" transform="translate(28 24)">
        <path fill="#BFE5E6" d="M68.242 0L0.567 39.32 68.668 78.639 136.295 39.32 136.295 39.319z"/>
        <path fill="#9ACED0" d="M68.668 78.639L68.431 156.049 68.762 156.239 136.106 117.108 136.295 39.494 136.295 39.32z"/>
        <path fill="#67B6B9" d="M68.762 156.238L68.431 156.049 68.431 160.019 68.762 160.208 136.059 121.078 136.106 117.108z"/>
        <path fill="#9ACED0" d="M68.762 160.208L68.431 160.019 68.1 282.703 135.728 243.431 136.059 121.078z"/>
        <path fill="#1B9195" d="M0.331 120.699L68.431 160.019 68.431 156.049 0.331 116.73z"/>
        <path fill="#80C2C4" d="M.331 116.73L68.431 156.049 68.667 78.639.567 39.32zM0 243.431L68.1 282.703 68.431 160.019.331 120.7z"/>
        <path fill="#0A6B6F" d="M75 130.104L78.166 128.261 78.166 131.947z"/>
        <path fill="#67B6B9" d="M80.671 113.28L80.718 110.303 84.074 108.365 84.074 111.295 84.027 131.427 84.027 134.357 80.671 136.342 80.671 133.412z"/>
        <path fill="#1B9195" d="M75 130.104L78.166 131.947 78.166 128.261 78.166 111.815 75 109.972 75.047 107.041 78.166 108.885 80.718 110.303 80.671 113.28 80.671 133.412 80.671 136.342 78.119 134.877 75 133.034z"/>
        <path fill="#BFE5E6" d="M78.166 108.885L75.047 107.042 78.403 105.104 81.569 106.9 84.074 108.365 80.718 110.303z"/>
        <path fill="#0A6B6F" d="M75 190.643L78.166 188.8 78.166 192.486z"/>
        <path fill="#67B6B9" d="M80.671 173.771L80.718 170.841 84.074 168.904 84.074 171.834 84.027 191.966 84.027 194.896 80.671 196.834 80.671 193.904z"/>
        <path fill="#1B9195" d="M75 190.643L78.166 192.486 78.166 188.8 78.166 172.354 75 170.51 75.047 167.581 78.166 169.424 80.718 170.841 80.671 173.771 80.671 193.903 80.671 196.834 78.119 195.416 75 193.573z"/>
        <path fill="#BFE5E6" d="M78.166 169.423L75.047 167.581 78.403 165.643 81.569 167.439 84.074 168.904 80.718 170.841z"/>
    </g>
</svg>
