<svg xmlns="http://www.w3.org/2000/svg" width="145.874" height="90.282" viewBox="0 0 145.874 90.282">
  <g id="kitchen-category-sink" transform="translate(0 -0.63)">
    <path id="패스_5068" data-name="패스 5068" d="M329.726,126.758l-.1,34.858,22.6-13.133.1-34.858Z" transform="translate(-206.452 -70.771)" fill="#cbe3f6" fill-rule="evenodd"/>
    <path id="패스_5069" data-name="패스 5069" d="M194.8,105.8l50.379,29.074.1-34.858L194.906,70.92Z" transform="translate(-122.011 -44.024)" fill="#b3dadb" fill-rule="evenodd"/>
    <path id="패스_5070" data-name="패스 5070" d="M50.313,13.763.27,42.854,23.021,55.986,73.064,26.9l50.379,29.091,22.6-13.133L95.681,13.763,72.913.63Z" transform="translate(-0.169)" fill="#80c2c4" fill-rule="evenodd"/>
    <path id="패스_5071" data-name="패스 5071" d="M60.851,100.174l-.1,34.875,50.043-29.091.1-34.858Z" transform="translate(-38.049 -44.137)" fill="#9aced0" fill-rule="evenodd"/>
    <path id="패스_5072" data-name="패스 5072" d="M0,148.483l22.751,13.133.1-34.858L.1,113.625Z" transform="translate(0 -70.771)" fill="#67b6b9" fill-rule="evenodd"/>
    <g id="그룹_4262" data-name="그룹 4262" transform="translate(25.963 13.46)">
      <path id="패스_5073" data-name="패스 5073" d="M171.021,19.213V17.783l-.639-.067a2.46,2.46,0,0,0-.219-.151l-15.47-8.929a2.763,2.763,0,0,0-2.791,0l-10.863,6.306-.925-.084V16.32a1.7,1.7,0,0,0,.858,1.665l15.47,8.929a2.763,2.763,0,0,0,2.791,0l10.913-6.339A1.715,1.715,0,0,0,171,19.246v-.034Z" transform="translate(-87.818 -5.407)" fill="#fbb9bb" fill-rule="evenodd"/>
      <path id="패스_5074" data-name="패스 5074" d="M151.946,4.766l-10.913,6.339a1.735,1.735,0,0,0,0,2.993l15.47,8.929a2.763,2.763,0,0,0,2.791,0l10.913-6.339a1.735,1.735,0,0,0,0-2.993l-15.47-8.929a2.763,2.763,0,0,0-2.791,0" transform="translate(-87.862 -2.983)" fill="#f9dbdc" fill-rule="evenodd"/>
      <path id="패스_5075" data-name="패스 5075" d="M172.837,17.416l-11.905-6.878a2.111,2.111,0,0,0-2.136,0l-8.391,4.876a1.333,1.333,0,0,0,0,2.3l1.967,1.127,5.146-2.993a2.111,2.111,0,0,1,2.136,0l9.938,5.734,3.245-1.883a1.325,1.325,0,0,0,0-2.287" transform="translate(-93.855 -6.654)" fill="#fbb9bb" fill-rule="evenodd"/>
      <path id="패스_5076" data-name="패스 5076" d="M161.881,16.384l-5.146,2.993,9.938,5.734a2.11,2.11,0,0,0,2.136,0l5.146-2.993-9.938-5.734a2.111,2.111,0,0,0-2.136,0m14.243-4.069-3.313,1.934L170.625,13l3.329-1.934Z" transform="translate(-98.234 -7.169)" fill="#ff8a8f" fill-rule="evenodd"/>
      <path id="패스_5077" data-name="패스 5077" d="M203.039,14.4v.757L199.71,17.09l.017-.757Z" transform="translate(-125.15 -9.254)" fill="#de7074" fill-rule="evenodd"/>
      <path id="패스_5078" data-name="패스 5078" d="M196.091,17.489l-.017.757L193.9,16.985v-.74Z" transform="translate(-121.515 -10.41)" fill="#ff7a7f" fill-rule="evenodd"/>
      <path id="패스_5079" data-name="패스 5079" d="M198.673,4.369l-1.026.605L196.6,4.369l1.026-.589Z" transform="translate(-123.206 -2.603)" fill="#a7bed5" fill-rule="evenodd"/>
      <path id="패스_5080" data-name="패스 5080" d="M200.393,5.355l-.017,4.254-1.026.589.017-4.237Z" transform="translate(-124.925 -3.589)" fill="#de7074" fill-rule="evenodd"/>
      <path id="패스_5081" data-name="패스 5081" d="M193.025,5.96l-.017,4.237-1.026-.589V5.355Zm-2.775.42V7.575l-1.026-.605V5.792Z" transform="translate(-118.583 -3.589)" fill="#ff7a7f" fill-rule="evenodd"/>
      <path id="패스_5082" data-name="패스 5082" d="M191.97,4.408l3.8-2.2V3.4l-3.8,2.2Z" transform="translate(-120.303 -1.616)" fill="#de7074" fill-rule="evenodd"/>
      <path id="패스_5083" data-name="패스 5083" d="M189.225,2.833l3.783-2.2,1.043.589-3.8,2.2Z" transform="translate(-118.583 -0.63)" fill="#ff8a8f" fill-rule="evenodd"/>
      <path id="패스_5084" data-name="패스 5084" d="M.264,76.838.18,104.314,21.519,91.9l.084-27.46ZM43.9,51.48l-19.1,11.1-.084,27.476,19.119-11.1Z" transform="translate(-0.18 -32.479)" fill="#b3dadb" fill-rule="evenodd"/>
      <path id="패스_5085" data-name="패스 5085" d="M137.767,53.665l-.067,27.51,19.086,11.014L156.718,64.6Zm42.644,24.541L158.568,65.595l.084,27.594,21.692,12.528Z" transform="translate(-86.312 -33.847)" fill="#cce7e8" fill-rule="evenodd"/>
      <path id="패스_5086" data-name="패스 5086" d="M51.245,129.394a.213.213,0,0,1,.017-.1v-.185a.239.239,0,0,1,.034-.1v-.017c.017-.034.017-.067.034-.1s.017-.067.034-.084a.016.016,0,0,1,.017-.017c.017-.034.017-.05.034-.067V128.7c.017-.034.017-.05.034-.084a.016.016,0,0,1,.017-.017c.017-.017.017-.05.034-.067a.016.016,0,0,1,.017-.017c.017-.034.034-.05.05-.084a.016.016,0,0,1,.017-.017.127.127,0,0,0,.034-.067.016.016,0,0,1,.017-.017c.017-.034.034-.05.05-.084l.017-.017a.291.291,0,0,1,.067-.084v-.017c.034-.034.05-.067.084-.1l.017-.017.05-.05.05-.05.017-.017.067-.067c.034-.017.05-.05.084-.067a.016.016,0,0,0,.017-.017c.034-.017.05-.034.084-.05a.016.016,0,0,0,.017-.017c.034-.017.05-.034.084-.05a.127.127,0,0,1,.067-.034.016.016,0,0,0,.017-.017c.017,0,.034-.017.05-.017h.017c.017,0,.034-.017.05-.017h.017c.017,0,.034-.017.05-.017h.05a.062.062,0,0,0,.05-.017h.252a.062.062,0,0,1,.05.017c.017,0,.034.017.05.017h.017a.059.059,0,0,1,.034.017h.017l-1.362-.79a.059.059,0,0,1-.034-.017c-.017,0-.034-.017-.05-.017s-.034-.017-.05-.017h-.219a.062.062,0,0,0-.05.017h-.05c-.017,0-.034.017-.05.017h-.017c-.017,0-.034.017-.05.017h-.017c-.017,0-.034.017-.05.017a.016.016,0,0,0-.017.017c-.017.017-.05.017-.067.034-.034.017-.05.034-.084.05a.016.016,0,0,0-.017.017c-.034.017-.05.034-.084.05a.016.016,0,0,0-.017.017c-.034.017-.05.05-.084.067l-.067.067-.05.05-.05.05c-.034.034-.05.067-.084.1a.3.3,0,0,1-.067.084c-.017.034-.034.05-.05.084v.017a.127.127,0,0,0-.034.067v.017c-.017.034-.034.05-.05.084v.017c-.017.017-.017.05-.034.067v.017c-.017.034-.034.05-.034.084v.017c-.017.017-.017.05-.034.067v.034c-.017.034-.017.067-.034.084-.017.034-.017.067-.034.1v.017c-.017.034-.017.067-.034.1v.185a.213.213,0,0,1-.017.1v.118a.744.744,0,0,0,.319.689l1.362.79a.744.744,0,0,1-.319-.689v-.1l-.2.034Z" transform="translate(-31.437 -79.603)" fill="#4da9ad" fill-rule="evenodd"/>
      <path id="패스_5087" data-name="패스 5087" d="M54.266,128.953c.589-.336,1.076-.067,1.076.622a2.41,2.41,0,0,1-1.076,1.866c-.589.336-1.076.067-1.076-.622a2.339,2.339,0,0,1,1.076-1.867" transform="translate(-33.381 -80.911)" fill="#1b9195" fill-rule="evenodd"/>
      <path id="패스_5088" data-name="패스 5088" d="M69.83,118.369a.213.213,0,0,1,.017-.1v-.185a.239.239,0,0,1,.034-.1v-.017c.017-.034.017-.067.034-.1s.017-.067.034-.084a.016.016,0,0,1,.017-.017c.017-.034.017-.05.034-.067v-.017c.017-.034.017-.05.034-.084a.016.016,0,0,1,.017-.017c.017-.017.017-.05.034-.067a.016.016,0,0,1,.017-.017c.017-.034.034-.05.05-.084a.016.016,0,0,1,.017-.017.127.127,0,0,0,.034-.067.016.016,0,0,1,.017-.017c.017-.034.034-.05.05-.084l.017-.017a.291.291,0,0,1,.067-.084v-.017c.034-.034.05-.067.084-.1l.017-.017.05-.05.05-.05.017-.017.067-.067c.034-.017.05-.05.084-.067a.016.016,0,0,0,.017-.017c.034-.017.05-.034.084-.05a.016.016,0,0,0,.017-.017c.034-.017.05-.034.084-.05a.127.127,0,0,1,.067-.034.016.016,0,0,0,.017-.017c.017,0,.034-.017.05-.017h.017c.017,0,.034-.017.05-.017h.017c.017,0,.034-.017.05-.017h.05a.062.062,0,0,0,.05-.017h.252a.062.062,0,0,1,.05.017c.017,0,.034.017.05.017h.017a.059.059,0,0,1,.034.017h.017l-1.362-.79a.059.059,0,0,1-.034-.017c-.017,0-.034-.017-.05-.017s-.034-.017-.05-.017H70a.062.062,0,0,0-.05.017H69.9c-.017,0-.034.017-.05.017H69.83c-.017,0-.034.017-.05.017h-.017c-.017,0-.034.017-.05.017a.016.016,0,0,0-.017.017c-.017.017-.05.017-.067.034-.034.017-.05.034-.084.05a.016.016,0,0,0-.017.017c-.034.017-.05.034-.084.05a.016.016,0,0,0-.017.017c-.034.017-.05.05-.084.067l-.067.067-.05.05-.05.05c-.034.034-.05.067-.084.1a.3.3,0,0,1-.067.084c-.017.034-.034.05-.05.084v.017a.127.127,0,0,0-.034.067v.017c-.017.034-.034.05-.05.084v.017c-.017.017-.017.05-.034.067v.017c-.017.034-.034.05-.034.084v.017c-.017.017-.017.05-.034.067v.034c-.017.034-.017.067-.034.084-.017.034-.017.067-.034.1v.017c-.017.034-.017.067-.034.1v.185a.213.213,0,0,1-.017.1v.118a.744.744,0,0,0,.319.689l1.362.79a.744.744,0,0,1-.319-.689v-.1l-.2.034Z" transform="translate(-43.077 -72.698)" fill="#4da9ad" fill-rule="evenodd"/>
      <path id="패스_5089" data-name="패스 5089" d="M72.806,117.928c.589-.336,1.076-.067,1.076.622a2.41,2.41,0,0,1-1.076,1.867c-.589.336-1.076.067-1.076-.622a2.383,2.383,0,0,1,1.076-1.867" transform="translate(-44.993 -74.006)" fill="#1b9195" fill-rule="evenodd"/>
      <path id="패스_5090" data-name="패스 5090" d="M194.708,129.394a.214.214,0,0,0-.017-.1v-.185a.239.239,0,0,0-.034-.1v-.017c-.017-.034-.017-.067-.034-.1s-.017-.067-.034-.084a.016.016,0,0,0-.017-.017c-.017-.034-.017-.05-.034-.067V128.7c-.017-.034-.017-.05-.034-.084a.016.016,0,0,0-.017-.017c-.017-.017-.017-.05-.034-.067a.016.016,0,0,0-.017-.017c-.017-.034-.034-.05-.05-.084a.016.016,0,0,0-.017-.017.126.126,0,0,1-.034-.067.016.016,0,0,0-.017-.017c-.017-.034-.034-.05-.05-.084l-.017-.017a.289.289,0,0,0-.067-.084v-.017c-.034-.034-.05-.067-.084-.1l-.017-.017-.05-.05-.05-.05-.017-.017-.067-.067c-.034-.017-.05-.05-.084-.067a.016.016,0,0,1-.017-.017c-.034-.017-.05-.034-.084-.05a.016.016,0,0,1-.017-.017c-.034-.017-.05-.034-.084-.05a.128.128,0,0,0-.067-.034.016.016,0,0,1-.017-.017c-.017,0-.034-.017-.05-.017h-.017c-.017,0-.034-.017-.05-.017H193.4c-.017,0-.034-.017-.05-.017h-.05a.062.062,0,0,1-.05-.017h-.252a.062.062,0,0,0-.05.017c-.017,0-.034.017-.05.017h-.017a.059.059,0,0,0-.034.017h-.017l1.362-.79a.059.059,0,0,0,.034-.017c.017,0,.034-.017.05-.017s.034-.017.05-.017h.219a.062.062,0,0,1,.05.017h.05c.017,0,.034.017.05.017h.017c.017,0,.034.017.05.017h.017c.017,0,.034.017.05.017a.016.016,0,0,1,.017.017c.017.017.05.017.067.034.034.017.05.034.084.05a.016.016,0,0,1,.017.017c.034.017.05.034.084.05a.016.016,0,0,1,.017.017c.034.017.05.05.084.067l.067.067.05.05.05.05c.034.034.05.067.084.1a.3.3,0,0,0,.067.084c.017.034.034.05.05.084v.017a.127.127,0,0,1,.034.067v.017c.017.034.034.05.05.084v.017c.017.017.017.05.034.067v.017c.017.034.034.05.034.084v.017c.017.017.017.05.034.067v.034c.017.034.017.067.034.084.017.034.017.067.034.1v.017c.017.034.017.067.034.1v.185a.213.213,0,0,0,.017.1v.118a.744.744,0,0,1-.32.689l-1.362.79a.744.744,0,0,0,.319-.689v-.1l.2.034Z" transform="translate(-120.838 -79.603)" fill="#4da9ad" fill-rule="evenodd"/>
      <path id="패스_5091" data-name="패스 5091" d="M193.181,128.953c-.589-.336-1.076-.067-1.076.622a2.41,2.41,0,0,0,1.076,1.866c.589.336,1.076.067,1.076-.622a2.383,2.383,0,0,0-1.076-1.867" transform="translate(-120.387 -80.911)" fill="#1b9195" fill-rule="evenodd"/>
      <path id="패스_5092" data-name="패스 5092" d="M176.123,118.369a.213.213,0,0,0-.017-.1v-.185a.239.239,0,0,0-.034-.1v-.017c-.017-.034-.017-.067-.034-.1s-.017-.067-.034-.084a.016.016,0,0,0-.017-.017c-.017-.034-.017-.05-.034-.067v-.017c-.017-.034-.017-.05-.034-.084a.016.016,0,0,0-.017-.017c-.017-.017-.017-.05-.034-.067a.016.016,0,0,0-.017-.017c-.017-.034-.034-.05-.05-.084a.016.016,0,0,0-.017-.017.127.127,0,0,1-.034-.067.016.016,0,0,0-.017-.017c-.017-.034-.034-.05-.05-.084l-.017-.017a.288.288,0,0,0-.067-.084v-.017c-.034-.034-.05-.067-.084-.1l-.017-.017-.05-.05-.05-.05-.017-.017-.067-.067c-.034-.017-.05-.05-.084-.067a.016.016,0,0,1-.017-.017c-.034-.017-.05-.034-.084-.05a.016.016,0,0,1-.017-.017c-.034-.017-.05-.034-.084-.05a.127.127,0,0,0-.067-.034.016.016,0,0,1-.017-.017c-.017,0-.034-.017-.05-.017h-.017c-.017,0-.034-.017-.05-.017h-.017c-.017,0-.034-.017-.05-.017h-.05a.062.062,0,0,1-.05-.017h-.252a.062.062,0,0,0-.05.017c-.017,0-.034.017-.05.017h-.017a.059.059,0,0,0-.034.017h-.017l1.362-.79a.059.059,0,0,0,.034-.017c.017,0,.034-.017.05-.017s.034-.017.05-.017h.219a.062.062,0,0,1,.05.017h.05c.017,0,.034.017.05.017h.017c.017,0,.034.017.05.017h.017c.017,0,.034.017.05.017a.016.016,0,0,1,.017.017c.017.017.05.017.067.034.034.017.05.034.084.05a.016.016,0,0,1,.017.017c.034.017.05.034.084.05a.016.016,0,0,1,.017.017c.034.017.05.05.084.067l.118.118.05.05c.034.034.05.067.084.1a.3.3,0,0,0,.067.084c.017.034.034.05.05.084v.017a.128.128,0,0,1,.034.067v.017c.017.034.034.05.05.084v.017c.017.017.017.05.034.067v.017c.017.034.034.05.034.084v.017c.017.017.017.05.034.067v.034c.017.034.017.067.034.084.017.034.017.067.034.1v.017c.017.034.017.067.034.1v.185a.213.213,0,0,0,.017.1v.118a.744.744,0,0,1-.319.689l-1.143.824a.744.744,0,0,0,.319-.689v-.1h-.017Z" transform="translate(-109.198 -72.698)" fill="#4da9ad" fill-rule="evenodd"/>
      <path id="패스_5093" data-name="패스 5093" d="M174.6,117.928c-.589-.336-1.076-.067-1.076.622a2.41,2.41,0,0,0,1.076,1.867c.589.336,1.076.067,1.076-.622a2.339,2.339,0,0,0-1.076-1.867" transform="translate(-108.747 -74.006)" fill="#1b9195" fill-rule="evenodd"/>
    </g>
  </g>
</svg>
