<svg xmlns="http://www.w3.org/2000/svg" width="1060" height="945" viewBox="0 0 1060 945">
    <defs>
        <filter id="prefix__a" width="112.4%" height="113.9%" x="-6.2%" y="-7%" filterUnits="objectBoundingBox">
            <feOffset dy="2" in="SourceAlpha" result="shadowOffsetOuter1"/>
            <feGaussianBlur in="shadowOffsetOuter1" result="shadowBlurOuter1" stdDeviation="15"/>
            <feColorMatrix in="shadowBlurOuter1" result="shadowMatrixOuter1" values="0 0 0 0 0 0 0 0 0 0.309803922 0 0 0 0 0.321568627 0 0 0 0.2 0"/>
            <feMerge>
                <feMergeNode in="shadowMatrixOuter1"/>
                <feMergeNode in="SourceGraphic"/>
            </feMerge>
        </filter>
        <filter id="prefix__b" width="229.6%" height="207.6%" x="-64.8%" y="-53.8%" filterUnits="objectBoundingBox">
            <feOffset dy="2" in="SourceAlpha" result="shadowOffsetOuter1"/>
            <feGaussianBlur in="shadowOffsetOuter1" result="shadowBlurOuter1" stdDeviation="15.5"/>
            <feColorMatrix in="shadowBlurOuter1" result="shadowMatrixOuter1" values="0 0 0 0 0 0 0 0 0 0.309803922 0 0 0 0 0.321568627 0 0 0 0.2 0"/>
            <feMerge>
                <feMergeNode in="shadowMatrixOuter1"/>
                <feMergeNode in="SourceGraphic"/>
            </feMerge>
        </filter>
    </defs>
    <g fill="none" fill-rule="evenodd" filter="url(#prefix__a)" transform="translate(30 26)">
        <path fill="#E6F3F4" d="M0 254.591L499.878 0 999.756 254.325 999.756 635.067 499.878 889.501 0 635.067z" transform="matrix(1 0 0 -1 0 889.5)"/>
        <path fill="#E6F3F4" d="M0 256.125L33.89 264.578 33.89 619.602 0 611.15z"/>
        <g>
            <path fill="#E6F3F4" d="M0 264.578L25.418 264.578 25.418 617.826 0 611.146z"/>
            <path fill="#9ACED0" d="M25.418 262.44L33.89 264.578 33.89 627.518 25.418 623.209z"/>
            <path fill="#B3DADB" d="M33.89 272.186L499.878 33.812 499.878 381.229 33.89 627.518z"/>
            <path fill="#E6F3F4" d="M0 255.859L499.878 0 499.878 33.812 0 289.671z"/>
            <path fill="#9ACED0" d="M25.418 268.316L499.878 25.359 499.878 33.812 25.418 276.769z"/>
        </g>
        <g>
            <path fill="#E6F3F4" d="M0 256.125L33.89 264.578 33.89 619.602 0 611.15z" transform="matrix(-1 0 0 1 999.756 0)"/>
            <g>
                <path fill="#E6F3F4" d="M0 264.578L25.418 264.578 25.418 617.826 0 611.146z" transform="matrix(-1 0 0 1 999.756 0)"/>
                <path fill="#B3DADB" d="M25.418 262.44L33.89 264.578 33.89 627.518 25.418 623.209z" transform="matrix(-1 0 0 1 999.756 0)"/>
                <path fill="#CCE7E8" d="M33.89 272.186L499.878 33.812 499.878 381.229 33.89 627.518z" transform="matrix(-1 0 0 1 999.756 0)"/>
                <g filter="url(#prefix__b)" transform="matrix(-1 0 0 1 999.756 0) matrix(-1 0 0 1 282.756 256)">
                    <path fill="#B3DADB" d="M97.7 88.8L97.65 94.9 59.25 117.25 59.25 111.15zM59.25 111.15L59.25 117.25 0 83.05.05 76.95z"/>
                    <path fill="#E6F3F4" d="M78.45 15.75L60.75 26.05 33.4 10.3 51.15 0z"/>
                    <path fill="#B3DADB" d="M78.45 15.75L78.4 44.3 60.65 54.6 60.75 26.05z"/>
                    <path fill="#B3DADB" d="M60.75 26.05L60.65 54.6 33.35 38.85 33.4 10.3z"/>
                    <path fill="#CCE7E8" d="M0.05 76.95L33.35 38.85 60.65 54.6 59.25 111.15z"/>
                    <path fill="#B3DADB" d="M60.65 54.6L78.4 44.3 97.7 88.8 59.25 111.15z"/>
                </g>
                <path fill="#E6F3F4" d="M0 255.859L499.878 0 499.878 33.812 0 289.671z" transform="matrix(-1 0 0 1 999.756 0)"/>
                <path fill="#B3DADB" d="M25.418 268.316L499.878 25.359 499.878 33.812 25.418 276.769z" transform="matrix(-1 0 0 1 999.756 0)"/>
            </g>
        </g>
    </g>
</svg>
