<svg xmlns="http://www.w3.org/2000/svg" width="50" height="50" viewBox="0 0 50 50">
    <path fill="#FF595F" fill-rule="evenodd" d="M25.673 36.843c4.872.22 9.055-1.388 12.771-4.15 1.558-1.158 1.545-1.49.22-2.822-.458-.46-.993-.854-1.46-1.305-.756-.731-1.47-.681-2.297-.06-1.974 1.48-4.165 2.527-6.72 2.942-4.304.697-8.153-.163-11.544-2.685-1.445-1.075-1.696-1.107-2.983.07-.397.362-.796.723-1.185 1.093-1.17 1.114-1.126 1.725.194 2.706 3.794 2.82 8.057 4.416 13.004 4.21m-.636 10.2c-5.513 0-11.025.006-16.538 0-3.201-.005-4.493-1.266-4.495-4.38-.005-5.875-.006-11.75 0-17.623.003-2.35.748-4.39 2.59-6.014 4.68-4.128 9.33-8.289 14.003-12.424.896-.793 1.78-1.629 2.789-2.265 1.365-.86 2.57-.724 3.787.32a837.167 837.167 0 0 1 9.052 7.879c2.369 2.09 4.664 4.262 7.058 6.324 1.905 1.64 2.704 3.683 2.706 6.086.006 6.032.025 12.064-.007 18.096-.014 2.646-1.46 3.995-4.164 4-5.594.007-11.187.002-16.78.002"/>
</svg>
